0
SECTION
2
HEADER
9
$ACADVER
1
AC1009
9
$INSUNITS
70
6
0
ENDSEC
0
SECTION
2
ENTITIES
0
POLYLINE
8
LOTS
66
1
70
1
0
VERTEX
8
LOTS
10
-1735.1627
20
-3.8546
30
0.0
0
VERTEX
8
LOTS
10
-1709.8716
20
88.9624
30
0.0
0
VERTEX
8
LOTS
10
-1668.1396
20
73.6669
30
0.0
0
VERTEX
8
LOTS
10
-1685.3505
20
-1.9428
30
0.0
0
SEQEND
0
TEXT
8
LABELS
10
-1699.6311
20
39.2080
30
0.0
40
3.000
1
1
72
1
11
-1699.6311
21
39.2080
31
0.0
0
POLYLINE
8
LOTS
66
1
70
1
0
VERTEX
8
LOTS
10
-1672.4203
20
-1.8225
30
0.0
0
VERTEX
8
LOTS
10
-1685.3505
20
-1.9428
30
0.0
0
VERTEX
8
LOTS
10
-1668.1396
20
73.6669
30
0.0
0
VERTEX
8
LOTS
10
-1627.0890
20
52.3546
30
0.0
0
VERTEX
8
LOTS
10
-1638.0320
20
-1.5029
30
0.0
0
SEQEND
0
TEXT
8
LABELS
10
-1658.2063
20
24.1507
30
0.0
40
3.000
1
2
72
1
11
-1658.2063
21
24.1507
31
0.0
0
POLYLINE
8
LOTS
66
1
70
1
0
VERTEX
8
LOTS
10
-1611.0570
20
-2.1531
30
0.0
0
VERTEX
8
LOTS
10
-1638.0320
20
-1.5029
30
0.0
0
VERTEX
8
LOTS
10
-1627.0890
20
52.3546
30
0.0
0
VERTEX
8
LOTS
10
-1578.9746
20
32.9166
30
0.0
0
VERTEX
8
LOTS
10
-1549.5087
20
26.1275
30
0.0
0
VERTEX
8
LOTS
10
-1552.6534
20
8.5807
30
0.0
0
SEQEND
0
TEXT
8
LABELS
10
-1592.8858
20
19.3873
30
0.0
40
3.000
1
3
72
1
11
-1592.8858
21
19.3873
31
0.0
0
POLYLINE
8
LOTS
66
1
70
1
0
VERTEX
8
LOTS
10
-1218.6122
20
-108.7243
30
0.0
0
VERTEX
8
LOTS
10
-1212.1836
20
-93.7129
30
0.0
0
VERTEX
8
LOTS
10
-1209.7679
20
-93.9156
30
0.0
0
VERTEX
8
LOTS
10
-1141.1024
20
-99.6786
30
0.0
0
VERTEX
8
LOTS
10
-1133.0113
20
-100.1346
30
0.0
0
VERTEX
8
LOTS
10
-1127.5217
20
-100.4440
30
0.0
0
VERTEX
8
LOTS
10
-1110.9179
20
-101.3798
30
0.0
0
VERTEX
8
LOTS
10
-1126.6435
20
-144.2261
30
0.0
0
SEQEND
0
TEXT
8
LABELS
10
-1159.9701
20
-105.2770
30
0.0
40
3.000
1
4
72
1
11
-1159.9701
21
-105.2770
31
0.0
0
POLYLINE
8
LOTS
66
1
70
1
0
VERTEX
8
LOTS
10
-1110.2073
20
-101.4199
30
0.0
0
VERTEX
8
LOTS
10
-1066.9519
20
-103.9864
30
0.0
0
VERTEX
8
LOTS
10
-1069.2334
20
-125.2857
30
0.0
0
VERTEX
8
LOTS
10
-1073.4349
20
-163.1337
30
0.0
0
VERTEX
8
LOTS
10
-1126.6435
20
-144.2261
30
0.0
0
VERTEX
8
LOTS
10
-1110.9180
20
-101.3799
30
0.0
0
SEQEND
0
TEXT
8
LABELS
10
-1092.8982
20
-123.2386
30
0.0
40
3.000
1
5
72
1
11
-1092.8982
21
-123.2386
31
0.0
0
POLYLINE
8
LOTS
66
1
70
1
0
VERTEX
8
LOTS
10
-1073.4349
20
-163.1337
30
0.0
0
VERTEX
8
LOTS
10
-1069.2334
20
-125.2857
30
0.0
0
VERTEX
8
LOTS
10
-1066.9519
20
-103.9864
30
0.0
0
VERTEX
8
LOTS
10
-1001.2759
20
-109.9995
30
0.0
0
VERTEX
8
LOTS
10
-1010.2418
20
-186.9936
30
0.0
0
SEQEND
0
TEXT
8
LABELS
10
-1044.2276
20
-137.8798
30
0.0
40
3.000
1
6
72
1
11
-1044.2276
21
-137.8798
31
0.0
0
POLYLINE
8
LOTS
66
1
70
1
0
VERTEX
8
LOTS
10
-1010.2326
20
-186.9136
30
0.0
0
VERTEX
8
LOTS
10
-1001.2759
20
-109.9995
30
0.0
0
VERTEX
8
LOTS
10
-972.2943
20
-115.9337
30
0.0
0
VERTEX
8
LOTS
10
-989.2538
20
-193.7349
30
0.0
0
SEQEND
0
TEXT
8
LABELS
10
-993.2641
20
-151.6454
30
0.0
40
3.000
1
7
72
1
11
-993.2641
21
-151.6454
31
0.0
0
POLYLINE
8
LOTS
66
1
70
1
0
VERTEX
8
LOTS
10
-989.2539
20
-193.7349
30
0.0
0
VERTEX
8
LOTS
10
-972.2943
20
-115.9337
30
0.0
0
VERTEX
8
LOTS
10
-940.9387
20
-124.4109
30
0.0
0
VERTEX
8
LOTS
10
-962.0585
20
-204.6830
30
0.0
0
SEQEND
0
TEXT
8
LABELS
10
-966.1364
20
-159.6906
30
0.0
40
3.000
1
8
72
1
11
-966.1364
21
-159.6906
31
0.0
0
POLYLINE
8
LOTS
66
1
70
1
0
VERTEX
8
LOTS
10
-962.0585
20
-204.6830
30
0.0
0
VERTEX
8
LOTS
10
-940.9387
20
-124.4109
30
0.0
0
VERTEX
8
LOTS
10
-911.7881
20
-144.4873
30
0.0
0
VERTEX
8
LOTS
10
-933.9126
20
-215.6117
30
0.0
0
SEQEND
0
TEXT
8
LABELS
10
-937.1745
20
-172.2982
30
0.0
40
3.000
1
9
72
1
11
-937.1745
21
-172.2982
31
0.0
0
POLYLINE
8
LOTS
66
1
70
1
0
VERTEX
8
LOTS
10
-933.9126
20
-215.6117
30
0.0
0
VERTEX
8
LOTS
10
-914.4549
20
-153.0605
30
0.0
0
VERTEX
8
LOTS
10
-911.7881
20
-144.4873
30
0.0
0
VERTEX
8
LOTS
10
-861.8420
20
-180.2137
30
0.0
0
VERTEX
8
LOTS
10
-862.4172
20
-180.9578
30
0.0
0
VERTEX
8
LOTS
10
-865.8604
20
-185.4123
30
0.0
0
VERTEX
8
LOTS
10
-875.4837
20
-197.8625
30
0.0
0
VERTEX
8
LOTS
10
-883.0762
20
-232.0399
30
0.0
0
SEQEND
0
TEXT
8
LABELS
10
-888.6044
20
-186.2057
30
0.0
40
3.000
1
10
72
1
11
-888.6044
21
-186.2057
31
0.0
0
POLYLINE
8
LOTS
66
1
70
1
0
VERTEX
8
LOTS
10
-873.2996
20
-236.7136
30
0.0
0
VERTEX
8
LOTS
10
-865.6812
20
-202.4199
30
0.0
0
VERTEX
8
LOTS
10
-852.0252
20
-184.7527
30
0.0
0
VERTEX
8
LOTS
10
-816.4118
20
-201.2198
30
0.0
0
VERTEX
8
LOTS
10
-833.9780
20
-255.5116
30
0.0
0
SEQEND
0
TEXT
8
LABELS
10
-848.2792
20
-216.1235
30
0.0
40
3.000
1
11
72
1
11
-848.2792
21
-216.1235
31
0.0
0
POLYLINE
8
LOTS
66
1
70
1
0
VERTEX
8
LOTS
10
-833.9780
20
-255.5116
30
0.0
0
VERTEX
8
LOTS
10
-816.4118
20
-201.2198
30
0.0
0
VERTEX
8
LOTS
10
-815.0007
20
-201.8722
30
0.0
0
VERTEX
8
LOTS
10
-805.4066
20
-206.5620
30
0.0
0
VERTEX
8
LOTS
10
-805.1083
20
-206.7078
30
0.0
0
VERTEX
8
LOTS
10
-800.9767
20
-208.7275
30
0.0
0
VERTEX
8
LOTS
10
-798.9782
20
-209.7155
30
0.0
0
VERTEX
8
LOTS
10
-791.9569
20
-213.1868
30
0.0
0
VERTEX
8
LOTS
10
-773.8194
20
-220.5724
30
0.0
0
VERTEX
8
LOTS
10
-790.5469
20
-270.0316
30
0.0
0
SEQEND
0
TEXT
8
LABELS
10
-803.2183
20
-219.4107
30
0.0
40
3.000
1
12
72
1
11
-803.2183
21
-219.4107
31
0.0
0
POLYLINE
8
LOTS
66
1
70
1
0
VERTEX
8
LOTS
10
-765.2593
20
-224.0580
30
0.0
0
VERTEX
8
LOTS
10
-764.4871
20
-224.3724
30
0.0
0
VERTEX
8
LOTS
10
-736.7711
20
-233.7976
30
0.0
0
VERTEX
8
LOTS
10
-754.5200
20
-282.3994
30
0.0
0
VERTEX
8
LOTS
10
-790.5469
20
-270.0316
30
0.0
0
VERTEX
8
LOTS
10
-773.8194
20
-220.5724
30
0.0
0
VERTEX
8
LOTS
10
-770.7295
20
-221.8306
30
0.0
0
VERTEX
8
LOTS
10
-768.8508
20
-222.5956
30
0.0
0
SEQEND
0
TEXT
8
LABELS
10
-765.6230
20
-237.4572
30
0.0
40
3.000
1
13
72
1
11
-765.6230
21
-237.4572
31
0.0
0
POLYLINE
8
LOTS
66
1
70
1
0
VERTEX
8
LOTS
10
-754.5200
20
-282.3994
30
0.0
0
VERTEX
8
LOTS
10
-736.7711
20
-233.7976
30
0.0
0
VERTEX
8
LOTS
10
-700.8137
20
-241.0124
30
0.0
0
VERTEX
8
LOTS
10
-696.7522
20
-303.4814
30
0.0
0
SEQEND
0
TEXT
8
LABELS
10
-722.2142
20
-265.1727
30
0.0
40
3.000
1
14
72
1
11
-722.2142
21
-265.1727
31
0.0
0
POLYLINE
8
LOTS
66
1
70
1
0
VERTEX
8
LOTS
10
-700.8137
20
-241.0124
30
0.0
0
VERTEX
8
LOTS
10
-659.7268
20
-243.0383
30
0.0
0
VERTEX
8
LOTS
10
-658.8031
20
-318.5267
30
0.0
0
VERTEX
8
LOTS
10
-696.7522
20
-303.4814
30
0.0
0
SEQEND
0
TEXT
8
LABELS
10
-679.0239
20
-276.5147
30
0.0
40
3.000
1
15
72
1
11
-679.0239
21
-276.5147
31
0.0
0
POLYLINE
8
LOTS
66
1
70
1
0
VERTEX
8
LOTS
10
-659.7268
20
-243.0383
30
0.0
0
VERTEX
8
LOTS
10
-629.6426
20
-243.5912
30
0.0
0
VERTEX
8
LOTS
10
-626.2414
20
-328.7986
30
0.0
0
VERTEX
8
LOTS
10
-658.8031
20
-318.5267
30
0.0
0
SEQEND
0
TEXT
8
LABELS
10
-643.6035
20
-283.4887
30
0.0
40
3.000
1
16
72
1
11
-643.6035
21
-283.4887
31
0.0
0
POLYLINE
8
LOTS
66
1
70
1
0
VERTEX
8
LOTS
10
-629.6426
20
-243.5912
30
0.0
0
VERTEX
8
LOTS
10
-596.1075
20
-241.2561
30
0.0
0
VERTEX
8
LOTS
10
-594.1933
20
-340.0057
30
0.0
0
VERTEX
8
LOTS
10
-626.2414
20
-328.7986
30
0.0
0
VERTEX
8
LOTS
10
-627.8307
20
-288.9814
30
0.0
0
VERTEX
8
LOTS
10
-628.4283
20
-274.0110
30
0.0
0
SEQEND
0
TEXT
8
LABELS
10
-617.0740
20
-286.1073
30
0.0
40
3.000
1
17
72
1
11
-617.0740
21
-286.1073
31
0.0
0
POLYLINE
8
LOTS
66
1
70
1
0
VERTEX
8
LOTS
10
-596.1074
20
-241.2561
30
0.0
0
VERTEX
8
LOTS
10
-582.7364
20
-239.9099
30
0.0
0
VERTEX
8
LOTS
10
-560.7436
20
-237.2553
30
0.0
0
VERTEX
8
LOTS
10
-560.7193
20
-237.9011
30
0.0
0
VERTEX
8
LOTS
10
-560.6957
20
-238.5253
30
0.0
0
VERTEX
8
LOTS
10
-560.6662
20
-239.3056
30
0.0
0
VERTEX
8
LOTS
10
-560.5811
20
-241.5607
30
0.0
0
VERTEX
8
LOTS
10
-557.1920
20
-331.3910
30
0.0
0
VERTEX
8
LOTS
10
-594.1933
20
-340.0057
30
0.0
0
VERTEX
8
LOTS
10
-596.0502
20
-244.2052
30
0.0
0
SEQEND
0
TEXT
8
LABELS
10
-572.9685
20
-259.1316
30
0.0
40
3.000
1
18
72
1
11
-572.9685
21
-259.1316
31
0.0
0
POLYLINE
8
LOTS
66
1
70
1
0
VERTEX
8
LOTS
10
-560.7436
20
-237.2553
30
0.0
0
VERTEX
8
LOTS
10
-526.1850
20
-233.8653
30
0.0
0
VERTEX
8
LOTS
10
-525.4397
20
-319.5787
30
0.0
0
VERTEX
8
LOTS
10
-557.1920
20
-331.3910
30
0.0
0
SEQEND
0
TEXT
8
LABELS
10
-542.3901
20
-280.5226
30
0.0
40
3.000
1
19
72
1
11
-542.3901
21
-280.5226
31
0.0
0
POLYLINE
8
LOTS
66
1
70
1
0
VERTEX
8
LOTS
10
-526.1850
20
-233.8653
30
0.0
0
VERTEX
8
LOTS
10
-489.8496
20
-232.0324
30
0.0
0
VERTEX
8
LOTS
10
-485.6251
20
-303.6609
30
0.0
0
VERTEX
8
LOTS
10
-525.4397
20
-319.5787
30
0.0
0
SEQEND
0
TEXT
8
LABELS
10
-506.7749
20
-272.2843
30
0.0
40
3.000
1
20
72
1
11
-506.7749
21
-272.2843
31
0.0
0
POLYLINE
8
LOTS
66
1
70
1
0
VERTEX
8
LOTS
10
-489.8496
20
-232.0324
30
0.0
0
VERTEX
8
LOTS
10
-461.9002
20
-224.5550
30
0.0
0
VERTEX
8
LOTS
10
-455.0164
20
-293.5979
30
0.0
0
VERTEX
8
LOTS
10
-485.6251
20
-303.6609
30
0.0
0
SEQEND
0
TEXT
8
LABELS
10
-473.0979
20
-263.4616
30
0.0
40
3.000
1
21
72
1
11
-473.0979
21
-263.4616
31
0.0
0
POLYLINE
8
LOTS
66
1
70
1
0
VERTEX
8
LOTS
10
-461.9002
20
-224.5550
30
0.0
0
VERTEX
8
LOTS
10
-426.8475
20
-213.4458
30
0.0
0
VERTEX
8
LOTS
10
-418.7522
20
-279.2985
30
0.0
0
VERTEX
8
LOTS
10
-418.7976
20
-279.3163
30
0.0
0
VERTEX
8
LOTS
10
-455.0164
20
-293.5979
30
0.0
0
SEQEND
0
TEXT
8
LABELS
10
-436.2628
20
-258.0427
30
0.0
40
3.000
1
22
72
1
11
-436.2628
21
-258.0427
31
0.0
0
POLYLINE
8
LOTS
66
1
70
1
0
VERTEX
8
LOTS
10
-392.0310
20
-203.7581
30
0.0
0
VERTEX
8
LOTS
10
-390.8030
20
-203.4165
30
0.0
0
VERTEX
8
LOTS
10
-379.3990
20
-263.7986
30
0.0
0
VERTEX
8
LOTS
10
-381.5782
20
-264.6569
30
0.0
0
VERTEX
8
LOTS
10
-418.7522
20
-279.2985
30
0.0
0
VERTEX
8
LOTS
10
-426.8475
20
-213.4458
30
0.0
0
SEQEND
0
TEXT
8
LABELS
10
-398.2352
20
-238.0624
30
0.0
40
3.000
1
23
72
1
11
-398.2352
21
-238.0624
31
0.0
0
POLYLINE
8
LOTS
66
1
70
1
0
VERTEX
8
LOTS
10
-390.8030
20
-203.4165
30
0.0
0
VERTEX
8
LOTS
10
-363.0442
20
-196.9067
30
0.0
0
VERTEX
8
LOTS
10
-362.5464
20
-196.7900
30
0.0
0
VERTEX
8
LOTS
10
-342.2513
20
-248.3516
30
0.0
0
VERTEX
8
LOTS
10
-344.4797
20
-249.2782
30
0.0
0
VERTEX
8
LOTS
10
-379.3990
20
-263.7986
30
0.0
0
SEQEND
0
TEXT
8
LABELS
10
-363.7540
20
-226.4236
30
0.0
40
3.000
1
24
72
1
11
-363.7540
21
-226.4236
31
0.0
0
POLYLINE
8
LOTS
66
1
70
1
0
VERTEX
8
LOTS
10
-362.5464
20
-196.7900
30
0.0
0
VERTEX
8
LOTS
10
-326.1977
20
-191.7248
30
0.0
0
VERTEX
8
LOTS
10
-302.4702
20
-234.2057
30
0.0
0
VERTEX
8
LOTS
10
-342.2513
20
-248.3516
30
0.0
0
SEQEND
0
TEXT
8
LABELS
10
-333.3664
20
-217.7680
30
0.0
40
3.000
1
25
72
1
11
-333.3664
21
-217.7680
31
0.0
0
POLYLINE
8
LOTS
66
1
70
1
0
VERTEX
8
LOTS
10
-136.0526
20
-165.6870
30
0.0
0
VERTEX
8
LOTS
10
-77.8291
20
-149.6713
30
0.0
0
VERTEX
8
LOTS
10
-66.1145
20
-146.7241
30
0.0
0
VERTEX
8
LOTS
10
-55.2526
20
-194.9343
30
0.0
0
VERTEX
8
LOTS
10
-93.3359
20
-198.8129
30
0.0
0
VERTEX
8
LOTS
10
-134.7427
20
-189.8803
30
0.0
0
SEQEND
0
TEXT
8
LABELS
10
-93.8879
20
-174.2850
30
0.0
40
3.000
1
26
72
1
11
-93.8879
21
-174.2850
31
0.0
0
POLYLINE
8
LOTS
66
1
70
1
0
VERTEX
8
LOTS
10
-19.7390
20
-128.8012
30
0.0
0
VERTEX
8
LOTS
10
-18.5676
20
-128.3485
30
0.0
0
VERTEX
8
LOTS
10
0.7005
20
-189.2012
30
0.0
0
VERTEX
8
LOTS
10
-0.7242
20
-189.3468
30
0.0
0
VERTEX
8
LOTS
10
-55.2552
20
-194.9226
30
0.0
0
VERTEX
8
LOTS
10
-66.1145
20
-146.7241
30
0.0
0
SEQEND
0
TEXT
8
LABELS
10
-26.6167
20
-162.8907
30
0.0
40
3.000
1
27
72
1
11
-26.6167
21
-162.8907
31
0.0
0
POLYLINE
8
LOTS
66
1
70
1
0
VERTEX
8
LOTS
10
-18.5676
20
-128.3485
30
0.0
0
VERTEX
8
LOTS
10
21.3019
20
-113.3646
30
0.0
0
VERTEX
8
LOTS
10
45.0896
20
-185.1943
30
0.0
0
VERTEX
8
LOTS
10
0.7005
20
-189.2012
30
0.0
0
SEQEND
0
TEXT
8
LABELS
10
12.1311
20
-154.0272
30
0.0
40
3.000
1
28
72
1
11
12.1311
21
-154.0272
31
0.0
0
POLYLINE
8
LOTS
66
1
70
1
0
VERTEX
8
LOTS
10
21.3019
20
-113.3646
30
0.0
0
VERTEX
8
LOTS
10
60.3310
20
-96.9572
30
0.0
0
VERTEX
8
LOTS
10
88.2955
20
-184.4618
30
0.0
0
VERTEX
8
LOTS
10
45.0896
20
-185.1943
30
0.0
0
SEQEND
0
TEXT
8
LABELS
10
53.7545
20
-144.9945
30
0.0
40
3.000
1
29
72
1
11
53.7545
21
-144.9945
31
0.0
0
POLYLINE
8
LOTS
66
1
70
1
0
VERTEX
8
LOTS
10
60.3310
20
-96.9572
30
0.0
0
VERTEX
8
LOTS
10
113.7126
20
-82.9841
30
0.0
0
VERTEX
8
LOTS
10
146.5015
20
-162.2700
30
0.0
0
VERTEX
8
LOTS
10
88.2955
20
-184.4618
30
0.0
0
SEQEND
0
TEXT
8
LABELS
10
102.2101
20
-131.6683
30
0.0
40
3.000
1
30
72
1
11
102.2101
21
-131.6683
31
0.0
0
POLYLINE
8
LOTS
66
1
70
1
0
VERTEX
8
LOTS
10
119.9254
20
-80.9390
30
0.0
0
VERTEX
8
LOTS
10
150.5428
20
-69.8460
30
0.0
0
VERTEX
8
LOTS
10
150.9292
20
-70.7331
30
0.0
0
VERTEX
8
LOTS
10
183.6943
20
-145.9562
30
0.0
0
VERTEX
8
LOTS
10
152.5365
20
-159.7951
30
0.0
0
SEQEND
0
TEXT
8
LABELS
10
151.5257
20
-105.4539
30
0.0
40
3.000
1
31
72
1
11
151.5257
21
-105.4539
31
0.0
0
POLYLINE
8
LOTS
66
1
70
1
0
VERTEX
8
LOTS
10
150.5428
20
-69.8460
30
0.0
0
VERTEX
8
LOTS
10
182.3735
20
-59.0321
30
0.0
0
VERTEX
8
LOTS
10
211.3505
20
-130.3657
30
0.0
0
VERTEX
8
LOTS
10
183.6943
20
-145.9562
30
0.0
0
SEQEND
0
TEXT
8
LABELS
10
181.9903
20
-101.3000
30
0.0
40
3.000
1
32
72
1
11
181.9903
21
-101.3000
31
0.0
0
POLYLINE
8
LOTS
66
1
70
1
0
VERTEX
8
LOTS
10
211.3505
20
-130.3657
30
0.0
0
VERTEX
8
LOTS
10
182.3735
20
-59.0321
30
0.0
0
VERTEX
8
LOTS
10
214.0299
20
-45.8332
30
0.0
0
VERTEX
8
LOTS
10
214.3142
20
-46.6197
30
0.0
0
VERTEX
8
LOTS
10
214.6655
20
-47.5912
30
0.0
0
VERTEX
8
LOTS
10
239.5021
20
-116.2851
30
0.0
0
VERTEX
8
LOTS
10
239.7062
20
-116.8496
30
0.0
0
VERTEX
8
LOTS
10
212.0554
20
-130.0131
30
0.0
0
SEQEND
0
TEXT
8
LABELS
10
215.9997
20
-86.5737
30
0.0
40
3.000
1
33
72
1
11
215.9997
21
-86.5737
31
0.0
0
POLYLINE
8
LOTS
66
1
70
1
0
VERTEX
8
LOTS
10
214.0299
20
-45.8332
30
0.0
0
VERTEX
8
LOTS
10
243.3730
20
-33.8311
30
0.0
0
VERTEX
8
LOTS
10
271.7185
20
-102.6359
30
0.0
0
VERTEX
8
LOTS
10
239.7062
20
-116.8496
30
0.0
0
SEQEND
0
TEXT
8
LABELS
10
242.2069
20
-74.7874
30
0.0
40
3.000
1
34
72
1
11
242.2069
21
-74.7874
31
0.0
0
POLYLINE
8
LOTS
66
1
70
1
0
VERTEX
8
LOTS
10
243.3730
20
-33.8311
30
0.0
0
VERTEX
8
LOTS
10
283.6416
20
-19.4156
30
0.0
0
VERTEX
8
LOTS
10
310.2360
20
-86.7305
30
0.0
0
VERTEX
8
LOTS
10
271.7185
20
-102.6359
30
0.0
0
SEQEND
0
TEXT
8
LABELS
10
277.2423
20
-60.6533
30
0.0
40
3.000
1
35
72
1
11
277.2423
21
-60.6533
31
0.0
0
POLYLINE
8
LOTS
66
1
70
1
0
VERTEX
8
LOTS
10
283.6416
20
-19.4156
30
0.0
0
VERTEX
8
LOTS
10
314.7689
20
-8.7654
30
0.0
0
VERTEX
8
LOTS
10
339.6385
20
-72.1854
30
0.0
0
VERTEX
8
LOTS
10
310.2360
20
-86.7305
30
0.0
0
SEQEND
0
TEXT
8
LABELS
10
312.0713
20
-46.7742
30
0.0
40
3.000
1
36
72
1
11
312.0713
21
-46.7742
31
0.0
0
POLYLINE
8
LOTS
66
1
70
1
0
VERTEX
8
LOTS
10
314.7689
20
-8.7654
30
0.0
0
VERTEX
8
LOTS
10
344.6851
20
3.2149
30
0.0
0
VERTEX
8
LOTS
10
364.5736
20
-60.1248
30
0.0
0
VERTEX
8
LOTS
10
339.6385
20
-72.1854
30
0.0
0
SEQEND
0
TEXT
8
LABELS
10
340.9165
20
-34.4652
30
0.0
40
3.000
1
37
72
1
11
340.9165
21
-34.4652
31
0.0
0
POLYLINE
8
LOTS
66
1
70
1
0
VERTEX
8
LOTS
10
344.6851
20
3.2149
30
0.0
0
VERTEX
8
LOTS
10
374.1298
20
11.4030
30
0.0
0
VERTEX
8
LOTS
10
394.2844
20
-45.0639
30
0.0
0
VERTEX
8
LOTS
10
364.5736
20
-60.1248
30
0.0
0
SEQEND
0
TEXT
8
LABELS
10
369.4182
20
-22.6427
30
0.0
40
3.000
1
38
72
1
11
369.4182
21
-22.6427
31
0.0
0
POLYLINE
8
LOTS
66
1
70
1
0
VERTEX
8
LOTS
10
420.0404
20
26.2185
30
0.0
0
VERTEX
8
LOTS
10
421.0856
20
26.5558
30
0.0
0
VERTEX
8
LOTS
10
442.8412
20
-28.6779
30
0.0
0
VERTEX
8
LOTS
10
441.8268
20
-29.0202
30
0.0
0
VERTEX
8
LOTS
10
394.2844
20
-45.0639
30
0.0
0
VERTEX
8
LOTS
10
374.1298
20
11.4030
30
0.0
0
SEQEND
0
TEXT
8
LABELS
10
415.7014
20
-6.4308
30
0.0
40
3.000
1
39
72
1
11
415.7014
21
-6.4308
31
0.0
0
POLYLINE
8
LOTS
66
1
70
1
0
VERTEX
8
LOTS
10
461.0397
20
36.0900
30
0.0
0
VERTEX
8
LOTS
10
463.6921
20
36.7230
30
0.0
0
VERTEX
8
LOTS
10
484.8952
20
-13.6010
30
0.0
0
VERTEX
8
LOTS
10
482.7869
20
-14.3557
30
0.0
0
VERTEX
8
LOTS
10
442.8339
20
-28.6597
30
0.0
0
VERTEX
8
LOTS
10
429.4089
20
5.4244
30
0.0
0
VERTEX
8
LOTS
10
421.0856
20
26.5558
30
0.0
0
SEQEND
0
TEXT
8
LABELS
10
455.1060
20
6.8824
30
0.0
40
3.000
1
40
72
1
11
455.1060
21
6.8824
31
0.0
0
POLYLINE
8
LOTS
66
1
70
1
0
VERTEX
8
LOTS
10
477.3252
20
49.7799
30
0.0
0
VERTEX
8
LOTS
10
501.2944
20
53.4031
30
0.0
0
VERTEX
8
LOTS
10
505.4040
20
51.6636
30
0.0
0
VERTEX
8
LOTS
10
507.5089
20
50.7725
30
0.0
0
VERTEX
8
LOTS
10
521.9957
20
11.8915
30
0.0
0
VERTEX
8
LOTS
10
521.0654
20
0.0628
30
0.0
0
VERTEX
8
LOTS
10
484.8952
20
-13.6010
30
0.0
0
VERTEX
8
LOTS
10
463.6921
20
36.7230
30
0.0
0
SEQEND
0
TEXT
8
LABELS
10
497.8976
20
30.0869
30
0.0
40
3.000
1
41
72
1
11
497.8976
21
30.0869
31
0.0
0
POLYLINE
8
LOTS
66
1
70
1
0
VERTEX
8
LOTS
10
513.6996
20
46.1871
30
0.0
0
VERTEX
8
LOTS
10
583.9492
20
59.8440
30
0.0
0
VERTEX
8
LOTS
10
598.8087
20
29.0218
30
0.0
0
VERTEX
8
LOTS
10
524.9349
20
1.5042
30
0.0
0
VERTEX
8
LOTS
10
525.8784
20
13.5004
30
0.0
0
VERTEX
8
LOTS
10
521.9524
20
24.0373
30
0.0
0
SEQEND
0
TEXT
8
LABELS
10
544.8705
20
29.0158
30
0.0
40
3.000
1
42
72
1
11
544.8705
21
29.0158
31
0.0
0
POLYLINE
8
LOTS
66
1
70
1
0
VERTEX
8
LOTS
10
583.9492
20
59.8440
30
0.0
0
VERTEX
8
LOTS
10
649.2991
20
85.9488
30
0.0
0
VERTEX
8
LOTS
10
664.0970
20
51.2408
30
0.0
0
VERTEX
8
LOTS
10
598.8087
20
29.0218
30
0.0
0
SEQEND
0
TEXT
8
LABELS
10
624.0385
20
56.5138
30
0.0
40
3.000
1
43
72
1
11
624.0385
21
56.5138
31
0.0
0
POLYLINE
8
LOTS
66
1
70
1
0
VERTEX
8
LOTS
10
689.9899
20
108.8378
30
0.0
0
VERTEX
8
LOTS
10
693.1999
20
110.6434
30
0.0
0
VERTEX
8
LOTS
10
709.4571
20
71.1073
30
0.0
0
VERTEX
8
LOTS
10
706.2039
20
69.6825
30
0.0
0
VERTEX
8
LOTS
10
664.0970
20
51.2408
30
0.0
0
VERTEX
8
LOTS
10
649.2991
20
85.9488
30
0.0
0
SEQEND
0
TEXT
8
LABELS
10
685.3745
20
82.9101
30
0.0
40
3.000
1
44
72
1
11
685.3745
21
82.9101
31
0.0
0
POLYLINE
8
LOTS
66
1
70
1
0
VERTEX
8
LOTS
10
693.1999
20
110.6434
30
0.0
0
VERTEX
8
LOTS
10
729.7525
20
133.9309
30
0.0
0
VERTEX
8
LOTS
10
752.8073
20
87.5436
30
0.0
0
VERTEX
8
LOTS
10
709.4571
20
71.1073
30
0.0
0
SEQEND
0
TEXT
8
LABELS
10
721.3042
20
100.8063
30
0.0
40
3.000
1
45
72
1
11
721.3042
21
100.8063
31
0.0
0
POLYLINE
8
LOTS
66
1
70
1
0
VERTEX
8
LOTS
10
729.7525
20
133.9309
30
0.0
0
VERTEX
8
LOTS
10
771.7539
20
161.2687
30
0.0
0
VERTEX
8
LOTS
10
772.3219
20
160.3347
30
0.0
0
VERTEX
8
LOTS
10
773.9070
20
157.7279
30
0.0
0
VERTEX
8
LOTS
10
800.5525
20
113.9071
30
0.0
0
VERTEX
8
LOTS
10
752.8073
20
87.5436
30
0.0
0
SEQEND
0
TEXT
8
LABELS
10
766.8492
20
135.7855
30
0.0
40
3.000
1
46
72
1
11
766.8492
21
135.7855
31
0.0
0
POLYLINE
8
LOTS
66
1
70
1
0
VERTEX
8
LOTS
10
818.6143
20
198.5820
30
0.0
0
VERTEX
8
LOTS
10
864.7227
20
235.0732
30
0.0
0
VERTEX
8
LOTS
10
904.6768
20
182.4335
30
0.0
0
VERTEX
8
LOTS
10
859.9679
20
152.7145
30
0.0
0
VERTEX
8
LOTS
10
854.6986
20
149.2119
30
0.0
0
VERTEX
8
LOTS
10
853.4273
20
148.3743
30
0.0
0
VERTEX
8
LOTS
10
852.3770
20
147.6824
30
0.0
0
VERTEX
8
LOTS
10
817.6174
20
197.7882
30
0.0
0
SEQEND
0
TEXT
8
LABELS
10
853.2628
20
176.4825
30
0.0
40
3.000
1
47
72
1
11
853.2628
21
176.4825
31
0.0
0
POLYLINE
8
LOTS
66
1
70
1
0
VERTEX
8
LOTS
10
771.7539
20
161.2687
30
0.0
0
VERTEX
8
LOTS
10
817.6174
20
197.7882
30
0.0
0
VERTEX
8
LOTS
10
852.3770
20
147.6824
30
0.0
0
VERTEX
8
LOTS
10
800.5525
20
113.9071
30
0.0
0
SEQEND
0
TEXT
8
LABELS
10
810.5752
20
155.1616
30
0.0
40
3.000
1
48
72
1
11
810.5752
21
155.1616
31
0.0
0
POLYLINE
8
LOTS
66
1
70
1
0
VERTEX
8
LOTS
10
919.2153
20
286.2038
30
0.0
0
VERTEX
8
LOTS
10
939.3864
20
309.9363
30
0.0
0
VERTEX
8
LOTS
10
990.5585
20
273.9680
30
0.0
0
VERTEX
8
LOTS
10
1013.9528
20
256.6491
30
0.0
0
VERTEX
8
LOTS
10
978.9899
20
230.4549
30
0.0
0
SEQEND
0
TEXT
8
LABELS
10
968.4206
20
271.4424
30
0.0
40
3.000
1
49
72
1
11
968.4206
21
271.4424
31
0.0
0
POLYLINE
8
LOTS
66
1
70
1
0
VERTEX
8
LOTS
10
864.7227
20
235.0732
30
0.0
0
VERTEX
8
LOTS
10
894.8604
20
261.1990
30
0.0
0
VERTEX
8
LOTS
10
939.5765
20
204.9859
30
0.0
0
VERTEX
8
LOTS
10
904.6768
20
182.4335
30
0.0
0
SEQEND
0
TEXT
8
LABELS
10
900.9591
20
220.9229
30
0.0
40
3.000
1
50
72
1
11
900.9591
21
220.9229
31
0.0
0
POLYLINE
8
LOTS
66
1
70
1
0
VERTEX
8
LOTS
10
894.8604
20
261.1990
30
0.0
0
VERTEX
8
LOTS
10
919.2153
20
286.2038
30
0.0
0
VERTEX
8
LOTS
10
978.9899
20
230.4549
30
0.0
0
VERTEX
8
LOTS
10
940.5762
20
205.6320
30
0.0
0
VERTEX
8
LOTS
10
939.5765
20
204.9859
30
0.0
0
SEQEND
0
TEXT
8
LABELS
10
934.6437
20
237.6951
30
0.0
40
3.000
1
51
72
1
11
934.6437
21
237.6951
31
0.0
0
POLYLINE
8
LOTS
66
1
70
1
0
VERTEX
8
LOTS
10
959.5156
20
341.4611
30
0.0
0
VERTEX
8
LOTS
10
1032.4489
20
293.5674
30
0.0
0
VERTEX
8
LOTS
10
1019.8524
20
262.3919
30
0.0
0
VERTEX
8
LOTS
10
980.9262
20
286.1011
30
0.0
0
VERTEX
8
LOTS
10
942.5503
20
315.4259
30
0.0
0
SEQEND
0
TEXT
8
LABELS
10
987.0587
20
299.7895
30
0.0
40
3.000
1
52
72
1
11
987.0587
21
299.7895
31
0.0
0
POLYLINE
8
LOTS
66
1
70
1
0
VERTEX
8
LOTS
10
959.5156
20
341.4611
30
0.0
0
VERTEX
8
LOTS
10
974.3702
20
365.7768
30
0.0
0
VERTEX
8
LOTS
10
1042.0068
20
321.6352
30
0.0
0
VERTEX
8
LOTS
10
1032.4489
20
293.5674
30
0.0
0
SEQEND
0
TEXT
8
LABELS
10
1002.0854
20
330.6101
30
0.0
40
3.000
1
53
72
1
11
1002.0854
21
330.6101
31
0.0
0
POLYLINE
8
LOTS
66
1
70
1
0
VERTEX
8
LOTS
10
974.3702
20
365.7768
30
0.0
0
VERTEX
8
LOTS
10
988.6356
20
389.2121
30
0.0
0
VERTEX
8
LOTS
10
1052.5655
20
349.2763
30
0.0
0
VERTEX
8
LOTS
10
1042.0068
20
321.6352
30
0.0
0
SEQEND
0
TEXT
8
LABELS
10
1014.3945
20
356.4751
30
0.0
40
3.000
1
54
72
1
11
1014.3945
21
356.4751
31
0.0
0
POLYLINE
8
LOTS
66
1
70
1
0
VERTEX
8
LOTS
10
988.6356
20
389.2121
30
0.0
0
VERTEX
8
LOTS
10
1006.6255
20
423.7478
30
0.0
0
VERTEX
8
LOTS
10
1065.0043
20
387.4971
30
0.0
0
VERTEX
8
LOTS
10
1052.5655
20
349.2763
30
0.0
0
SEQEND
0
TEXT
8
LABELS
10
1028.2077
20
387.4333
30
0.0
40
3.000
1
55
72
1
11
1028.2077
21
387.4333
31
0.0
0
POLYLINE
8
LOTS
66
1
70
1
0
VERTEX
8
LOTS
10
1006.6255
20
423.7479
30
0.0
0
VERTEX
8
LOTS
10
1022.0154
20
454.5700
30
0.0
0
VERTEX
8
LOTS
10
1081.3140
20
437.6112
30
0.0
0
VERTEX
8
LOTS
10
1065.0043
20
387.4971
30
0.0
0
SEQEND
0
TEXT
8
LABELS
10
1043.7398
20
425.8566
30
0.0
40
3.000
1
56
72
1
11
1043.7398
21
425.8566
31
0.0
0
POLYLINE
8
LOTS
66
1
70
1
0
VERTEX
8
LOTS
10
1022.0154
20
454.5700
30
0.0
0
VERTEX
8
LOTS
10
1025.2203
20
465.3027
30
0.0
0
VERTEX
8
LOTS
10
1036.2521
20
502.2449
30
0.0
0
VERTEX
8
LOTS
10
1096.7615
20
484.9103
30
0.0
0
VERTEX
8
LOTS
10
1087.5643
20
456.7517
30
0.0
0
VERTEX
8
LOTS
10
1083.0337
20
442.8802
30
0.0
0
VERTEX
8
LOTS
10
1081.6836
20
438.7436
30
0.0
0
VERTEX
8
LOTS
10
1081.3140
20
437.6112
30
0.0
0
SEQEND
0
TEXT
8
LABELS
10
1064.2306
20
460.3768
30
0.0
40
3.000
1
57
72
1
11
1064.2306
21
460.3768
31
0.0
0
POLYLINE
8
LOTS
66
1
70
1
0
VERTEX
8
LOTS
10
1045.6667
20
529.0789
30
0.0
0
VERTEX
8
LOTS
10
1050.8156
20
548.2303
30
0.0
0
VERTEX
8
LOTS
10
1112.9469
20
528.2251
30
0.0
0
VERTEX
8
LOTS
10
1112.4402
20
526.8692
30
0.0
0
VERTEX
8
LOTS
10
1096.7615
20
484.9103
30
0.0
0
VERTEX
8
LOTS
10
1036.2521
20
502.2449
30
0.0
0
SEQEND
0
TEXT
8
LABELS
10
1075.8138
20
519.9264
30
0.0
40
3.000
1
58
72
1
11
1075.8138
21
519.9264
31
0.0
0
POLYLINE
8
LOTS
66
1
70
1
0
VERTEX
8
LOTS
10
1050.8156
20
548.2303
30
0.0
0
VERTEX
8
LOTS
10
1061.6718
20
587.8551
30
0.0
0
VERTEX
8
LOTS
10
1125.8806
20
566.4242
30
0.0
0
VERTEX
8
LOTS
10
1112.9469
20
528.2251
30
0.0
0
SEQEND
0
TEXT
8
LABELS
10
1087.8287
20
557.6837
30
0.0
40
3.000
1
59
72
1
11
1087.8287
21
557.6837
31
0.0
0
POLYLINE
8
LOTS
66
1
70
1
0
VERTEX
8
LOTS
10
1061.6718
20
587.8551
30
0.0
0
VERTEX
8
LOTS
10
1069.9587
20
628.5785
30
0.0
0
VERTEX
8
LOTS
10
1135.2541
20
606.2822
30
0.0
0
VERTEX
8
LOTS
10
1125.8806
20
566.4242
30
0.0
0
SEQEND
0
TEXT
8
LABELS
10
1098.1913
20
597.2850
30
0.0
40
3.000
1
60
72
1
11
1098.1913
21
597.2850
31
0.0
0
POLYLINE
8
LOTS
66
1
70
1
0
VERTEX
8
LOTS
10
1069.9587
20
628.5786
30
0.0
0
VERTEX
8
LOTS
10
1077.6868
20
668.8450
30
0.0
0
VERTEX
8
LOTS
10
1146.4528
20
645.7067
30
0.0
0
VERTEX
8
LOTS
10
1136.5081
20
624.8843
30
0.0
0
VERTEX
8
LOTS
10
1135.2541
20
606.2822
30
0.0
0
SEQEND
0
TEXT
8
LABELS
10
1113.1721
20
634.8594
30
0.0
40
3.000
1
61
72
1
11
1113.1721
21
634.8594
31
0.0
0
POLYLINE
8
LOTS
66
1
70
1
0
VERTEX
8
LOTS
10
1077.6868
20
668.8449
30
0.0
0
VERTEX
8
LOTS
10
1085.2588
20
709.4492
30
0.0
0
VERTEX
8
LOTS
10
1164.0570
20
676.8926
30
0.0
0
VERTEX
8
LOTS
10
1146.4528
20
645.7067
30
0.0
0
SEQEND
0
TEXT
8
LABELS
10
1118.3639
20
675.2233
30
0.0
40
3.000
1
62
72
1
11
1118.3639
21
675.2233
31
0.0
0
ENDSEC
0
EOF
