0
SECTION
2
HEADER
9
$ACADVER
1
AC1009
9
$INSUNITS
70
6
0
ENDSEC
0
SECTION
2
ENTITIES
0
POLYLINE
8
LOTS
66
1
70
1
0
VERTEX
8
LOTS
10
0.3637
20
13.3992
30
0.0
0
VERTEX
8
LOTS
10
1.1359
20
13.0848
30
0.0
0
VERTEX
8
LOTS
10
28.8529
20
3.6596
30
0.0
0
VERTEX
8
LOTS
10
11.1033
20
-44.9422
30
0.0
0
VERTEX
8
LOTS
10
-24.9247
20
-32.5744
30
0.0
0
VERTEX
8
LOTS
10
-8.1966
20
16.8848
30
0.0
0
VERTEX
8
LOTS
10
-5.1067
20
15.6266
30
0.0
0
VERTEX
8
LOTS
10
-3.2279
20
14.8616
30
0.0
0
SEQEND
0
TEXT
8
LABELS
10
0.0000
20
1.7208
30
0.0
40
2.950
1
LOT 13
72
1
11
0.0000
21
1.7208
31
0.0
0
TEXT
8
LABELS
10
0.0000
20
-2.2125
30
0.0
40
2.458
1
2003.4 m2 (20.03 sotix)
72
1
11
0.0000
21
-2.2125
31
0.0
0
TEXT
8
DIMS
10
0.7498
20
13.2420
30
0.0
40
1.844
1
0.83
72
1
11
0.7498
21
13.2420
31
0.0
0
TEXT
8
DIMS
10
14.9944
20
8.3722
30
0.0
40
1.844
1
29.28
72
1
11
14.9944
21
8.3722
31
0.0
0
TEXT
8
DIMS
10
19.9781
20
-20.6413
30
0.0
40
1.844
1
51.74
72
1
11
19.9781
21
-20.6413
31
0.0
0
TEXT
8
DIMS
10
-6.9107
20
-38.7583
30
0.0
40
1.844
1
38.09
72
1
11
-6.9107
21
-38.7583
31
0.0
0
TEXT
8
DIMS
10
-16.5607
20
-7.8448
30
0.0
40
1.844
1
52.21
72
1
11
-16.5607
21
-7.8448
31
0.0
0
TEXT
8
DIMS
10
-6.6516
20
16.2557
30
0.0
40
1.844
1
3.34
72
1
11
-6.6516
21
16.2557
31
0.0
0
TEXT
8
DIMS
10
-4.1673
20
15.2441
30
0.0
40
1.844
1
2.03
72
1
11
-4.1673
21
15.2441
31
0.0
0
TEXT
8
DIMS
10
-1.4321
20
14.1304
30
0.0
40
1.844
1
3.88
72
1
11
-1.4321
21
14.1304
31
0.0
0
ENDSEC
0
EOF
