0
SECTION
2
HEADER
9
$ACADVER
1
AC1009
9
$INSUNITS
70
6
0
ENDSEC
0
SECTION
2
ENTITIES
0
POLYLINE
8
LOTS
66
1
70
1
0
VERTEX
8
LOTS
10
-58.6430
20
-3.4473
30
0.0
0
VERTEX
8
LOTS
10
-52.2142
20
11.5641
30
0.0
0
VERTEX
8
LOTS
10
-49.7986
20
11.3614
30
0.0
0
VERTEX
8
LOTS
10
18.8680
20
5.5983
30
0.0
0
VERTEX
8
LOTS
10
26.9591
20
5.1424
30
0.0
0
VERTEX
8
LOTS
10
32.4488
20
4.8330
30
0.0
0
VERTEX
8
LOTS
10
49.0528
20
3.8972
30
0.0
0
VERTEX
8
LOTS
10
33.3271
20
-38.9491
30
0.0
0
SEQEND
0
TEXT
8
LABELS
10
0.0000
20
2.4980
30
0.0
40
4.282
1
LOT 4
72
1
11
0.0000
21
2.4980
31
0.0
0
TEXT
8
LABELS
10
0.0000
20
-3.2117
30
0.0
40
3.569
1
3004.6 m2 (30.05 sotix)
72
1
11
0.0000
21
-3.2117
31
0.0
0
TEXT
8
DIMS
10
-55.4286
20
4.0584
30
0.0
40
2.676
1
16.33
72
1
11
-55.4286
21
4.0584
31
0.0
0
TEXT
8
DIMS
10
-51.0064
20
11.4628
30
0.0
40
2.676
1
2.42
72
1
11
-51.0064
21
11.4628
31
0.0
0
TEXT
8
DIMS
10
-15.4653
20
8.4799
30
0.0
40
2.676
1
68.91
72
1
11
-15.4653
21
8.4799
31
0.0
0
TEXT
8
DIMS
10
22.9135
20
5.3704
30
0.0
40
2.676
1
8.10
72
1
11
22.9135
21
5.3704
31
0.0
0
TEXT
8
DIMS
10
29.7040
20
4.9877
30
0.0
40
2.676
1
5.50
72
1
11
29.7040
21
4.9877
31
0.0
0
TEXT
8
DIMS
10
40.7508
20
4.3651
30
0.0
40
2.676
1
16.63
72
1
11
40.7508
21
4.3651
31
0.0
0
TEXT
8
DIMS
10
41.1899
20
-17.5259
30
0.0
40
2.676
1
45.64
72
1
11
41.1899
21
-17.5259
31
0.0
0
TEXT
8
DIMS
10
-12.6580
20
-21.1982
30
0.0
40
2.676
1
98.58
72
1
11
-12.6580
21
-21.1982
31
0.0
0
ENDSEC
0
EOF
