0
SECTION
2
HEADER
9
$ACADVER
1
AC1009
9
$INSUNITS
70
6
0
ENDSEC
0
SECTION
2
ENTITIES
0
POLYLINE
8
LOTS
66
1
70
1
0
VERTEX
8
LOTS
10
-18.1711
20
-21.5404
30
0.0
0
VERTEX
8
LOTS
10
-45.1461
20
-20.8901
30
0.0
0
VERTEX
8
LOTS
10
-34.2032
20
32.9674
30
0.0
0
VERTEX
8
LOTS
10
13.9112
20
13.5294
30
0.0
0
VERTEX
8
LOTS
10
43.3769
20
6.7403
30
0.0
0
VERTEX
8
LOTS
10
40.2323
20
-10.8065
30
0.0
0
SEQEND
0
TEXT
8
LABELS
10
-0.0000
20
2.1831
30
0.0
40
3.743
1
LOT 3
72
1
11
-0.0000
21
2.1831
31
0.0
0
TEXT
8
LABELS
10
-0.0000
20
-2.8069
30
0.0
40
3.119
1
3006.6 m2 (30.07 sotix)
72
1
11
-0.0000
21
-2.8069
31
0.0
0
TEXT
8
DIMS
10
-31.6586
20
-21.2152
30
0.0
40
2.339
1
26.98
72
1
11
-31.6586
21
-21.2152
31
0.0
0
TEXT
8
DIMS
10
-39.6746
20
6.0386
30
0.0
40
2.339
1
54.96
72
1
11
-39.6746
21
6.0386
31
0.0
0
TEXT
8
DIMS
10
-10.1460
20
23.2484
30
0.0
40
2.339
1
51.89
72
1
11
-10.1460
21
23.2484
31
0.0
0
TEXT
8
DIMS
10
28.6441
20
10.1348
30
0.0
40
2.339
1
30.24
72
1
11
28.6441
21
10.1348
31
0.0
0
TEXT
8
DIMS
10
41.8046
20
-2.0331
30
0.0
40
2.339
1
17.83
72
1
11
41.8046
21
-2.0331
31
0.0
0
TEXT
8
DIMS
10
11.0306
20
-16.1734
30
0.0
40
2.339
1
59.38
72
1
11
11.0306
21
-16.1734
31
0.0
0
ENDSEC
0
EOF
