0
SECTION
2
HEADER
9
$ACADVER
1
AC1009
9
$INSUNITS
70
6
0
ENDSEC
0
SECTION
2
ENTITIES
0
POLYLINE
8
LOTS
66
1
70
1
0
VERTEX
8
LOTS
10
-16.9688
20
-35.2682
30
0.0
0
VERTEX
8
LOTS
10
-8.0119
20
41.6459
30
0.0
0
VERTEX
8
LOTS
10
20.9702
20
35.7117
30
0.0
0
VERTEX
8
LOTS
10
4.0104
20
-42.0894
30
0.0
0
SEQEND
0
TEXT
8
LABELS
10
-0.0000
20
1.9305
30
0.0
40
3.309
1
LOT 7
72
1
11
-0.0000
21
1.9305
31
0.0
0
TEXT
8
LABELS
10
-0.0000
20
-2.4821
30
0.0
40
2.758
1
2015.1 m2 (20.15 sotix)
72
1
11
-0.0000
21
-2.4821
31
0.0
0
TEXT
8
DIMS
10
-12.4903
20
3.1889
30
0.0
40
2.068
1
77.43
72
1
11
-12.4903
21
3.1889
31
0.0
0
TEXT
8
DIMS
10
6.4792
20
38.6788
30
0.0
40
2.068
1
29.58
72
1
11
6.4792
21
38.6788
31
0.0
0
TEXT
8
DIMS
10
12.4903
20
-3.1889
30
0.0
40
2.068
1
79.63
72
1
11
12.4903
21
-3.1889
31
0.0
0
TEXT
8
DIMS
10
-6.4792
20
-38.6788
30
0.0
40
2.068
1
22.06
72
1
11
-6.4792
21
-38.6788
31
0.0
0
ENDSEC
0
EOF
