0
SECTION
2
HEADER
9
$ACADVER
1
AC1009
9
$INSUNITS
70
6
0
ENDSEC
0
SECTION
2
ENTITIES
0
POLYLINE
8
LOTS
66
1
70
1
0
VERTEX
8
LOTS
10
-28.1039
20
9.8371
30
0.0
0
VERTEX
8
LOTS
10
8.4482
20
33.1246
30
0.0
0
VERTEX
8
LOTS
10
31.5027
20
-13.2627
30
0.0
0
VERTEX
8
LOTS
10
-11.8469
20
-29.6990
30
0.0
0
SEQEND
0
TEXT
8
LABELS
10
0.0000
20
1.8186
30
0.0
40
3.118
1
LOT 45
72
1
11
0.0000
21
1.8186
31
0.0
0
TEXT
8
LABELS
10
0.0000
20
-2.3382
30
0.0
40
2.598
1
2106.8 m2 (21.07 sotix)
72
1
11
0.0000
21
-2.3382
31
0.0
0
TEXT
8
DIMS
10
-9.8279
20
21.4808
30
0.0
40
1.949
1
43.34
72
1
11
-9.8279
21
21.4808
31
0.0
0
TEXT
8
DIMS
10
19.9754
20
9.9309
30
0.0
40
1.949
1
51.80
72
1
11
19.9754
21
9.9309
31
0.0
0
TEXT
8
DIMS
10
9.8279
20
-21.4808
30
0.0
40
1.949
1
46.36
72
1
11
9.8279
21
-21.4808
31
0.0
0
TEXT
8
DIMS
10
-19.9754
20
-9.9309
30
0.0
40
1.949
1
42.75
72
1
11
-19.9754
21
-9.9309
31
0.0
0
ENDSEC
0
EOF
