0
SECTION
2
HEADER
9
$ACADVER
1
AC1009
9
$INSUNITS
70
6
0
ENDSEC
0
SECTION
2
ENTITIES
0
POLYLINE
8
LOTS
66
1
70
1
0
VERTEX
8
LOTS
10
-31.6007
20
24.5149
30
0.0
0
VERTEX
8
LOTS
10
-0.9828
20
35.6078
30
0.0
0
VERTEX
8
LOTS
10
-0.5965
20
34.7208
30
0.0
0
VERTEX
8
LOTS
10
32.1691
20
-40.5023
30
0.0
0
VERTEX
8
LOTS
10
1.0109
20
-54.3412
30
0.0
0
SEQEND
0
TEXT
8
LABELS
10
-0.0000
20
2.3155
30
0.0
40
3.969
1
LOT 31
72
1
11
-0.0000
21
2.3155
31
0.0
0
TEXT
8
LABELS
10
-0.0000
20
-2.9770
30
0.0
40
3.308
1
2803.2 m2 (28.03 sotix)
72
1
11
-0.0000
21
-2.9770
31
0.0
0
TEXT
8
DIMS
10
-16.2918
20
30.0614
30
0.0
40
2.481
1
32.57
72
1
11
-16.2918
21
30.0614
31
0.0
0
TEXT
8
DIMS
10
-0.7897
20
35.1643
30
0.0
40
2.481
1
0.97
72
1
11
-0.7897
21
35.1643
31
0.0
0
TEXT
8
DIMS
10
15.7863
20
-2.8908
30
0.0
40
2.481
1
82.05
72
1
11
15.7863
21
-2.8908
31
0.0
0
TEXT
8
DIMS
10
16.5900
20
-47.4218
30
0.0
40
2.481
1
34.09
72
1
11
16.5900
21
-47.4218
31
0.0
0
TEXT
8
DIMS
10
-15.2949
20
-14.9132
30
0.0
40
2.481
1
85.33
72
1
11
-15.2949
21
-14.9132
31
0.0
0
ENDSEC
0
EOF
