0
SECTION
2
HEADER
9
$ACADVER
1
AC1009
9
$INSUNITS
70
6
0
ENDSEC
0
SECTION
2
ENTITIES
0
POLYLINE
8
LOTS
66
1
70
1
0
VERTEX
8
LOTS
10
-39.7820
20
23.5039
30
0.0
0
VERTEX
8
LOTS
10
-15.4279
20
48.5087
30
0.0
0
VERTEX
8
LOTS
10
44.3448
20
-7.2402
30
0.0
0
VERTEX
8
LOTS
10
5.9324
20
-32.0631
30
0.0
0
VERTEX
8
LOTS
10
4.9326
20
-32.7092
30
0.0
0
SEQEND
0
TEXT
8
LABELS
10
-0.0000
20
2.4556
30
0.0
40
4.210
1
LOT 51
72
1
11
-0.0000
21
2.4556
31
0.0
0
TEXT
8
LABELS
10
-0.0000
20
-3.1572
30
0.0
40
3.508
1
3103.3 m2 (31.03 sotix)
72
1
11
-0.0000
21
-3.1572
31
0.0
0
TEXT
8
DIMS
10
-27.6049
20
36.0063
30
0.0
40
2.631
1
34.91
72
1
11
-27.6049
21
36.0063
31
0.0
0
TEXT
8
DIMS
10
14.4585
20
20.6342
30
0.0
40
2.631
1
81.74
72
1
11
14.4585
21
20.6342
31
0.0
0
TEXT
8
DIMS
10
25.1386
20
-19.6517
30
0.0
40
2.631
1
45.74
72
1
11
25.1386
21
-19.6517
31
0.0
0
TEXT
8
DIMS
10
5.4325
20
-32.3862
30
0.0
40
2.631
1
1.19
72
1
11
5.4325
21
-32.3862
31
0.0
0
TEXT
8
DIMS
10
-17.4247
20
-4.6027
30
0.0
40
2.631
1
71.83
72
1
11
-17.4247
21
-4.6027
31
0.0
0
ENDSEC
0
EOF
