0
SECTION
2
HEADER
9
$ACADVER
1
AC1009
9
$INSUNITS
70
6
0
ENDSEC
0
SECTION
2
ENTITIES
0
POLYLINE
8
LOTS
66
1
70
1
0
VERTEX
8
LOTS
10
-27.0499
20
23.0071
30
0.0
0
VERTEX
8
LOTS
10
0.7097
20
29.5169
30
0.0
0
VERTEX
8
LOTS
10
1.2076
20
29.6336
30
0.0
0
VERTEX
8
LOTS
10
21.5033
20
-21.9280
30
0.0
0
VERTEX
8
LOTS
10
19.2748
20
-22.8546
30
0.0
0
VERTEX
8
LOTS
10
-15.6455
20
-37.3750
30
0.0
0
SEQEND
0
TEXT
8
LABELS
10
0.0000
20
1.7377
30
0.0
40
2.979
1
LOT 24
72
1
11
0.0000
21
1.7377
31
0.0
0
TEXT
8
LABELS
10
0.0000
20
-2.2342
30
0.0
40
2.482
1
2005.4 m2 (20.05 sotix)
72
1
11
0.0000
21
-2.2342
31
0.0
0
TEXT
8
DIMS
10
-13.1701
20
26.2620
30
0.0
40
1.862
1
28.51
72
1
11
-13.1701
21
26.2620
31
0.0
0
TEXT
8
DIMS
10
0.9587
20
29.5752
30
0.0
40
1.862
1
0.51
72
1
11
0.9587
21
29.5752
31
0.0
0
TEXT
8
DIMS
10
11.3554
20
3.8528
30
0.0
40
1.862
1
55.41
72
1
11
11.3554
21
3.8528
31
0.0
0
TEXT
8
DIMS
10
20.3891
20
-22.3913
30
0.0
40
1.862
1
2.41
72
1
11
20.3891
21
-22.3913
31
0.0
0
TEXT
8
DIMS
10
1.8146
20
-30.1148
30
0.0
40
1.862
1
37.82
72
1
11
1.8146
21
-30.1148
31
0.0
0
TEXT
8
DIMS
10
-21.3477
20
-7.1839
30
0.0
40
1.862
1
61.45
72
1
11
-21.3477
21
-7.1839
31
0.0
0
ENDSEC
0
EOF
