0
SECTION
2
HEADER
9
$ACADVER
1
AC1009
9
$INSUNITS
70
6
0
ENDSEC
0
SECTION
2
ENTITIES
0
POLYLINE
8
LOTS
66
1
70
1
0
VERTEX
8
LOTS
10
-30.7605
20
-36.1009
30
0.0
0
VERTEX
8
LOTS
10
-13.1938
20
18.1909
30
0.0
0
VERTEX
8
LOTS
10
-11.7827
20
17.5385
30
0.0
0
VERTEX
8
LOTS
10
-2.1884
20
12.8487
30
0.0
0
VERTEX
8
LOTS
10
-1.8900
20
12.7029
30
0.0
0
VERTEX
8
LOTS
10
2.2417
20
10.6832
30
0.0
0
VERTEX
8
LOTS
10
4.2403
20
9.6952
30
0.0
0
VERTEX
8
LOTS
10
11.2618
20
6.2239
30
0.0
0
VERTEX
8
LOTS
10
29.3999
20
-1.1617
30
0.0
0
VERTEX
8
LOTS
10
12.6718
20
-50.6209
30
0.0
0
SEQEND
0
TEXT
8
LABELS
10
-0.0000
20
1.9194
30
0.0
40
3.290
1
LOT 12
72
1
11
-0.0000
21
1.9194
31
0.0
0
TEXT
8
LABELS
10
-0.0000
20
-2.4679
30
0.0
40
2.742
1
2504.3 m2 (25.04 sotix)
72
1
11
-0.0000
21
-2.4679
31
0.0
0
TEXT
8
DIMS
10
-21.9772
20
-8.9550
30
0.0
40
2.057
1
57.06
72
1
11
-21.9772
21
-8.9550
31
0.0
0
TEXT
8
DIMS
10
-12.4882
20
17.8647
30
0.0
40
2.057
1
1.55
72
1
11
-12.4882
21
17.8647
31
0.0
0
TEXT
8
DIMS
10
-6.9855
20
15.1936
30
0.0
40
2.057
1
10.68
72
1
11
-6.9855
21
15.1936
31
0.0
0
TEXT
8
DIMS
10
-2.0392
20
12.7758
30
0.0
40
2.057
1
0.33
72
1
11
-2.0392
21
12.7758
31
0.0
0
TEXT
8
DIMS
10
0.1758
20
11.6931
30
0.0
40
2.057
1
4.60
72
1
11
0.1758
21
11.6931
31
0.0
0
TEXT
8
DIMS
10
3.2410
20
10.1892
30
0.0
40
2.057
1
2.23
72
1
11
3.2410
21
10.1892
31
0.0
0
TEXT
8
DIMS
10
7.7510
20
7.9596
30
0.0
40
2.057
1
7.83
72
1
11
7.7510
21
7.9596
31
0.0
0
TEXT
8
DIMS
10
20.3308
20
2.5311
30
0.0
40
2.057
1
19.58
72
1
11
20.3308
21
2.5311
31
0.0
0
TEXT
8
DIMS
10
21.0358
20
-25.8913
30
0.0
40
2.057
1
52.21
72
1
11
21.0358
21
-25.8913
31
0.0
0
TEXT
8
DIMS
10
-9.0444
20
-43.3609
30
0.0
40
2.057
1
45.80
72
1
11
-9.0444
21
-43.3609
31
0.0
0
ENDSEC
0
EOF
