0
SECTION
2
HEADER
9
$ACADVER
1
AC1009
9
$INSUNITS
70
6
0
ENDSEC
0
SECTION
2
ENTITIES
0
POLYLINE
8
LOTS
66
1
70
1
0
VERTEX
8
LOTS
10
-28.4298
20
27.3586
30
0.0
0
VERTEX
8
LOTS
10
2.6977
20
38.0089
30
0.0
0
VERTEX
8
LOTS
10
27.5674
20
-25.4112
30
0.0
0
VERTEX
8
LOTS
10
-1.8353
20
-39.9563
30
0.0
0
SEQEND
0
TEXT
8
LABELS
10
0.0000
20
2.0158
30
0.0
40
3.456
1
LOT 36
72
1
11
0.0000
21
2.0158
31
0.0
0
TEXT
8
LABELS
10
0.0000
20
-2.5918
30
0.0
40
2.880
1
2302.5 m2 (23.03 sotix)
72
1
11
0.0000
21
-2.5918
31
0.0
0
TEXT
8
DIMS
10
-12.8661
20
32.6837
30
0.0
40
2.160
1
32.90
72
1
11
-12.8661
21
32.6837
31
0.0
0
TEXT
8
DIMS
10
15.1326
20
6.2988
30
0.0
40
2.160
1
68.12
72
1
11
15.1326
21
6.2988
31
0.0
0
TEXT
8
DIMS
10
12.8661
20
-32.6837
30
0.0
40
2.160
1
32.80
72
1
11
12.8661
21
-32.6837
31
0.0
0
TEXT
8
DIMS
10
-15.1326
20
-6.2988
30
0.0
40
2.160
1
72.38
72
1
11
-15.1326
21
-6.2988
31
0.0
0
ENDSEC
0
EOF
