0
SECTION
2
HEADER
9
$ACADVER
1
AC1009
9
$INSUNITS
70
6
0
ENDSEC
0
SECTION
2
ENTITIES
0
POLYLINE
8
LOTS
66
1
70
1
0
VERTEX
8
LOTS
10
-32.4532
20
31.6299
30
0.0
0
VERTEX
8
LOTS
10
6.5766
20
48.0372
30
0.0
0
VERTEX
8
LOTS
10
34.5417
20
-39.4673
30
0.0
0
VERTEX
8
LOTS
10
-8.6650
20
-40.1998
30
0.0
0
SEQEND
0
TEXT
8
LABELS
10
-0.0000
20
2.3266
30
0.0
40
3.988
1
LOT 29
72
1
11
-0.0000
21
2.3266
31
0.0
0
TEXT
8
LABELS
10
-0.0000
20
-2.9913
30
0.0
40
3.324
1
3497.5 m2 (34.98 sotix)
72
1
11
-0.0000
21
-2.9913
31
0.0
0
TEXT
8
DIMS
10
-12.9383
20
39.8336
30
0.0
40
2.493
1
42.34
72
1
11
-12.9383
21
39.8336
31
0.0
0
TEXT
8
DIMS
10
20.5591
20
4.2850
30
0.0
40
2.493
1
91.86
72
1
11
20.5591
21
4.2850
31
0.0
0
TEXT
8
DIMS
10
12.9383
20
-39.8336
30
0.0
40
2.493
1
43.21
72
1
11
12.9383
21
-39.8336
31
0.0
0
TEXT
8
DIMS
10
-20.5591
20
-4.2850
30
0.0
40
2.493
1
75.67
72
1
11
-20.5591
21
-4.2850
31
0.0
0
ENDSEC
0
EOF
