0
SECTION
2
HEADER
9
$ACADVER
1
AC1009
9
$INSUNITS
70
6
0
ENDSEC
0
SECTION
2
ENTITIES
0
POLYLINE
8
LOTS
66
1
70
1
0
VERTEX
8
LOTS
10
-19.4109
20
38.4190
30
0.0
0
VERTEX
8
LOTS
10
16.9259
20
40.2519
30
0.0
0
VERTEX
8
LOTS
10
21.1505
20
-31.3766
30
0.0
0
VERTEX
8
LOTS
10
-18.6655
20
-47.2944
30
0.0
0
SEQEND
0
TEXT
8
LABELS
10
-0.0000
20
2.0262
30
0.0
40
3.474
1
LOT 20
72
1
11
-0.0000
21
2.0262
31
0.0
0
TEXT
8
LABELS
10
-0.0000
20
-2.6051
30
0.0
40
2.895
1
3017.6 m2 (30.18 sotix)
72
1
11
-0.0000
21
-2.6051
31
0.0
0
TEXT
8
DIMS
10
-1.2425
20
39.3355
30
0.0
40
2.171
1
36.38
72
1
11
-1.2425
21
39.3355
31
0.0
0
TEXT
8
DIMS
10
19.0382
20
4.4377
30
0.0
40
2.171
1
71.75
72
1
11
19.0382
21
4.4377
31
0.0
0
TEXT
8
DIMS
10
1.2425
20
-39.3355
30
0.0
40
2.171
1
42.88
72
1
11
1.2425
21
-39.3355
31
0.0
0
TEXT
8
DIMS
10
-19.0382
20
-4.4377
30
0.0
40
2.171
1
85.72
72
1
11
-19.0382
21
-4.4377
31
0.0
0
ENDSEC
0
EOF
