0
SECTION
2
HEADER
9
$ACADVER
1
AC1009
9
$INSUNITS
70
6
0
ENDSEC
0
SECTION
2
ENTITIES
0
POLYLINE
8
LOTS
66
1
70
1
0
VERTEX
8
LOTS
10
-24.7332
20
25.8576
30
0.0
0
VERTEX
8
LOTS
10
4.7116
20
34.0457
30
0.0
0
VERTEX
8
LOTS
10
24.8662
20
-22.4212
30
0.0
0
VERTEX
8
LOTS
10
-4.8446
20
-37.4821
30
0.0
0
SEQEND
0
TEXT
8
LABELS
10
-0.0000
20
1.8279
30
0.0
40
3.134
1
LOT 38
72
1
11
-0.0000
21
1.8279
31
0.0
0
TEXT
8
LABELS
10
-0.0000
20
-2.3501
30
0.0
40
2.611
1
2004.6 m2 (20.05 sotix)
72
1
11
-0.0000
21
-2.3501
31
0.0
0
TEXT
8
DIMS
10
-10.0108
20
29.9517
30
0.0
40
1.958
1
30.56
72
1
11
-10.0108
21
29.9517
31
0.0
0
TEXT
8
DIMS
10
14.7889
20
5.8122
30
0.0
40
1.958
1
59.96
72
1
11
14.7889
21
5.8122
31
0.0
0
TEXT
8
DIMS
10
10.0108
20
-29.9517
30
0.0
40
1.958
1
33.31
72
1
11
10.0108
21
-29.9517
31
0.0
0
TEXT
8
DIMS
10
-14.7889
20
-5.8122
30
0.0
40
1.958
1
66.39
72
1
11
-14.7889
21
-5.8122
31
0.0
0
ENDSEC
0
EOF
