0
SECTION
2
HEADER
9
$ACADVER
1
AC1009
9
$INSUNITS
70
6
0
ENDSEC
0
SECTION
2
ENTITIES
0
POLYLINE
8
LOTS
66
1
70
1
0
VERTEX
8
LOTS
10
-39.5700
20
1.7787
30
0.0
0
VERTEX
8
LOTS
10
-21.5811
20
36.3145
30
0.0
0
VERTEX
8
LOTS
10
36.7946
20
0.0638
30
0.0
0
VERTEX
8
LOTS
10
24.3565
20
-38.1570
30
0.0
0
SEQEND
0
TEXT
8
LABELS
10
0.0000
20
2.2400
30
0.0
40
3.840
1
LOT 55
72
1
11
0.0000
21
2.2400
31
0.0
0
TEXT
8
LABELS
10
0.0000
20
-2.8800
30
0.0
40
3.200
1
2804.1 m2 (28.04 sotix)
72
1
11
0.0000
21
-2.8800
31
0.0
0
TEXT
8
DIMS
10
-30.5756
20
19.0466
30
0.0
40
2.400
1
38.94
72
1
11
-30.5756
21
19.0466
31
0.0
0
TEXT
8
DIMS
10
7.6068
20
18.1892
30
0.0
40
2.400
1
68.72
72
1
11
7.6068
21
18.1892
31
0.0
0
TEXT
8
DIMS
10
30.5756
20
-19.0466
30
0.0
40
2.400
1
40.19
72
1
11
30.5756
21
-19.0466
31
0.0
0
TEXT
8
DIMS
10
-7.6068
20
-18.1892
30
0.0
40
2.400
1
75.38
72
1
11
-7.6068
21
-18.1892
31
0.0
0
ENDSEC
0
EOF
