0
SECTION
2
HEADER
9
$ACADVER
1
AC1009
9
$INSUNITS
70
6
0
ENDSEC
0
SECTION
2
ENTITIES
0
POLYLINE
8
LOTS
66
1
70
1
0
VERTEX
8
LOTS
10
-42.5679
20
10.8510
30
0.0
0
VERTEX
8
LOTS
10
-27.7139
20
35.1667
30
0.0
0
VERTEX
8
LOTS
10
39.9197
20
-8.9749
30
0.0
0
VERTEX
8
LOTS
10
30.3622
20
-37.0427
30
0.0
0
SEQEND
0
TEXT
8
LABELS
10
-0.0000
20
2.3022
30
0.0
40
3.947
1
LOT 53
72
1
11
-0.0000
21
2.3022
31
0.0
0
TEXT
8
LABELS
10
-0.0000
20
-2.9600
30
0.0
40
3.289
1
2402.5 m2 (24.02 sotix)
72
1
11
-0.0000
21
-2.9600
31
0.0
0
TEXT
8
DIMS
10
-35.1409
20
23.0088
30
0.0
40
2.467
1
28.49
72
1
11
-35.1409
21
23.0088
31
0.0
0
TEXT
8
DIMS
10
6.1029
20
13.0959
30
0.0
40
2.467
1
80.76
72
1
11
6.1029
21
13.0959
31
0.0
0
TEXT
8
DIMS
10
35.1409
20
-23.0088
30
0.0
40
2.467
1
29.65
72
1
11
35.1409
21
-23.0088
31
0.0
0
TEXT
8
DIMS
10
-6.1029
20
-13.0959
30
0.0
40
2.467
1
87.25
72
1
11
-6.1029
21
-13.0959
31
0.0
0
ENDSEC
0
EOF
