0
SECTION
2
HEADER
9
$ACADVER
1
AC1009
9
$INSUNITS
70
6
0
ENDSEC
0
SECTION
2
ENTITIES
0
POLYLINE
8
LOTS
66
1
70
1
0
VERTEX
8
LOTS
10
-40.6733
20
-6.3785
30
0.0
0
VERTEX
8
LOTS
10
-33.1020
20
34.2259
30
0.0
0
VERTEX
8
LOTS
10
45.6890
20
1.6692
30
0.0
0
VERTEX
8
LOTS
10
28.0864
20
-29.5167
30
0.0
0
SEQEND
0
TEXT
8
LABELS
10
0.0000
20
2.2541
30
0.0
40
3.864
1
LOT 62
72
1
11
0.0000
21
2.2541
31
0.0
0
TEXT
8
LABELS
10
0.0000
20
-2.8981
30
0.0
40
3.220
1
2998.7 m2 (29.99 sotix)
72
1
11
0.0000
21
-2.8981
31
0.0
0
TEXT
8
DIMS
10
-36.8877
20
13.9237
30
0.0
40
2.415
1
41.30
72
1
11
-36.8877
21
13.9237
31
0.0
0
TEXT
8
DIMS
10
6.2935
20
17.9476
30
0.0
40
2.415
1
85.25
72
1
11
6.2935
21
17.9476
31
0.0
0
TEXT
8
DIMS
10
36.8877
20
-13.9237
30
0.0
40
2.415
1
35.81
72
1
11
36.8877
21
-13.9237
31
0.0
0
TEXT
8
DIMS
10
-6.2935
20
-17.9476
30
0.0
40
2.415
1
72.55
72
1
11
-6.2935
21
-17.9476
31
0.0
0
ENDSEC
0
EOF
