0
SECTION
2
HEADER
9
$ACADVER
1
AC1009
9
$INSUNITS
70
6
0
ENDSEC
0
SECTION
2
ENTITIES
0
POLYLINE
8
LOTS
66
1
70
1
0
VERTEX
8
LOTS
10
-41.8799
20
34.7110
30
0.0
0
VERTEX
8
LOTS
10
11.5027
20
48.6841
30
0.0
0
VERTEX
8
LOTS
10
44.2922
20
-30.6017
30
0.0
0
VERTEX
8
LOTS
10
-13.9149
20
-52.7935
30
0.0
0
SEQEND
0
TEXT
8
LABELS
10
0.0000
20
2.7957
30
0.0
40
4.793
1
LOT 30
72
1
11
0.0000
21
2.7957
31
0.0
0
TEXT
8
LABELS
10
0.0000
20
-3.5945
30
0.0
40
3.994
1
5202.3 m2 (52.02 sotix)
72
1
11
0.0000
21
-3.5945
31
0.0
0
TEXT
8
DIMS
10
-15.1886
20
41.6976
30
0.0
40
2.995
1
55.18
72
1
11
-15.1886
21
41.6976
31
0.0
0
TEXT
8
DIMS
10
27.8974
20
9.0412
30
0.0
40
2.995
1
85.80
72
1
11
27.8974
21
9.0412
31
0.0
0
TEXT
8
DIMS
10
15.1886
20
-41.6976
30
0.0
40
2.995
1
62.29
72
1
11
15.1886
21
-41.6976
31
0.0
0
TEXT
8
DIMS
10
-27.8974
20
-9.0412
30
0.0
40
2.995
1
91.86
72
1
11
-27.8974
21
-9.0412
31
0.0
0
ENDSEC
0
EOF
