0
SECTION
2
HEADER
9
$ACADVER
1
AC1009
9
$INSUNITS
70
6
0
ENDSEC
0
SECTION
2
ENTITIES
0
POLYLINE
8
LOTS
66
1
70
1
0
VERTEX
8
LOTS
10
4.3390
20
32.6493
30
0.0
0
VERTEX
8
LOTS
10
5.3842
20
32.9866
30
0.0
0
VERTEX
8
LOTS
10
27.1398
20
-22.2471
30
0.0
0
VERTEX
8
LOTS
10
26.1255
20
-22.5894
30
0.0
0
VERTEX
8
LOTS
10
-21.4170
20
-38.6331
30
0.0
0
VERTEX
8
LOTS
10
-41.5716
20
17.8338
30
0.0
0
SEQEND
0
TEXT
8
LABELS
10
-0.0000
20
2.0843
30
0.0
40
3.573
1
LOT 39
72
1
11
-0.0000
21
2.0843
31
0.0
0
TEXT
8
LABELS
10
-0.0000
20
-2.6798
30
0.0
40
2.978
1
2997.7 m2 (29.98 sotix)
72
1
11
-0.0000
21
-2.6798
31
0.0
0
TEXT
8
DIMS
10
4.8616
20
32.8179
30
0.0
40
2.233
1
1.10
72
1
11
4.8616
21
32.8179
31
0.0
0
TEXT
8
DIMS
10
16.2620
20
5.3697
30
0.0
40
2.233
1
59.36
72
1
11
16.2620
21
5.3697
31
0.0
0
TEXT
8
DIMS
10
26.6327
20
-22.4183
30
0.0
40
2.233
1
1.07
72
1
11
26.6327
21
-22.4183
31
0.0
0
TEXT
8
DIMS
10
2.3543
20
-30.6113
30
0.0
40
2.233
1
50.18
72
1
11
2.3543
21
-30.6113
31
0.0
0
TEXT
8
DIMS
10
-31.4943
20
-10.3997
30
0.0
40
2.233
1
59.96
72
1
11
-31.4943
21
-10.3997
31
0.0
0
TEXT
8
DIMS
10
-18.6163
20
25.2416
30
0.0
40
2.233
1
48.24
72
1
11
-18.6163
21
25.2416
31
0.0
0
ENDSEC
0
EOF
