0
SECTION
2
HEADER
9
$ACADVER
1
AC1009
9
$INSUNITS
70
6
0
ENDSEC
0
SECTION
2
ENTITIES
0
POLYLINE
8
LOTS
66
1
70
1
0
VERTEX
8
LOTS
10
-12.5691
20
42.5161
30
0.0
0
VERTEX
8
LOTS
10
20.9672
20
44.8512
30
0.0
0
VERTEX
8
LOTS
10
22.8815
20
-53.8983
30
0.0
0
VERTEX
8
LOTS
10
-9.1677
20
-42.6912
30
0.0
0
VERTEX
8
LOTS
10
-10.7572
20
-2.8741
30
0.0
0
VERTEX
8
LOTS
10
-11.3547
20
12.0963
30
0.0
0
SEQEND
0
TEXT
8
LABELS
10
-0.0000
20
2.2033
30
0.0
40
3.777
1
LOT 17
72
1
11
-0.0000
21
2.2033
31
0.0
0
TEXT
8
LABELS
10
-0.0000
20
-2.8328
30
0.0
40
3.148
1
3004.4 m2 (30.04 sotix)
72
1
11
-0.0000
21
-2.8328
31
0.0
0
TEXT
8
DIMS
10
4.1991
20
43.6837
30
0.0
40
2.361
1
33.62
72
1
11
4.1991
21
43.6837
31
0.0
0
TEXT
8
DIMS
10
21.9244
20
-4.5236
30
0.0
40
2.361
1
98.77
72
1
11
21.9244
21
-4.5236
31
0.0
0
TEXT
8
DIMS
10
6.8569
20
-48.2948
30
0.0
40
2.361
1
33.95
72
1
11
6.8569
21
-48.2948
31
0.0
0
TEXT
8
DIMS
10
-9.9625
20
-22.7826
30
0.0
40
2.361
1
39.85
72
1
11
-9.9625
21
-22.7826
31
0.0
0
TEXT
8
DIMS
10
-11.0560
20
4.6111
30
0.0
40
2.361
1
14.98
72
1
11
-11.0560
21
4.6111
31
0.0
0
TEXT
8
DIMS
10
-11.9619
20
27.3062
30
0.0
40
2.361
1
30.44
72
1
11
-11.9619
21
27.3062
31
0.0
0
ENDSEC
0
EOF
