0
SECTION
2
HEADER
9
$ACADVER
1
AC1009
9
$INSUNITS
70
6
0
ENDSEC
0
SECTION
2
ENTITIES
0
POLYLINE
8
LOTS
66
1
70
1
0
VERTEX
8
LOTS
10
-29.1808
20
20.9780
30
0.0
0
VERTEX
8
LOTS
10
7.1689
20
26.0432
30
0.0
0
VERTEX
8
LOTS
10
30.8971
20
-16.4377
30
0.0
0
VERTEX
8
LOTS
10
-8.8852
20
-30.5836
30
0.0
0
SEQEND
0
TEXT
8
LABELS
10
-0.0000
20
1.7337
30
0.0
40
2.972
1
LOT 25
72
1
11
-0.0000
21
1.7337
31
0.0
0
TEXT
8
LABELS
10
-0.0000
20
-2.2291
30
0.0
40
2.477
1
2001.3 m2 (20.01 sotix)
72
1
11
-0.0000
21
-2.2291
31
0.0
0
TEXT
8
DIMS
10
-11.0060
20
23.5106
30
0.0
40
1.858
1
36.70
72
1
11
-11.0060
21
23.5106
31
0.0
0
TEXT
8
DIMS
10
19.0330
20
4.8028
30
0.0
40
1.858
1
48.66
72
1
11
19.0330
21
4.8028
31
0.0
0
TEXT
8
DIMS
10
11.0060
20
-23.5106
30
0.0
40
1.858
1
42.22
72
1
11
11.0060
21
-23.5106
31
0.0
0
TEXT
8
DIMS
10
-19.0330
20
-4.8028
30
0.0
40
1.858
1
55.41
72
1
11
-19.0330
21
-4.8028
31
0.0
0
ENDSEC
0
EOF
