0
SECTION
2
HEADER
9
$ACADVER
1
AC1009
9
$INSUNITS
70
6
0
ENDSEC
0
SECTION
2
ENTITIES
0
POLYLINE
8
LOTS
66
1
70
1
0
VERTEX
8
LOTS
10
-33.8695
20
26.8222
30
0.0
0
VERTEX
8
LOTS
10
6.3994
20
41.2376
30
0.0
0
VERTEX
8
LOTS
10
32.9940
20
-26.0772
30
0.0
0
VERTEX
8
LOTS
10
-5.5238
20
-41.9826
30
0.0
0
SEQEND
0
TEXT
8
LABELS
10
0.0000
20
2.2418
30
0.0
40
3.843
1
LOT 35
72
1
11
0.0000
21
2.2418
31
0.0
0
TEXT
8
LABELS
10
0.0000
20
-2.8823
30
0.0
40
3.203
1
3097.6 m2 (30.98 sotix)
72
1
11
0.0000
21
-2.8823
31
0.0
0
TEXT
8
DIMS
10
-13.7351
20
34.0299
30
0.0
40
2.402
1
42.77
72
1
11
-13.7351
21
34.0299
31
0.0
0
TEXT
8
DIMS
10
19.6967
20
7.5802
30
0.0
40
2.402
1
72.38
72
1
11
19.6967
21
7.5802
31
0.0
0
TEXT
8
DIMS
10
13.7351
20
-34.0299
30
0.0
40
2.402
1
41.67
72
1
11
13.7351
21
-34.0299
31
0.0
0
TEXT
8
DIMS
10
-19.6967
20
-7.5802
30
0.0
40
2.402
1
74.41
72
1
11
-19.6967
21
-7.5802
31
0.0
0
ENDSEC
0
EOF
