0
SECTION
2
HEADER
9
$ACADVER
1
AC1009
9
$INSUNITS
70
6
0
ENDSEC
0
SECTION
2
ENTITIES
0
POLYLINE
8
LOTS
66
1
70
1
0
VERTEX
8
LOTS
10
-37.0104
20
-9.4533
30
0.0
0
VERTEX
8
LOTS
10
-26.1549
20
30.1714
30
0.0
0
VERTEX
8
LOTS
10
38.0490
20
8.7405
30
0.0
0
VERTEX
8
LOTS
10
25.1162
20
-29.4586
30
0.0
0
SEQEND
0
TEXT
8
LABELS
10
0.0000
20
2.0131
30
0.0
40
3.451
1
LOT 59
72
1
11
0.0000
21
2.0131
31
0.0
0
TEXT
8
LABELS
10
0.0000
20
-2.5883
30
0.0
40
2.876
1
2704.3 m2 (27.04 sotix)
72
1
11
0.0000
21
-2.5883
31
0.0
0
TEXT
8
DIMS
10
-31.5826
20
10.3590
30
0.0
40
2.157
1
41.08
72
1
11
-31.5826
21
10.3590
31
0.0
0
TEXT
8
DIMS
10
5.9471
20
19.4560
30
0.0
40
2.157
1
67.69
72
1
11
5.9471
21
19.4560
31
0.0
0
TEXT
8
DIMS
10
31.5826
20
-10.3590
30
0.0
40
2.157
1
40.33
72
1
11
31.5826
21
-10.3590
31
0.0
0
TEXT
8
DIMS
10
-5.9471
20
-19.4560
30
0.0
40
2.157
1
65.27
72
1
11
-5.9471
21
-19.4560
31
0.0
0
ENDSEC
0
EOF
