0
SECTION
2
HEADER
9
$ACADVER
1
AC1009
9
$INSUNITS
70
6
0
ENDSEC
0
SECTION
2
ENTITIES
0
POLYLINE
8
LOTS
66
1
70
1
0
VERTEX
8
LOTS
10
4.6153
20
25.9277
30
0.0
0
VERTEX
8
LOTS
10
7.8254
20
27.7333
30
0.0
0
VERTEX
8
LOTS
10
24.0824
20
-11.8028
30
0.0
0
VERTEX
8
LOTS
10
20.8292
20
-13.2276
30
0.0
0
VERTEX
8
LOTS
10
-21.2773
20
-31.6694
30
0.0
0
VERTEX
8
LOTS
10
-36.0750
20
3.0387
30
0.0
0
SEQEND
0
TEXT
8
LABELS
10
-0.0000
20
1.7754
30
0.0
40
3.044
1
LOT 44
72
1
11
-0.0000
21
1.7754
31
0.0
0
TEXT
8
LABELS
10
-0.0000
20
-2.2827
30
0.0
40
2.536
1
2002.7 m2 (20.03 sotix)
72
1
11
-0.0000
21
-2.2827
31
0.0
0
TEXT
8
DIMS
10
6.2204
20
26.8305
30
0.0
40
1.902
1
3.68
72
1
11
6.2204
21
26.8305
31
0.0
0
TEXT
8
DIMS
10
15.9539
20
7.9653
30
0.0
40
1.902
1
42.75
72
1
11
15.9539
21
7.9653
31
0.0
0
TEXT
8
DIMS
10
22.4558
20
-12.5152
30
0.0
40
1.902
1
3.55
72
1
11
22.4558
21
-12.5152
31
0.0
0
TEXT
8
DIMS
10
-0.2240
20
-22.4485
30
0.0
40
1.902
1
45.97
72
1
11
-0.2240
21
-22.4485
31
0.0
0
TEXT
8
DIMS
10
-28.6761
20
-14.3153
30
0.0
40
1.902
1
37.73
72
1
11
-28.6761
21
-14.3153
31
0.0
0
TEXT
8
DIMS
10
-15.7298
20
14.4832
30
0.0
40
1.902
1
46.69
72
1
11
-15.7298
21
14.4832
31
0.0
0
ENDSEC
0
EOF
