0
SECTION
2
HEADER
9
$ACADVER
1
AC1009
9
$INSUNITS
70
6
0
ENDSEC
0
SECTION
2
ENTITIES
0
POLYLINE
8
LOTS
66
1
70
1
0
VERTEX
8
LOTS
10
-34.6477
20
22.0995
30
0.0
0
VERTEX
8
LOTS
10
11.4597
20
58.5907
30
0.0
0
VERTEX
8
LOTS
10
51.4128
20
5.9510
30
0.0
0
VERTEX
8
LOTS
10
6.7050
20
-23.7680
30
0.0
0
VERTEX
8
LOTS
10
1.4358
20
-27.2706
30
0.0
0
VERTEX
8
LOTS
10
0.1646
20
-28.1082
30
0.0
0
VERTEX
8
LOTS
10
-0.8857
20
-28.8001
30
0.0
0
VERTEX
8
LOTS
10
-35.6445
20
21.3057
30
0.0
0
SEQEND
0
TEXT
8
LABELS
10
0.0000
20
2.5904
30
0.0
40
4.441
1
LOT 47
72
1
11
0.0000
21
2.5904
31
0.0
0
TEXT
8
LABELS
10
0.0000
20
-3.3306
30
0.0
40
3.701
1
3899.2 m2 (38.99 sotix)
72
1
11
0.0000
21
-3.3306
31
0.0
0
TEXT
8
DIMS
10
-11.5940
20
40.3451
30
0.0
40
2.775
1
58.80
72
1
11
-11.5940
21
40.3451
31
0.0
0
TEXT
8
DIMS
10
31.4362
20
32.2708
30
0.0
40
2.775
1
66.08
72
1
11
31.4362
21
32.2708
31
0.0
0
TEXT
8
DIMS
10
29.0589
20
-8.9085
30
0.0
40
2.775
1
53.68
72
1
11
29.0589
21
-8.9085
31
0.0
0
TEXT
8
DIMS
10
4.0704
20
-25.5193
30
0.0
40
2.775
1
6.33
72
1
11
4.0704
21
-25.5193
31
0.0
0
TEXT
8
DIMS
10
0.8002
20
-27.6894
30
0.0
40
2.775
1
1.52
72
1
11
0.8002
21
-27.6894
31
0.0
0
TEXT
8
DIMS
10
-0.3606
20
-28.4542
30
0.0
40
2.775
1
1.26
72
1
11
-0.3606
21
-28.4542
31
0.0
0
TEXT
8
DIMS
10
-18.2651
20
-3.7472
30
0.0
40
2.775
1
60.98
72
1
11
-18.2651
21
-3.7472
31
0.0
0
TEXT
8
DIMS
10
-35.1461
20
21.7026
30
0.0
40
2.775
1
1.27
72
1
11
-35.1461
21
21.7026
31
0.0
0
ENDSEC
0
EOF
