0
SECTION
2
HEADER
9
$ACADVER
1
AC1009
9
$INSUNITS
70
6
0
ENDSEC
0
SECTION
2
ENTITIES
0
POLYLINE
8
LOTS
66
1
70
1
0
VERTEX
8
LOTS
10
-42.2126
20
-5.8069
30
0.0
0
VERTEX
8
LOTS
10
-39.0079
20
4.9259
30
0.0
0
VERTEX
8
LOTS
10
-27.9767
20
41.8681
30
0.0
0
VERTEX
8
LOTS
10
32.5288
20
24.5335
30
0.0
0
VERTEX
8
LOTS
10
23.3322
20
-3.6251
30
0.0
0
VERTEX
8
LOTS
10
18.8019
20
-17.4966
30
0.0
0
VERTEX
8
LOTS
10
17.4519
20
-21.6332
30
0.0
0
VERTEX
8
LOTS
10
17.0824
20
-22.7656
30
0.0
0
SEQEND
0
TEXT
8
LABELS
10
0.0000
20
2.0751
30
0.0
40
3.557
1
LOT 57
72
1
11
0.0000
21
2.0751
31
0.0
0
TEXT
8
LABELS
10
0.0000
20
-2.6679
30
0.0
40
2.964
1
3098.9 m2 (30.99 sotix)
72
1
11
0.0000
21
-2.6679
31
0.0
0
TEXT
8
DIMS
10
-40.6103
20
-0.4405
30
0.0
40
2.223
1
11.20
72
1
11
-40.6103
21
-0.4405
31
0.0
0
TEXT
8
DIMS
10
-33.4923
20
23.3970
30
0.0
40
2.223
1
38.55
72
1
11
-33.4923
21
23.3970
31
0.0
0
TEXT
8
DIMS
10
2.2760
20
33.2008
30
0.0
40
2.223
1
62.94
72
1
11
2.2760
21
33.2008
31
0.0
0
TEXT
8
DIMS
10
27.9305
20
10.4542
30
0.0
40
2.223
1
29.62
72
1
11
27.9305
21
10.4542
31
0.0
0
TEXT
8
DIMS
10
21.0671
20
-10.5609
30
0.0
40
2.223
1
14.59
72
1
11
21.0671
21
-10.5609
31
0.0
0
TEXT
8
DIMS
10
18.1269
20
-19.5649
30
0.0
40
2.223
1
4.35
72
1
11
18.1269
21
-19.5649
31
0.0
0
TEXT
8
DIMS
10
17.2671
20
-22.1994
30
0.0
40
2.223
1
1.19
72
1
11
17.2671
21
-22.1994
31
0.0
0
TEXT
8
DIMS
10
-12.5651
20
-14.2862
30
0.0
40
2.223
1
61.67
72
1
11
-12.5651
21
-14.2862
31
0.0
0
ENDSEC
0
EOF
