0
SECTION
2
HEADER
9
$ACADVER
1
AC1009
9
$INSUNITS
70
6
0
ENDSEC
0
SECTION
2
ENTITIES
0
POLYLINE
8
LOTS
66
1
70
1
0
VERTEX
8
LOTS
10
-4.6493
20
-43.7920
30
0.0
0
VERTEX
8
LOTS
10
-33.6265
20
27.5416
30
0.0
0
VERTEX
8
LOTS
10
-1.9698
20
40.7405
30
0.0
0
VERTEX
8
LOTS
10
-1.6854
20
39.9540
30
0.0
0
VERTEX
8
LOTS
10
-1.3342
20
38.9825
30
0.0
0
VERTEX
8
LOTS
10
23.5027
20
-29.7114
30
0.0
0
VERTEX
8
LOTS
10
23.7068
20
-30.2758
30
0.0
0
VERTEX
8
LOTS
10
-3.9444
20
-43.4394
30
0.0
0
SEQEND
0
TEXT
8
LABELS
10
-0.0000
20
2.1450
30
0.0
40
3.677
1
LOT 33
72
1
11
-0.0000
21
2.1450
31
0.0
0
TEXT
8
LABELS
10
-0.0000
20
-2.7578
30
0.0
40
3.064
1
2500.5 m2 (25.00 sotix)
72
1
11
-0.0000
21
-2.7578
31
0.0
0
TEXT
8
DIMS
10
-19.1379
20
-8.1252
30
0.0
40
2.298
1
76.99
72
1
11
-19.1379
21
-8.1252
31
0.0
0
TEXT
8
DIMS
10
-17.7982
20
34.1411
30
0.0
40
2.298
1
34.30
72
1
11
-17.7982
21
34.1411
31
0.0
0
TEXT
8
DIMS
10
-1.8276
20
40.3472
30
0.0
40
2.298
1
0.84
72
1
11
-1.8276
21
40.3472
31
0.0
0
TEXT
8
DIMS
10
-1.5098
20
39.4682
30
0.0
40
2.298
1
1.03
72
1
11
-1.5098
21
39.4682
31
0.0
0
TEXT
8
DIMS
10
11.0843
20
4.6355
30
0.0
40
2.298
1
73.05
72
1
11
11.0843
21
4.6355
31
0.0
0
TEXT
8
DIMS
10
23.6048
20
-29.9936
30
0.0
40
2.298
1
0.60
72
1
11
23.6048
21
-29.9936
31
0.0
0
TEXT
8
DIMS
10
9.8812
20
-36.8576
30
0.0
40
2.298
1
30.62
72
1
11
9.8812
21
-36.8576
31
0.0
0
TEXT
8
DIMS
10
-4.2968
20
-43.6157
30
0.0
40
2.298
1
0.79
72
1
11
-4.2968
21
-43.6157
31
0.0
0
ENDSEC
0
EOF
