0
SECTION
2
HEADER
9
$ACADVER
1
AC1009
9
$INSUNITS
70
6
0
ENDSEC
0
SECTION
2
ENTITIES
0
POLYLINE
8
LOTS
66
1
70
1
0
VERTEX
8
LOTS
10
-17.3095
20
21.8187
30
0.0
0
VERTEX
8
LOTS
10
25.9467
20
19.2522
30
0.0
0
VERTEX
8
LOTS
10
23.6652
20
-2.0471
30
0.0
0
VERTEX
8
LOTS
10
19.4636
20
-39.8951
30
0.0
0
VERTEX
8
LOTS
10
-33.7459
20
-20.9875
30
0.0
0
VERTEX
8
LOTS
10
-18.0201
20
21.8587
30
0.0
0
SEQEND
0
TEXT
8
LABELS
10
0.0000
20
1.8036
30
0.0
40
3.092
1
LOT 5
72
1
11
0.0000
21
1.8036
31
0.0
0
TEXT
8
LABELS
10
0.0000
20
-2.3190
30
0.0
40
2.577
1
2598.9 m2 (25.99 sotix)
72
1
11
0.0000
21
-2.3190
31
0.0
0
TEXT
8
DIMS
10
4.3186
20
20.5355
30
0.0
40
1.932
1
43.33
72
1
11
4.3186
21
20.5355
31
0.0
0
TEXT
8
DIMS
10
24.8059
20
8.6026
30
0.0
40
1.932
1
21.42
72
1
11
24.8059
21
8.6026
31
0.0
0
TEXT
8
DIMS
10
21.5644
20
-20.9711
30
0.0
40
1.932
1
38.08
72
1
11
21.5644
21
-20.9711
31
0.0
0
TEXT
8
DIMS
10
-7.1412
20
-30.4413
30
0.0
40
1.932
1
56.47
72
1
11
-7.1412
21
-30.4413
31
0.0
0
TEXT
8
DIMS
10
-25.8830
20
0.4356
30
0.0
40
1.932
1
45.64
72
1
11
-25.8830
21
0.4356
31
0.0
0
TEXT
8
DIMS
10
-17.6648
20
21.8387
30
0.0
40
1.932
1
0.71
72
1
11
-17.6648
21
21.8387
31
0.0
0
ENDSEC
0
EOF
