0
SECTION
2
HEADER
9
$ACADVER
1
AC1009
9
$INSUNITS
70
6
0
ENDSEC
0
SECTION
2
ENTITIES
0
POLYLINE
8
LOTS
66
1
70
1
0
VERTEX
8
LOTS
10
-23.1180
20
-34.0442
30
0.0
0
VERTEX
8
LOTS
10
-6.1581
20
43.7569
30
0.0
0
VERTEX
8
LOTS
10
25.1982
20
35.2797
30
0.0
0
VERTEX
8
LOTS
10
4.0780
20
-44.9923
30
0.0
0
SEQEND
0
TEXT
8
LABELS
10
-0.0000
20
2.1220
30
0.0
40
3.638
1
LOT 8
72
1
11
-0.0000
21
2.1220
31
0.0
0
TEXT
8
LABELS
10
-0.0000
20
-2.7283
30
0.0
40
3.031
1
2498.8 m2 (24.99 sotix)
72
1
11
-0.0000
21
-2.7283
31
0.0
0
TEXT
8
DIMS
10
-14.6381
20
4.8563
30
0.0
40
2.274
1
79.63
72
1
11
-14.6381
21
4.8563
31
0.0
0
TEXT
8
DIMS
10
9.5200
20
39.5183
30
0.0
40
2.274
1
32.48
72
1
11
9.5200
21
39.5183
31
0.0
0
TEXT
8
DIMS
10
14.6381
20
-4.8563
30
0.0
40
2.274
1
83.00
72
1
11
14.6381
21
-4.8563
31
0.0
0
TEXT
8
DIMS
10
-9.5200
20
-39.5183
30
0.0
40
2.274
1
29.32
72
1
11
-9.5200
21
-39.5183
31
0.0
0
ENDSEC
0
EOF
