0
SECTION
2
HEADER
9
$ACADVER
1
AC1009
9
$INSUNITS
70
6
0
ENDSEC
0
SECTION
2
ENTITIES
0
POLYLINE
8
LOTS
66
1
70
1
0
VERTEX
8
LOTS
10
-14.2140
20
-25.9732
30
0.0
0
VERTEX
8
LOTS
10
-27.1441
20
-26.0934
30
0.0
0
VERTEX
8
LOTS
10
-9.9333
20
49.5162
30
0.0
0
VERTEX
8
LOTS
10
31.1172
20
28.2039
30
0.0
0
VERTEX
8
LOTS
10
20.1742
20
-25.6535
30
0.0
0
SEQEND
0
TEXT
8
LABELS
10
-0.0000
20
2.0045
30
0.0
40
3.436
1
LOT 2
72
1
11
-0.0000
21
2.0045
31
0.0
0
TEXT
8
LABELS
10
-0.0000
20
-2.5772
30
0.0
40
2.864
1
3007.1 m2 (30.07 sotix)
72
1
11
-0.0000
21
-2.5772
31
0.0
0
TEXT
8
DIMS
10
-20.6791
20
-26.0333
30
0.0
40
2.148
1
12.93
72
1
11
-20.6791
21
-26.0333
31
0.0
0
TEXT
8
DIMS
10
-18.5387
20
11.7114
30
0.0
40
2.148
1
77.54
72
1
11
-18.5387
21
11.7114
31
0.0
0
TEXT
8
DIMS
10
10.5920
20
38.8601
30
0.0
40
2.148
1
46.25
72
1
11
10.5920
21
38.8601
31
0.0
0
TEXT
8
DIMS
10
25.6457
20
1.2752
30
0.0
40
2.148
1
54.96
72
1
11
25.6457
21
1.2752
31
0.0
0
TEXT
8
DIMS
10
2.9801
20
-25.8134
30
0.0
40
2.148
1
34.39
72
1
11
2.9801
21
-25.8134
31
0.0
0
ENDSEC
0
EOF
