0
SECTION
2
HEADER
9
$ACADVER
1
AC1009
9
$INSUNITS
70
6
0
ENDSEC
0
SECTION
2
ENTITIES
0
POLYLINE
8
LOTS
66
1
70
1
0
VERTEX
8
LOTS
10
-25.6383
20
33.4877
30
0.0
0
VERTEX
8
LOTS
10
9.4156
20
44.5968
30
0.0
0
VERTEX
8
LOTS
10
17.5112
20
-21.2557
30
0.0
0
VERTEX
8
LOTS
10
17.4658
20
-21.2736
30
0.0
0
VERTEX
8
LOTS
10
-18.7543
20
-35.5552
30
0.0
0
SEQEND
0
TEXT
8
LABELS
10
0.0000
20
1.9116
30
0.0
40
3.277
1
LOT 22
72
1
11
0.0000
21
1.9116
31
0.0
0
TEXT
8
LABELS
10
0.0000
20
-2.4578
30
0.0
40
2.731
1
2500.3 m2 (25.00 sotix)
72
1
11
0.0000
21
-2.4578
31
0.0
0
TEXT
8
DIMS
10
-8.1114
20
39.0423
30
0.0
40
2.048
1
36.77
72
1
11
-8.1114
21
39.0423
31
0.0
0
TEXT
8
DIMS
10
13.4634
20
11.6706
30
0.0
40
2.048
1
66.35
72
1
11
13.4634
21
11.6706
31
0.0
0
TEXT
8
DIMS
10
17.4885
20
-21.2647
30
0.0
40
2.048
1
0.05
72
1
11
17.4885
21
-21.2647
31
0.0
0
TEXT
8
DIMS
10
-0.6442
20
-28.4144
30
0.0
40
2.048
1
38.93
72
1
11
-0.6442
21
-28.4144
31
0.0
0
TEXT
8
DIMS
10
-22.1963
20
-1.0338
30
0.0
40
2.048
1
69.39
72
1
11
-22.1963
21
-1.0338
31
0.0
0
ENDSEC
0
EOF
