0
SECTION
2
HEADER
9
$ACADVER
1
AC1009
9
$INSUNITS
70
6
0
ENDSEC
0
SECTION
2
ENTITIES
0
POLYLINE
8
LOTS
66
1
70
1
0
VERTEX
8
LOTS
10
-29.2079
20
-25.2539
30
0.0
0
VERTEX
8
LOTS
10
-25.0062
20
12.5941
30
0.0
0
VERTEX
8
LOTS
10
-22.7248
20
33.8934
30
0.0
0
VERTEX
8
LOTS
10
42.9525
20
27.8802
30
0.0
0
VERTEX
8
LOTS
10
33.9864
20
-49.1138
30
0.0
0
SEQEND
0
TEXT
8
LABELS
10
0.0000
20
2.3097
30
0.0
40
3.960
1
LOT 6
72
1
11
0.0000
21
2.3097
31
0.0
0
TEXT
8
LABELS
10
0.0000
20
-2.9697
30
0.0
40
3.300
1
4500.0 m2 (45.00 sotix)
72
1
11
0.0000
21
-2.9697
31
0.0
0
TEXT
8
DIMS
10
-27.1071
20
-6.3299
30
0.0
40
2.475
1
38.08
72
1
11
-27.1071
21
-6.3299
31
0.0
0
TEXT
8
DIMS
10
-23.8655
20
23.2437
30
0.0
40
2.475
1
21.42
72
1
11
-23.8655
21
23.2437
31
0.0
0
TEXT
8
DIMS
10
10.1139
20
30.8868
30
0.0
40
2.475
1
65.95
72
1
11
10.1139
21
30.8868
31
0.0
0
TEXT
8
DIMS
10
38.4694
20
-10.6168
30
0.0
40
2.475
1
77.51
72
1
11
38.4694
21
-10.6168
31
0.0
0
TEXT
8
DIMS
10
2.3893
20
-37.1838
30
0.0
40
2.475
1
67.55
72
1
11
2.3893
21
-37.1838
31
0.0
0
ENDSEC
0
EOF
