0
SECTION
2
HEADER
9
$ACADVER
1
AC1009
9
$INSUNITS
70
6
0
ENDSEC
0
SECTION
2
ENTITIES
0
POLYLINE
8
LOTS
66
1
70
1
0
VERTEX
8
LOTS
10
-40.0224
20
9.3017
30
0.0
0
VERTEX
8
LOTS
10
-25.7577
20
32.7370
30
0.0
0
VERTEX
8
LOTS
10
38.1691
20
-7.1988
30
0.0
0
VERTEX
8
LOTS
10
27.6110
20
-34.8399
30
0.0
0
SEQEND
0
TEXT
8
LABELS
10
-0.0000
20
2.1703
30
0.0
40
3.720
1
LOT 54
72
1
11
-0.0000
21
2.1703
31
0.0
0
TEXT
8
LABELS
10
-0.0000
20
-2.7904
30
0.0
40
3.100
1
2201.7 m2 (22.02 sotix)
72
1
11
-0.0000
21
-2.7904
31
0.0
0
TEXT
8
DIMS
10
-32.8900
20
21.0194
30
0.0
40
2.325
1
27.44
72
1
11
-32.8900
21
21.0194
31
0.0
0
TEXT
8
DIMS
10
6.2057
20
12.7691
30
0.0
40
2.325
1
75.38
72
1
11
6.2057
21
12.7691
31
0.0
0
TEXT
8
DIMS
10
32.8900
20
-21.0194
30
0.0
40
2.325
1
29.59
72
1
11
32.8900
21
-21.0194
31
0.0
0
TEXT
8
DIMS
10
-6.2057
20
-12.7691
30
0.0
40
2.325
1
80.76
72
1
11
-6.2057
21
-12.7691
31
0.0
0
ENDSEC
0
EOF
