0
SECTION
2
HEADER
9
$ACADVER
1
AC1009
9
$INSUNITS
70
6
0
ENDSEC
0
SECTION
2
ENTITIES
0
POLYLINE
8
LOTS
66
1
70
1
0
VERTEX
8
LOTS
10
6.8778
20
34.0895
30
0.0
0
VERTEX
8
LOTS
10
8.0493
20
34.5422
30
0.0
0
VERTEX
8
LOTS
10
27.3177
20
-26.3105
30
0.0
0
VERTEX
8
LOTS
10
25.8930
20
-26.4561
30
0.0
0
VERTEX
8
LOTS
10
-28.6392
20
-32.0318
30
0.0
0
VERTEX
8
LOTS
10
-39.4987
20
16.1667
30
0.0
0
SEQEND
0
TEXT
8
LABELS
10
0.0000
20
1.9808
30
0.0
40
3.396
1
LOT 27
72
1
11
0.0000
21
1.9808
31
0.0
0
TEXT
8
LABELS
10
0.0000
20
-2.5467
30
0.0
40
2.830
1
3003.3 m2 (30.03 sotix)
72
1
11
0.0000
21
-2.5467
31
0.0
0
TEXT
8
DIMS
10
7.4635
20
34.3159
30
0.0
40
2.122
1
1.26
72
1
11
7.4635
21
34.3159
31
0.0
0
TEXT
8
DIMS
10
17.6835
20
4.1159
30
0.0
40
2.122
1
63.83
72
1
11
17.6835
21
4.1159
31
0.0
0
TEXT
8
DIMS
10
26.6054
20
-26.3833
30
0.0
40
2.122
1
1.43
72
1
11
26.6054
21
-26.3833
31
0.0
0
TEXT
8
DIMS
10
-1.3731
20
-29.2440
30
0.0
40
2.122
1
54.82
72
1
11
-1.3731
21
-29.2440
31
0.0
0
TEXT
8
DIMS
10
-34.0689
20
-7.9326
30
0.0
40
2.122
1
49.41
72
1
11
-34.0689
21
-7.9326
31
0.0
0
TEXT
8
DIMS
10
-16.3104
20
25.1281
30
0.0
40
2.122
1
49.72
72
1
11
-16.3104
21
25.1281
31
0.0
0
ENDSEC
0
EOF
