0
SECTION
2
HEADER
9
$ACADVER
1
AC1009
9
$INSUNITS
70
6
0
ENDSEC
0
SECTION
2
ENTITIES
0
POLYLINE
8
LOTS
66
1
70
1
0
VERTEX
8
LOTS
10
-20.5724
20
19.6930
30
0.0
0
VERTEX
8
LOTS
10
3.3968
20
23.3162
30
0.0
0
VERTEX
8
LOTS
10
7.5064
20
21.5767
30
0.0
0
VERTEX
8
LOTS
10
9.6113
20
20.6856
30
0.0
0
VERTEX
8
LOTS
10
24.0980
20
-18.1955
30
0.0
0
VERTEX
8
LOTS
10
23.1677
20
-30.0242
30
0.0
0
VERTEX
8
LOTS
10
-13.0024
20
-43.6879
30
0.0
0
VERTEX
8
LOTS
10
-34.2053
20
6.6361
30
0.0
0
SEQEND
0
TEXT
8
LABELS
10
0.0000
20
1.8652
30
0.0
40
3.197
1
LOT 41
72
1
11
0.0000
21
1.8652
31
0.0
0
TEXT
8
LABELS
10
0.0000
20
-2.3981
30
0.0
40
2.665
1
2598.0 m2 (25.98 sotix)
72
1
11
0.0000
21
-2.3981
31
0.0
0
TEXT
8
DIMS
10
-8.5878
20
21.5046
30
0.0
40
1.998
1
24.24
72
1
11
-8.5878
21
21.5046
31
0.0
0
TEXT
8
DIMS
10
5.4516
20
22.4464
30
0.0
40
1.998
1
4.46
72
1
11
5.4516
21
22.4464
31
0.0
0
TEXT
8
DIMS
10
8.5588
20
21.1311
30
0.0
40
1.998
1
2.29
72
1
11
8.5588
21
21.1311
31
0.0
0
TEXT
8
DIMS
10
16.8546
20
1.2451
30
0.0
40
1.998
1
41.49
72
1
11
16.8546
21
1.2451
31
0.0
0
TEXT
8
DIMS
10
23.6328
20
-24.1098
30
0.0
40
1.998
1
11.87
72
1
11
23.6328
21
-24.1098
31
0.0
0
TEXT
8
DIMS
10
5.0827
20
-36.8560
30
0.0
40
1.998
1
38.66
72
1
11
5.0827
21
-36.8560
31
0.0
0
TEXT
8
DIMS
10
-23.6039
20
-18.5259
30
0.0
40
1.998
1
54.61
72
1
11
-23.6039
21
-18.5259
31
0.0
0
TEXT
8
DIMS
10
-27.3889
20
13.1645
30
0.0
40
1.998
1
18.88
72
1
11
-27.3889
21
13.1645
31
0.0
0
ENDSEC
0
EOF
