0
SECTION
2
HEADER
9
$ACADVER
1
AC1009
9
$INSUNITS
70
6
0
ENDSEC
0
SECTION
2
ENTITIES
0
POLYLINE
8
LOTS
66
1
70
1
0
VERTEX
8
LOTS
10
-21.7905
20
35.5023
30
0.0
0
VERTEX
8
LOTS
10
19.2979
20
33.4764
30
0.0
0
VERTEX
8
LOTS
10
20.2216
20
-42.0120
30
0.0
0
VERTEX
8
LOTS
10
-17.7290
20
-26.9667
30
0.0
0
SEQEND
0
TEXT
8
LABELS
10
0.0000
20
1.8515
30
0.0
40
3.174
1
LOT 15
72
1
11
0.0000
21
1.8515
31
0.0
0
TEXT
8
LABELS
10
0.0000
20
-2.3805
30
0.0
40
2.645
1
2704.7 m2 (27.05 sotix)
72
1
11
0.0000
21
-2.3805
31
0.0
0
TEXT
8
DIMS
10
-1.2463
20
34.4893
30
0.0
40
1.984
1
41.14
72
1
11
-1.2463
21
34.4893
31
0.0
0
TEXT
8
DIMS
10
19.7597
20
-4.2678
30
0.0
40
1.984
1
75.49
72
1
11
19.7597
21
-4.2678
31
0.0
0
TEXT
8
DIMS
10
1.2463
20
-34.4893
30
0.0
40
1.984
1
40.82
72
1
11
1.2463
21
-34.4893
31
0.0
0
TEXT
8
DIMS
10
-19.7597
20
4.2678
30
0.0
40
1.984
1
62.60
72
1
11
-19.7597
21
4.2678
31
0.0
0
ENDSEC
0
EOF
