0
SECTION
2
HEADER
9
$ACADVER
1
AC1009
9
$INSUNITS
70
6
0
ENDSEC
0
SECTION
2
ENTITIES
0
POLYLINE
8
LOTS
66
1
70
1
0
VERTEX
8
LOTS
10
-37.1121
20
-2.1086
30
0.0
0
VERTEX
8
LOTS
10
-21.7232
20
28.7134
30
0.0
0
VERTEX
8
LOTS
10
37.5721
20
11.7547
30
0.0
0
VERTEX
8
LOTS
10
21.2633
20
-38.3595
30
0.0
0
SEQEND
0
TEXT
8
LABELS
10
0.0000
20
2.1080
30
0.0
40
3.614
1
LOT 56
72
1
11
0.0000
21
2.1080
31
0.0
0
TEXT
8
LABELS
10
0.0000
20
-2.7103
30
0.0
40
3.011
1
2802.6 m2 (28.03 sotix)
72
1
11
0.0000
21
-2.7103
31
0.0
0
TEXT
8
DIMS
10
-29.4177
20
13.3024
30
0.0
40
2.259
1
34.45
72
1
11
-29.4177
21
13.3024
31
0.0
0
TEXT
8
DIMS
10
7.9244
20
20.2340
30
0.0
40
2.259
1
61.67
72
1
11
7.9244
21
20.2340
31
0.0
0
TEXT
8
DIMS
10
29.4177
20
-13.3024
30
0.0
40
2.259
1
52.70
72
1
11
29.4177
21
-13.3024
31
0.0
0
TEXT
8
DIMS
10
-7.9244
20
-20.2340
30
0.0
40
2.259
1
68.72
72
1
11
-7.9244
21
-20.2340
31
0.0
0
ENDSEC
0
EOF
