0
SECTION
2
HEADER
9
$ACADVER
1
AC1009
9
$INSUNITS
70
6
0
ENDSEC
0
SECTION
2
ENTITIES
0
POLYLINE
8
LOTS
66
1
70
1
0
VERTEX
8
LOTS
10
-18.3542
20
43.2672
30
0.0
0
VERTEX
8
LOTS
10
16.2057
20
46.6573
30
0.0
0
VERTEX
8
LOTS
10
16.9510
20
-39.0561
30
0.0
0
VERTEX
8
LOTS
10
-14.8025
20
-50.8684
30
0.0
0
SEQEND
0
TEXT
8
LABELS
10
0.0000
20
2.1781
30
0.0
40
3.734
1
LOT 19
72
1
11
0.0000
21
2.1781
31
0.0
0
TEXT
8
LABELS
10
0.0000
20
-2.8004
30
0.0
40
3.112
1
2997.9 m2 (29.98 sotix)
72
1
11
0.0000
21
-2.8004
31
0.0
0
TEXT
8
DIMS
10
-1.0743
20
44.9623
30
0.0
40
2.334
1
34.73
72
1
11
-1.0743
21
44.9623
31
0.0
0
TEXT
8
DIMS
10
16.5784
20
3.8006
30
0.0
40
2.334
1
85.72
72
1
11
16.5784
21
3.8006
31
0.0
0
TEXT
8
DIMS
10
1.0743
20
-44.9623
30
0.0
40
2.334
1
33.88
72
1
11
1.0743
21
-44.9623
31
0.0
0
TEXT
8
DIMS
10
-16.5784
20
-3.8006
30
0.0
40
2.334
1
94.20
72
1
11
-16.5784
21
-3.8006
31
0.0
0
ENDSEC
0
EOF
