0
SECTION
2
HEADER
9
$ACADVER
1
AC1009
9
$INSUNITS
70
6
0
ENDSEC
0
SECTION
2
ENTITIES
0
POLYLINE
8
LOTS
66
1
70
1
0
VERTEX
8
LOTS
10
-24.8846
20
-32.3847
30
0.0
0
VERTEX
8
LOTS
10
-3.7643
20
47.8873
30
0.0
0
VERTEX
8
LOTS
10
25.3870
20
27.8109
30
0.0
0
VERTEX
8
LOTS
10
3.2619
20
-43.3135
30
0.0
0
SEQEND
0
TEXT
8
LABELS
10
0.0000
20
2.1869
30
0.0
40
3.749
1
LOT 9
72
1
11
0.0000
21
2.1869
31
0.0
0
TEXT
8
LABELS
10
0.0000
20
-2.8117
30
0.0
40
3.124
1
2503.9 m2 (25.04 sotix)
72
1
11
0.0000
21
-2.8117
31
0.0
0
TEXT
8
DIMS
10
-14.3245
20
7.7513
30
0.0
40
2.343
1
83.00
72
1
11
-14.3245
21
7.7513
31
0.0
0
TEXT
8
DIMS
10
10.8113
20
37.8491
30
0.0
40
2.343
1
35.40
72
1
11
10.8113
21
37.8491
31
0.0
0
TEXT
8
DIMS
10
14.3245
20
-7.7513
30
0.0
40
2.343
1
74.49
72
1
11
14.3245
21
-7.7513
31
0.0
0
TEXT
8
DIMS
10
-10.8113
20
-37.8491
30
0.0
40
2.343
1
30.19
72
1
11
-10.8113
21
-37.8491
31
0.0
0
ENDSEC
0
EOF
