0
SECTION
2
HEADER
9
$ACADVER
1
AC1009
9
$INSUNITS
70
6
0
ENDSEC
0
SECTION
2
ENTITIES
0
POLYLINE
8
LOTS
66
1
70
1
0
VERTEX
8
LOTS
10
-16.7524
20
31.4291
30
0.0
0
VERTEX
8
LOTS
10
11.1980
20
38.9065
30
0.0
0
VERTEX
8
LOTS
10
18.0821
20
-30.1363
30
0.0
0
VERTEX
8
LOTS
10
-12.5277
20
-40.1993
30
0.0
0
SEQEND
0
TEXT
8
LABELS
10
-0.0000
20
1.8152
30
0.0
40
3.112
1
LOT 21
72
1
11
-0.0000
21
1.8152
31
0.0
0
TEXT
8
LABELS
10
-0.0000
20
-2.3338
30
0.0
40
2.593
1
2108.1 m2 (21.08 sotix)
72
1
11
-0.0000
21
-2.3338
31
0.0
0
TEXT
8
DIMS
10
-2.7772
20
35.1678
30
0.0
40
1.945
1
28.93
72
1
11
-2.7772
21
35.1678
31
0.0
0
TEXT
8
DIMS
10
14.6400
20
4.3851
30
0.0
40
1.945
1
69.39
72
1
11
14.6400
21
4.3851
31
0.0
0
TEXT
8
DIMS
10
2.7772
20
-35.1678
30
0.0
40
1.945
1
32.22
72
1
11
2.7772
21
-35.1678
31
0.0
0
TEXT
8
DIMS
10
-14.6400
20
-4.3851
30
0.0
40
1.945
1
71.75
72
1
11
-14.6400
21
-4.3851
31
0.0
0
ENDSEC
0
EOF
