0
SECTION
2
HEADER
9
$ACADVER
1
AC1009
9
$INSUNITS
70
6
0
ENDSEC
0
SECTION
2
ENTITIES
0
POLYLINE
8
LOTS
66
1
70
1
0
VERTEX
8
LOTS
10
-31.1708
20
17.1713
30
0.0
0
VERTEX
8
LOTS
10
39.0785
20
30.8282
30
0.0
0
VERTEX
8
LOTS
10
53.9379
20
0.0060
30
0.0
0
VERTEX
8
LOTS
10
-19.9355
20
-27.5116
30
0.0
0
VERTEX
8
LOTS
10
-18.9921
20
-15.5154
30
0.0
0
VERTEX
8
LOTS
10
-22.9180
20
-4.9785
30
0.0
0
SEQEND
0
TEXT
8
LABELS
10
0.0000
20
2.1669
30
0.0
40
3.715
1
LOT 42
72
1
11
0.0000
21
2.1669
31
0.0
0
TEXT
8
LABELS
10
0.0000
20
-2.7860
30
0.0
40
3.096
1
2900.6 m2 (29.01 sotix)
72
1
11
0.0000
21
-2.7860
31
0.0
0
TEXT
8
DIMS
10
3.9538
20
23.9997
30
0.0
40
2.322
1
71.56
72
1
11
3.9538
21
23.9997
31
0.0
0
TEXT
8
DIMS
10
46.5082
20
15.4171
30
0.0
40
2.322
1
34.22
72
1
11
46.5082
21
15.4171
31
0.0
0
TEXT
8
DIMS
10
17.0012
20
-13.7528
30
0.0
40
2.322
1
78.83
72
1
11
17.0012
21
-13.7528
31
0.0
0
TEXT
8
DIMS
10
-19.4638
20
-21.5135
30
0.0
40
2.322
1
12.03
72
1
11
-19.4638
21
-21.5135
31
0.0
0
TEXT
8
DIMS
10
-20.9550
20
-10.2469
30
0.0
40
2.322
1
11.24
72
1
11
-20.9550
21
-10.2469
31
0.0
0
TEXT
8
DIMS
10
-27.0444
20
6.0964
30
0.0
40
2.322
1
23.64
72
1
11
-27.0444
21
6.0964
31
0.0
0
ENDSEC
0
EOF
