0
SECTION
2
HEADER
9
$ACADVER
1
AC1009
9
$INSUNITS
70
6
0
ENDSEC
0
SECTION
2
ENTITIES
0
POLYLINE
8
LOTS
66
1
70
1
0
VERTEX
8
LOTS
10
-25.0212
20
-20.5901
30
0.0
0
VERTEX
8
LOTS
10
-17.4026
20
13.7036
30
0.0
0
VERTEX
8
LOTS
10
-3.7462
20
31.3708
30
0.0
0
VERTEX
8
LOTS
10
31.8683
20
14.9037
30
0.0
0
VERTEX
8
LOTS
10
14.3016
20
-39.3881
30
0.0
0
SEQEND
0
TEXT
8
LABELS
10
0.0000
20
1.9066
30
0.0
40
3.269
1
LOT 11
72
1
11
0.0000
21
1.9066
31
0.0
0
TEXT
8
LABELS
10
0.0000
20
-2.4514
30
0.0
40
2.724
1
2499.9 m2 (25.00 sotix)
72
1
11
0.0000
21
-2.4514
31
0.0
0
TEXT
8
DIMS
10
-21.2119
20
-3.4432
30
0.0
40
2.043
1
35.13
72
1
11
-21.2119
21
-3.4432
31
0.0
0
TEXT
8
DIMS
10
-10.5744
20
22.5372
30
0.0
40
2.043
1
22.33
72
1
11
-10.5744
21
22.5372
31
0.0
0
TEXT
8
DIMS
10
14.0611
20
23.1373
30
0.0
40
2.043
1
39.24
72
1
11
14.0611
21
23.1373
31
0.0
0
TEXT
8
DIMS
10
23.0850
20
-12.2422
30
0.0
40
2.043
1
57.06
72
1
11
23.0850
21
-12.2422
31
0.0
0
TEXT
8
DIMS
10
-5.3598
20
-29.9891
30
0.0
40
2.043
1
43.58
72
1
11
-5.3598
21
-29.9891
31
0.0
0
ENDSEC
0
EOF
