0
SECTION
2
HEADER
9
$ACADVER
1
AC1009
9
$INSUNITS
70
6
0
ENDSEC
0
SECTION
2
ENTITIES
0
POLYLINE
8
LOTS
66
1
70
1
0
VERTEX
8
LOTS
10
-42.1657
20
8.5980
30
0.0
0
VERTEX
8
LOTS
10
16.0591
20
24.6136
30
0.0
0
VERTEX
8
LOTS
10
27.7741
20
27.5609
30
0.0
0
VERTEX
8
LOTS
10
38.6362
20
-20.6493
30
0.0
0
VERTEX
8
LOTS
10
0.5520
20
-24.5280
30
0.0
0
VERTEX
8
LOTS
10
-40.8557
20
-15.5953
30
0.0
0
SEQEND
0
TEXT
8
LABELS
10
0.0000
20
2.0189
30
0.0
40
3.461
1
LOT 26
72
1
11
0.0000
21
2.0189
31
0.0
0
TEXT
8
LABELS
10
0.0000
20
-2.5957
30
0.0
40
2.884
1
3005.6 m2 (30.06 sotix)
72
1
11
0.0000
21
-2.5957
31
0.0
0
TEXT
8
DIMS
10
-13.0533
20
16.6058
30
0.0
40
2.163
1
60.39
72
1
11
-13.0533
21
16.6058
31
0.0
0
TEXT
8
DIMS
10
21.9166
20
26.0873
30
0.0
40
2.163
1
12.08
72
1
11
21.9166
21
26.0873
31
0.0
0
TEXT
8
DIMS
10
33.2051
20
3.4558
30
0.0
40
2.163
1
49.42
72
1
11
33.2051
21
3.4558
31
0.0
0
TEXT
8
DIMS
10
19.5941
20
-22.5886
30
0.0
40
2.163
1
38.28
72
1
11
19.5941
21
-22.5886
31
0.0
0
TEXT
8
DIMS
10
-20.1519
20
-20.0616
30
0.0
40
2.163
1
42.36
72
1
11
-20.1519
21
-20.0616
31
0.0
0
TEXT
8
DIMS
10
-41.5107
20
-3.4987
30
0.0
40
2.163
1
24.23
72
1
11
-41.5107
21
-3.4987
31
0.0
0
ENDSEC
0
EOF
