0
SECTION
2
HEADER
9
$ACADVER
1
AC1009
9
$INSUNITS
70
6
0
ENDSEC
0
SECTION
2
ENTITIES
0
POLYLINE
8
LOTS
66
1
70
1
0
VERTEX
8
LOTS
10
5.9337
20
29.2076
30
0.0
0
VERTEX
8
LOTS
10
8.5861
20
29.8406
30
0.0
0
VERTEX
8
LOTS
10
29.7891
20
-20.4833
30
0.0
0
VERTEX
8
LOTS
10
27.6808
20
-21.2381
30
0.0
0
VERTEX
8
LOTS
10
-12.2721
20
-35.5420
30
0.0
0
VERTEX
8
LOTS
10
-25.6971
20
-1.4580
30
0.0
0
VERTEX
8
LOTS
10
-34.0205
20
19.6734
30
0.0
0
SEQEND
0
TEXT
8
LABELS
10
-0.0000
20
1.9185
30
0.0
40
3.289
1
LOT 40
72
1
11
-0.0000
21
1.9185
31
0.0
0
TEXT
8
LABELS
10
-0.0000
20
-2.4667
30
0.0
40
2.741
1
2504.8 m2 (25.05 sotix)
72
1
11
-0.0000
21
-2.4667
31
0.0
0
TEXT
8
DIMS
10
7.2599
20
29.5241
30
0.0
40
2.056
1
2.73
72
1
11
7.2599
21
29.5241
31
0.0
0
TEXT
8
DIMS
10
19.1876
20
4.6786
30
0.0
40
2.056
1
54.61
72
1
11
19.1876
21
4.6786
31
0.0
0
TEXT
8
DIMS
10
28.7350
20
-20.8607
30
0.0
40
2.056
1
2.24
72
1
11
28.7350
21
-20.8607
31
0.0
0
TEXT
8
DIMS
10
7.7044
20
-28.3901
30
0.0
40
2.056
1
42.44
72
1
11
7.7044
21
-28.3901
31
0.0
0
TEXT
8
DIMS
10
-18.9846
20
-18.5000
30
0.0
40
2.056
1
36.63
72
1
11
-18.9846
21
-18.5000
31
0.0
0
TEXT
8
DIMS
10
-29.8588
20
9.1077
30
0.0
40
2.056
1
22.71
72
1
11
-29.8588
21
9.1077
31
0.0
0
TEXT
8
DIMS
10
-14.0434
20
24.4405
30
0.0
40
2.056
1
41.08
72
1
11
-14.0434
21
24.4405
31
0.0
0
ENDSEC
0
EOF
