0
SECTION
2
HEADER
9
$ACADVER
1
AC1009
9
$INSUNITS
70
6
0
ENDSEC
0
SECTION
2
ENTITIES
0
POLYLINE
8
LOTS
66
1
70
1
0
VERTEX
8
LOTS
10
-30.1450
20
9.1524
30
0.0
0
VERTEX
8
LOTS
10
-24.9965
20
28.3039
30
0.0
0
VERTEX
8
LOTS
10
37.1304
20
8.2987
30
0.0
0
VERTEX
8
LOTS
10
36.6238
20
6.9427
30
0.0
0
VERTEX
8
LOTS
10
20.9462
20
-35.0162
30
0.0
0
VERTEX
8
LOTS
10
-39.5589
20
-17.6816
30
0.0
0
SEQEND
0
TEXT
8
LABELS
10
0.0000
20
2.0885
30
0.0
40
3.580
1
LOT 58
72
1
11
0.0000
21
2.0885
31
0.0
0
TEXT
8
LABELS
10
0.0000
20
-2.6852
30
0.0
40
2.984
1
3003.7 m2 (30.04 sotix)
72
1
11
0.0000
21
-2.6852
31
0.0
0
TEXT
8
DIMS
10
-27.5708
20
18.7282
30
0.0
40
2.238
1
19.83
72
1
11
-27.5708
21
18.7282
31
0.0
0
TEXT
8
DIMS
10
6.0670
20
18.3013
30
0.0
40
2.238
1
65.27
72
1
11
6.0670
21
18.3013
31
0.0
0
TEXT
8
DIMS
10
36.8771
20
7.6207
30
0.0
40
2.238
1
1.45
72
1
11
36.8771
21
7.6207
31
0.0
0
TEXT
8
DIMS
10
28.7850
20
-14.0367
30
0.0
40
2.238
1
44.79
72
1
11
28.7850
21
-14.0367
31
0.0
0
TEXT
8
DIMS
10
-9.3064
20
-26.3489
30
0.0
40
2.238
1
62.94
72
1
11
-9.3064
21
-26.3489
31
0.0
0
TEXT
8
DIMS
10
-34.8520
20
-4.2646
30
0.0
40
2.238
1
28.44
72
1
11
-34.8520
21
-4.2646
31
0.0
0
ENDSEC
0
EOF
