0
SECTION
2
HEADER
9
$ACADVER
1
AC1009
9
$INSUNITS
70
6
0
ENDSEC
0
SECTION
2
ENTITIES
0
POLYLINE
8
LOTS
66
1
70
1
0
VERTEX
8
LOTS
10
-35.5314
20
-43.0626
30
0.0
0
VERTEX
8
LOTS
10
-10.2405
20
49.7544
30
0.0
0
VERTEX
8
LOTS
10
31.4914
20
34.4589
30
0.0
0
VERTEX
8
LOTS
10
14.2805
20
-41.1507
30
0.0
0
SEQEND
0
TEXT
8
LABELS
10
-0.0000
20
2.4042
30
0.0
40
4.121
1
LOT 1
72
1
11
-0.0000
21
2.4042
31
0.0
0
TEXT
8
LABELS
10
-0.0000
20
-3.0911
30
0.0
40
3.435
1
3996.8 m2 (39.97 sotix)
72
1
11
-0.0000
21
-3.0911
31
0.0
0
TEXT
8
DIMS
10
-22.8859
20
3.3459
30
0.0
40
2.576
1
96.20
72
1
11
-22.8859
21
3.3459
31
0.0
0
TEXT
8
DIMS
10
10.6255
20
42.1067
30
0.0
40
2.576
1
44.45
72
1
11
10.6255
21
42.1067
31
0.0
0
TEXT
8
DIMS
10
22.8859
20
-3.3459
30
0.0
40
2.576
1
77.54
72
1
11
22.8859
21
-3.3459
31
0.0
0
TEXT
8
DIMS
10
-10.6255
20
-42.1067
30
0.0
40
2.576
1
49.85
72
1
11
-10.6255
21
-42.1067
31
0.0
0
ENDSEC
0
EOF
