0
SECTION
2
HEADER
9
$ACADVER
1
AC1009
9
$INSUNITS
70
6
0
ENDSEC
0
SECTION
2
ENTITIES
0
POLYLINE
8
LOTS
66
1
70
1
0
VERTEX
8
LOTS
10
-16.1240
20
40.4503
30
0.0
0
VERTEX
8
LOTS
10
13.9614
20
39.8975
30
0.0
0
VERTEX
8
LOTS
10
17.3628
20
-45.3098
30
0.0
0
VERTEX
8
LOTS
10
-15.2002
20
-35.0380
30
0.0
0
SEQEND
0
TEXT
8
LABELS
10
0.0000
20
1.9334
30
0.0
40
3.314
1
LOT 16
72
1
11
0.0000
21
1.9334
31
0.0
0
TEXT
8
LABELS
10
0.0000
20
-2.4858
30
0.0
40
2.762
1
2505.1 m2 (25.05 sotix)
72
1
11
0.0000
21
-2.4858
31
0.0
0
TEXT
8
DIMS
10
-1.0813
20
40.1739
30
0.0
40
2.071
1
30.09
72
1
11
-1.0813
21
40.1739
31
0.0
0
TEXT
8
DIMS
10
15.6621
20
-2.7062
30
0.0
40
2.071
1
85.28
72
1
11
15.6621
21
-2.7062
31
0.0
0
TEXT
8
DIMS
10
1.0813
20
-40.1739
30
0.0
40
2.071
1
34.14
72
1
11
1.0813
21
-40.1739
31
0.0
0
TEXT
8
DIMS
10
-15.6621
20
2.7062
30
0.0
40
2.071
1
75.49
72
1
11
-15.6621
21
2.7062
31
0.0
0
ENDSEC
0
EOF
