0
SECTION
2
HEADER
9
$ACADVER
1
AC1009
9
$INSUNITS
70
6
0
ENDSEC
0
SECTION
2
ENTITIES
0
POLYLINE
8
LOTS
66
1
70
1
0
VERTEX
8
LOTS
10
-31.4479
20
31.4539
30
0.0
0
VERTEX
8
LOTS
10
0.3833
20
42.2679
30
0.0
0
VERTEX
8
LOTS
10
29.3606
20
-29.0657
30
0.0
0
VERTEX
8
LOTS
10
1.7040
20
-44.6562
30
0.0
0
SEQEND
0
TEXT
8
LABELS
10
0.0000
20
2.2277
30
0.0
40
3.819
1
LOT 32
72
1
11
0.0000
21
2.2277
31
0.0
0
TEXT
8
LABELS
10
0.0000
20
-2.8642
30
0.0
40
3.182
1
2602.9 m2 (26.03 sotix)
72
1
11
0.0000
21
-2.8642
31
0.0
0
TEXT
8
DIMS
10
-15.5323
20
36.8609
30
0.0
40
2.387
1
33.62
72
1
11
-15.5323
21
36.8609
31
0.0
0
TEXT
8
DIMS
10
14.8719
20
6.6011
30
0.0
40
2.387
1
76.99
72
1
11
14.8719
21
6.6011
31
0.0
0
TEXT
8
DIMS
10
15.5323
20
-36.8609
30
0.0
40
2.387
1
31.75
72
1
11
15.5323
21
-36.8609
31
0.0
0
TEXT
8
DIMS
10
-14.8719
20
-6.6011
30
0.0
40
2.387
1
83.02
72
1
11
-14.8719
21
-6.6011
31
0.0
0
ENDSEC
0
EOF
