0
SECTION
2
HEADER
9
$ACADVER
1
AC1009
9
$INSUNITS
70
6
0
ENDSEC
0
SECTION
2
ENTITIES
0
POLYLINE
8
LOTS
66
1
70
1
0
VERTEX
8
LOTS
10
-49.2035
20
14.7614
30
0.0
0
VERTEX
8
LOTS
10
-29.0331
20
38.4939
30
0.0
0
VERTEX
8
LOTS
10
22.1371
20
2.5256
30
0.0
0
VERTEX
8
LOTS
10
45.5305
20
-14.7934
30
0.0
0
VERTEX
8
LOTS
10
10.5689
20
-40.9875
30
0.0
0
SEQEND
0
TEXT
8
LABELS
10
0.0000
20
2.5969
30
0.0
40
4.452
1
LOT 49
72
1
11
0.0000
21
2.5969
31
0.0
0
TEXT
8
LABELS
10
0.0000
20
-3.3388
30
0.0
40
3.710
1
3202.0 m2 (32.02 sotix)
72
1
11
0.0000
21
-3.3388
31
0.0
0
TEXT
8
DIMS
10
-39.1183
20
26.6276
30
0.0
40
2.782
1
31.15
72
1
11
-39.1183
21
26.6276
31
0.0
0
TEXT
8
DIMS
10
-3.4480
20
20.5097
30
0.0
40
2.782
1
62.55
72
1
11
-3.4480
21
20.5097
31
0.0
0
TEXT
8
DIMS
10
33.8338
20
-6.1339
30
0.0
40
2.782
1
29.11
72
1
11
33.8338
21
-6.1339
31
0.0
0
TEXT
8
DIMS
10
28.0497
20
-27.8904
30
0.0
40
2.782
1
43.69
72
1
11
28.0497
21
-27.8904
31
0.0
0
TEXT
8
DIMS
10
-19.3173
20
-13.1131
30
0.0
40
2.782
1
81.74
72
1
11
-19.3173
21
-13.1131
31
0.0
0
ENDSEC
0
EOF
