0
SECTION
2
HEADER
9
$ACADVER
1
AC1009
9
$INSUNITS
70
6
0
ENDSEC
0
SECTION
2
ENTITIES
0
POLYLINE
8
LOTS
66
1
70
1
0
VERTEX
8
LOTS
10
-28.1773
20
28.9543
30
0.0
0
VERTEX
8
LOTS
10
1.1661
20
40.9563
30
0.0
0
VERTEX
8
LOTS
10
29.5119
20
-27.8485
30
0.0
0
VERTEX
8
LOTS
10
-2.5007
20
-42.0621
30
0.0
0
SEQEND
0
TEXT
8
LABELS
10
0.0000
20
2.1230
30
0.0
40
3.639
1
LOT 34
72
1
11
0.0000
21
2.1230
31
0.0
0
TEXT
8
LABELS
10
0.0000
20
-2.7296
30
0.0
40
3.033
1
2498.8 m2 (24.99 sotix)
72
1
11
0.0000
21
-2.7296
31
0.0
0
TEXT
8
DIMS
10
-13.5056
20
34.9553
30
0.0
40
2.275
1
31.70
72
1
11
-13.5056
21
34.9553
31
0.0
0
TEXT
8
DIMS
10
15.3390
20
6.5539
30
0.0
40
2.275
1
74.41
72
1
11
15.3390
21
6.5539
31
0.0
0
TEXT
8
DIMS
10
13.5056
20
-34.9553
30
0.0
40
2.275
1
35.03
72
1
11
13.5056
21
-34.9553
31
0.0
0
TEXT
8
DIMS
10
-15.3390
20
-6.5539
30
0.0
40
2.275
1
75.52
72
1
11
-15.3390
21
-6.5539
31
0.0
0
ENDSEC
0
EOF
