0
SECTION
2
HEADER
9
$ACADVER
1
AC1009
9
$INSUNITS
70
6
0
ENDSEC
0
SECTION
2
ENTITIES
0
POLYLINE
8
LOTS
66
1
70
1
0
VERTEX
8
LOTS
10
-32.3070
20
-17.2267
30
0.0
0
VERTEX
8
LOTS
10
-14.5573
20
31.3751
30
0.0
0
VERTEX
8
LOTS
10
21.4014
20
24.1603
30
0.0
0
VERTEX
8
LOTS
10
25.4629
20
-38.3087
30
0.0
0
SEQEND
0
TEXT
8
LABELS
10
-0.0000
20
1.9008
30
0.0
40
3.259
1
LOT 14
72
1
11
-0.0000
21
1.9008
31
0.0
0
TEXT
8
LABELS
10
-0.0000
20
-2.4439
30
0.0
40
2.715
1
2699.5 m2 (26.99 sotix)
72
1
11
-0.0000
21
-2.4439
31
0.0
0
TEXT
8
DIMS
10
-23.4321
20
7.0742
30
0.0
40
2.037
1
51.74
72
1
11
-23.4321
21
7.0742
31
0.0
0
TEXT
8
DIMS
10
3.4220
20
27.7677
30
0.0
40
2.037
1
36.68
72
1
11
3.4220
21
27.7677
31
0.0
0
TEXT
8
DIMS
10
23.4321
20
-7.0742
30
0.0
40
2.037
1
62.60
72
1
11
23.4321
21
-7.0742
31
0.0
0
TEXT
8
DIMS
10
-3.4220
20
-27.7677
30
0.0
40
2.037
1
61.50
72
1
11
-3.4220
21
-27.7677
31
0.0
0
ENDSEC
0
EOF
