0
SECTION
2
HEADER
9
$ACADVER
1
AC1009
9
$INSUNITS
70
6
0
ENDSEC
0
SECTION
2
ENTITIES
0
POLYLINE
8
LOTS
66
1
70
1
0
VERTEX
8
LOTS
10
-27.5420
20
41.6716
30
0.0
0
VERTEX
8
LOTS
10
45.3884
20
-6.2221
30
0.0
0
VERTEX
8
LOTS
10
32.7924
20
-37.3976
30
0.0
0
VERTEX
8
LOTS
10
-6.1322
20
-13.6884
30
0.0
0
VERTEX
8
LOTS
10
-44.5066
20
15.6365
30
0.0
0
SEQEND
0
TEXT
8
LABELS
10
0.0000
20
2.5141
30
0.0
40
4.310
1
LOT 52
72
1
11
0.0000
21
2.5141
31
0.0
0
TEXT
8
LABELS
10
0.0000
20
-3.2325
30
0.0
40
3.592
1
3010.4 m2 (30.10 sotix)
72
1
11
0.0000
21
-3.2325
31
0.0
0
TEXT
8
DIMS
10
8.9232
20
17.7248
30
0.0
40
2.694
1
87.25
72
1
11
8.9232
21
17.7248
31
0.0
0
TEXT
8
DIMS
10
39.0904
20
-21.8098
30
0.0
40
2.694
1
33.62
72
1
11
39.0904
21
-21.8098
31
0.0
0
TEXT
8
DIMS
10
13.3301
20
-25.5430
30
0.0
40
2.694
1
45.58
72
1
11
13.3301
21
-25.5430
31
0.0
0
TEXT
8
DIMS
10
-25.3194
20
0.9740
30
0.0
40
2.694
1
48.30
72
1
11
-25.3194
21
0.9740
31
0.0
0
TEXT
8
DIMS
10
-36.0243
20
28.6540
30
0.0
40
2.694
1
31.07
72
1
11
-36.0243
21
28.6540
31
0.0
0
ENDSEC
0
EOF
