0
SECTION
2
HEADER
9
$ACADVER
1
AC1009
9
$INSUNITS
70
6
0
ENDSEC
0
SECTION
2
ENTITIES
0
POLYLINE
8
LOTS
66
1
70
1
0
VERTEX
8
LOTS
10
-40.0890
20
3.3301
30
0.0
0
VERTEX
8
LOTS
10
25.2604
20
29.4350
30
0.0
0
VERTEX
8
LOTS
10
40.0582
20
-5.2731
30
0.0
0
VERTEX
8
LOTS
10
-25.2296
20
-27.4920
30
0.0
0
SEQEND
0
TEXT
8
LABELS
10
-0.0000
20
2.0644
30
0.0
40
3.539
1
LOT 43
72
1
11
-0.0000
21
2.0644
31
0.0
0
TEXT
8
LABELS
10
-0.0000
20
-2.6543
30
0.0
40
2.949
1
2498.5 m2 (24.98 sotix)
72
1
11
-0.0000
21
-2.6543
31
0.0
0
TEXT
8
DIMS
10
-7.4143
20
16.3825
30
0.0
40
2.212
1
70.37
72
1
11
-7.4143
21
16.3825
31
0.0
0
TEXT
8
DIMS
10
32.6593
20
12.0809
30
0.0
40
2.212
1
37.73
72
1
11
32.6593
21
12.0809
31
0.0
0
TEXT
8
DIMS
10
7.4143
20
-16.3825
30
0.0
40
2.212
1
68.97
72
1
11
7.4143
21
-16.3825
31
0.0
0
TEXT
8
DIMS
10
-32.6593
20
-12.0809
30
0.0
40
2.212
1
34.22
72
1
11
-32.6593
21
-12.0809
31
0.0
0
ENDSEC
0
EOF
