0
SECTION
2
HEADER
9
$ACADVER
1
AC1009
9
$INSUNITS
70
6
0
ENDSEC
0
SECTION
2
ENTITIES
0
POLYLINE
8
LOTS
66
1
70
1
0
VERTEX
8
LOTS
10
-23.1397
20
17.8755
30
0.0
0
VERTEX
8
LOTS
10
-9.7682
20
19.2217
30
0.0
0
VERTEX
8
LOTS
10
12.2253
20
21.8762
30
0.0
0
VERTEX
8
LOTS
10
12.2497
20
21.2305
30
0.0
0
VERTEX
8
LOTS
10
12.2733
20
20.6063
30
0.0
0
VERTEX
8
LOTS
10
12.3027
20
19.8260
30
0.0
0
VERTEX
8
LOTS
10
12.3878
20
17.5708
30
0.0
0
VERTEX
8
LOTS
10
15.7770
20
-72.2594
30
0.0
0
VERTEX
8
LOTS
10
-21.2255
20
-80.8741
30
0.0
0
VERTEX
8
LOTS
10
-23.0825
20
14.9264
30
0.0
0
SEQEND
0
TEXT
8
LABELS
10
-0.0000
20
2.3073
30
0.0
40
3.955
1
LOT 18
72
1
11
-0.0000
21
2.3073
31
0.0
0
TEXT
8
LABELS
10
-0.0000
20
-2.9666
30
0.0
40
3.296
1
3504.0 m2 (35.04 sotix)
72
1
11
-0.0000
21
-2.9666
31
0.0
0
TEXT
8
DIMS
10
-16.4540
20
18.5486
30
0.0
40
2.472
1
13.44
72
1
11
-16.4540
21
18.5486
31
0.0
0
TEXT
8
DIMS
10
1.2286
20
20.5490
30
0.0
40
2.472
1
22.15
72
1
11
1.2286
21
20.5490
31
0.0
0
TEXT
8
DIMS
10
12.2375
20
21.5534
30
0.0
40
2.472
1
0.65
72
1
11
12.2375
21
21.5534
31
0.0
0
TEXT
8
DIMS
10
12.2615
20
20.9184
30
0.0
40
2.472
1
0.62
72
1
11
12.2615
21
20.9184
31
0.0
0
TEXT
8
DIMS
10
12.2880
20
20.2161
30
0.0
40
2.472
1
0.78
72
1
11
12.2880
21
20.2161
31
0.0
0
TEXT
8
DIMS
10
12.3453
20
18.6984
30
0.0
40
2.472
1
2.26
72
1
11
12.3453
21
18.6984
31
0.0
0
TEXT
8
DIMS
10
14.0824
20
-27.3443
30
0.0
40
2.472
1
89.89
72
1
11
14.0824
21
-27.3443
31
0.0
0
TEXT
8
DIMS
10
-2.7242
20
-76.5667
30
0.0
40
2.472
1
37.99
72
1
11
-2.7242
21
-76.5667
31
0.0
0
TEXT
8
DIMS
10
-22.1540
20
-32.9738
30
0.0
40
2.472
1
95.82
72
1
11
-22.1540
21
-32.9738
31
0.0
0
TEXT
8
DIMS
10
-23.1111
20
16.4010
30
0.0
40
2.472
1
2.95
72
1
11
-23.1111
21
16.4010
31
0.0
0
ENDSEC
0
EOF
