0
SECTION
2
HEADER
9
$ACADVER
1
AC1009
9
$INSUNITS
70
6
0
ENDSEC
0
SECTION
2
ENTITIES
0
POLYLINE
8
LOTS
66
1
70
1
0
VERTEX
8
LOTS
10
-37.0960
20
-1.8546
30
0.0
0
VERTEX
8
LOTS
10
4.9046
20
25.4832
30
0.0
0
VERTEX
8
LOTS
10
5.4726
20
24.5492
30
0.0
0
VERTEX
8
LOTS
10
7.0576
20
21.9424
30
0.0
0
VERTEX
8
LOTS
10
33.7027
20
-21.8784
30
0.0
0
VERTEX
8
LOTS
10
-14.0416
20
-48.2419
30
0.0
0
SEQEND
0
TEXT
8
LABELS
10
-0.0000
20
2.1465
30
0.0
40
3.680
1
LOT 46
72
1
11
-0.0000
21
2.1465
31
0.0
0
TEXT
8
LABELS
10
-0.0000
20
-2.7598
30
0.0
40
3.066
1
2799.5 m2 (28.00 sotix)
72
1
11
-0.0000
21
-2.7598
31
0.0
0
TEXT
8
DIMS
10
-16.0957
20
11.8143
30
0.0
40
2.300
1
50.11
72
1
11
-16.0957
21
11.8143
31
0.0
0
TEXT
8
DIMS
10
5.1886
20
25.0162
30
0.0
40
2.300
1
1.09
72
1
11
5.1886
21
25.0162
31
0.0
0
TEXT
8
DIMS
10
6.2651
20
23.2458
30
0.0
40
2.300
1
3.05
72
1
11
6.2651
21
23.2458
31
0.0
0
TEXT
8
DIMS
10
20.3802
20
0.0320
30
0.0
40
2.300
1
51.29
72
1
11
20.3802
21
0.0320
31
0.0
0
TEXT
8
DIMS
10
9.8306
20
-35.0601
30
0.0
40
2.300
1
54.54
72
1
11
9.8306
21
-35.0601
31
0.0
0
TEXT
8
DIMS
10
-25.5688
20
-25.0482
30
0.0
40
2.300
1
51.80
72
1
11
-25.5688
21
-25.0482
31
0.0
0
ENDSEC
0
EOF
