0
SECTION
2
HEADER
9
$ACADVER
1
AC1009
9
$INSUNITS
70
6
0
ENDSEC
0
SECTION
2
ENTITIES
0
POLYLINE
8
LOTS
66
1
70
1
0
VERTEX
8
LOTS
10
-30.6993
20
25.6786
30
0.0
0
VERTEX
8
LOTS
10
9.1710
20
40.6626
30
0.0
0
VERTEX
8
LOTS
10
32.9592
20
-31.1671
30
0.0
0
VERTEX
8
LOTS
10
-11.4309
20
-35.1741
30
0.0
0
SEQEND
0
TEXT
8
LABELS
10
0.0000
20
2.0793
30
0.0
40
3.564
1
LOT 28
72
1
11
0.0000
21
2.0793
31
0.0
0
TEXT
8
LABELS
10
0.0000
20
-2.6734
30
0.0
40
2.970
1
2999.4 m2 (29.99 sotix)
72
1
11
0.0000
21
-2.6734
31
0.0
0
TEXT
8
DIMS
10
-10.7642
20
33.1706
30
0.0
40
2.228
1
42.59
72
1
11
-10.7642
21
33.1706
31
0.0
0
TEXT
8
DIMS
10
21.0651
20
4.7477
30
0.0
40
2.228
1
75.67
72
1
11
21.0651
21
4.7477
31
0.0
0
TEXT
8
DIMS
10
10.7642
20
-33.1706
30
0.0
40
2.228
1
44.57
72
1
11
10.7642
21
-33.1706
31
0.0
0
TEXT
8
DIMS
10
-21.0651
20
-4.7477
30
0.0
40
2.228
1
63.83
72
1
11
-21.0651
21
-4.7477
31
0.0
0
ENDSEC
0
EOF
