0
SECTION
2
HEADER
9
$ACADVER
1
AC1009
9
$INSUNITS
70
6
0
ENDSEC
0
SECTION
2
ENTITIES
0
POLYLINE
8
LOTS
66
1
70
1
0
VERTEX
8
LOTS
10
-43.2097
20
-6.2807
30
0.0
0
VERTEX
8
LOTS
10
-35.4822
20
33.9857
30
0.0
0
VERTEX
8
LOTS
10
33.2779
20
10.8473
30
0.0
0
VERTEX
8
LOTS
10
23.3340
20
-9.9751
30
0.0
0
VERTEX
8
LOTS
10
22.0801
20
-28.5772
30
0.0
0
SEQEND
0
TEXT
8
LABELS
10
0.0000
20
2.0751
30
0.0
40
3.557
1
LOT 61
72
1
11
0.0000
21
2.0751
31
0.0
0
TEXT
8
LABELS
10
0.0000
20
-2.6680
30
0.0
40
2.964
1
2806.2 m2 (28.06 sotix)
72
1
11
0.0000
21
-2.6680
31
0.0
0
TEXT
8
DIMS
10
-39.3460
20
13.8525
30
0.0
40
2.223
1
41.00
72
1
11
-39.3460
21
13.8525
31
0.0
0
TEXT
8
DIMS
10
-1.1022
20
22.4165
30
0.0
40
2.223
1
72.55
72
1
11
-1.1022
21
22.4165
31
0.0
0
TEXT
8
DIMS
10
28.3059
20
0.4361
30
0.0
40
2.223
1
23.07
72
1
11
28.3059
21
0.4361
31
0.0
0
TEXT
8
DIMS
10
22.7070
20
-19.2761
30
0.0
40
2.223
1
18.64
72
1
11
22.7070
21
-19.2761
31
0.0
0
TEXT
8
DIMS
10
-10.5648
20
-17.4290
30
0.0
40
2.223
1
68.99
72
1
11
-10.5648
21
-17.4290
31
0.0
0
ENDSEC
0
EOF
