0
SECTION
2
HEADER
9
$ACADVER
1
AC1009
9
$INSUNITS
70
6
0
ENDSEC
0
SECTION
2
ENTITIES
0
POLYLINE
8
LOTS
66
1
70
1
0
VERTEX
8
LOTS
10
-45.3094
20
-29.4060
30
0.0
0
VERTEX
8
LOTS
10
-25.8512
20
33.1452
30
0.0
0
VERTEX
8
LOTS
10
-23.1843
20
41.7184
30
0.0
0
VERTEX
8
LOTS
10
26.7630
20
5.9921
30
0.0
0
VERTEX
8
LOTS
10
26.1879
20
5.2479
30
0.0
0
VERTEX
8
LOTS
10
22.7446
20
0.7934
30
0.0
0
VERTEX
8
LOTS
10
13.1210
20
-11.6568
30
0.0
0
VERTEX
8
LOTS
10
5.5283
20
-45.8342
30
0.0
0
SEQEND
0
TEXT
8
LABELS
10
-0.0000
20
2.3814
30
0.0
40
4.082
1
LOT 10
72
1
11
-0.0000
21
2.3814
31
0.0
0
TEXT
8
LABELS
10
-0.0000
20
-3.0618
30
0.0
40
3.402
1
3497.1 m2 (34.97 sotix)
72
1
11
-0.0000
21
-3.0618
31
0.0
0
TEXT
8
DIMS
10
-35.5803
20
1.8696
30
0.0
40
2.552
1
65.51
72
1
11
-35.5803
21
1.8696
31
0.0
0
TEXT
8
DIMS
10
-24.5177
20
37.4318
30
0.0
40
2.552
1
8.98
72
1
11
-24.5177
21
37.4318
31
0.0
0
TEXT
8
DIMS
10
1.7894
20
23.8552
30
0.0
40
2.552
1
61.41
72
1
11
1.7894
21
23.8552
31
0.0
0
TEXT
8
DIMS
10
26.4755
20
5.6200
30
0.0
40
2.552
1
0.94
72
1
11
26.4755
21
5.6200
31
0.0
0
TEXT
8
DIMS
10
24.4662
20
3.0207
30
0.0
40
2.552
1
5.63
72
1
11
24.4662
21
3.0207
31
0.0
0
TEXT
8
DIMS
10
17.9328
20
-5.4317
30
0.0
40
2.552
1
15.74
72
1
11
17.9328
21
-5.4317
31
0.0
0
TEXT
8
DIMS
10
9.3247
20
-28.7455
30
0.0
40
2.552
1
35.01
72
1
11
9.3247
21
-28.7455
31
0.0
0
TEXT
8
DIMS
10
-19.8905
20
-37.6201
30
0.0
40
2.552
1
53.43
72
1
11
-19.8905
21
-37.6201
31
0.0
0
ENDSEC
0
EOF
