0
SECTION
2
HEADER
9
$ACADVER
1
AC1009
9
$INSUNITS
70
6
0
ENDSEC
0
SECTION
2
ENTITIES
0
POLYLINE
8
LOTS
66
1
70
1
0
VERTEX
8
LOTS
10
-38.8205
20
6.1071
30
0.0
0
VERTEX
8
LOTS
10
7.0420
20
42.6266
30
0.0
0
VERTEX
8
LOTS
10
41.8009
20
-7.4792
30
0.0
0
VERTEX
8
LOTS
10
-10.0225
20
-41.2545
30
0.0
0
SEQEND
0
TEXT
8
LABELS
10
-0.0000
20
2.4432
30
0.0
40
4.188
1
LOT 48
72
1
11
-0.0000
21
2.4432
31
0.0
0
TEXT
8
LABELS
10
-0.0000
20
-3.1413
30
0.0
40
3.490
1
3497.2 m2 (34.97 sotix)
72
1
11
-0.0000
21
-3.1413
31
0.0
0
TEXT
8
DIMS
10
-15.8892
20
24.3669
30
0.0
40
2.618
1
58.63
72
1
11
-15.8892
21
24.3669
31
0.0
0
TEXT
8
DIMS
10
24.4215
20
17.5737
30
0.0
40
2.618
1
60.98
72
1
11
24.4215
21
17.5737
31
0.0
0
TEXT
8
DIMS
10
15.8892
20
-24.3669
30
0.0
40
2.618
1
61.86
72
1
11
15.8892
21
-24.3669
31
0.0
0
TEXT
8
DIMS
10
-24.4215
20
-17.5737
30
0.0
40
2.618
1
55.43
72
1
11
-24.4215
21
-17.5737
31
0.0
0
ENDSEC
0
EOF
