0
SECTION
2
HEADER
9
$ACADVER
1
AC1009
9
$INSUNITS
70
6
0
ENDSEC
0
SECTION
2
ENTITIES
0
POLYLINE
8
LOTS
66
1
70
1
0
VERTEX
8
LOTS
10
6.2043
20
34.3043
30
0.0
0
VERTEX
8
LOTS
10
7.4324
20
34.6459
30
0.0
0
VERTEX
8
LOTS
10
18.8368
20
-25.7362
30
0.0
0
VERTEX
8
LOTS
10
16.6575
20
-26.5945
30
0.0
0
VERTEX
8
LOTS
10
-20.5177
20
-41.2360
30
0.0
0
VERTEX
8
LOTS
10
-28.6133
20
24.6165
30
0.0
0
SEQEND
0
TEXT
8
LABELS
10
-0.0000
20
1.8794
30
0.0
40
3.222
1
LOT 23
72
1
11
-0.0000
21
1.8794
31
0.0
0
TEXT
8
LABELS
10
-0.0000
20
-2.4164
30
0.0
40
2.685
1
2504.0 m2 (25.04 sotix)
72
1
11
-0.0000
21
-2.4164
31
0.0
0
TEXT
8
DIMS
10
6.8184
20
34.4751
30
0.0
40
2.014
1
1.27
72
1
11
6.8184
21
34.4751
31
0.0
0
TEXT
8
DIMS
10
13.1346
20
4.4549
30
0.0
40
2.014
1
61.45
72
1
11
13.1346
21
4.4549
31
0.0
0
TEXT
8
DIMS
10
17.7471
20
-26.1653
30
0.0
40
2.014
1
2.34
72
1
11
17.7471
21
-26.1653
31
0.0
0
TEXT
8
DIMS
10
-1.9301
20
-33.9153
30
0.0
40
2.014
1
39.95
72
1
11
-1.9301
21
-33.9153
31
0.0
0
TEXT
8
DIMS
10
-24.5655
20
-8.3098
30
0.0
40
2.014
1
66.35
72
1
11
-24.5655
21
-8.3098
31
0.0
0
TEXT
8
DIMS
10
-11.2045
20
29.4604
30
0.0
40
2.014
1
36.14
72
1
11
-11.2045
21
29.4604
31
0.0
0
ENDSEC
0
EOF
