0
SECTION
2
HEADER
9
$ACADVER
1
AC1009
9
$INSUNITS
70
6
0
ENDSEC
0
SECTION
2
ENTITIES
0
POLYLINE
8
LOTS
66
1
70
1
0
VERTEX
8
LOTS
10
-26.1477
20
25.6998
30
0.0
0
VERTEX
8
LOTS
10
3.7686
20
37.6801
30
0.0
0
VERTEX
8
LOTS
10
23.6572
20
-25.6596
30
0.0
0
VERTEX
8
LOTS
10
-1.2780
20
-37.7203
30
0.0
0
SEQEND
0
TEXT
8
LABELS
10
0.0000
20
1.8977
30
0.0
40
3.253
1
LOT 37
72
1
11
0.0000
21
1.8977
31
0.0
0
TEXT
8
LABELS
10
0.0000
20
-2.4398
30
0.0
40
2.711
1
2007.2 m2 (20.07 sotix)
72
1
11
0.0000
21
-2.4398
31
0.0
0
TEXT
8
DIMS
10
-11.1896
20
31.6899
30
0.0
40
2.033
1
32.23
72
1
11
-11.1896
21
31.6899
31
0.0
0
TEXT
8
DIMS
10
13.7129
20
6.0102
30
0.0
40
2.033
1
66.39
72
1
11
13.7129
21
6.0102
31
0.0
0
TEXT
8
DIMS
10
11.1896
20
-31.6899
30
0.0
40
2.033
1
27.70
72
1
11
11.1896
21
-31.6899
31
0.0
0
TEXT
8
DIMS
10
-13.7129
20
-6.0102
30
0.0
40
2.033
1
68.12
72
1
11
-13.7129
21
-6.0102
31
0.0
0
ENDSEC
0
EOF
