0
SECTION
2
HEADER
9
$ACADVER
1
AC1009
9
$INSUNITS
70
6
0
ENDSEC
0
SECTION
2
ENTITIES
0
POLYLINE
8
LOTS
66
1
70
1
0
VERTEX
8
LOTS
10
-36.5165
20
-9.4299
30
0.0
0
VERTEX
8
LOTS
10
-28.2304
20
31.2935
30
0.0
0
VERTEX
8
LOTS
10
37.0598
20
8.9972
30
0.0
0
VERTEX
8
LOTS
10
27.6871
20
-30.8609
30
0.0
0
SEQEND
0
TEXT
8
LABELS
10
-0.0000
20
2.0226
30
0.0
40
3.467
1
LOT 60
72
1
11
-0.0000
21
2.0226
31
0.0
0
TEXT
8
LABELS
10
-0.0000
20
-2.6005
30
0.0
40
2.889
1
2801.7 m2 (28.02 sotix)
72
1
11
-0.0000
21
-2.6005
31
0.0
0
TEXT
8
DIMS
10
-32.3735
20
10.9318
30
0.0
40
2.167
1
41.56
72
1
11
-32.3735
21
10.9318
31
0.0
0
TEXT
8
DIMS
10
4.4147
20
20.1454
30
0.0
40
2.167
1
68.99
72
1
11
4.4147
21
20.1454
31
0.0
0
TEXT
8
DIMS
10
32.3735
20
-10.9318
30
0.0
40
2.167
1
40.95
72
1
11
32.3735
21
-10.9318
31
0.0
0
TEXT
8
DIMS
10
-4.4147
20
-20.1454
30
0.0
40
2.167
1
67.69
72
1
11
-4.4147
21
-20.1454
31
0.0
0
ENDSEC
0
EOF
