0
SECTION
2
HEADER
9
$ACADVER
1
AC1009
9
$INSUNITS
70
6
0
ENDSEC
0
SECTION
2
ENTITIES
0
POLYLINE
8
LOTS
66
1
70
1
0
VERTEX
8
LOTS
10
-36.2353
20
14.1503
30
0.0
0
VERTEX
8
LOTS
10
-6.0985
20
40.2761
30
0.0
0
VERTEX
8
LOTS
10
38.6162
20
-15.9370
30
0.0
0
VERTEX
8
LOTS
10
3.7176
20
-38.4894
30
0.0
0
SEQEND
0
TEXT
8
LABELS
10
-0.0000
20
2.2818
30
0.0
40
3.912
1
LOT 50
72
1
11
-0.0000
21
2.2818
31
0.0
0
TEXT
8
LABELS
10
-0.0000
20
-2.9338
30
0.0
40
3.260
1
2800.2 m2 (28.00 sotix)
72
1
11
-0.0000
21
-2.9338
31
0.0
0
TEXT
8
DIMS
10
-21.1669
20
27.2132
30
0.0
40
2.445
1
39.88
72
1
11
-21.1669
21
27.2132
31
0.0
0
TEXT
8
DIMS
10
16.2589
20
12.1696
30
0.0
40
2.445
1
71.83
72
1
11
16.2589
21
12.1696
31
0.0
0
TEXT
8
DIMS
10
21.1669
20
-27.2132
30
0.0
40
2.445
1
41.55
72
1
11
21.1669
21
-27.2132
31
0.0
0
TEXT
8
DIMS
10
-16.2589
20
-12.1696
30
0.0
40
2.445
1
66.08
72
1
11
-16.2589
21
-12.1696
31
0.0
0
ENDSEC
0
EOF
