<svg xmlns="http://www.w3.org/2000/svg" viewBox="0 0 1440 1000" font-family="Segoe UI, Arial, sans-serif">
<rect width="1440" height="1000" fill="#10201a"/>
<rect x="24" y="24" width="860" height="700" fill="#0c1712" rx="10"/>
<rect x="24" y="24" width="860" height="80" fill="#123a44"/>
<clipPath id="lot"><polygon points="368.9,98.0 556.5,98.0 550.5,613.4 351.5,650.0"/></clipPath>
<polygon points="368.9,98.0 556.5,98.0 550.5,613.4 351.5,650.0" fill="#243d2a"/>
<g clip-path="url(#lot)">
<circle cx="538.8" cy="574.1" r="6.8" fill="#1f3a26"/><circle cx="537.8" cy="573.1" r="4.7" fill="#2f5636"/><circle cx="536.8" cy="572.1" r="2.4" fill="#3f7048" opacity=".7"/>
<circle cx="450.5" cy="120.6" r="5.9" fill="#1f3a26"/><circle cx="449.6" cy="119.8" r="4.1" fill="#2f5636"/><circle cx="448.7" cy="118.9" r="2.1" fill="#3f7048" opacity=".7"/>
<circle cx="538.4" cy="165.0" r="7.6" fill="#1f3a26"/><circle cx="537.3" cy="163.9" r="5.3" fill="#2f5636"/><circle cx="536.1" cy="162.8" r="2.7" fill="#3f7048" opacity=".7"/>
<circle cx="363.0" cy="103.7" r="6.7" fill="#1f3a26"/><circle cx="362.0" cy="102.6" r="4.7" fill="#2f5636"/><circle cx="361.0" cy="101.6" r="2.4" fill="#3f7048" opacity=".7"/>
<circle cx="542.3" cy="499.2" r="4.7" fill="#1f3a26"/><circle cx="541.6" cy="498.5" r="3.3" fill="#2f5636"/><circle cx="540.9" cy="497.8" r="1.6" fill="#3f7048" opacity=".7"/>
<circle cx="556.4" cy="505.8" r="5.4" fill="#1f3a26"/><circle cx="555.6" cy="505.0" r="3.8" fill="#2f5636"/><circle cx="554.8" cy="504.2" r="1.9" fill="#3f7048" opacity=".7"/>
<circle cx="441.2" cy="154.5" r="5.9" fill="#1f3a26"/><circle cx="440.4" cy="153.6" r="4.1" fill="#2f5636"/><circle cx="439.5" cy="152.7" r="2.1" fill="#3f7048" opacity=".7"/>
<circle cx="354.1" cy="503.3" r="5.1" fill="#1f3a26"/><circle cx="353.3" cy="502.5" r="3.6" fill="#2f5636"/><circle cx="352.6" cy="501.7" r="1.8" fill="#3f7048" opacity=".7"/>
<circle cx="355.7" cy="157.4" r="7.7" fill="#1f3a26"/><circle cx="354.6" cy="156.2" r="5.4" fill="#2f5636"/><circle cx="353.4" cy="155.1" r="2.7" fill="#3f7048" opacity=".7"/>
<circle cx="379.5" cy="516.0" r="8.9" fill="#1f3a26"/><circle cx="378.1" cy="514.7" r="6.2" fill="#2f5636"/><circle cx="376.8" cy="513.3" r="3.1" fill="#3f7048" opacity=".7"/>
<circle cx="553.0" cy="518.0" r="7.2" fill="#1f3a26"/><circle cx="551.9" cy="516.9" r="5.0" fill="#2f5636"/><circle cx="550.8" cy="515.9" r="2.5" fill="#3f7048" opacity=".7"/>
<circle cx="354.8" cy="382.3" r="5.2" fill="#1f3a26"/><circle cx="354.0" cy="381.5" r="3.6" fill="#2f5636"/><circle cx="353.2" cy="380.7" r="1.8" fill="#3f7048" opacity=".7"/>
<circle cx="534.8" cy="448.8" r="4.1" fill="#1f3a26"/><circle cx="534.2" cy="448.2" r="2.9" fill="#2f5636"/><circle cx="533.6" cy="447.6" r="1.4" fill="#3f7048" opacity=".7"/>
<circle cx="523.1" cy="140.5" r="8.2" fill="#1f3a26"/><circle cx="521.9" cy="139.3" r="5.7" fill="#2f5636"/><circle cx="520.7" cy="138.1" r="2.9" fill="#3f7048" opacity=".7"/>
<circle cx="368.2" cy="617.7" r="6.5" fill="#1f3a26"/><circle cx="367.2" cy="616.7" r="4.6" fill="#2f5636"/><circle cx="366.2" cy="615.7" r="2.3" fill="#3f7048" opacity=".7"/>
<circle cx="398.6" cy="394.4" r="8.8" fill="#1f3a26"/><circle cx="397.3" cy="393.1" r="6.2" fill="#2f5636"/><circle cx="396.0" cy="391.8" r="3.1" fill="#3f7048" opacity=".7"/>
<circle cx="513.5" cy="136.0" r="7.0" fill="#1f3a26"/><circle cx="512.5" cy="135.0" r="4.9" fill="#2f5636"/><circle cx="511.4" cy="133.9" r="2.5" fill="#3f7048" opacity=".7"/>
<circle cx="430.3" cy="417.5" r="5.8" fill="#1f3a26"/><circle cx="429.4" cy="416.7" r="4.1" fill="#2f5636"/><circle cx="428.5" cy="415.8" r="2.0" fill="#3f7048" opacity=".7"/>
<circle cx="450.9" cy="172.1" r="6.9" fill="#1f3a26"/><circle cx="449.9" cy="171.1" r="4.8" fill="#2f5636"/><circle cx="448.8" cy="170.0" r="2.4" fill="#3f7048" opacity=".7"/>
<circle cx="371.6" cy="353.9" r="5.7" fill="#1f3a26"/><circle cx="370.7" cy="353.0" r="4.0" fill="#2f5636"/><circle cx="369.9" cy="352.2" r="2.0" fill="#3f7048" opacity=".7"/>
<circle cx="542.1" cy="198.0" r="7.5" fill="#1f3a26"/><circle cx="541.0" cy="196.9" r="5.2" fill="#2f5636"/><circle cx="539.9" cy="195.7" r="2.6" fill="#3f7048" opacity=".7"/>
<circle cx="373.2" cy="119.7" r="4.5" fill="#1f3a26"/><circle cx="372.5" cy="119.0" r="3.1" fill="#2f5636"/><circle cx="371.8" cy="118.4" r="1.6" fill="#3f7048" opacity=".7"/>
<circle cx="392.8" cy="582.1" r="4.9" fill="#1f3a26"/><circle cx="392.0" cy="581.4" r="3.4" fill="#2f5636"/><circle cx="391.3" cy="580.7" r="1.7" fill="#3f7048" opacity=".7"/>
<circle cx="494.8" cy="341.8" r="5.0" fill="#1f3a26"/><circle cx="494.1" cy="341.0" r="3.5" fill="#2f5636"/><circle cx="493.3" cy="340.3" r="1.8" fill="#3f7048" opacity=".7"/>
<circle cx="503.9" cy="474.8" r="8.0" fill="#1f3a26"/><circle cx="502.7" cy="473.6" r="5.6" fill="#2f5636"/><circle cx="501.5" cy="472.4" r="2.8" fill="#3f7048" opacity=".7"/>
<circle cx="404.8" cy="602.5" r="6.6" fill="#1f3a26"/><circle cx="403.8" cy="601.5" r="4.6" fill="#2f5636"/><circle cx="402.8" cy="600.5" r="2.3" fill="#3f7048" opacity=".7"/>
<circle cx="502.4" cy="647.7" r="7.1" fill="#1f3a26"/><circle cx="501.3" cy="646.6" r="5.0" fill="#2f5636"/><circle cx="500.2" cy="645.5" r="2.5" fill="#3f7048" opacity=".7"/>
<circle cx="389.3" cy="169.9" r="6.3" fill="#1f3a26"/><circle cx="388.4" cy="169.0" r="4.4" fill="#2f5636"/><circle cx="387.4" cy="168.0" r="2.2" fill="#3f7048" opacity=".7"/>
<circle cx="421.4" cy="464.6" r="4.2" fill="#1f3a26"/><circle cx="420.7" cy="464.0" r="2.9" fill="#2f5636"/><circle cx="420.1" cy="463.4" r="1.5" fill="#3f7048" opacity=".7"/>
<circle cx="454.7" cy="377.0" r="4.6" fill="#1f3a26"/><circle cx="454.0" cy="376.3" r="3.2" fill="#2f5636"/><circle cx="453.3" cy="375.6" r="1.6" fill="#3f7048" opacity=".7"/>
<circle cx="443.0" cy="142.1" r="4.3" fill="#1f3a26"/><circle cx="442.4" cy="141.4" r="3.0" fill="#2f5636"/><circle cx="441.8" cy="140.8" r="1.5" fill="#3f7048" opacity=".7"/>
<circle cx="488.8" cy="135.5" r="5.5" fill="#1f3a26"/><circle cx="487.9" cy="134.6" r="3.8" fill="#2f5636"/><circle cx="487.1" cy="133.8" r="1.9" fill="#3f7048" opacity=".7"/>
<circle cx="427.5" cy="345.9" r="4.1" fill="#1f3a26"/><circle cx="426.9" cy="345.3" r="2.9" fill="#2f5636"/><circle cx="426.3" cy="344.7" r="1.5" fill="#3f7048" opacity=".7"/>
<circle cx="382.0" cy="157.5" r="6.1" fill="#1f3a26"/><circle cx="381.1" cy="156.6" r="4.3" fill="#2f5636"/><circle cx="380.2" cy="155.7" r="2.1" fill="#3f7048" opacity=".7"/>
<circle cx="531.5" cy="555.7" r="7.8" fill="#1f3a26"/><circle cx="530.4" cy="554.5" r="5.4" fill="#2f5636"/><circle cx="529.2" cy="553.3" r="2.7" fill="#3f7048" opacity=".7"/>
<circle cx="556.3" cy="106.7" r="8.0" fill="#1f3a26"/><circle cx="555.1" cy="105.5" r="5.6" fill="#2f5636"/><circle cx="553.8" cy="104.3" r="2.8" fill="#3f7048" opacity=".7"/>
<circle cx="374.7" cy="298.2" r="7.6" fill="#1f3a26"/><circle cx="373.6" cy="297.1" r="5.3" fill="#2f5636"/><circle cx="372.4" cy="295.9" r="2.7" fill="#3f7048" opacity=".7"/>
<circle cx="394.2" cy="643.5" r="5.3" fill="#1f3a26"/><circle cx="393.4" cy="642.7" r="3.7" fill="#2f5636"/><circle cx="392.6" cy="641.9" r="1.8" fill="#3f7048" opacity=".7"/>
<circle cx="451.2" cy="616.6" r="7.6" fill="#1f3a26"/><circle cx="450.1" cy="615.5" r="5.4" fill="#2f5636"/><circle cx="448.9" cy="614.4" r="2.7" fill="#3f7048" opacity=".7"/>
<circle cx="550.0" cy="400.3" r="5.9" fill="#1f3a26"/><circle cx="549.1" cy="399.4" r="4.1" fill="#2f5636"/><circle cx="548.2" cy="398.5" r="2.0" fill="#3f7048" opacity=".7"/>
<circle cx="523.7" cy="325.4" r="6.7" fill="#1f3a26"/><circle cx="522.7" cy="324.4" r="4.7" fill="#2f5636"/><circle cx="521.7" cy="323.4" r="2.3" fill="#3f7048" opacity=".7"/>
<circle cx="415.1" cy="569.7" r="8.1" fill="#1f3a26"/><circle cx="413.9" cy="568.5" r="5.7" fill="#2f5636"/><circle cx="412.7" cy="567.3" r="2.8" fill="#3f7048" opacity=".7"/>
<circle cx="422.1" cy="435.1" r="7.6" fill="#1f3a26"/><circle cx="421.0" cy="434.0" r="5.3" fill="#2f5636"/><circle cx="419.8" cy="432.8" r="2.6" fill="#3f7048" opacity=".7"/>
<circle cx="459.9" cy="560.2" r="5.7" fill="#1f3a26"/><circle cx="459.0" cy="559.4" r="4.0" fill="#2f5636"/><circle cx="458.2" cy="558.5" r="2.0" fill="#3f7048" opacity=".7"/>
<circle cx="536.1" cy="123.7" r="4.5" fill="#1f3a26"/><circle cx="535.4" cy="123.0" r="3.2" fill="#2f5636"/><circle cx="534.7" cy="122.3" r="1.6" fill="#3f7048" opacity=".7"/>
<circle cx="373.2" cy="144.9" r="7.6" fill="#1f3a26"/><circle cx="372.0" cy="143.7" r="5.3" fill="#2f5636"/><circle cx="370.9" cy="142.6" r="2.7" fill="#3f7048" opacity=".7"/>
<circle cx="383.6" cy="144.1" r="4.2" fill="#1f3a26"/><circle cx="382.9" cy="143.4" r="2.9" fill="#2f5636"/><circle cx="382.3" cy="142.8" r="1.5" fill="#3f7048" opacity=".7"/>
<circle cx="424.2" cy="630.2" r="4.3" fill="#1f3a26"/><circle cx="423.6" cy="629.6" r="3.0" fill="#2f5636"/><circle cx="422.9" cy="629.0" r="1.5" fill="#3f7048" opacity=".7"/>
<path d="M454.0,374.0 Q431.2,478.9 384.3,583.8" stroke="#b9a06a" stroke-width="4.5" fill="none" opacity=".55" stroke-linecap="round"/>
<path d="M454.0,374.0 Q421.9,269.1 365.9,164.2" stroke="#b9a06a" stroke-width="4.5" fill="none" opacity=".55" stroke-linecap="round"/>
<path d="M454.0,374.0 Q437.3,291.2 396.6,208.4" stroke="#b9a06a" stroke-width="4.5" fill="none" opacity=".55" stroke-linecap="round"/>
<path d="M454.0,374.0 Q449.6,340.9 421.2,307.8" stroke="#b9a06a" stroke-width="4.5" fill="none" opacity=".55" stroke-linecap="round"/>
<path d="M454.0,374.0 Q480.3,318.8 482.7,263.6" stroke="#b9a06a" stroke-width="4.5" fill="none" opacity=".55" stroke-linecap="round"/>
<path d="M454.0,374.0 Q466.0,374.0 454.0,374.0" stroke="#b9a06a" stroke-width="4.5" fill="none" opacity=".55" stroke-linecap="round"/>
<path d="M454.0,374.0 Q490.6,390.6 503.2,407.1" stroke="#b9a06a" stroke-width="4.5" fill="none" opacity=".55" stroke-linecap="round"/>
<path d="M454.0,374.0 Q478.3,440.2 478.6,506.5" stroke="#b9a06a" stroke-width="4.5" fill="none" opacity=".55" stroke-linecap="round"/>
<path d="M454.0,374.0 Q496.7,462.3 515.5,550.6" stroke="#b9a06a" stroke-width="4.5" fill="none" opacity=".55" stroke-linecap="round"/>
<path d="M454.0,374.0 Q457.8,429.2 437.6,484.4" stroke="#b9a06a" stroke-width="4.5" fill="none" opacity=".55" stroke-linecap="round"/>
<path d="M454.0,374.0 Q466.0,255.3 454.0,136.6" stroke="#b9a06a" stroke-width="4.5" fill="none" opacity=".55" stroke-linecap="round"/>
<rect x="376.1" y="94.0" width="155.8" height="18" fill="#5b4028" rx="3"/>
<line x1="376.1" y1="94.0" x2="376.1" y2="112.0" stroke="#3c2a19" stroke-width="1.5"/>
<line x1="387.2" y1="94.0" x2="387.2" y2="112.0" stroke="#3c2a19" stroke-width="1.5"/>
<line x1="398.4" y1="94.0" x2="398.4" y2="112.0" stroke="#3c2a19" stroke-width="1.5"/>
<line x1="409.5" y1="94.0" x2="409.5" y2="112.0" stroke="#3c2a19" stroke-width="1.5"/>
<line x1="420.6" y1="94.0" x2="420.6" y2="112.0" stroke="#3c2a19" stroke-width="1.5"/>
<line x1="431.7" y1="94.0" x2="431.7" y2="112.0" stroke="#3c2a19" stroke-width="1.5"/>
<line x1="442.9" y1="94.0" x2="442.9" y2="112.0" stroke="#3c2a19" stroke-width="1.5"/>
<line x1="454.0" y1="94.0" x2="454.0" y2="112.0" stroke="#3c2a19" stroke-width="1.5"/>
<line x1="465.1" y1="94.0" x2="465.1" y2="112.0" stroke="#3c2a19" stroke-width="1.5"/>
<line x1="476.3" y1="94.0" x2="476.3" y2="112.0" stroke="#3c2a19" stroke-width="1.5"/>
<line x1="487.4" y1="94.0" x2="487.4" y2="112.0" stroke="#3c2a19" stroke-width="1.5"/>
<line x1="498.5" y1="94.0" x2="498.5" y2="112.0" stroke="#3c2a19" stroke-width="1.5"/>
<line x1="509.6" y1="94.0" x2="509.6" y2="112.0" stroke="#3c2a19" stroke-width="1.5"/>
<line x1="520.8" y1="94.0" x2="520.8" y2="112.0" stroke="#3c2a19" stroke-width="1.5"/>
<rect x="349.3" y="548.8" width="70" height="70" fill="#3a3f3c" rx="4"/>
<rect x="354.3" y="566.8" width="20" height="34" rx="3" fill="#c9ccc7"/>
<rect x="370.3" y="566.8" width="20" height="34" rx="3" fill="#c9ccc7"/>
<rect x="386.3" y="566.8" width="20" height="34" rx="3" fill="#c9ccc7"/>
<rect x="402.3" y="566.8" width="20" height="34" rx="3" fill="#c9ccc7"/>
<rect x="384.2" y="287.8" width="74" height="40" rx="8" fill="#5b4028"/>
<rect x="390.2" y="293.8" width="62" height="28" rx="6" fill="#2aa7c8"/>
<rect x="390.2" y="293.8" width="62" height="28" rx="6" fill="#57c7e0" opacity=".5"/>
<circle cx="456.7" cy="263.6" r="22" fill="#d7d2c4" stroke="#8a8574" stroke-width="2"/>
<line x1="456.7" y1="263.6" x2="478.7" y2="263.6" stroke="#a49e8c" stroke-width="1"/>
<line x1="456.7" y1="263.6" x2="475.7" y2="274.6" stroke="#a49e8c" stroke-width="1"/>
<line x1="456.7" y1="263.6" x2="467.7" y2="282.7" stroke="#a49e8c" stroke-width="1"/>
<line x1="456.7" y1="263.6" x2="456.7" y2="285.6" stroke="#a49e8c" stroke-width="1"/>
<line x1="456.7" y1="263.6" x2="445.7" y2="282.7" stroke="#a49e8c" stroke-width="1"/>
<line x1="456.7" y1="263.6" x2="437.6" y2="274.6" stroke="#a49e8c" stroke-width="1"/>
<line x1="456.7" y1="263.6" x2="434.7" y2="263.6" stroke="#a49e8c" stroke-width="1"/>
<line x1="456.7" y1="263.6" x2="437.6" y2="252.6" stroke="#a49e8c" stroke-width="1"/>
<line x1="456.7" y1="263.6" x2="445.7" y2="244.5" stroke="#a49e8c" stroke-width="1"/>
<line x1="456.7" y1="263.6" x2="456.7" y2="241.6" stroke="#a49e8c" stroke-width="1"/>
<line x1="456.7" y1="263.6" x2="467.7" y2="244.5" stroke="#a49e8c" stroke-width="1"/>
<line x1="456.7" y1="263.6" x2="475.7" y2="252.6" stroke="#a49e8c" stroke-width="1"/>
<circle cx="508.7" cy="263.6" r="22" fill="#d7d2c4" stroke="#8a8574" stroke-width="2"/>
<line x1="508.7" y1="263.6" x2="530.7" y2="263.6" stroke="#a49e8c" stroke-width="1"/>
<line x1="508.7" y1="263.6" x2="527.7" y2="274.6" stroke="#a49e8c" stroke-width="1"/>
<line x1="508.7" y1="263.6" x2="519.7" y2="282.7" stroke="#a49e8c" stroke-width="1"/>
<line x1="508.7" y1="263.6" x2="508.7" y2="285.6" stroke="#a49e8c" stroke-width="1"/>
<line x1="508.7" y1="263.6" x2="497.7" y2="282.7" stroke="#a49e8c" stroke-width="1"/>
<line x1="508.7" y1="263.6" x2="489.6" y2="274.6" stroke="#a49e8c" stroke-width="1"/>
<line x1="508.7" y1="263.6" x2="486.7" y2="263.6" stroke="#a49e8c" stroke-width="1"/>
<line x1="508.7" y1="263.6" x2="489.6" y2="252.6" stroke="#a49e8c" stroke-width="1"/>
<line x1="508.7" y1="263.6" x2="497.7" y2="244.5" stroke="#a49e8c" stroke-width="1"/>
<line x1="508.7" y1="263.6" x2="508.7" y2="241.6" stroke="#a49e8c" stroke-width="1"/>
<line x1="508.7" y1="263.6" x2="519.7" y2="244.5" stroke="#a49e8c" stroke-width="1"/>
<line x1="508.7" y1="263.6" x2="527.7" y2="252.6" stroke="#a49e8c" stroke-width="1"/>
<circle cx="454.0" cy="374.0" r="30" fill="#2a2118"/>
<circle cx="454.0" cy="374.0" r="12" fill="#e8721c"/>
<circle cx="454.0" cy="374.0" r="6" fill="#ffd24a"/>
<rect x="480.2" y="390.1" width="46" height="34" rx="3" fill="#6a4a2c" stroke="#2c1e12" stroke-width="1.5"/>
<line x1="480.2" y1="407.1" x2="526.2" y2="407.1" stroke="#3c2a19" stroke-width="1.5"/>
<rect x="452.6" y="486.5" width="52" height="40" rx="3" fill="#5a3f26" stroke="#2c1e12" stroke-width="1.5"/>
<line x1="452.6" y1="506.5" x2="504.6" y2="506.5" stroke="#3c2a19" stroke-width="1.5"/>
<rect x="376.6" y="191.4" width="40" height="34" rx="3" fill="#6a4a2c" stroke="#2c1e12"/>
<rect x="489.5" y="533.6" width="52" height="34" rx="2" fill="#b5652a"/>
<rect x="489.5" y="533.6" width="52" height="34" fill="none" stroke="#f0e9d8" stroke-width="1.4"/>
<line x1="515.5" y1="533.6" x2="515.5" y2="567.6" stroke="#f0e9d8" stroke-width="1.4"/>
<circle cx="515.5" cy="550.6" r="7" fill="none" stroke="#f0e9d8" stroke-width="1.4"/>
<rect x="353.9" y="154.2" width="24" height="20" rx="2" fill="#7d6b8e"/>
</g>
<circle cx="384.3" cy="583.8" r="11" fill="#14241c" stroke="#d9b25f" stroke-width="1.5"/>
<text x="384.3" y="587.8" font-size="12" fill="#d9b25f" text-anchor="middle" font-weight="700">1</text>
<circle cx="365.9" cy="164.2" r="11" fill="#14241c" stroke="#d9b25f" stroke-width="1.5"/>
<text x="365.9" y="168.2" font-size="12" fill="#d9b25f" text-anchor="middle" font-weight="700">2</text>
<circle cx="396.6" cy="208.4" r="11" fill="#14241c" stroke="#d9b25f" stroke-width="1.5"/>
<text x="396.6" y="212.4" font-size="12" fill="#d9b25f" text-anchor="middle" font-weight="700">3</text>
<circle cx="421.2" cy="307.8" r="11" fill="#14241c" stroke="#d9b25f" stroke-width="1.5"/>
<text x="421.2" y="311.8" font-size="12" fill="#d9b25f" text-anchor="middle" font-weight="700">4</text>
<circle cx="482.7" cy="263.6" r="11" fill="#14241c" stroke="#d9b25f" stroke-width="1.5"/>
<text x="482.7" y="267.6" font-size="12" fill="#d9b25f" text-anchor="middle" font-weight="700">5</text>
<circle cx="454.0" cy="374.0" r="11" fill="#14241c" stroke="#d9b25f" stroke-width="1.5"/>
<text x="454.0" y="378.0" font-size="12" fill="#d9b25f" text-anchor="middle" font-weight="700">6</text>
<circle cx="503.2" cy="407.1" r="11" fill="#14241c" stroke="#d9b25f" stroke-width="1.5"/>
<text x="503.2" y="411.1" font-size="12" fill="#d9b25f" text-anchor="middle" font-weight="700">7</text>
<circle cx="478.6" cy="506.5" r="11" fill="#14241c" stroke="#d9b25f" stroke-width="1.5"/>
<text x="478.6" y="510.5" font-size="12" fill="#d9b25f" text-anchor="middle" font-weight="700">8</text>
<circle cx="515.5" cy="550.6" r="11" fill="#14241c" stroke="#d9b25f" stroke-width="1.5"/>
<text x="515.5" y="554.6" font-size="12" fill="#d9b25f" text-anchor="middle" font-weight="700">9</text>
<circle cx="437.6" cy="484.4" r="11" fill="#14241c" stroke="#d9b25f" stroke-width="1.5"/>
<text x="437.6" y="488.4" font-size="12" fill="#d9b25f" text-anchor="middle" font-weight="700">10</text>
<circle cx="454.0" cy="136.6" r="11" fill="#14241c" stroke="#d9b25f" stroke-width="1.5"/>
<text x="454.0" y="140.6" font-size="12" fill="#d9b25f" text-anchor="middle" font-weight="700">11</text>
<polygon points="368.9,98.0 556.5,98.0 550.5,613.4 351.5,650.0" fill="none" stroke="#e63030" stroke-width="3.2" stroke-linejoin="round"/>
<circle cx="368.9" cy="98.0" r="4" fill="#fff"/>
<text x="374.9" y="92.0" font-size="13" fill="#fff" font-weight="700">P1</text>
<circle cx="556.5" cy="98.0" r="4" fill="#fff"/>
<text x="562.5" y="92.0" font-size="13" fill="#fff" font-weight="700">P2</text>
<circle cx="550.5" cy="613.4" r="4" fill="#fff"/>
<text x="556.5" y="607.4" font-size="13" fill="#fff" font-weight="700">P3</text>
<circle cx="351.5" cy="650.0" r="4" fill="#fff"/>
<text x="357.5" y="644.0" font-size="13" fill="#fff" font-weight="700">P4</text>
<text x="462.7" y="93.0" font-size="15" fill="#7CFC7A" text-anchor="middle" font-weight="700">27.44 m</text>
<text x="553.5" y="350.7" font-size="15" fill="#7CFC7A" text-anchor="middle" font-weight="700">75.38 m</text>
<text x="451.0" y="626.7" font-size="15" fill="#7CFC7A" text-anchor="middle" font-weight="700">29.59 m</text>
<text x="360.2" y="369.0" font-size="15" fill="#7CFC7A" text-anchor="middle" font-weight="700">80.76 m</text>
<text x="456.8" y="76.0" font-size="20" fill="#8fd0dc" letter-spacing="3" text-anchor="middle">DARYO</text>
<text x="456.8" y="684.0" font-size="18" fill="#9fb3a3" letter-spacing="3" text-anchor="middle">YO‘L</text>
<g transform="translate(64,68)"><polygon points="0,-22 6,0 0,6 -6,0" fill="#e7f0e6"/><polygon points="0,22 6,0 0,-6 -6,0" fill="#5c7565"/><text x="0" y="-26" font-size="12" fill="#e7f0e6" text-anchor="middle">N</text></g>
<g transform="translate(94,44)">
<text x="0" y="0" font-size="26" fill="#e7f0e6" font-weight="800">54-LOT (0.22 ga)</text>
<text x="0" y="22" font-size="13" fill="#9fb3a3">Maydoni: 0.22 ga (22 sotix)</text>
<text x="0" y="40" font-size="13" fill="#9fb3a3">Vazifasi: Dam olish va oilaviy hordiq</text>
</g>
<rect x="908" y="24" width="300" height="700" rx="10" fill="#16241d"/>
<text x="928" y="60" font-size="16" fill="#d9b25f" font-weight="800" letter-spacing="1">EKSPLIKATSIYA</text>
<circle cx="936" cy="82" r="10" fill="#14241c" stroke="#d9b25f"/>
<text x="936" y="86" font-size="11" fill="#d9b25f" text-anchor="middle" font-weight="700">1</text>
<text x="956" y="86" font-size="13" fill="#e7f0e6">Avtoturargoh (kirish qismi)</text>
<circle cx="936" cy="109" r="10" fill="#14241c" stroke="#d9b25f"/>
<text x="936" y="113" font-size="11" fill="#d9b25f" text-anchor="middle" font-weight="700">2</text>
<text x="956" y="113" font-size="13" fill="#e7f0e6">Hojatxona</text>
<circle cx="936" cy="136" r="10" fill="#14241c" stroke="#d9b25f"/>
<text x="936" y="140" font-size="11" fill="#d9b25f" text-anchor="middle" font-weight="700">3</text>
<text x="956" y="140" font-size="13" fill="#e7f0e6">Tapchan</text>
<circle cx="936" cy="163" r="10" fill="#14241c" stroke="#d9b25f"/>
<text x="936" y="167" font-size="11" fill="#d9b25f" text-anchor="middle" font-weight="700">4</text>
<text x="956" y="167" font-size="13" fill="#e7f0e6">Basseyn</text>
<circle cx="936" cy="190" r="10" fill="#14241c" stroke="#d9b25f"/>
<text x="936" y="194" font-size="11" fill="#d9b25f" text-anchor="middle" font-weight="700">5</text>
<text x="956" y="194" font-size="13" fill="#e7f0e6">O‘tovlar (2–3 ta)</text>
<circle cx="936" cy="217" r="10" fill="#14241c" stroke="#d9b25f"/>
<text x="936" y="221" font-size="11" fill="#d9b25f" text-anchor="middle" font-weight="700">6</text>
<text x="956" y="221" font-size="13" fill="#e7f0e6">O‘choq / dam olish zonasi</text>
<circle cx="936" cy="244" r="10" fill="#14241c" stroke="#d9b25f"/>
<text x="936" y="248" font-size="11" fill="#d9b25f" text-anchor="middle" font-weight="700">7</text>
<text x="956" y="248" font-size="13" fill="#e7f0e6">Yozgi oshxona</text>
<circle cx="936" cy="271" r="10" fill="#14241c" stroke="#d9b25f"/>
<text x="936" y="275" font-size="11" fill="#d9b25f" text-anchor="middle" font-weight="700">8</text>
<text x="956" y="275" font-size="13" fill="#e7f0e6">Qishki oshxona</text>
<circle cx="936" cy="298" r="10" fill="#14241c" stroke="#d9b25f"/>
<text x="936" y="302" font-size="11" fill="#d9b25f" text-anchor="middle" font-weight="700">9</text>
<text x="956" y="302" font-size="13" fill="#e7f0e6">Basketbol maydonchasi</text>
<circle cx="936" cy="325" r="10" fill="#14241c" stroke="#d9b25f"/>
<text x="936" y="329" font-size="11" fill="#d9b25f" text-anchor="middle" font-weight="700">10</text>
<text x="956" y="329" font-size="13" fill="#e7f0e6">Katta yashil hudud</text>
<circle cx="936" cy="352" r="10" fill="#14241c" stroke="#d9b25f"/>
<text x="936" y="356" font-size="11" fill="#d9b25f" text-anchor="middle" font-weight="700">11</text>
<text x="956" y="356" font-size="13" fill="#e7f0e6">Daryo bo‘yida terasa</text>
<line x1="928" y1="377" x2="1188" y2="377" stroke="#2c4034"/>
<text x="928" y="397" font-size="15" fill="#d9b25f" font-weight="800">O‘LCHAMLAR (m)</text>
<text x="928" y="421" font-size="13" fill="#9fb3a3">Yuqori (daryo)</text><text x="1188" y="421" font-size="13" fill="#e7f0e6" text-anchor="end" font-weight="700">27.44</text>
<text x="928" y="443" font-size="13" fill="#9fb3a3">O‘ng tomon</text><text x="1188" y="443" font-size="13" fill="#e7f0e6" text-anchor="end" font-weight="700">75.38</text>
<text x="928" y="465" font-size="13" fill="#9fb3a3">Pastki (yo‘l)</text><text x="1188" y="465" font-size="13" fill="#e7f0e6" text-anchor="end" font-weight="700">29.59</text>
<text x="928" y="487" font-size="13" fill="#9fb3a3">Chap tomon</text><text x="1188" y="487" font-size="13" fill="#e7f0e6" text-anchor="end" font-weight="700">80.76</text>
<text x="928" y="509" font-size="13" fill="#9fb3a3">Perimetr</text><text x="1188" y="509" font-size="13" fill="#e7f0e6" text-anchor="end" font-weight="700">213.2</text>
<text x="1224" y="46" font-size="14" fill="#d9b25f" font-weight="800">3D KO‘RINISHLAR</text>
<rect x="1224" y="58" width="190" height="130" rx="8" fill="#1d2f26" stroke="#2c4034"/>
<text x="1319" y="126" font-size="26" fill="#3c5647" text-anchor="middle">▦</text>
<text x="1319" y="206" font-size="12" fill="#9fb3a3" text-anchor="middle">Daryo bo‘yi terasa</text>
<rect x="1224" y="230" width="190" height="130" rx="8" fill="#1d2f26" stroke="#2c4034"/>
<text x="1319" y="298" font-size="26" fill="#3c5647" text-anchor="middle">▦</text>
<text x="1319" y="378" font-size="12" fill="#9fb3a3" text-anchor="middle">Basseyn zonasi</text>
<rect x="1224" y="402" width="190" height="130" rx="8" fill="#1d2f26" stroke="#2c4034"/>
<text x="1319" y="470" font-size="26" fill="#3c5647" text-anchor="middle">▦</text>
<text x="1319" y="550" font-size="12" fill="#9fb3a3" text-anchor="middle">O‘choq / dam zonasi</text>
<text x="24" y="742" font-size="14" fill="#d9b25f" font-weight="800">3D KO‘RINISHLAR (AI render bilan to‘ldiriladi)</text>
<rect x="24" y="748" width="272" height="196" rx="8" fill="#1d2f26" stroke="#2c4034"/>
<text x="160" y="844" font-size="30" fill="#3c5647" text-anchor="middle">▦</text>
<text x="160" y="924" font-size="12" fill="#9fb3a3" text-anchor="middle">Kirish, avtoturargoh</text>
<rect x="308" y="748" width="272" height="196" rx="8" fill="#1d2f26" stroke="#2c4034"/>
<text x="444" y="844" font-size="30" fill="#3c5647" text-anchor="middle">▦</text>
<text x="444" y="924" font-size="12" fill="#9fb3a3" text-anchor="middle">Tapchan</text>
<rect x="592" y="748" width="272" height="196" rx="8" fill="#1d2f26" stroke="#2c4034"/>
<text x="728" y="844" font-size="30" fill="#3c5647" text-anchor="middle">▦</text>
<text x="728" y="924" font-size="12" fill="#9fb3a3" text-anchor="middle">O‘tovlar</text>
<rect x="876" y="748" width="272" height="196" rx="8" fill="#1d2f26" stroke="#2c4034"/>
<text x="1012" y="844" font-size="30" fill="#3c5647" text-anchor="middle">▦</text>
<text x="1012" y="924" font-size="12" fill="#9fb3a3" text-anchor="middle">Yozgi oshxona</text>
<rect x="1160" y="748" width="272" height="196" rx="8" fill="#1d2f26" stroke="#2c4034"/>
<text x="1296" y="844" font-size="30" fill="#3c5647" text-anchor="middle">▦</text>
<text x="1296" y="924" font-size="12" fill="#9fb3a3" text-anchor="middle">Qishki oshxona</text>
</svg>