<svg xmlns="http://www.w3.org/2000/svg" viewBox="0 0 1440 1000" font-family="Segoe UI, Arial, sans-serif">
<rect width="1440" height="1000" fill="#10201a"/>
<rect x="24" y="24" width="860" height="700" fill="#0c1712" rx="10"/>
<rect x="24" y="24" width="860" height="80" fill="#123a44"/>
<clipPath id="lot"><polygon points="382.6,111.6 601.5,98.0 549.0,621.2 306.5,650.0"/></clipPath>
<polygon points="382.6,111.6 601.5,98.0 549.0,621.2 306.5,650.0" fill="#243d2a"/>
<g clip-path="url(#lot)">
<circle cx="376.2" cy="648.2" r="5.9" fill="#1f3a26"/><circle cx="375.3" cy="647.4" r="4.1" fill="#2f5636"/><circle cx="374.4" cy="646.5" r="2.0" fill="#3f7048" opacity=".7"/>
<circle cx="479.2" cy="611.8" r="8.0" fill="#1f3a26"/><circle cx="478.0" cy="610.6" r="5.6" fill="#2f5636"/><circle cx="476.8" cy="609.4" r="2.8" fill="#3f7048" opacity=".7"/>
<circle cx="375.0" cy="521.6" r="9.0" fill="#1f3a26"/><circle cx="373.7" cy="520.2" r="6.3" fill="#2f5636"/><circle cx="372.3" cy="518.9" r="3.1" fill="#3f7048" opacity=".7"/>
<circle cx="524.4" cy="167.0" r="7.1" fill="#1f3a26"/><circle cx="523.3" cy="165.9" r="5.0" fill="#2f5636"/><circle cx="522.3" cy="164.9" r="2.5" fill="#3f7048" opacity=".7"/>
<circle cx="316.6" cy="468.4" r="6.5" fill="#1f3a26"/><circle cx="315.6" cy="467.5" r="4.5" fill="#2f5636"/><circle cx="314.6" cy="466.5" r="2.3" fill="#3f7048" opacity=".7"/>
<circle cx="340.7" cy="124.5" r="5.8" fill="#1f3a26"/><circle cx="339.8" cy="123.6" r="4.1" fill="#2f5636"/><circle cx="338.9" cy="122.8" r="2.0" fill="#3f7048" opacity=".7"/>
<circle cx="352.2" cy="198.7" r="4.6" fill="#1f3a26"/><circle cx="351.5" cy="198.0" r="3.2" fill="#2f5636"/><circle cx="350.8" cy="197.3" r="1.6" fill="#3f7048" opacity=".7"/>
<circle cx="580.2" cy="399.9" r="6.8" fill="#1f3a26"/><circle cx="579.2" cy="398.9" r="4.7" fill="#2f5636"/><circle cx="578.2" cy="397.8" r="2.4" fill="#3f7048" opacity=".7"/>
<circle cx="407.7" cy="382.4" r="4.2" fill="#1f3a26"/><circle cx="407.0" cy="381.8" r="2.9" fill="#2f5636"/><circle cx="406.4" cy="381.2" r="1.5" fill="#3f7048" opacity=".7"/>
<circle cx="561.9" cy="520.4" r="7.9" fill="#1f3a26"/><circle cx="560.7" cy="519.2" r="5.5" fill="#2f5636"/><circle cx="559.5" cy="518.0" r="2.8" fill="#3f7048" opacity=".7"/>
<circle cx="368.1" cy="115.2" r="8.5" fill="#1f3a26"/><circle cx="366.8" cy="114.0" r="5.9" fill="#2f5636"/><circle cx="365.5" cy="112.7" r="3.0" fill="#3f7048" opacity=".7"/>
<circle cx="521.8" cy="582.4" r="6.4" fill="#1f3a26"/><circle cx="520.8" cy="581.4" r="4.5" fill="#2f5636"/><circle cx="519.8" cy="580.5" r="2.2" fill="#3f7048" opacity=".7"/>
<circle cx="568.3" cy="423.9" r="5.8" fill="#1f3a26"/><circle cx="567.4" cy="423.0" r="4.1" fill="#2f5636"/><circle cx="566.5" cy="422.2" r="2.0" fill="#3f7048" opacity=".7"/>
<circle cx="420.6" cy="635.2" r="4.5" fill="#1f3a26"/><circle cx="419.9" cy="634.5" r="3.1" fill="#2f5636"/><circle cx="419.2" cy="633.8" r="1.6" fill="#3f7048" opacity=".7"/>
<circle cx="518.3" cy="102.0" r="6.5" fill="#1f3a26"/><circle cx="517.3" cy="101.0" r="4.5" fill="#2f5636"/><circle cx="516.4" cy="100.0" r="2.3" fill="#3f7048" opacity=".7"/>
<circle cx="490.2" cy="550.3" r="5.7" fill="#1f3a26"/><circle cx="489.3" cy="549.4" r="4.0" fill="#2f5636"/><circle cx="488.4" cy="548.5" r="2.0" fill="#3f7048" opacity=".7"/>
<circle cx="579.9" cy="458.7" r="7.0" fill="#1f3a26"/><circle cx="578.9" cy="457.6" r="4.9" fill="#2f5636"/><circle cx="577.9" cy="456.6" r="2.4" fill="#3f7048" opacity=".7"/>
<circle cx="397.0" cy="593.0" r="4.3" fill="#1f3a26"/><circle cx="396.3" cy="592.3" r="3.0" fill="#2f5636"/><circle cx="395.7" cy="591.7" r="1.5" fill="#3f7048" opacity=".7"/>
<circle cx="589.2" cy="425.3" r="8.9" fill="#1f3a26"/><circle cx="587.8" cy="424.0" r="6.3" fill="#2f5636"/><circle cx="586.5" cy="422.6" r="3.1" fill="#3f7048" opacity=".7"/>
<circle cx="590.1" cy="324.0" r="8.4" fill="#1f3a26"/><circle cx="588.8" cy="322.8" r="5.9" fill="#2f5636"/><circle cx="587.6" cy="321.5" r="2.9" fill="#3f7048" opacity=".7"/>
<circle cx="451.3" cy="442.7" r="8.4" fill="#1f3a26"/><circle cx="450.1" cy="441.4" r="5.9" fill="#2f5636"/><circle cx="448.8" cy="440.2" r="2.9" fill="#3f7048" opacity=".7"/>
<circle cx="354.4" cy="611.7" r="8.0" fill="#1f3a26"/><circle cx="353.2" cy="610.5" r="5.6" fill="#2f5636"/><circle cx="352.0" cy="609.3" r="2.8" fill="#3f7048" opacity=".7"/>
<circle cx="321.9" cy="507.6" r="5.4" fill="#1f3a26"/><circle cx="321.1" cy="506.8" r="3.8" fill="#2f5636"/><circle cx="320.3" cy="506.0" r="1.9" fill="#3f7048" opacity=".7"/>
<circle cx="430.3" cy="555.8" r="5.7" fill="#1f3a26"/><circle cx="429.4" cy="555.0" r="4.0" fill="#2f5636"/><circle cx="428.6" cy="554.1" r="2.0" fill="#3f7048" opacity=".7"/>
<circle cx="571.7" cy="107.1" r="7.7" fill="#1f3a26"/><circle cx="570.6" cy="106.0" r="5.4" fill="#2f5636"/><circle cx="569.4" cy="104.8" r="2.7" fill="#3f7048" opacity=".7"/>
<circle cx="461.6" cy="247.8" r="5.1" fill="#1f3a26"/><circle cx="460.8" cy="247.0" r="3.5" fill="#2f5636"/><circle cx="460.0" cy="246.3" r="1.8" fill="#3f7048" opacity=".7"/>
<circle cx="557.0" cy="480.0" r="6.7" fill="#1f3a26"/><circle cx="556.0" cy="479.0" r="4.7" fill="#2f5636"/><circle cx="555.0" cy="478.0" r="2.3" fill="#3f7048" opacity=".7"/>
<circle cx="387.9" cy="225.9" r="7.4" fill="#1f3a26"/><circle cx="386.8" cy="224.8" r="5.2" fill="#2f5636"/><circle cx="385.7" cy="223.7" r="2.6" fill="#3f7048" opacity=".7"/>
<circle cx="587.9" cy="637.0" r="7.0" fill="#1f3a26"/><circle cx="586.8" cy="636.0" r="4.9" fill="#2f5636"/><circle cx="585.8" cy="634.9" r="2.4" fill="#3f7048" opacity=".7"/>
<circle cx="496.4" cy="179.9" r="6.9" fill="#1f3a26"/><circle cx="495.4" cy="178.8" r="4.8" fill="#2f5636"/><circle cx="494.3" cy="177.8" r="2.4" fill="#3f7048" opacity=".7"/>
<circle cx="573.6" cy="576.3" r="4.5" fill="#1f3a26"/><circle cx="572.9" cy="575.6" r="3.1" fill="#2f5636"/><circle cx="572.3" cy="574.9" r="1.6" fill="#3f7048" opacity=".7"/>
<circle cx="334.2" cy="636.0" r="6.2" fill="#1f3a26"/><circle cx="333.3" cy="635.1" r="4.4" fill="#2f5636"/><circle cx="332.4" cy="634.2" r="2.2" fill="#3f7048" opacity=".7"/>
<circle cx="348.1" cy="171.2" r="7.3" fill="#1f3a26"/><circle cx="347.0" cy="170.1" r="5.1" fill="#2f5636"/><circle cx="345.9" cy="169.0" r="2.5" fill="#3f7048" opacity=".7"/>
<circle cx="343.9" cy="352.7" r="5.6" fill="#1f3a26"/><circle cx="343.0" cy="351.8" r="3.9" fill="#2f5636"/><circle cx="342.2" cy="351.0" r="2.0" fill="#3f7048" opacity=".7"/>
<circle cx="452.2" cy="528.8" r="4.9" fill="#1f3a26"/><circle cx="451.5" cy="528.0" r="3.4" fill="#2f5636"/><circle cx="450.7" cy="527.3" r="1.7" fill="#3f7048" opacity=".7"/>
<circle cx="320.2" cy="257.6" r="8.4" fill="#1f3a26"/><circle cx="318.9" cy="256.3" r="5.9" fill="#2f5636"/><circle cx="317.7" cy="255.1" r="2.9" fill="#3f7048" opacity=".7"/>
<circle cx="534.9" cy="213.5" r="6.3" fill="#1f3a26"/><circle cx="533.9" cy="212.6" r="4.4" fill="#2f5636"/><circle cx="533.0" cy="211.6" r="2.2" fill="#3f7048" opacity=".7"/>
<circle cx="325.3" cy="228.3" r="4.9" fill="#1f3a26"/><circle cx="324.5" cy="227.6" r="3.4" fill="#2f5636"/><circle cx="323.8" cy="226.9" r="1.7" fill="#3f7048" opacity=".7"/>
<circle cx="399.0" cy="626.9" r="5.9" fill="#1f3a26"/><circle cx="398.1" cy="626.0" r="4.2" fill="#2f5636"/><circle cx="397.3" cy="625.1" r="2.1" fill="#3f7048" opacity=".7"/>
<circle cx="397.8" cy="152.8" r="5.5" fill="#1f3a26"/><circle cx="397.0" cy="152.0" r="3.8" fill="#2f5636"/><circle cx="396.2" cy="151.1" r="1.9" fill="#3f7048" opacity=".7"/>
<circle cx="335.6" cy="318.1" r="6.5" fill="#1f3a26"/><circle cx="334.6" cy="317.2" r="4.6" fill="#2f5636"/><circle cx="333.6" cy="316.2" r="2.3" fill="#3f7048" opacity=".7"/>
<circle cx="523.2" cy="116.2" r="5.6" fill="#1f3a26"/><circle cx="522.3" cy="115.3" r="3.9" fill="#2f5636"/><circle cx="521.5" cy="114.5" r="1.9" fill="#3f7048" opacity=".7"/>
<circle cx="325.3" cy="200.3" r="8.9" fill="#1f3a26"/><circle cx="324.0" cy="199.0" r="6.2" fill="#2f5636"/><circle cx="322.7" cy="197.6" r="3.1" fill="#3f7048" opacity=".7"/>
<circle cx="338.3" cy="608.0" r="4.4" fill="#1f3a26"/><circle cx="337.6" cy="607.3" r="3.1" fill="#2f5636"/><circle cx="337.0" cy="606.7" r="1.5" fill="#3f7048" opacity=".7"/>
<circle cx="489.8" cy="639.1" r="7.2" fill="#1f3a26"/><circle cx="488.7" cy="638.0" r="5.1" fill="#2f5636"/><circle cx="487.6" cy="636.9" r="2.5" fill="#3f7048" opacity=".7"/>
<circle cx="425.0" cy="525.5" r="6.2" fill="#1f3a26"/><circle cx="424.0" cy="524.6" r="4.3" fill="#2f5636"/><circle cx="423.1" cy="523.7" r="2.2" fill="#3f7048" opacity=".7"/>
<circle cx="520.0" cy="398.3" r="5.9" fill="#1f3a26"/><circle cx="519.1" cy="397.4" r="4.1" fill="#2f5636"/><circle cx="518.2" cy="396.5" r="2.1" fill="#3f7048" opacity=".7"/>
<path d="M454.0,374.0 Q415.9,478.9 353.7,583.8" stroke="#b9a06a" stroke-width="4.5" fill="none" opacity=".55" stroke-linecap="round"/>
<path d="M454.0,374.0 Q402.6,269.1 327.2,164.2" stroke="#b9a06a" stroke-width="4.5" fill="none" opacity=".55" stroke-linecap="round"/>
<path d="M454.0,374.0 Q424.7,291.2 371.4,208.4" stroke="#b9a06a" stroke-width="4.5" fill="none" opacity=".55" stroke-linecap="round"/>
<path d="M454.0,374.0 Q442.4,340.9 406.8,307.8" stroke="#b9a06a" stroke-width="4.5" fill="none" opacity=".55" stroke-linecap="round"/>
<path d="M454.0,374.0 Q486.6,318.8 495.3,263.6" stroke="#b9a06a" stroke-width="4.5" fill="none" opacity=".55" stroke-linecap="round"/>
<path d="M454.0,374.0 Q466.0,374.0 454.0,374.0" stroke="#b9a06a" stroke-width="4.5" fill="none" opacity=".55" stroke-linecap="round"/>
<path d="M454.0,374.0 Q501.4,390.6 524.8,407.1" stroke="#b9a06a" stroke-width="4.5" fill="none" opacity=".55" stroke-linecap="round"/>
<path d="M454.0,374.0 Q483.7,440.2 489.4,506.5" stroke="#b9a06a" stroke-width="4.5" fill="none" opacity=".55" stroke-linecap="round"/>
<path d="M454.0,374.0 Q510.2,462.3 542.5,550.6" stroke="#b9a06a" stroke-width="4.5" fill="none" opacity=".55" stroke-linecap="round"/>
<path d="M454.0,374.0 Q454.2,429.2 430.4,484.4" stroke="#b9a06a" stroke-width="4.5" fill="none" opacity=".55" stroke-linecap="round"/>
<path d="M454.0,374.0 Q466.0,255.3 454.0,136.6" stroke="#b9a06a" stroke-width="4.5" fill="none" opacity=".55" stroke-linecap="round"/>
<rect x="341.9" y="94.0" width="224.1" height="18" fill="#5b4028" rx="3"/>
<line x1="341.9" y1="94.0" x2="341.9" y2="112.0" stroke="#3c2a19" stroke-width="1.5"/>
<line x1="357.9" y1="94.0" x2="357.9" y2="112.0" stroke="#3c2a19" stroke-width="1.5"/>
<line x1="374.0" y1="94.0" x2="374.0" y2="112.0" stroke="#3c2a19" stroke-width="1.5"/>
<line x1="390.0" y1="94.0" x2="390.0" y2="112.0" stroke="#3c2a19" stroke-width="1.5"/>
<line x1="406.0" y1="94.0" x2="406.0" y2="112.0" stroke="#3c2a19" stroke-width="1.5"/>
<line x1="422.0" y1="94.0" x2="422.0" y2="112.0" stroke="#3c2a19" stroke-width="1.5"/>
<line x1="438.0" y1="94.0" x2="438.0" y2="112.0" stroke="#3c2a19" stroke-width="1.5"/>
<line x1="454.0" y1="94.0" x2="454.0" y2="112.0" stroke="#3c2a19" stroke-width="1.5"/>
<line x1="470.0" y1="94.0" x2="470.0" y2="112.0" stroke="#3c2a19" stroke-width="1.5"/>
<line x1="486.0" y1="94.0" x2="486.0" y2="112.0" stroke="#3c2a19" stroke-width="1.5"/>
<line x1="502.0" y1="94.0" x2="502.0" y2="112.0" stroke="#3c2a19" stroke-width="1.5"/>
<line x1="518.0" y1="94.0" x2="518.0" y2="112.0" stroke="#3c2a19" stroke-width="1.5"/>
<line x1="534.0" y1="94.0" x2="534.0" y2="112.0" stroke="#3c2a19" stroke-width="1.5"/>
<line x1="550.1" y1="94.0" x2="550.1" y2="112.0" stroke="#3c2a19" stroke-width="1.5"/>
<rect x="318.7" y="548.8" width="70" height="70" fill="#3a3f3c" rx="4"/>
<rect x="323.7" y="566.8" width="20" height="34" rx="3" fill="#c9ccc7"/>
<rect x="339.7" y="566.8" width="20" height="34" rx="3" fill="#c9ccc7"/>
<rect x="355.7" y="566.8" width="20" height="34" rx="3" fill="#c9ccc7"/>
<rect x="371.7" y="566.8" width="20" height="34" rx="3" fill="#c9ccc7"/>
<rect x="369.8" y="287.8" width="74" height="40" rx="8" fill="#5b4028"/>
<rect x="375.8" y="293.8" width="62" height="28" rx="6" fill="#2aa7c8"/>
<rect x="375.8" y="293.8" width="62" height="28" rx="6" fill="#57c7e0" opacity=".5"/>
<circle cx="469.3" cy="263.6" r="22" fill="#d7d2c4" stroke="#8a8574" stroke-width="2"/>
<line x1="469.3" y1="263.6" x2="491.3" y2="263.6" stroke="#a49e8c" stroke-width="1"/>
<line x1="469.3" y1="263.6" x2="488.3" y2="274.6" stroke="#a49e8c" stroke-width="1"/>
<line x1="469.3" y1="263.6" x2="480.3" y2="282.7" stroke="#a49e8c" stroke-width="1"/>
<line x1="469.3" y1="263.6" x2="469.3" y2="285.6" stroke="#a49e8c" stroke-width="1"/>
<line x1="469.3" y1="263.6" x2="458.3" y2="282.7" stroke="#a49e8c" stroke-width="1"/>
<line x1="469.3" y1="263.6" x2="450.2" y2="274.6" stroke="#a49e8c" stroke-width="1"/>
<line x1="469.3" y1="263.6" x2="447.3" y2="263.6" stroke="#a49e8c" stroke-width="1"/>
<line x1="469.3" y1="263.6" x2="450.2" y2="252.6" stroke="#a49e8c" stroke-width="1"/>
<line x1="469.3" y1="263.6" x2="458.3" y2="244.5" stroke="#a49e8c" stroke-width="1"/>
<line x1="469.3" y1="263.6" x2="469.3" y2="241.6" stroke="#a49e8c" stroke-width="1"/>
<line x1="469.3" y1="263.6" x2="480.3" y2="244.5" stroke="#a49e8c" stroke-width="1"/>
<line x1="469.3" y1="263.6" x2="488.3" y2="252.6" stroke="#a49e8c" stroke-width="1"/>
<circle cx="521.3" cy="263.6" r="22" fill="#d7d2c4" stroke="#8a8574" stroke-width="2"/>
<line x1="521.3" y1="263.6" x2="543.3" y2="263.6" stroke="#a49e8c" stroke-width="1"/>
<line x1="521.3" y1="263.6" x2="540.3" y2="274.6" stroke="#a49e8c" stroke-width="1"/>
<line x1="521.3" y1="263.6" x2="532.3" y2="282.7" stroke="#a49e8c" stroke-width="1"/>
<line x1="521.3" y1="263.6" x2="521.3" y2="285.6" stroke="#a49e8c" stroke-width="1"/>
<line x1="521.3" y1="263.6" x2="510.3" y2="282.7" stroke="#a49e8c" stroke-width="1"/>
<line x1="521.3" y1="263.6" x2="502.2" y2="274.6" stroke="#a49e8c" stroke-width="1"/>
<line x1="521.3" y1="263.6" x2="499.3" y2="263.6" stroke="#a49e8c" stroke-width="1"/>
<line x1="521.3" y1="263.6" x2="502.2" y2="252.6" stroke="#a49e8c" stroke-width="1"/>
<line x1="521.3" y1="263.6" x2="510.3" y2="244.5" stroke="#a49e8c" stroke-width="1"/>
<line x1="521.3" y1="263.6" x2="521.3" y2="241.6" stroke="#a49e8c" stroke-width="1"/>
<line x1="521.3" y1="263.6" x2="532.3" y2="244.5" stroke="#a49e8c" stroke-width="1"/>
<line x1="521.3" y1="263.6" x2="540.3" y2="252.6" stroke="#a49e8c" stroke-width="1"/>
<circle cx="454.0" cy="374.0" r="30" fill="#2a2118"/>
<circle cx="454.0" cy="374.0" r="12" fill="#e8721c"/>
<circle cx="454.0" cy="374.0" r="6" fill="#ffd24a"/>
<rect x="501.8" y="390.1" width="46" height="34" rx="3" fill="#6a4a2c" stroke="#2c1e12" stroke-width="1.5"/>
<line x1="501.8" y1="407.1" x2="547.8" y2="407.1" stroke="#3c2a19" stroke-width="1.5"/>
<rect x="463.4" y="486.5" width="52" height="40" rx="3" fill="#5a3f26" stroke="#2c1e12" stroke-width="1.5"/>
<line x1="463.4" y1="506.5" x2="515.4" y2="506.5" stroke="#3c2a19" stroke-width="1.5"/>
<rect x="351.4" y="191.4" width="40" height="34" rx="3" fill="#6a4a2c" stroke="#2c1e12"/>
<rect x="516.5" y="533.6" width="52" height="34" rx="2" fill="#b5652a"/>
<rect x="516.5" y="533.6" width="52" height="34" fill="none" stroke="#f0e9d8" stroke-width="1.4"/>
<line x1="542.5" y1="533.6" x2="542.5" y2="567.6" stroke="#f0e9d8" stroke-width="1.4"/>
<circle cx="542.5" cy="550.6" r="7" fill="none" stroke="#f0e9d8" stroke-width="1.4"/>
<rect x="315.2" y="154.2" width="24" height="20" rx="2" fill="#7d6b8e"/>
</g>
<circle cx="353.7" cy="583.8" r="11" fill="#14241c" stroke="#d9b25f" stroke-width="1.5"/>
<text x="353.7" y="587.8" font-size="12" fill="#d9b25f" text-anchor="middle" font-weight="700">1</text>
<circle cx="327.2" cy="164.2" r="11" fill="#14241c" stroke="#d9b25f" stroke-width="1.5"/>
<text x="327.2" y="168.2" font-size="12" fill="#d9b25f" text-anchor="middle" font-weight="700">2</text>
<circle cx="371.4" cy="208.4" r="11" fill="#14241c" stroke="#d9b25f" stroke-width="1.5"/>
<text x="371.4" y="212.4" font-size="12" fill="#d9b25f" text-anchor="middle" font-weight="700">3</text>
<circle cx="406.8" cy="307.8" r="11" fill="#14241c" stroke="#d9b25f" stroke-width="1.5"/>
<text x="406.8" y="311.8" font-size="12" fill="#d9b25f" text-anchor="middle" font-weight="700">4</text>
<circle cx="495.3" cy="263.6" r="11" fill="#14241c" stroke="#d9b25f" stroke-width="1.5"/>
<text x="495.3" y="267.6" font-size="12" fill="#d9b25f" text-anchor="middle" font-weight="700">5</text>
<circle cx="454.0" cy="374.0" r="11" fill="#14241c" stroke="#d9b25f" stroke-width="1.5"/>
<text x="454.0" y="378.0" font-size="12" fill="#d9b25f" text-anchor="middle" font-weight="700">6</text>
<circle cx="524.8" cy="407.1" r="11" fill="#14241c" stroke="#d9b25f" stroke-width="1.5"/>
<text x="524.8" y="411.1" font-size="12" fill="#d9b25f" text-anchor="middle" font-weight="700">7</text>
<circle cx="489.4" cy="506.5" r="11" fill="#14241c" stroke="#d9b25f" stroke-width="1.5"/>
<text x="489.4" y="510.5" font-size="12" fill="#d9b25f" text-anchor="middle" font-weight="700">8</text>
<circle cx="542.5" cy="550.6" r="11" fill="#14241c" stroke="#d9b25f" stroke-width="1.5"/>
<text x="542.5" y="554.6" font-size="12" fill="#d9b25f" text-anchor="middle" font-weight="700">9</text>
<circle cx="430.4" cy="484.4" r="11" fill="#14241c" stroke="#d9b25f" stroke-width="1.5"/>
<text x="430.4" y="488.4" font-size="12" fill="#d9b25f" text-anchor="middle" font-weight="700">10</text>
<circle cx="454.0" cy="136.6" r="11" fill="#14241c" stroke="#d9b25f" stroke-width="1.5"/>
<text x="454.0" y="140.6" font-size="12" fill="#d9b25f" text-anchor="middle" font-weight="700">11</text>
<polygon points="382.6,111.6 601.5,98.0 549.0,621.2 306.5,650.0" fill="none" stroke="#e63030" stroke-width="3.2" stroke-linejoin="round"/>
<circle cx="382.6" cy="111.6" r="4" fill="#fff"/>
<text x="388.6" y="105.6" font-size="13" fill="#fff" font-weight="700">P1</text>
<circle cx="601.5" cy="98.0" r="4" fill="#fff"/>
<text x="607.5" y="92.0" font-size="13" fill="#fff" font-weight="700">P2</text>
<circle cx="549.0" cy="621.2" r="4" fill="#fff"/>
<text x="555.0" y="615.2" font-size="13" fill="#fff" font-weight="700">P3</text>
<circle cx="306.5" cy="650.0" r="4" fill="#fff"/>
<text x="312.5" y="644.0" font-size="13" fill="#fff" font-weight="700">P4</text>
<text x="492.0" y="99.8" font-size="15" fill="#7CFC7A" text-anchor="middle" font-weight="700">28.93 m</text>
<text x="575.2" y="354.6" font-size="15" fill="#7CFC7A" text-anchor="middle" font-weight="700">69.39 m</text>
<text x="427.8" y="630.6" font-size="15" fill="#7CFC7A" text-anchor="middle" font-weight="700">32.22 m</text>
<text x="344.6" y="375.8" font-size="15" fill="#7CFC7A" text-anchor="middle" font-weight="700">71.75 m</text>
<text x="459.9" y="76.0" font-size="20" fill="#8fd0dc" letter-spacing="3" text-anchor="middle">DARYO</text>
<text x="459.9" y="684.0" font-size="18" fill="#9fb3a3" letter-spacing="3" text-anchor="middle">YO‘L</text>
<g transform="translate(64,68)"><polygon points="0,-22 6,0 0,6 -6,0" fill="#e7f0e6"/><polygon points="0,22 6,0 0,-6 -6,0" fill="#5c7565"/><text x="0" y="-26" font-size="12" fill="#e7f0e6" text-anchor="middle">N</text></g>
<g transform="translate(94,44)">
<text x="0" y="0" font-size="26" fill="#e7f0e6" font-weight="800">21-LOT (0.21 ga)</text>
<text x="0" y="22" font-size="13" fill="#9fb3a3">Maydoni: 0.21 ga (21 sotix)</text>
<text x="0" y="40" font-size="13" fill="#9fb3a3">Vazifasi: Dam olish va oilaviy hordiq</text>
</g>
<rect x="908" y="24" width="300" height="700" rx="10" fill="#16241d"/>
<text x="928" y="60" font-size="16" fill="#d9b25f" font-weight="800" letter-spacing="1">EKSPLIKATSIYA</text>
<circle cx="936" cy="82" r="10" fill="#14241c" stroke="#d9b25f"/>
<text x="936" y="86" font-size="11" fill="#d9b25f" text-anchor="middle" font-weight="700">1</text>
<text x="956" y="86" font-size="13" fill="#e7f0e6">Avtoturargoh (kirish qismi)</text>
<circle cx="936" cy="109" r="10" fill="#14241c" stroke="#d9b25f"/>
<text x="936" y="113" font-size="11" fill="#d9b25f" text-anchor="middle" font-weight="700">2</text>
<text x="956" y="113" font-size="13" fill="#e7f0e6">Hojatxona</text>
<circle cx="936" cy="136" r="10" fill="#14241c" stroke="#d9b25f"/>
<text x="936" y="140" font-size="11" fill="#d9b25f" text-anchor="middle" font-weight="700">3</text>
<text x="956" y="140" font-size="13" fill="#e7f0e6">Tapchan</text>
<circle cx="936" cy="163" r="10" fill="#14241c" stroke="#d9b25f"/>
<text x="936" y="167" font-size="11" fill="#d9b25f" text-anchor="middle" font-weight="700">4</text>
<text x="956" y="167" font-size="13" fill="#e7f0e6">Basseyn</text>
<circle cx="936" cy="190" r="10" fill="#14241c" stroke="#d9b25f"/>
<text x="936" y="194" font-size="11" fill="#d9b25f" text-anchor="middle" font-weight="700">5</text>
<text x="956" y="194" font-size="13" fill="#e7f0e6">O‘tovlar (2–3 ta)</text>
<circle cx="936" cy="217" r="10" fill="#14241c" stroke="#d9b25f"/>
<text x="936" y="221" font-size="11" fill="#d9b25f" text-anchor="middle" font-weight="700">6</text>
<text x="956" y="221" font-size="13" fill="#e7f0e6">O‘choq / dam olish zonasi</text>
<circle cx="936" cy="244" r="10" fill="#14241c" stroke="#d9b25f"/>
<text x="936" y="248" font-size="11" fill="#d9b25f" text-anchor="middle" font-weight="700">7</text>
<text x="956" y="248" font-size="13" fill="#e7f0e6">Yozgi oshxona</text>
<circle cx="936" cy="271" r="10" fill="#14241c" stroke="#d9b25f"/>
<text x="936" y="275" font-size="11" fill="#d9b25f" text-anchor="middle" font-weight="700">8</text>
<text x="956" y="275" font-size="13" fill="#e7f0e6">Qishki oshxona</text>
<circle cx="936" cy="298" r="10" fill="#14241c" stroke="#d9b25f"/>
<text x="936" y="302" font-size="11" fill="#d9b25f" text-anchor="middle" font-weight="700">9</text>
<text x="956" y="302" font-size="13" fill="#e7f0e6">Basketbol maydonchasi</text>
<circle cx="936" cy="325" r="10" fill="#14241c" stroke="#d9b25f"/>
<text x="936" y="329" font-size="11" fill="#d9b25f" text-anchor="middle" font-weight="700">10</text>
<text x="956" y="329" font-size="13" fill="#e7f0e6">Katta yashil hudud</text>
<circle cx="936" cy="352" r="10" fill="#14241c" stroke="#d9b25f"/>
<text x="936" y="356" font-size="11" fill="#d9b25f" text-anchor="middle" font-weight="700">11</text>
<text x="956" y="356" font-size="13" fill="#e7f0e6">Daryo bo‘yida terasa</text>
<line x1="928" y1="377" x2="1188" y2="377" stroke="#2c4034"/>
<text x="928" y="397" font-size="15" fill="#d9b25f" font-weight="800">O‘LCHAMLAR (m)</text>
<text x="928" y="421" font-size="13" fill="#9fb3a3">🌊 Daryo bo‘yi</text><text x="1188" y="421" font-size="13" fill="#e7f0e6" text-anchor="end" font-weight="700">28.93</text>
<text x="928" y="443" font-size="13" fill="#9fb3a3">🚗 Yo‘l bo‘yi</text><text x="1188" y="443" font-size="13" fill="#e7f0e6" text-anchor="end" font-weight="700">32.22</text>
<text x="928" y="465" font-size="13" fill="#9fb3a3">Maydoni (ga)</text><text x="1188" y="465" font-size="13" fill="#e7f0e6" text-anchor="end" font-weight="700">0.21</text>
<text x="928" y="487" font-size="13" fill="#9fb3a3">Perimetr</text><text x="1188" y="487" font-size="13" fill="#e7f0e6" text-anchor="end" font-weight="700">202.3</text>
<text x="1224" y="46" font-size="14" fill="#d9b25f" font-weight="800">3D KO‘RINISHLAR</text>
<rect x="1224" y="58" width="190" height="130" rx="8" fill="#1d2f26" stroke="#2c4034"/>
<text x="1319" y="126" font-size="26" fill="#3c5647" text-anchor="middle">▦</text>
<text x="1319" y="206" font-size="12" fill="#9fb3a3" text-anchor="middle">Daryo bo‘yi terasa</text>
<rect x="1224" y="230" width="190" height="130" rx="8" fill="#1d2f26" stroke="#2c4034"/>
<text x="1319" y="298" font-size="26" fill="#3c5647" text-anchor="middle">▦</text>
<text x="1319" y="378" font-size="12" fill="#9fb3a3" text-anchor="middle">Basseyn zonasi</text>
<rect x="1224" y="402" width="190" height="130" rx="8" fill="#1d2f26" stroke="#2c4034"/>
<text x="1319" y="470" font-size="26" fill="#3c5647" text-anchor="middle">▦</text>
<text x="1319" y="550" font-size="12" fill="#9fb3a3" text-anchor="middle">O‘choq / dam zonasi</text>
<text x="24" y="742" font-size="14" fill="#d9b25f" font-weight="800">3D KO‘RINISHLAR (AI render bilan to‘ldiriladi)</text>
<rect x="24" y="748" width="272" height="196" rx="8" fill="#1d2f26" stroke="#2c4034"/>
<text x="160" y="844" font-size="30" fill="#3c5647" text-anchor="middle">▦</text>
<text x="160" y="924" font-size="12" fill="#9fb3a3" text-anchor="middle">Kirish, avtoturargoh</text>
<rect x="308" y="748" width="272" height="196" rx="8" fill="#1d2f26" stroke="#2c4034"/>
<text x="444" y="844" font-size="30" fill="#3c5647" text-anchor="middle">▦</text>
<text x="444" y="924" font-size="12" fill="#9fb3a3" text-anchor="middle">Tapchan</text>
<rect x="592" y="748" width="272" height="196" rx="8" fill="#1d2f26" stroke="#2c4034"/>
<text x="728" y="844" font-size="30" fill="#3c5647" text-anchor="middle">▦</text>
<text x="728" y="924" font-size="12" fill="#9fb3a3" text-anchor="middle">O‘tovlar</text>
<rect x="876" y="748" width="272" height="196" rx="8" fill="#1d2f26" stroke="#2c4034"/>
<text x="1012" y="844" font-size="30" fill="#3c5647" text-anchor="middle">▦</text>
<text x="1012" y="924" font-size="12" fill="#9fb3a3" text-anchor="middle">Yozgi oshxona</text>
<rect x="1160" y="748" width="272" height="196" rx="8" fill="#1d2f26" stroke="#2c4034"/>
<text x="1296" y="844" font-size="30" fill="#3c5647" text-anchor="middle">▦</text>
<text x="1296" y="924" font-size="12" fill="#9fb3a3" text-anchor="middle">Qishki oshxona</text>
</svg>