<svg xmlns="http://www.w3.org/2000/svg" viewBox="0 0 1440 1000" font-family="Segoe UI, Arial, sans-serif">
<rect width="1440" height="1000" fill="#10201a"/>
<rect x="24" y="24" width="860" height="700" fill="#0c1712" rx="10"/>
<rect x="24" y="24" width="860" height="80" fill="#123a44"/>
<clipPath id="lot"><polygon points="348.8,98.0 580.7,98.0 582.1,642.4 325.9,650.0"/></clipPath>
<polygon points="348.8,98.0 580.7,98.0 582.1,642.4 325.9,650.0" fill="#243d2a"/>
<g clip-path="url(#lot)">
<circle cx="556.1" cy="163.0" r="5.8" fill="#1f3a26"/><circle cx="555.2" cy="162.2" r="4.1" fill="#2f5636"/><circle cx="554.4" cy="161.3" r="2.0" fill="#3f7048" opacity=".7"/>
<circle cx="569.0" cy="415.9" r="5.5" fill="#1f3a26"/><circle cx="568.1" cy="415.1" r="3.9" fill="#2f5636"/><circle cx="567.3" cy="414.3" r="1.9" fill="#3f7048" opacity=".7"/>
<circle cx="350.1" cy="367.6" r="4.8" fill="#1f3a26"/><circle cx="349.4" cy="366.8" r="3.3" fill="#2f5636"/><circle cx="348.7" cy="366.1" r="1.7" fill="#3f7048" opacity=".7"/>
<circle cx="518.7" cy="602.3" r="4.3" fill="#1f3a26"/><circle cx="518.1" cy="601.7" r="3.0" fill="#2f5636"/><circle cx="517.4" cy="601.0" r="1.5" fill="#3f7048" opacity=".7"/>
<circle cx="531.0" cy="134.6" r="6.9" fill="#1f3a26"/><circle cx="529.9" cy="133.5" r="4.9" fill="#2f5636"/><circle cx="528.9" cy="132.5" r="2.4" fill="#3f7048" opacity=".7"/>
<circle cx="355.9" cy="493.8" r="8.5" fill="#1f3a26"/><circle cx="354.6" cy="492.6" r="6.0" fill="#2f5636"/><circle cx="353.3" cy="491.3" r="3.0" fill="#3f7048" opacity=".7"/>
<circle cx="413.5" cy="172.3" r="4.5" fill="#1f3a26"/><circle cx="412.9" cy="171.6" r="3.1" fill="#2f5636"/><circle cx="412.2" cy="171.0" r="1.6" fill="#3f7048" opacity=".7"/>
<circle cx="515.7" cy="108.8" r="6.1" fill="#1f3a26"/><circle cx="514.8" cy="107.9" r="4.3" fill="#2f5636"/><circle cx="513.9" cy="107.0" r="2.1" fill="#3f7048" opacity=".7"/>
<circle cx="444.2" cy="577.8" r="5.4" fill="#1f3a26"/><circle cx="443.4" cy="576.9" r="3.8" fill="#2f5636"/><circle cx="442.6" cy="576.1" r="1.9" fill="#3f7048" opacity=".7"/>
<circle cx="385.8" cy="486.5" r="5.5" fill="#1f3a26"/><circle cx="385.0" cy="485.7" r="3.8" fill="#2f5636"/><circle cx="384.2" cy="484.9" r="1.9" fill="#3f7048" opacity=".7"/>
<circle cx="352.7" cy="360.4" r="6.0" fill="#1f3a26"/><circle cx="351.7" cy="359.5" r="4.2" fill="#2f5636"/><circle cx="350.8" cy="358.6" r="2.1" fill="#3f7048" opacity=".7"/>
<circle cx="384.2" cy="129.3" r="5.5" fill="#1f3a26"/><circle cx="383.4" cy="128.5" r="3.9" fill="#2f5636"/><circle cx="382.5" cy="127.7" r="1.9" fill="#3f7048" opacity=".7"/>
<circle cx="462.1" cy="156.1" r="7.8" fill="#1f3a26"/><circle cx="460.9" cy="155.0" r="5.5" fill="#2f5636"/><circle cx="459.7" cy="153.8" r="2.7" fill="#3f7048" opacity=".7"/>
<circle cx="573.3" cy="313.6" r="8.4" fill="#1f3a26"/><circle cx="572.0" cy="312.4" r="5.8" fill="#2f5636"/><circle cx="570.8" cy="311.1" r="2.9" fill="#3f7048" opacity=".7"/>
<circle cx="342.6" cy="244.8" r="5.7" fill="#1f3a26"/><circle cx="341.8" cy="243.9" r="4.0" fill="#2f5636"/><circle cx="340.9" cy="243.1" r="2.0" fill="#3f7048" opacity=".7"/>
<circle cx="565.2" cy="310.7" r="5.3" fill="#1f3a26"/><circle cx="564.4" cy="309.9" r="3.7" fill="#2f5636"/><circle cx="563.6" cy="309.1" r="1.9" fill="#3f7048" opacity=".7"/>
<circle cx="462.3" cy="618.1" r="5.3" fill="#1f3a26"/><circle cx="461.5" cy="617.3" r="3.7" fill="#2f5636"/><circle cx="460.7" cy="616.5" r="1.9" fill="#3f7048" opacity=".7"/>
<circle cx="454.4" cy="113.1" r="8.3" fill="#1f3a26"/><circle cx="453.1" cy="111.8" r="5.8" fill="#2f5636"/><circle cx="451.9" cy="110.6" r="2.9" fill="#3f7048" opacity=".7"/>
<circle cx="503.7" cy="100.1" r="4.8" fill="#1f3a26"/><circle cx="503.0" cy="99.4" r="3.3" fill="#2f5636"/><circle cx="502.3" cy="98.7" r="1.7" fill="#3f7048" opacity=".7"/>
<circle cx="564.8" cy="106.1" r="5.8" fill="#1f3a26"/><circle cx="563.9" cy="105.2" r="4.1" fill="#2f5636"/><circle cx="563.1" cy="104.3" r="2.0" fill="#3f7048" opacity=".7"/>
<circle cx="534.4" cy="104.3" r="4.7" fill="#1f3a26"/><circle cx="533.7" cy="103.6" r="3.3" fill="#2f5636"/><circle cx="533.0" cy="102.9" r="1.7" fill="#3f7048" opacity=".7"/>
<circle cx="545.7" cy="244.6" r="8.3" fill="#1f3a26"/><circle cx="544.4" cy="243.3" r="5.8" fill="#2f5636"/><circle cx="543.2" cy="242.1" r="2.9" fill="#3f7048" opacity=".7"/>
<circle cx="426.3" cy="569.9" r="6.0" fill="#1f3a26"/><circle cx="425.4" cy="569.0" r="4.2" fill="#2f5636"/><circle cx="424.5" cy="568.1" r="2.1" fill="#3f7048" opacity=".7"/>
<circle cx="568.0" cy="481.0" r="8.9" fill="#1f3a26"/><circle cx="566.7" cy="479.7" r="6.2" fill="#2f5636"/><circle cx="565.3" cy="478.4" r="3.1" fill="#3f7048" opacity=".7"/>
<circle cx="539.2" cy="399.7" r="8.4" fill="#1f3a26"/><circle cx="537.9" cy="398.4" r="5.9" fill="#2f5636"/><circle cx="536.6" cy="397.2" r="2.9" fill="#3f7048" opacity=".7"/>
<circle cx="570.6" cy="478.5" r="7.3" fill="#1f3a26"/><circle cx="569.5" cy="477.4" r="5.1" fill="#2f5636"/><circle cx="568.4" cy="476.3" r="2.6" fill="#3f7048" opacity=".7"/>
<circle cx="519.0" cy="307.2" r="5.2" fill="#1f3a26"/><circle cx="518.2" cy="306.5" r="3.6" fill="#2f5636"/><circle cx="517.4" cy="305.7" r="1.8" fill="#3f7048" opacity=".7"/>
<circle cx="397.8" cy="164.4" r="7.9" fill="#1f3a26"/><circle cx="396.7" cy="163.2" r="5.5" fill="#2f5636"/><circle cx="395.5" cy="162.0" r="2.8" fill="#3f7048" opacity=".7"/>
<circle cx="450.1" cy="178.1" r="5.5" fill="#1f3a26"/><circle cx="449.3" cy="177.3" r="3.9" fill="#2f5636"/><circle cx="448.5" cy="176.5" r="1.9" fill="#3f7048" opacity=".7"/>
<circle cx="566.0" cy="461.8" r="7.9" fill="#1f3a26"/><circle cx="564.8" cy="460.6" r="5.5" fill="#2f5636"/><circle cx="563.7" cy="459.4" r="2.8" fill="#3f7048" opacity=".7"/>
<circle cx="402.1" cy="162.5" r="8.5" fill="#1f3a26"/><circle cx="400.9" cy="161.2" r="5.9" fill="#2f5636"/><circle cx="399.6" cy="160.0" r="3.0" fill="#3f7048" opacity=".7"/>
<circle cx="500.5" cy="630.5" r="5.5" fill="#1f3a26"/><circle cx="499.7" cy="629.7" r="3.9" fill="#2f5636"/><circle cx="498.9" cy="628.9" r="1.9" fill="#3f7048" opacity=".7"/>
<circle cx="369.8" cy="371.6" r="4.3" fill="#1f3a26"/><circle cx="369.1" cy="370.9" r="3.0" fill="#2f5636"/><circle cx="368.5" cy="370.3" r="1.5" fill="#3f7048" opacity=".7"/>
<circle cx="351.4" cy="172.6" r="7.0" fill="#1f3a26"/><circle cx="350.4" cy="171.6" r="4.9" fill="#2f5636"/><circle cx="349.3" cy="170.5" r="2.5" fill="#3f7048" opacity=".7"/>
<circle cx="547.9" cy="129.3" r="6.8" fill="#1f3a26"/><circle cx="546.9" cy="128.3" r="4.8" fill="#2f5636"/><circle cx="545.8" cy="127.3" r="2.4" fill="#3f7048" opacity=".7"/>
<circle cx="542.8" cy="410.0" r="7.0" fill="#1f3a26"/><circle cx="541.7" cy="409.0" r="4.9" fill="#2f5636"/><circle cx="540.7" cy="407.9" r="2.5" fill="#3f7048" opacity=".7"/>
<circle cx="368.7" cy="404.1" r="6.3" fill="#1f3a26"/><circle cx="367.8" cy="403.1" r="4.4" fill="#2f5636"/><circle cx="366.8" cy="402.2" r="2.2" fill="#3f7048" opacity=".7"/>
<circle cx="572.5" cy="102.4" r="7.7" fill="#1f3a26"/><circle cx="571.3" cy="101.3" r="5.4" fill="#2f5636"/><circle cx="570.2" cy="100.1" r="2.7" fill="#3f7048" opacity=".7"/>
<circle cx="337.4" cy="103.9" r="6.7" fill="#1f3a26"/><circle cx="336.4" cy="102.9" r="4.7" fill="#2f5636"/><circle cx="335.4" cy="101.9" r="2.3" fill="#3f7048" opacity=".7"/>
<circle cx="406.4" cy="589.4" r="6.3" fill="#1f3a26"/><circle cx="405.5" cy="588.4" r="4.4" fill="#2f5636"/><circle cx="404.5" cy="587.5" r="2.2" fill="#3f7048" opacity=".7"/>
<circle cx="373.9" cy="526.2" r="7.5" fill="#1f3a26"/><circle cx="372.8" cy="525.1" r="5.3" fill="#2f5636"/><circle cx="371.7" cy="523.9" r="2.6" fill="#3f7048" opacity=".7"/>
<circle cx="333.1" cy="128.6" r="5.2" fill="#1f3a26"/><circle cx="332.4" cy="127.8" r="3.6" fill="#2f5636"/><circle cx="331.6" cy="127.1" r="1.8" fill="#3f7048" opacity=".7"/>
<circle cx="555.4" cy="239.4" r="8.0" fill="#1f3a26"/><circle cx="554.2" cy="238.2" r="5.6" fill="#2f5636"/><circle cx="553.0" cy="237.0" r="2.8" fill="#3f7048" opacity=".7"/>
<circle cx="416.3" cy="520.2" r="8.5" fill="#1f3a26"/><circle cx="415.1" cy="518.9" r="5.9" fill="#2f5636"/><circle cx="413.8" cy="517.6" r="3.0" fill="#3f7048" opacity=".7"/>
<circle cx="354.7" cy="137.4" r="6.8" fill="#1f3a26"/><circle cx="353.6" cy="136.4" r="4.8" fill="#2f5636"/><circle cx="352.6" cy="135.4" r="2.4" fill="#3f7048" opacity=".7"/>
<path d="M454.0,374.0 Q422.5,478.9 366.9,583.8" stroke="#b9a06a" stroke-width="4.5" fill="none" opacity=".55" stroke-linecap="round"/>
<path d="M454.0,374.0 Q410.9,269.1 343.9,164.2" stroke="#b9a06a" stroke-width="4.5" fill="none" opacity=".55" stroke-linecap="round"/>
<path d="M454.0,374.0 Q430.1,291.2 382.3,208.4" stroke="#b9a06a" stroke-width="4.5" fill="none" opacity=".55" stroke-linecap="round"/>
<path d="M454.0,374.0 Q445.5,340.9 413.0,307.8" stroke="#b9a06a" stroke-width="4.5" fill="none" opacity=".55" stroke-linecap="round"/>
<path d="M454.0,374.0 Q483.9,318.8 489.9,263.6" stroke="#b9a06a" stroke-width="4.5" fill="none" opacity=".55" stroke-linecap="round"/>
<path d="M454.0,374.0 Q466.0,374.0 454.0,374.0" stroke="#b9a06a" stroke-width="4.5" fill="none" opacity=".55" stroke-linecap="round"/>
<path d="M454.0,374.0 Q496.7,390.6 515.5,407.1" stroke="#b9a06a" stroke-width="4.5" fill="none" opacity=".55" stroke-linecap="round"/>
<path d="M454.0,374.0 Q481.4,440.2 484.7,506.5" stroke="#b9a06a" stroke-width="4.5" fill="none" opacity=".55" stroke-linecap="round"/>
<path d="M454.0,374.0 Q504.4,462.3 530.8,550.6" stroke="#b9a06a" stroke-width="4.5" fill="none" opacity=".55" stroke-linecap="round"/>
<path d="M454.0,374.0 Q455.8,429.2 433.5,484.4" stroke="#b9a06a" stroke-width="4.5" fill="none" opacity=".55" stroke-linecap="round"/>
<path d="M454.0,374.0 Q466.0,255.3 454.0,136.6" stroke="#b9a06a" stroke-width="4.5" fill="none" opacity=".55" stroke-linecap="round"/>
<rect x="356.7" y="94.0" width="194.7" height="18" fill="#5b4028" rx="3"/>
<line x1="356.7" y1="94.0" x2="356.7" y2="112.0" stroke="#3c2a19" stroke-width="1.5"/>
<line x1="370.6" y1="94.0" x2="370.6" y2="112.0" stroke="#3c2a19" stroke-width="1.5"/>
<line x1="384.5" y1="94.0" x2="384.5" y2="112.0" stroke="#3c2a19" stroke-width="1.5"/>
<line x1="398.4" y1="94.0" x2="398.4" y2="112.0" stroke="#3c2a19" stroke-width="1.5"/>
<line x1="412.3" y1="94.0" x2="412.3" y2="112.0" stroke="#3c2a19" stroke-width="1.5"/>
<line x1="426.2" y1="94.0" x2="426.2" y2="112.0" stroke="#3c2a19" stroke-width="1.5"/>
<line x1="440.1" y1="94.0" x2="440.1" y2="112.0" stroke="#3c2a19" stroke-width="1.5"/>
<line x1="454.0" y1="94.0" x2="454.0" y2="112.0" stroke="#3c2a19" stroke-width="1.5"/>
<line x1="467.9" y1="94.0" x2="467.9" y2="112.0" stroke="#3c2a19" stroke-width="1.5"/>
<line x1="481.8" y1="94.0" x2="481.8" y2="112.0" stroke="#3c2a19" stroke-width="1.5"/>
<line x1="495.7" y1="94.0" x2="495.7" y2="112.0" stroke="#3c2a19" stroke-width="1.5"/>
<line x1="509.6" y1="94.0" x2="509.6" y2="112.0" stroke="#3c2a19" stroke-width="1.5"/>
<line x1="523.5" y1="94.0" x2="523.5" y2="112.0" stroke="#3c2a19" stroke-width="1.5"/>
<line x1="537.4" y1="94.0" x2="537.4" y2="112.0" stroke="#3c2a19" stroke-width="1.5"/>
<rect x="331.9" y="548.8" width="70" height="70" fill="#3a3f3c" rx="4"/>
<rect x="336.9" y="566.8" width="20" height="34" rx="3" fill="#c9ccc7"/>
<rect x="352.9" y="566.8" width="20" height="34" rx="3" fill="#c9ccc7"/>
<rect x="368.9" y="566.8" width="20" height="34" rx="3" fill="#c9ccc7"/>
<rect x="384.9" y="566.8" width="20" height="34" rx="3" fill="#c9ccc7"/>
<rect x="376.0" y="287.8" width="74" height="40" rx="8" fill="#5b4028"/>
<rect x="382.0" y="293.8" width="62" height="28" rx="6" fill="#2aa7c8"/>
<rect x="382.0" y="293.8" width="62" height="28" rx="6" fill="#57c7e0" opacity=".5"/>
<circle cx="463.9" cy="263.6" r="22" fill="#d7d2c4" stroke="#8a8574" stroke-width="2"/>
<line x1="463.9" y1="263.6" x2="485.9" y2="263.6" stroke="#a49e8c" stroke-width="1"/>
<line x1="463.9" y1="263.6" x2="482.9" y2="274.6" stroke="#a49e8c" stroke-width="1"/>
<line x1="463.9" y1="263.6" x2="474.9" y2="282.7" stroke="#a49e8c" stroke-width="1"/>
<line x1="463.9" y1="263.6" x2="463.9" y2="285.6" stroke="#a49e8c" stroke-width="1"/>
<line x1="463.9" y1="263.6" x2="452.9" y2="282.7" stroke="#a49e8c" stroke-width="1"/>
<line x1="463.9" y1="263.6" x2="444.8" y2="274.6" stroke="#a49e8c" stroke-width="1"/>
<line x1="463.9" y1="263.6" x2="441.9" y2="263.6" stroke="#a49e8c" stroke-width="1"/>
<line x1="463.9" y1="263.6" x2="444.8" y2="252.6" stroke="#a49e8c" stroke-width="1"/>
<line x1="463.9" y1="263.6" x2="452.9" y2="244.5" stroke="#a49e8c" stroke-width="1"/>
<line x1="463.9" y1="263.6" x2="463.9" y2="241.6" stroke="#a49e8c" stroke-width="1"/>
<line x1="463.9" y1="263.6" x2="474.9" y2="244.5" stroke="#a49e8c" stroke-width="1"/>
<line x1="463.9" y1="263.6" x2="482.9" y2="252.6" stroke="#a49e8c" stroke-width="1"/>
<circle cx="515.9" cy="263.6" r="22" fill="#d7d2c4" stroke="#8a8574" stroke-width="2"/>
<line x1="515.9" y1="263.6" x2="537.9" y2="263.6" stroke="#a49e8c" stroke-width="1"/>
<line x1="515.9" y1="263.6" x2="534.9" y2="274.6" stroke="#a49e8c" stroke-width="1"/>
<line x1="515.9" y1="263.6" x2="526.9" y2="282.7" stroke="#a49e8c" stroke-width="1"/>
<line x1="515.9" y1="263.6" x2="515.9" y2="285.6" stroke="#a49e8c" stroke-width="1"/>
<line x1="515.9" y1="263.6" x2="504.9" y2="282.7" stroke="#a49e8c" stroke-width="1"/>
<line x1="515.9" y1="263.6" x2="496.8" y2="274.6" stroke="#a49e8c" stroke-width="1"/>
<line x1="515.9" y1="263.6" x2="493.9" y2="263.6" stroke="#a49e8c" stroke-width="1"/>
<line x1="515.9" y1="263.6" x2="496.8" y2="252.6" stroke="#a49e8c" stroke-width="1"/>
<line x1="515.9" y1="263.6" x2="504.9" y2="244.5" stroke="#a49e8c" stroke-width="1"/>
<line x1="515.9" y1="263.6" x2="515.9" y2="241.6" stroke="#a49e8c" stroke-width="1"/>
<line x1="515.9" y1="263.6" x2="526.9" y2="244.5" stroke="#a49e8c" stroke-width="1"/>
<line x1="515.9" y1="263.6" x2="534.9" y2="252.6" stroke="#a49e8c" stroke-width="1"/>
<circle cx="454.0" cy="374.0" r="30" fill="#2a2118"/>
<circle cx="454.0" cy="374.0" r="12" fill="#e8721c"/>
<circle cx="454.0" cy="374.0" r="6" fill="#ffd24a"/>
<rect x="492.5" y="390.1" width="46" height="34" rx="3" fill="#6a4a2c" stroke="#2c1e12" stroke-width="1.5"/>
<line x1="492.5" y1="407.1" x2="538.5" y2="407.1" stroke="#3c2a19" stroke-width="1.5"/>
<rect x="458.7" y="486.5" width="52" height="40" rx="3" fill="#5a3f26" stroke="#2c1e12" stroke-width="1.5"/>
<line x1="458.7" y1="506.5" x2="510.7" y2="506.5" stroke="#3c2a19" stroke-width="1.5"/>
<rect x="362.3" y="191.4" width="40" height="34" rx="3" fill="#6a4a2c" stroke="#2c1e12"/>
<rect x="504.8" y="533.6" width="52" height="34" rx="2" fill="#b5652a"/>
<rect x="504.8" y="533.6" width="52" height="34" fill="none" stroke="#f0e9d8" stroke-width="1.4"/>
<line x1="530.8" y1="533.6" x2="530.8" y2="567.6" stroke="#f0e9d8" stroke-width="1.4"/>
<circle cx="530.8" cy="550.6" r="7" fill="none" stroke="#f0e9d8" stroke-width="1.4"/>
<rect x="331.9" y="154.2" width="24" height="20" rx="2" fill="#7d6b8e"/>
</g>
<circle cx="366.9" cy="583.8" r="11" fill="#14241c" stroke="#d9b25f" stroke-width="1.5"/>
<text x="366.9" y="587.8" font-size="12" fill="#d9b25f" text-anchor="middle" font-weight="700">1</text>
<circle cx="343.9" cy="164.2" r="11" fill="#14241c" stroke="#d9b25f" stroke-width="1.5"/>
<text x="343.9" y="168.2" font-size="12" fill="#d9b25f" text-anchor="middle" font-weight="700">2</text>
<circle cx="382.3" cy="208.4" r="11" fill="#14241c" stroke="#d9b25f" stroke-width="1.5"/>
<text x="382.3" y="212.4" font-size="12" fill="#d9b25f" text-anchor="middle" font-weight="700">3</text>
<circle cx="413.0" cy="307.8" r="11" fill="#14241c" stroke="#d9b25f" stroke-width="1.5"/>
<text x="413.0" y="311.8" font-size="12" fill="#d9b25f" text-anchor="middle" font-weight="700">4</text>
<circle cx="489.9" cy="263.6" r="11" fill="#14241c" stroke="#d9b25f" stroke-width="1.5"/>
<text x="489.9" y="267.6" font-size="12" fill="#d9b25f" text-anchor="middle" font-weight="700">5</text>
<circle cx="454.0" cy="374.0" r="11" fill="#14241c" stroke="#d9b25f" stroke-width="1.5"/>
<text x="454.0" y="378.0" font-size="12" fill="#d9b25f" text-anchor="middle" font-weight="700">6</text>
<circle cx="515.5" cy="407.1" r="11" fill="#14241c" stroke="#d9b25f" stroke-width="1.5"/>
<text x="515.5" y="411.1" font-size="12" fill="#d9b25f" text-anchor="middle" font-weight="700">7</text>
<circle cx="484.7" cy="506.5" r="11" fill="#14241c" stroke="#d9b25f" stroke-width="1.5"/>
<text x="484.7" y="510.5" font-size="12" fill="#d9b25f" text-anchor="middle" font-weight="700">8</text>
<circle cx="530.8" cy="550.6" r="11" fill="#14241c" stroke="#d9b25f" stroke-width="1.5"/>
<text x="530.8" y="554.6" font-size="12" fill="#d9b25f" text-anchor="middle" font-weight="700">9</text>
<circle cx="433.5" cy="484.4" r="11" fill="#14241c" stroke="#d9b25f" stroke-width="1.5"/>
<text x="433.5" y="488.4" font-size="12" fill="#d9b25f" text-anchor="middle" font-weight="700">10</text>
<circle cx="454.0" cy="136.6" r="11" fill="#14241c" stroke="#d9b25f" stroke-width="1.5"/>
<text x="454.0" y="140.6" font-size="12" fill="#d9b25f" text-anchor="middle" font-weight="700">11</text>
<polygon points="348.8,98.0 580.7,98.0 582.1,642.4 325.9,650.0" fill="none" stroke="#e63030" stroke-width="3.2" stroke-linejoin="round"/>
<circle cx="348.8" cy="98.0" r="4" fill="#fff"/>
<text x="354.8" y="92.0" font-size="13" fill="#fff" font-weight="700">P1</text>
<circle cx="580.7" cy="98.0" r="4" fill="#fff"/>
<text x="586.7" y="92.0" font-size="13" fill="#fff" font-weight="700">P2</text>
<circle cx="582.1" cy="642.4" r="4" fill="#fff"/>
<text x="588.1" y="636.4" font-size="13" fill="#fff" font-weight="700">P3</text>
<circle cx="325.9" cy="650.0" r="4" fill="#fff"/>
<text x="331.9" y="644.0" font-size="13" fill="#fff" font-weight="700">P4</text>
<text x="464.7" y="93.0" font-size="15" fill="#7CFC7A" text-anchor="middle" font-weight="700">31.70 m</text>
<text x="581.4" y="365.2" font-size="15" fill="#7CFC7A" text-anchor="middle" font-weight="700">74.41 m</text>
<text x="454.0" y="641.2" font-size="15" fill="#7CFC7A" text-anchor="middle" font-weight="700">35.03 m</text>
<text x="337.3" y="369.0" font-size="15" fill="#7CFC7A" text-anchor="middle" font-weight="700">75.52 m</text>
<text x="459.4" y="76.0" font-size="20" fill="#8fd0dc" letter-spacing="3" text-anchor="middle">DARYO</text>
<text x="459.4" y="684.0" font-size="18" fill="#9fb3a3" letter-spacing="3" text-anchor="middle">YO‘L</text>
<g transform="translate(64,68)"><polygon points="0,-22 6,0 0,6 -6,0" fill="#e7f0e6"/><polygon points="0,22 6,0 0,-6 -6,0" fill="#5c7565"/><text x="0" y="-26" font-size="12" fill="#e7f0e6" text-anchor="middle">N</text></g>
<g transform="translate(94,44)">
<text x="0" y="0" font-size="26" fill="#e7f0e6" font-weight="800">34-LOT (0.25 ga)</text>
<text x="0" y="22" font-size="13" fill="#9fb3a3">Maydoni: 0.25 ga (25 sotix)</text>
<text x="0" y="40" font-size="13" fill="#9fb3a3">Vazifasi: Dam olish va oilaviy hordiq</text>
</g>
<rect x="908" y="24" width="300" height="700" rx="10" fill="#16241d"/>
<text x="928" y="60" font-size="16" fill="#d9b25f" font-weight="800" letter-spacing="1">EKSPLIKATSIYA</text>
<circle cx="936" cy="82" r="10" fill="#14241c" stroke="#d9b25f"/>
<text x="936" y="86" font-size="11" fill="#d9b25f" text-anchor="middle" font-weight="700">1</text>
<text x="956" y="86" font-size="13" fill="#e7f0e6">Avtoturargoh (kirish qismi)</text>
<circle cx="936" cy="109" r="10" fill="#14241c" stroke="#d9b25f"/>
<text x="936" y="113" font-size="11" fill="#d9b25f" text-anchor="middle" font-weight="700">2</text>
<text x="956" y="113" font-size="13" fill="#e7f0e6">Hojatxona</text>
<circle cx="936" cy="136" r="10" fill="#14241c" stroke="#d9b25f"/>
<text x="936" y="140" font-size="11" fill="#d9b25f" text-anchor="middle" font-weight="700">3</text>
<text x="956" y="140" font-size="13" fill="#e7f0e6">Tapchan</text>
<circle cx="936" cy="163" r="10" fill="#14241c" stroke="#d9b25f"/>
<text x="936" y="167" font-size="11" fill="#d9b25f" text-anchor="middle" font-weight="700">4</text>
<text x="956" y="167" font-size="13" fill="#e7f0e6">Basseyn</text>
<circle cx="936" cy="190" r="10" fill="#14241c" stroke="#d9b25f"/>
<text x="936" y="194" font-size="11" fill="#d9b25f" text-anchor="middle" font-weight="700">5</text>
<text x="956" y="194" font-size="13" fill="#e7f0e6">O‘tovlar (2–3 ta)</text>
<circle cx="936" cy="217" r="10" fill="#14241c" stroke="#d9b25f"/>
<text x="936" y="221" font-size="11" fill="#d9b25f" text-anchor="middle" font-weight="700">6</text>
<text x="956" y="221" font-size="13" fill="#e7f0e6">O‘choq / dam olish zonasi</text>
<circle cx="936" cy="244" r="10" fill="#14241c" stroke="#d9b25f"/>
<text x="936" y="248" font-size="11" fill="#d9b25f" text-anchor="middle" font-weight="700">7</text>
<text x="956" y="248" font-size="13" fill="#e7f0e6">Yozgi oshxona</text>
<circle cx="936" cy="271" r="10" fill="#14241c" stroke="#d9b25f"/>
<text x="936" y="275" font-size="11" fill="#d9b25f" text-anchor="middle" font-weight="700">8</text>
<text x="956" y="275" font-size="13" fill="#e7f0e6">Qishki oshxona</text>
<circle cx="936" cy="298" r="10" fill="#14241c" stroke="#d9b25f"/>
<text x="936" y="302" font-size="11" fill="#d9b25f" text-anchor="middle" font-weight="700">9</text>
<text x="956" y="302" font-size="13" fill="#e7f0e6">Basketbol maydonchasi</text>
<circle cx="936" cy="325" r="10" fill="#14241c" stroke="#d9b25f"/>
<text x="936" y="329" font-size="11" fill="#d9b25f" text-anchor="middle" font-weight="700">10</text>
<text x="956" y="329" font-size="13" fill="#e7f0e6">Katta yashil hudud</text>
<circle cx="936" cy="352" r="10" fill="#14241c" stroke="#d9b25f"/>
<text x="936" y="356" font-size="11" fill="#d9b25f" text-anchor="middle" font-weight="700">11</text>
<text x="956" y="356" font-size="13" fill="#e7f0e6">Daryo bo‘yida terasa</text>
<line x1="928" y1="377" x2="1188" y2="377" stroke="#2c4034"/>
<text x="928" y="397" font-size="15" fill="#d9b25f" font-weight="800">O‘LCHAMLAR (m)</text>
<text x="928" y="421" font-size="13" fill="#9fb3a3">Yuqori (daryo)</text><text x="1188" y="421" font-size="13" fill="#e7f0e6" text-anchor="end" font-weight="700">31.70</text>
<text x="928" y="443" font-size="13" fill="#9fb3a3">O‘ng tomon</text><text x="1188" y="443" font-size="13" fill="#e7f0e6" text-anchor="end" font-weight="700">74.41</text>
<text x="928" y="465" font-size="13" fill="#9fb3a3">Pastki (yo‘l)</text><text x="1188" y="465" font-size="13" fill="#e7f0e6" text-anchor="end" font-weight="700">35.03</text>
<text x="928" y="487" font-size="13" fill="#9fb3a3">Chap tomon</text><text x="1188" y="487" font-size="13" fill="#e7f0e6" text-anchor="end" font-weight="700">75.52</text>
<text x="928" y="509" font-size="13" fill="#9fb3a3">Perimetr</text><text x="1188" y="509" font-size="13" fill="#e7f0e6" text-anchor="end" font-weight="700">216.7</text>
<text x="1224" y="46" font-size="14" fill="#d9b25f" font-weight="800">3D KO‘RINISHLAR</text>
<rect x="1224" y="58" width="190" height="130" rx="8" fill="#1d2f26" stroke="#2c4034"/>
<text x="1319" y="126" font-size="26" fill="#3c5647" text-anchor="middle">▦</text>
<text x="1319" y="206" font-size="12" fill="#9fb3a3" text-anchor="middle">Daryo bo‘yi terasa</text>
<rect x="1224" y="230" width="190" height="130" rx="8" fill="#1d2f26" stroke="#2c4034"/>
<text x="1319" y="298" font-size="26" fill="#3c5647" text-anchor="middle">▦</text>
<text x="1319" y="378" font-size="12" fill="#9fb3a3" text-anchor="middle">Basseyn zonasi</text>
<rect x="1224" y="402" width="190" height="130" rx="8" fill="#1d2f26" stroke="#2c4034"/>
<text x="1319" y="470" font-size="26" fill="#3c5647" text-anchor="middle">▦</text>
<text x="1319" y="550" font-size="12" fill="#9fb3a3" text-anchor="middle">O‘choq / dam zonasi</text>
<text x="24" y="742" font-size="14" fill="#d9b25f" font-weight="800">3D KO‘RINISHLAR (AI render bilan to‘ldiriladi)</text>
<rect x="24" y="748" width="272" height="196" rx="8" fill="#1d2f26" stroke="#2c4034"/>
<text x="160" y="844" font-size="30" fill="#3c5647" text-anchor="middle">▦</text>
<text x="160" y="924" font-size="12" fill="#9fb3a3" text-anchor="middle">Kirish, avtoturargoh</text>
<rect x="308" y="748" width="272" height="196" rx="8" fill="#1d2f26" stroke="#2c4034"/>
<text x="444" y="844" font-size="30" fill="#3c5647" text-anchor="middle">▦</text>
<text x="444" y="924" font-size="12" fill="#9fb3a3" text-anchor="middle">Tapchan</text>
<rect x="592" y="748" width="272" height="196" rx="8" fill="#1d2f26" stroke="#2c4034"/>
<text x="728" y="844" font-size="30" fill="#3c5647" text-anchor="middle">▦</text>
<text x="728" y="924" font-size="12" fill="#9fb3a3" text-anchor="middle">O‘tovlar</text>
<rect x="876" y="748" width="272" height="196" rx="8" fill="#1d2f26" stroke="#2c4034"/>
<text x="1012" y="844" font-size="30" fill="#3c5647" text-anchor="middle">▦</text>
<text x="1012" y="924" font-size="12" fill="#9fb3a3" text-anchor="middle">Yozgi oshxona</text>
<rect x="1160" y="748" width="272" height="196" rx="8" fill="#1d2f26" stroke="#2c4034"/>
<text x="1296" y="844" font-size="30" fill="#3c5647" text-anchor="middle">▦</text>
<text x="1296" y="924" font-size="12" fill="#9fb3a3" text-anchor="middle">Qishki oshxona</text>
</svg>