<svg xmlns="http://www.w3.org/2000/svg" viewBox="0 0 1440 1000" font-family="Segoe UI, Arial, sans-serif">
<rect width="1440" height="1000" fill="#10201a"/>
<rect x="24" y="24" width="860" height="700" fill="#0c1712" rx="10"/>
<rect x="24" y="24" width="860" height="80" fill="#123a44"/>
<clipPath id="lot"><polygon points="375.7,632.3 285.3,650.0 307.5,98.0 622.7,193.9 616.1,585.4"/></clipPath>
<polygon points="375.7,632.3 285.3,650.0 307.5,98.0 622.7,193.9 616.1,585.4" fill="#243d2a"/>
<g clip-path="url(#lot)">
<circle cx="607.9" cy="126.8" r="4.3" fill="#1f3a26"/><circle cx="607.3" cy="126.2" r="3.0" fill="#2f5636"/><circle cx="606.6" cy="125.5" r="1.5" fill="#3f7048" opacity=".7"/>
<circle cx="313.9" cy="188.8" r="7.7" fill="#1f3a26"/><circle cx="312.8" cy="187.7" r="5.4" fill="#2f5636"/><circle cx="311.6" cy="186.5" r="2.7" fill="#3f7048" opacity=".7"/>
<circle cx="490.0" cy="329.2" r="6.2" fill="#1f3a26"/><circle cx="489.1" cy="328.3" r="4.3" fill="#2f5636"/><circle cx="488.2" cy="327.3" r="2.2" fill="#3f7048" opacity=".7"/>
<circle cx="605.7" cy="349.6" r="6.2" fill="#1f3a26"/><circle cx="604.7" cy="348.7" r="4.4" fill="#2f5636"/><circle cx="603.8" cy="347.7" r="2.2" fill="#3f7048" opacity=".7"/>
<circle cx="375.8" cy="630.2" r="4.1" fill="#1f3a26"/><circle cx="375.2" cy="629.5" r="2.9" fill="#2f5636"/><circle cx="374.5" cy="628.9" r="1.4" fill="#3f7048" opacity=".7"/>
<circle cx="586.2" cy="359.8" r="6.8" fill="#1f3a26"/><circle cx="585.2" cy="358.8" r="4.8" fill="#2f5636"/><circle cx="584.2" cy="357.7" r="2.4" fill="#3f7048" opacity=".7"/>
<circle cx="364.9" cy="636.8" r="5.6" fill="#1f3a26"/><circle cx="364.1" cy="636.0" r="3.9" fill="#2f5636"/><circle cx="363.3" cy="635.1" r="2.0" fill="#3f7048" opacity=".7"/>
<circle cx="331.4" cy="368.4" r="9.0" fill="#1f3a26"/><circle cx="330.0" cy="367.0" r="6.3" fill="#2f5636"/><circle cx="328.7" cy="365.7" r="3.1" fill="#3f7048" opacity=".7"/>
<circle cx="616.3" cy="119.0" r="4.8" fill="#1f3a26"/><circle cx="615.6" cy="118.3" r="3.4" fill="#2f5636"/><circle cx="614.9" cy="117.6" r="1.7" fill="#3f7048" opacity=".7"/>
<circle cx="583.2" cy="153.4" r="6.3" fill="#1f3a26"/><circle cx="582.3" cy="152.4" r="4.4" fill="#2f5636"/><circle cx="581.3" cy="151.5" r="2.2" fill="#3f7048" opacity=".7"/>
<circle cx="476.8" cy="142.0" r="7.6" fill="#1f3a26"/><circle cx="475.7" cy="140.8" r="5.3" fill="#2f5636"/><circle cx="474.6" cy="139.7" r="2.7" fill="#3f7048" opacity=".7"/>
<circle cx="375.8" cy="146.9" r="5.5" fill="#1f3a26"/><circle cx="374.9" cy="146.1" r="3.9" fill="#2f5636"/><circle cx="374.1" cy="145.3" r="1.9" fill="#3f7048" opacity=".7"/>
<circle cx="608.3" cy="260.2" r="6.5" fill="#1f3a26"/><circle cx="607.4" cy="259.2" r="4.6" fill="#2f5636"/><circle cx="606.4" cy="258.2" r="2.3" fill="#3f7048" opacity=".7"/>
<circle cx="600.5" cy="306.0" r="4.4" fill="#1f3a26"/><circle cx="599.9" cy="305.3" r="3.1" fill="#2f5636"/><circle cx="599.2" cy="304.6" r="1.5" fill="#3f7048" opacity=".7"/>
<circle cx="349.9" cy="238.9" r="7.3" fill="#1f3a26"/><circle cx="348.8" cy="237.8" r="5.1" fill="#2f5636"/><circle cx="347.7" cy="236.7" r="2.5" fill="#3f7048" opacity=".7"/>
<circle cx="321.1" cy="361.7" r="8.3" fill="#1f3a26"/><circle cx="319.9" cy="360.4" r="5.8" fill="#2f5636"/><circle cx="318.6" cy="359.2" r="2.9" fill="#3f7048" opacity=".7"/>
<circle cx="428.0" cy="254.2" r="5.8" fill="#1f3a26"/><circle cx="427.1" cy="253.4" r="4.1" fill="#2f5636"/><circle cx="426.2" cy="252.5" r="2.0" fill="#3f7048" opacity=".7"/>
<circle cx="343.3" cy="278.6" r="8.8" fill="#1f3a26"/><circle cx="342.0" cy="277.3" r="6.1" fill="#2f5636"/><circle cx="340.6" cy="276.0" r="3.1" fill="#3f7048" opacity=".7"/>
<circle cx="293.8" cy="247.4" r="4.1" fill="#1f3a26"/><circle cx="293.2" cy="246.7" r="2.9" fill="#2f5636"/><circle cx="292.6" cy="246.1" r="1.4" fill="#3f7048" opacity=".7"/>
<circle cx="371.6" cy="201.0" r="4.9" fill="#1f3a26"/><circle cx="370.8" cy="200.3" r="3.4" fill="#2f5636"/><circle cx="370.1" cy="199.6" r="1.7" fill="#3f7048" opacity=".7"/>
<circle cx="518.6" cy="437.2" r="9.0" fill="#1f3a26"/><circle cx="517.3" cy="435.8" r="6.3" fill="#2f5636"/><circle cx="515.9" cy="434.5" r="3.1" fill="#3f7048" opacity=".7"/>
<circle cx="336.4" cy="630.0" r="5.7" fill="#1f3a26"/><circle cx="335.5" cy="629.1" r="4.0" fill="#2f5636"/><circle cx="334.6" cy="628.3" r="2.0" fill="#3f7048" opacity=".7"/>
<circle cx="492.9" cy="240.2" r="5.7" fill="#1f3a26"/><circle cx="492.0" cy="239.3" r="4.0" fill="#2f5636"/><circle cx="491.2" cy="238.5" r="2.0" fill="#3f7048" opacity=".7"/>
<circle cx="295.7" cy="402.3" r="7.8" fill="#1f3a26"/><circle cx="294.5" cy="401.2" r="5.5" fill="#2f5636"/><circle cx="293.3" cy="400.0" r="2.7" fill="#3f7048" opacity=".7"/>
<circle cx="535.0" cy="152.1" r="7.8" fill="#1f3a26"/><circle cx="533.8" cy="150.9" r="5.4" fill="#2f5636"/><circle cx="532.6" cy="149.8" r="2.7" fill="#3f7048" opacity=".7"/>
<circle cx="576.3" cy="260.6" r="6.4" fill="#1f3a26"/><circle cx="575.4" cy="259.7" r="4.5" fill="#2f5636"/><circle cx="574.4" cy="258.7" r="2.2" fill="#3f7048" opacity=".7"/>
<circle cx="319.7" cy="402.8" r="8.4" fill="#1f3a26"/><circle cx="318.4" cy="401.5" r="5.9" fill="#2f5636"/><circle cx="317.2" cy="400.3" r="2.9" fill="#3f7048" opacity=".7"/>
<circle cx="328.3" cy="327.1" r="6.0" fill="#1f3a26"/><circle cx="327.4" cy="326.2" r="4.2" fill="#2f5636"/><circle cx="326.5" cy="325.3" r="2.1" fill="#3f7048" opacity=".7"/>
<circle cx="459.0" cy="570.6" r="8.8" fill="#1f3a26"/><circle cx="457.7" cy="569.3" r="6.2" fill="#2f5636"/><circle cx="456.4" cy="568.0" r="3.1" fill="#3f7048" opacity=".7"/>
<circle cx="291.3" cy="342.0" r="4.7" fill="#1f3a26"/><circle cx="290.6" cy="341.3" r="3.3" fill="#2f5636"/><circle cx="289.9" cy="340.6" r="1.6" fill="#3f7048" opacity=".7"/>
<circle cx="304.4" cy="631.5" r="4.8" fill="#1f3a26"/><circle cx="303.7" cy="630.8" r="3.4" fill="#2f5636"/><circle cx="303.0" cy="630.0" r="1.7" fill="#3f7048" opacity=".7"/>
<circle cx="317.6" cy="299.4" r="6.5" fill="#1f3a26"/><circle cx="316.6" cy="298.5" r="4.6" fill="#2f5636"/><circle cx="315.7" cy="297.5" r="2.3" fill="#3f7048" opacity=".7"/>
<circle cx="617.2" cy="134.4" r="9.0" fill="#1f3a26"/><circle cx="615.8" cy="133.0" r="6.3" fill="#2f5636"/><circle cx="614.5" cy="131.7" r="3.1" fill="#3f7048" opacity=".7"/>
<circle cx="462.8" cy="647.3" r="4.2" fill="#1f3a26"/><circle cx="462.2" cy="646.7" r="2.9" fill="#2f5636"/><circle cx="461.6" cy="646.1" r="1.5" fill="#3f7048" opacity=".7"/>
<circle cx="423.2" cy="588.6" r="7.6" fill="#1f3a26"/><circle cx="422.1" cy="587.5" r="5.3" fill="#2f5636"/><circle cx="420.9" cy="586.3" r="2.7" fill="#3f7048" opacity=".7"/>
<circle cx="366.5" cy="594.9" r="4.9" fill="#1f3a26"/><circle cx="365.8" cy="594.2" r="3.4" fill="#2f5636"/><circle cx="365.1" cy="593.5" r="1.7" fill="#3f7048" opacity=".7"/>
<circle cx="357.0" cy="149.6" r="8.8" fill="#1f3a26"/><circle cx="355.6" cy="148.3" r="6.2" fill="#2f5636"/><circle cx="354.3" cy="146.9" r="3.1" fill="#3f7048" opacity=".7"/>
<circle cx="481.4" cy="621.7" r="6.1" fill="#1f3a26"/><circle cx="480.4" cy="620.8" r="4.3" fill="#2f5636"/><circle cx="479.5" cy="619.9" r="2.1" fill="#3f7048" opacity=".7"/>
<circle cx="462.5" cy="550.0" r="8.0" fill="#1f3a26"/><circle cx="461.3" cy="548.8" r="5.6" fill="#2f5636"/><circle cx="460.1" cy="547.6" r="2.8" fill="#3f7048" opacity=".7"/>
<circle cx="410.9" cy="639.5" r="7.4" fill="#1f3a26"/><circle cx="409.8" cy="638.4" r="5.2" fill="#2f5636"/><circle cx="408.7" cy="637.3" r="2.6" fill="#3f7048" opacity=".7"/>
<circle cx="319.4" cy="481.1" r="8.2" fill="#1f3a26"/><circle cx="318.2" cy="479.9" r="5.7" fill="#2f5636"/><circle cx="316.9" cy="478.7" r="2.9" fill="#3f7048" opacity=".7"/>
<circle cx="512.2" cy="641.3" r="6.3" fill="#1f3a26"/><circle cx="511.3" cy="640.4" r="4.4" fill="#2f5636"/><circle cx="510.4" cy="639.4" r="2.2" fill="#3f7048" opacity=".7"/>
<circle cx="423.9" cy="381.8" r="6.9" fill="#1f3a26"/><circle cx="422.8" cy="380.8" r="4.9" fill="#2f5636"/><circle cx="421.8" cy="379.7" r="2.4" fill="#3f7048" opacity=".7"/>
<circle cx="310.2" cy="493.0" r="5.9" fill="#1f3a26"/><circle cx="309.3" cy="492.2" r="4.1" fill="#2f5636"/><circle cx="308.4" cy="491.3" r="2.1" fill="#3f7048" opacity=".7"/>
<path d="M462.3,407.0 Q524.5,488.0 562.7,569.0" stroke="#b9a06a" stroke-width="4.5" fill="none" opacity=".55" stroke-linecap="round"/>
<path d="M462.3,407.0 Q401.6,496.8 316.9,586.5" stroke="#b9a06a" stroke-width="4.5" fill="none" opacity=".55" stroke-linecap="round"/>
<path d="M462.3,407.0 Q515.1,303.2 544.0,199.4" stroke="#b9a06a" stroke-width="4.5" fill="none" opacity=".55" stroke-linecap="round"/>
<path d="M462.3,407.0 Q493.1,371.5 499.9,336.0" stroke="#b9a06a" stroke-width="4.5" fill="none" opacity=".55" stroke-linecap="round"/>
<path d="M462.3,407.0 Q431.8,337.9 377.3,268.7" stroke="#b9a06a" stroke-width="4.5" fill="none" opacity=".55" stroke-linecap="round"/>
<path d="M462.3,407.0 Q474.3,407.0 462.3,407.0" stroke="#b9a06a" stroke-width="4.5" fill="none" opacity=".55" stroke-linecap="round"/>
<path d="M462.3,407.0 Q429.7,416.6 373.1,426.2" stroke="#b9a06a" stroke-width="4.5" fill="none" opacity=".55" stroke-linecap="round"/>
<path d="M462.3,407.0 Q459.1,452.4 431.9,497.9" stroke="#b9a06a" stroke-width="4.5" fill="none" opacity=".55" stroke-linecap="round"/>
<path d="M462.3,407.0 Q414.5,473.3 342.7,539.7" stroke="#b9a06a" stroke-width="4.5" fill="none" opacity=".55" stroke-linecap="round"/>
<path d="M462.3,407.0 Q479.6,427.8 473.0,448.5" stroke="#b9a06a" stroke-width="4.5" fill="none" opacity=".55" stroke-linecap="round"/>
<path d="M462.3,407.0 Q476.5,285.4 466.7,163.7" stroke="#b9a06a" stroke-width="4.5" fill="none" opacity=".55" stroke-linecap="round"/>
<rect x="325.8" y="94.0" width="256.5" height="18" fill="#5b4028" rx="3"/>
<line x1="325.8" y1="94.0" x2="325.8" y2="112.0" stroke="#3c2a19" stroke-width="1.5"/>
<line x1="344.1" y1="94.0" x2="344.1" y2="112.0" stroke="#3c2a19" stroke-width="1.5"/>
<line x1="362.4" y1="94.0" x2="362.4" y2="112.0" stroke="#3c2a19" stroke-width="1.5"/>
<line x1="380.7" y1="94.0" x2="380.7" y2="112.0" stroke="#3c2a19" stroke-width="1.5"/>
<line x1="399.0" y1="94.0" x2="399.0" y2="112.0" stroke="#3c2a19" stroke-width="1.5"/>
<line x1="417.4" y1="94.0" x2="417.4" y2="112.0" stroke="#3c2a19" stroke-width="1.5"/>
<line x1="435.7" y1="94.0" x2="435.7" y2="112.0" stroke="#3c2a19" stroke-width="1.5"/>
<line x1="454.0" y1="94.0" x2="454.0" y2="112.0" stroke="#3c2a19" stroke-width="1.5"/>
<line x1="472.3" y1="94.0" x2="472.3" y2="112.0" stroke="#3c2a19" stroke-width="1.5"/>
<line x1="490.6" y1="94.0" x2="490.6" y2="112.0" stroke="#3c2a19" stroke-width="1.5"/>
<line x1="509.0" y1="94.0" x2="509.0" y2="112.0" stroke="#3c2a19" stroke-width="1.5"/>
<line x1="527.3" y1="94.0" x2="527.3" y2="112.0" stroke="#3c2a19" stroke-width="1.5"/>
<line x1="545.6" y1="94.0" x2="545.6" y2="112.0" stroke="#3c2a19" stroke-width="1.5"/>
<line x1="563.9" y1="94.0" x2="563.9" y2="112.0" stroke="#3c2a19" stroke-width="1.5"/>
<rect x="527.7" y="534.0" width="70" height="70" fill="#3a3f3c" rx="4"/>
<rect x="532.7" y="552.0" width="20" height="34" rx="3" fill="#c9ccc7"/>
<rect x="548.7" y="552.0" width="20" height="34" rx="3" fill="#c9ccc7"/>
<rect x="564.7" y="552.0" width="20" height="34" rx="3" fill="#c9ccc7"/>
<rect x="580.7" y="552.0" width="20" height="34" rx="3" fill="#c9ccc7"/>
<rect x="462.9" y="316.0" width="74" height="40" rx="8" fill="#5b4028"/>
<rect x="468.9" y="322.0" width="62" height="28" rx="6" fill="#2aa7c8"/>
<rect x="468.9" y="322.0" width="62" height="28" rx="6" fill="#57c7e0" opacity=".5"/>
<circle cx="351.3" cy="268.7" r="22" fill="#d7d2c4" stroke="#8a8574" stroke-width="2"/>
<line x1="351.3" y1="268.7" x2="373.3" y2="268.7" stroke="#a49e8c" stroke-width="1"/>
<line x1="351.3" y1="268.7" x2="370.3" y2="279.7" stroke="#a49e8c" stroke-width="1"/>
<line x1="351.3" y1="268.7" x2="362.3" y2="287.8" stroke="#a49e8c" stroke-width="1"/>
<line x1="351.3" y1="268.7" x2="351.3" y2="290.7" stroke="#a49e8c" stroke-width="1"/>
<line x1="351.3" y1="268.7" x2="340.3" y2="287.8" stroke="#a49e8c" stroke-width="1"/>
<line x1="351.3" y1="268.7" x2="332.2" y2="279.7" stroke="#a49e8c" stroke-width="1"/>
<line x1="351.3" y1="268.7" x2="329.3" y2="268.7" stroke="#a49e8c" stroke-width="1"/>
<line x1="351.3" y1="268.7" x2="332.2" y2="257.7" stroke="#a49e8c" stroke-width="1"/>
<line x1="351.3" y1="268.7" x2="340.3" y2="249.7" stroke="#a49e8c" stroke-width="1"/>
<line x1="351.3" y1="268.7" x2="351.3" y2="246.7" stroke="#a49e8c" stroke-width="1"/>
<line x1="351.3" y1="268.7" x2="362.3" y2="249.7" stroke="#a49e8c" stroke-width="1"/>
<line x1="351.3" y1="268.7" x2="370.3" y2="257.7" stroke="#a49e8c" stroke-width="1"/>
<circle cx="403.3" cy="268.7" r="22" fill="#d7d2c4" stroke="#8a8574" stroke-width="2"/>
<line x1="403.3" y1="268.7" x2="425.3" y2="268.7" stroke="#a49e8c" stroke-width="1"/>
<line x1="403.3" y1="268.7" x2="422.3" y2="279.7" stroke="#a49e8c" stroke-width="1"/>
<line x1="403.3" y1="268.7" x2="414.3" y2="287.8" stroke="#a49e8c" stroke-width="1"/>
<line x1="403.3" y1="268.7" x2="403.3" y2="290.7" stroke="#a49e8c" stroke-width="1"/>
<line x1="403.3" y1="268.7" x2="392.3" y2="287.8" stroke="#a49e8c" stroke-width="1"/>
<line x1="403.3" y1="268.7" x2="384.2" y2="279.7" stroke="#a49e8c" stroke-width="1"/>
<line x1="403.3" y1="268.7" x2="381.3" y2="268.7" stroke="#a49e8c" stroke-width="1"/>
<line x1="403.3" y1="268.7" x2="384.2" y2="257.7" stroke="#a49e8c" stroke-width="1"/>
<line x1="403.3" y1="268.7" x2="392.3" y2="249.7" stroke="#a49e8c" stroke-width="1"/>
<line x1="403.3" y1="268.7" x2="403.3" y2="246.7" stroke="#a49e8c" stroke-width="1"/>
<line x1="403.3" y1="268.7" x2="414.3" y2="249.7" stroke="#a49e8c" stroke-width="1"/>
<line x1="403.3" y1="268.7" x2="422.3" y2="257.7" stroke="#a49e8c" stroke-width="1"/>
<circle cx="462.3" cy="407.0" r="30" fill="#2a2118"/>
<circle cx="462.3" cy="407.0" r="12" fill="#e8721c"/>
<circle cx="462.3" cy="407.0" r="6" fill="#ffd24a"/>
<rect x="350.1" y="409.2" width="46" height="34" rx="3" fill="#6a4a2c" stroke="#2c1e12" stroke-width="1.5"/>
<line x1="350.1" y1="426.2" x2="396.1" y2="426.2" stroke="#3c2a19" stroke-width="1.5"/>
<rect x="405.9" y="477.9" width="52" height="40" rx="3" fill="#5a3f26" stroke="#2c1e12" stroke-width="1.5"/>
<line x1="405.9" y1="497.9" x2="457.9" y2="497.9" stroke="#3c2a19" stroke-width="1.5"/>
<rect x="524.0" y="182.4" width="40" height="34" rx="3" fill="#6a4a2c" stroke="#2c1e12"/>
<rect x="316.7" y="522.7" width="52" height="34" rx="2" fill="#b5652a"/>
<rect x="316.7" y="522.7" width="52" height="34" fill="none" stroke="#f0e9d8" stroke-width="1.4"/>
<line x1="342.7" y1="522.7" x2="342.7" y2="556.7" stroke="#f0e9d8" stroke-width="1.4"/>
<circle cx="342.7" cy="539.7" r="7" fill="none" stroke="#f0e9d8" stroke-width="1.4"/>
<rect x="304.9" y="576.5" width="24" height="20" rx="2" fill="#7d6b8e"/>
</g>
<circle cx="562.7" cy="569.0" r="11" fill="#14241c" stroke="#d9b25f" stroke-width="1.5"/>
<text x="562.7" y="573.0" font-size="12" fill="#d9b25f" text-anchor="middle" font-weight="700">1</text>
<circle cx="316.9" cy="586.5" r="11" fill="#14241c" stroke="#d9b25f" stroke-width="1.5"/>
<text x="316.9" y="590.5" font-size="12" fill="#d9b25f" text-anchor="middle" font-weight="700">2</text>
<circle cx="544.0" cy="199.4" r="11" fill="#14241c" stroke="#d9b25f" stroke-width="1.5"/>
<text x="544.0" y="203.4" font-size="12" fill="#d9b25f" text-anchor="middle" font-weight="700">3</text>
<circle cx="499.9" cy="336.0" r="11" fill="#14241c" stroke="#d9b25f" stroke-width="1.5"/>
<text x="499.9" y="340.0" font-size="12" fill="#d9b25f" text-anchor="middle" font-weight="700">4</text>
<circle cx="377.3" cy="268.7" r="11" fill="#14241c" stroke="#d9b25f" stroke-width="1.5"/>
<text x="377.3" y="272.7" font-size="12" fill="#d9b25f" text-anchor="middle" font-weight="700">5</text>
<circle cx="462.3" cy="407.0" r="11" fill="#14241c" stroke="#d9b25f" stroke-width="1.5"/>
<text x="462.3" y="411.0" font-size="12" fill="#d9b25f" text-anchor="middle" font-weight="700">6</text>
<circle cx="373.1" cy="426.2" r="11" fill="#14241c" stroke="#d9b25f" stroke-width="1.5"/>
<text x="373.1" y="430.2" font-size="12" fill="#d9b25f" text-anchor="middle" font-weight="700">7</text>
<circle cx="431.9" cy="497.9" r="11" fill="#14241c" stroke="#d9b25f" stroke-width="1.5"/>
<text x="431.9" y="501.9" font-size="12" fill="#d9b25f" text-anchor="middle" font-weight="700">8</text>
<circle cx="342.7" cy="539.7" r="11" fill="#14241c" stroke="#d9b25f" stroke-width="1.5"/>
<text x="342.7" y="543.7" font-size="12" fill="#d9b25f" text-anchor="middle" font-weight="700">9</text>
<circle cx="473.0" cy="448.5" r="11" fill="#14241c" stroke="#d9b25f" stroke-width="1.5"/>
<text x="473.0" y="452.5" font-size="12" fill="#d9b25f" text-anchor="middle" font-weight="700">10</text>
<circle cx="466.7" cy="163.7" r="11" fill="#14241c" stroke="#d9b25f" stroke-width="1.5"/>
<text x="466.7" y="167.7" font-size="12" fill="#d9b25f" text-anchor="middle" font-weight="700">11</text>
<polygon points="375.7,632.3 285.3,650.0 307.5,98.0 622.7,193.9 616.1,585.4" fill="none" stroke="#e63030" stroke-width="3.2" stroke-linejoin="round"/>
<circle cx="375.7" cy="632.3" r="4" fill="#fff"/>
<text x="381.7" y="626.3" font-size="13" fill="#fff" font-weight="700">P1</text>
<circle cx="285.3" cy="650.0" r="4" fill="#fff"/>
<text x="291.3" y="644.0" font-size="13" fill="#fff" font-weight="700">P2</text>
<circle cx="307.5" cy="98.0" r="4" fill="#fff"/>
<text x="313.5" y="92.0" font-size="13" fill="#fff" font-weight="700">P3</text>
<circle cx="622.7" cy="193.9" r="4" fill="#fff"/>
<text x="628.7" y="187.9" font-size="13" fill="#fff" font-weight="700">P4</text>
<circle cx="616.1" cy="585.4" r="4" fill="#fff"/>
<text x="622.1" y="579.4" font-size="13" fill="#fff" font-weight="700">P5</text>
<text x="330.5" y="636.2" font-size="15" fill="#7CFC7A" text-anchor="middle" font-weight="700">12.93 m</text>
<text x="296.4" y="369.0" font-size="15" fill="#7CFC7A" text-anchor="middle" font-weight="700">77.54 m</text>
<text x="465.1" y="140.9" font-size="15" fill="#7CFC7A" text-anchor="middle" font-weight="700">46.25 m</text>
<text x="619.4" y="384.6" font-size="15" fill="#7CFC7A" text-anchor="middle" font-weight="700">54.96 m</text>
<text x="495.9" y="603.9" font-size="15" fill="#7CFC7A" text-anchor="middle" font-weight="700">34.39 m</text>
<text x="441.5" y="76.0" font-size="20" fill="#8fd0dc" letter-spacing="3" text-anchor="middle">DARYO</text>
<text x="441.5" y="684.0" font-size="18" fill="#9fb3a3" letter-spacing="3" text-anchor="middle">YO‘L</text>
<g transform="translate(64,68)"><polygon points="0,-22 6,0 0,6 -6,0" fill="#e7f0e6"/><polygon points="0,22 6,0 0,-6 -6,0" fill="#5c7565"/><text x="0" y="-26" font-size="12" fill="#e7f0e6" text-anchor="middle">N</text></g>
<g transform="translate(94,44)">
<text x="0" y="0" font-size="26" fill="#e7f0e6" font-weight="800">2-LOT (0.30 ga)</text>
<text x="0" y="22" font-size="13" fill="#9fb3a3">Maydoni: 0.30 ga (30 sotix)</text>
<text x="0" y="40" font-size="13" fill="#9fb3a3">Vazifasi: Dam olish va oilaviy hordiq</text>
</g>
<rect x="908" y="24" width="300" height="700" rx="10" fill="#16241d"/>
<text x="928" y="60" font-size="16" fill="#d9b25f" font-weight="800" letter-spacing="1">EKSPLIKATSIYA</text>
<circle cx="936" cy="82" r="10" fill="#14241c" stroke="#d9b25f"/>
<text x="936" y="86" font-size="11" fill="#d9b25f" text-anchor="middle" font-weight="700">1</text>
<text x="956" y="86" font-size="13" fill="#e7f0e6">Avtoturargoh (kirish qismi)</text>
<circle cx="936" cy="109" r="10" fill="#14241c" stroke="#d9b25f"/>
<text x="936" y="113" font-size="11" fill="#d9b25f" text-anchor="middle" font-weight="700">2</text>
<text x="956" y="113" font-size="13" fill="#e7f0e6">Hojatxona</text>
<circle cx="936" cy="136" r="10" fill="#14241c" stroke="#d9b25f"/>
<text x="936" y="140" font-size="11" fill="#d9b25f" text-anchor="middle" font-weight="700">3</text>
<text x="956" y="140" font-size="13" fill="#e7f0e6">Tapchan</text>
<circle cx="936" cy="163" r="10" fill="#14241c" stroke="#d9b25f"/>
<text x="936" y="167" font-size="11" fill="#d9b25f" text-anchor="middle" font-weight="700">4</text>
<text x="956" y="167" font-size="13" fill="#e7f0e6">Basseyn</text>
<circle cx="936" cy="190" r="10" fill="#14241c" stroke="#d9b25f"/>
<text x="936" y="194" font-size="11" fill="#d9b25f" text-anchor="middle" font-weight="700">5</text>
<text x="956" y="194" font-size="13" fill="#e7f0e6">O‘tovlar (2–3 ta)</text>
<circle cx="936" cy="217" r="10" fill="#14241c" stroke="#d9b25f"/>
<text x="936" y="221" font-size="11" fill="#d9b25f" text-anchor="middle" font-weight="700">6</text>
<text x="956" y="221" font-size="13" fill="#e7f0e6">O‘choq / dam olish zonasi</text>
<circle cx="936" cy="244" r="10" fill="#14241c" stroke="#d9b25f"/>
<text x="936" y="248" font-size="11" fill="#d9b25f" text-anchor="middle" font-weight="700">7</text>
<text x="956" y="248" font-size="13" fill="#e7f0e6">Yozgi oshxona</text>
<circle cx="936" cy="271" r="10" fill="#14241c" stroke="#d9b25f"/>
<text x="936" y="275" font-size="11" fill="#d9b25f" text-anchor="middle" font-weight="700">8</text>
<text x="956" y="275" font-size="13" fill="#e7f0e6">Qishki oshxona</text>
<circle cx="936" cy="298" r="10" fill="#14241c" stroke="#d9b25f"/>
<text x="936" y="302" font-size="11" fill="#d9b25f" text-anchor="middle" font-weight="700">9</text>
<text x="956" y="302" font-size="13" fill="#e7f0e6">Basketbol maydonchasi</text>
<circle cx="936" cy="325" r="10" fill="#14241c" stroke="#d9b25f"/>
<text x="936" y="329" font-size="11" fill="#d9b25f" text-anchor="middle" font-weight="700">10</text>
<text x="956" y="329" font-size="13" fill="#e7f0e6">Katta yashil hudud</text>
<circle cx="936" cy="352" r="10" fill="#14241c" stroke="#d9b25f"/>
<text x="936" y="356" font-size="11" fill="#d9b25f" text-anchor="middle" font-weight="700">11</text>
<text x="956" y="356" font-size="13" fill="#e7f0e6">Daryo bo‘yida terasa</text>
<line x1="928" y1="377" x2="1188" y2="377" stroke="#2c4034"/>
<text x="928" y="397" font-size="15" fill="#d9b25f" font-weight="800">O‘LCHAMLAR (m)</text>
<text x="928" y="421" font-size="13" fill="#9fb3a3">🌊 Daryo bo‘yi</text><text x="1188" y="421" font-size="13" fill="#e7f0e6" text-anchor="end" font-weight="700">46.25</text>
<text x="928" y="443" font-size="13" fill="#9fb3a3">🚗 Yo‘l bo‘yi</text><text x="1188" y="443" font-size="13" fill="#e7f0e6" text-anchor="end" font-weight="700">34.39</text>
<text x="928" y="465" font-size="13" fill="#9fb3a3">Maydoni (ga)</text><text x="1188" y="465" font-size="13" fill="#e7f0e6" text-anchor="end" font-weight="700">0.30</text>
<text x="928" y="487" font-size="13" fill="#9fb3a3">Perimetr</text><text x="1188" y="487" font-size="13" fill="#e7f0e6" text-anchor="end" font-weight="700">226.1</text>
<text x="1224" y="46" font-size="14" fill="#d9b25f" font-weight="800">3D KO‘RINISHLAR</text>
<rect x="1224" y="58" width="190" height="130" rx="8" fill="#1d2f26" stroke="#2c4034"/>
<text x="1319" y="126" font-size="26" fill="#3c5647" text-anchor="middle">▦</text>
<text x="1319" y="206" font-size="12" fill="#9fb3a3" text-anchor="middle">Daryo bo‘yi terasa</text>
<rect x="1224" y="230" width="190" height="130" rx="8" fill="#1d2f26" stroke="#2c4034"/>
<text x="1319" y="298" font-size="26" fill="#3c5647" text-anchor="middle">▦</text>
<text x="1319" y="378" font-size="12" fill="#9fb3a3" text-anchor="middle">Basseyn zonasi</text>
<rect x="1224" y="402" width="190" height="130" rx="8" fill="#1d2f26" stroke="#2c4034"/>
<text x="1319" y="470" font-size="26" fill="#3c5647" text-anchor="middle">▦</text>
<text x="1319" y="550" font-size="12" fill="#9fb3a3" text-anchor="middle">O‘choq / dam zonasi</text>
<text x="24" y="742" font-size="14" fill="#d9b25f" font-weight="800">3D KO‘RINISHLAR (AI render bilan to‘ldiriladi)</text>
<rect x="24" y="748" width="272" height="196" rx="8" fill="#1d2f26" stroke="#2c4034"/>
<text x="160" y="844" font-size="30" fill="#3c5647" text-anchor="middle">▦</text>
<text x="160" y="924" font-size="12" fill="#9fb3a3" text-anchor="middle">Kirish, avtoturargoh</text>
<rect x="308" y="748" width="272" height="196" rx="8" fill="#1d2f26" stroke="#2c4034"/>
<text x="444" y="844" font-size="30" fill="#3c5647" text-anchor="middle">▦</text>
<text x="444" y="924" font-size="12" fill="#9fb3a3" text-anchor="middle">Tapchan</text>
<rect x="592" y="748" width="272" height="196" rx="8" fill="#1d2f26" stroke="#2c4034"/>
<text x="728" y="844" font-size="30" fill="#3c5647" text-anchor="middle">▦</text>
<text x="728" y="924" font-size="12" fill="#9fb3a3" text-anchor="middle">O‘tovlar</text>
<rect x="876" y="748" width="272" height="196" rx="8" fill="#1d2f26" stroke="#2c4034"/>
<text x="1012" y="844" font-size="30" fill="#3c5647" text-anchor="middle">▦</text>
<text x="1012" y="924" font-size="12" fill="#9fb3a3" text-anchor="middle">Yozgi oshxona</text>
<rect x="1160" y="748" width="272" height="196" rx="8" fill="#1d2f26" stroke="#2c4034"/>
<text x="1296" y="844" font-size="30" fill="#3c5647" text-anchor="middle">▦</text>
<text x="1296" y="924" font-size="12" fill="#9fb3a3" text-anchor="middle">Qishki oshxona</text>
</svg>