<svg xmlns="http://www.w3.org/2000/svg" viewBox="0 0 1440 1000" font-family="Segoe UI, Arial, sans-serif">
<rect width="1440" height="1000" fill="#10201a"/>
<rect x="24" y="24" width="860" height="700" fill="#0c1712" rx="10"/>
<rect x="24" y="24" width="860" height="80" fill="#123a44"/>
<clipPath id="lot"><polygon points="299.2,650.0 222.7,164.5 212.2,98.0 666.8,172.7 665.4,179.6 657.0,221.0 633.5,336.7 695.8,591.9"/></clipPath>
<polygon points="299.2,650.0 222.7,164.5 212.2,98.0 666.8,172.7 665.4,179.6 657.0,221.0 633.5,336.7 695.8,591.9" fill="#243d2a"/>
<g clip-path="url(#lot)">
<circle cx="694.2" cy="625.4" r="8.3" fill="#1f3a26"/><circle cx="692.9" cy="624.2" r="5.8" fill="#2f5636"/><circle cx="691.7" cy="622.9" r="2.9" fill="#3f7048" opacity=".7"/>
<circle cx="532.3" cy="576.6" r="7.8" fill="#1f3a26"/><circle cx="531.1" cy="575.4" r="5.5" fill="#2f5636"/><circle cx="529.9" cy="574.2" r="2.7" fill="#3f7048" opacity=".7"/>
<circle cx="687.3" cy="114.9" r="7.1" fill="#1f3a26"/><circle cx="686.3" cy="113.8" r="4.9" fill="#2f5636"/><circle cx="685.2" cy="112.8" r="2.5" fill="#3f7048" opacity=".7"/>
<circle cx="233.6" cy="647.8" r="4.7" fill="#1f3a26"/><circle cx="232.9" cy="647.1" r="3.3" fill="#2f5636"/><circle cx="232.2" cy="646.4" r="1.6" fill="#3f7048" opacity=".7"/>
<circle cx="667.3" cy="482.8" r="5.8" fill="#1f3a26"/><circle cx="666.4" cy="481.9" r="4.1" fill="#2f5636"/><circle cx="665.5" cy="481.1" r="2.0" fill="#3f7048" opacity=".7"/>
<circle cx="646.6" cy="476.5" r="6.7" fill="#1f3a26"/><circle cx="645.6" cy="475.5" r="4.7" fill="#2f5636"/><circle cx="644.6" cy="474.4" r="2.4" fill="#3f7048" opacity=".7"/>
<circle cx="423.1" cy="614.1" r="6.9" fill="#1f3a26"/><circle cx="422.0" cy="613.1" r="4.8" fill="#2f5636"/><circle cx="421.0" cy="612.0" r="2.4" fill="#3f7048" opacity=".7"/>
<circle cx="620.4" cy="563.7" r="5.1" fill="#1f3a26"/><circle cx="619.6" cy="562.9" r="3.6" fill="#2f5636"/><circle cx="618.9" cy="562.1" r="1.8" fill="#3f7048" opacity=".7"/>
<circle cx="411.9" cy="629.6" r="6.5" fill="#1f3a26"/><circle cx="410.9" cy="628.6" r="4.5" fill="#2f5636"/><circle cx="409.9" cy="627.7" r="2.3" fill="#3f7048" opacity=".7"/>
<circle cx="625.8" cy="567.4" r="6.8" fill="#1f3a26"/><circle cx="624.7" cy="566.3" r="4.8" fill="#2f5636"/><circle cx="623.7" cy="565.3" r="2.4" fill="#3f7048" opacity=".7"/>
<circle cx="393.1" cy="318.1" r="7.9" fill="#1f3a26"/><circle cx="392.0" cy="316.9" r="5.5" fill="#2f5636"/><circle cx="390.8" cy="315.7" r="2.8" fill="#3f7048" opacity=".7"/>
<circle cx="258.9" cy="558.2" r="8.0" fill="#1f3a26"/><circle cx="257.7" cy="557.0" r="5.6" fill="#2f5636"/><circle cx="256.5" cy="555.8" r="2.8" fill="#3f7048" opacity=".7"/>
<circle cx="670.5" cy="410.9" r="6.1" fill="#1f3a26"/><circle cx="669.6" cy="409.9" r="4.2" fill="#2f5636"/><circle cx="668.7" cy="409.0" r="2.1" fill="#3f7048" opacity=".7"/>
<circle cx="298.5" cy="584.0" r="6.3" fill="#1f3a26"/><circle cx="297.5" cy="583.1" r="4.4" fill="#2f5636"/><circle cx="296.6" cy="582.2" r="2.2" fill="#3f7048" opacity=".7"/>
<circle cx="422.4" cy="647.2" r="7.6" fill="#1f3a26"/><circle cx="421.3" cy="646.1" r="5.3" fill="#2f5636"/><circle cx="420.2" cy="645.0" r="2.6" fill="#3f7048" opacity=".7"/>
<circle cx="372.6" cy="473.7" r="6.2" fill="#1f3a26"/><circle cx="371.6" cy="472.7" r="4.4" fill="#2f5636"/><circle cx="370.7" cy="471.8" r="2.2" fill="#3f7048" opacity=".7"/>
<circle cx="652.6" cy="362.9" r="7.0" fill="#1f3a26"/><circle cx="651.5" cy="361.8" r="4.9" fill="#2f5636"/><circle cx="650.5" cy="360.8" r="2.5" fill="#3f7048" opacity=".7"/>
<circle cx="242.5" cy="379.9" r="6.3" fill="#1f3a26"/><circle cx="241.6" cy="378.9" r="4.4" fill="#2f5636"/><circle cx="240.6" cy="378.0" r="2.2" fill="#3f7048" opacity=".7"/>
<circle cx="472.7" cy="379.6" r="6.2" fill="#1f3a26"/><circle cx="471.8" cy="378.6" r="4.3" fill="#2f5636"/><circle cx="470.8" cy="377.7" r="2.2" fill="#3f7048" opacity=".7"/>
<circle cx="680.7" cy="420.8" r="4.2" fill="#1f3a26"/><circle cx="680.1" cy="420.2" r="2.9" fill="#2f5636"/><circle cx="679.4" cy="419.6" r="1.5" fill="#3f7048" opacity=".7"/>
<circle cx="213.5" cy="354.4" r="4.3" fill="#1f3a26"/><circle cx="212.9" cy="353.8" r="3.0" fill="#2f5636"/><circle cx="212.3" cy="353.2" r="1.5" fill="#3f7048" opacity=".7"/>
<circle cx="257.0" cy="590.0" r="6.3" fill="#1f3a26"/><circle cx="256.1" cy="589.0" r="4.4" fill="#2f5636"/><circle cx="255.1" cy="588.1" r="2.2" fill="#3f7048" opacity=".7"/>
<circle cx="692.3" cy="382.2" r="6.3" fill="#1f3a26"/><circle cx="691.3" cy="381.3" r="4.4" fill="#2f5636"/><circle cx="690.4" cy="380.4" r="2.2" fill="#3f7048" opacity=".7"/>
<circle cx="563.4" cy="154.3" r="7.5" fill="#1f3a26"/><circle cx="562.3" cy="153.2" r="5.2" fill="#2f5636"/><circle cx="561.2" cy="152.1" r="2.6" fill="#3f7048" opacity=".7"/>
<circle cx="286.5" cy="519.0" r="7.1" fill="#1f3a26"/><circle cx="285.4" cy="517.9" r="5.0" fill="#2f5636"/><circle cx="284.3" cy="516.9" r="2.5" fill="#3f7048" opacity=".7"/>
<circle cx="677.6" cy="409.7" r="8.3" fill="#1f3a26"/><circle cx="676.4" cy="408.4" r="5.8" fill="#2f5636"/><circle cx="675.1" cy="407.2" r="2.9" fill="#3f7048" opacity=".7"/>
<circle cx="559.6" cy="159.4" r="4.2" fill="#1f3a26"/><circle cx="558.9" cy="158.8" r="3.0" fill="#2f5636"/><circle cx="558.3" cy="158.2" r="1.5" fill="#3f7048" opacity=".7"/>
<circle cx="653.8" cy="226.7" r="8.8" fill="#1f3a26"/><circle cx="652.5" cy="225.4" r="6.2" fill="#2f5636"/><circle cx="651.2" cy="224.1" r="3.1" fill="#3f7048" opacity=".7"/>
<circle cx="686.8" cy="492.4" r="7.4" fill="#1f3a26"/><circle cx="685.7" cy="491.3" r="5.1" fill="#2f5636"/><circle cx="684.6" cy="490.2" r="2.6" fill="#3f7048" opacity=".7"/>
<circle cx="280.5" cy="321.5" r="8.6" fill="#1f3a26"/><circle cx="279.2" cy="320.2" r="6.0" fill="#2f5636"/><circle cx="277.9" cy="318.9" r="3.0" fill="#3f7048" opacity=".7"/>
<circle cx="305.0" cy="456.9" r="5.0" fill="#1f3a26"/><circle cx="304.3" cy="456.1" r="3.5" fill="#2f5636"/><circle cx="303.5" cy="455.4" r="1.7" fill="#3f7048" opacity=".7"/>
<circle cx="312.6" cy="597.0" r="9.0" fill="#1f3a26"/><circle cx="311.3" cy="595.7" r="6.3" fill="#2f5636"/><circle cx="309.9" cy="594.3" r="3.1" fill="#3f7048" opacity=".7"/>
<circle cx="641.4" cy="394.0" r="7.7" fill="#1f3a26"/><circle cx="640.3" cy="392.8" r="5.4" fill="#2f5636"/><circle cx="639.1" cy="391.7" r="2.7" fill="#3f7048" opacity=".7"/>
<circle cx="633.6" cy="290.0" r="4.4" fill="#1f3a26"/><circle cx="632.9" cy="289.3" r="3.0" fill="#2f5636"/><circle cx="632.3" cy="288.6" r="1.5" fill="#3f7048" opacity=".7"/>
<circle cx="417.0" cy="600.9" r="4.3" fill="#1f3a26"/><circle cx="416.4" cy="600.2" r="3.0" fill="#2f5636"/><circle cx="415.7" cy="599.6" r="1.5" fill="#3f7048" opacity=".7"/>
<circle cx="678.8" cy="102.2" r="7.6" fill="#1f3a26"/><circle cx="677.6" cy="101.1" r="5.3" fill="#2f5636"/><circle cx="676.5" cy="99.9" r="2.7" fill="#3f7048" opacity=".7"/>
<circle cx="243.8" cy="182.3" r="8.2" fill="#1f3a26"/><circle cx="242.6" cy="181.1" r="5.7" fill="#2f5636"/><circle cx="241.4" cy="179.8" r="2.9" fill="#3f7048" opacity=".7"/>
<circle cx="220.1" cy="469.1" r="5.6" fill="#1f3a26"/><circle cx="219.2" cy="468.3" r="3.9" fill="#2f5636"/><circle cx="218.4" cy="467.4" r="2.0" fill="#3f7048" opacity=".7"/>
<circle cx="302.3" cy="557.0" r="8.0" fill="#1f3a26"/><circle cx="301.1" cy="555.8" r="5.6" fill="#2f5636"/><circle cx="299.9" cy="554.6" r="2.8" fill="#3f7048" opacity=".7"/>
<circle cx="664.7" cy="528.6" r="7.7" fill="#1f3a26"/><circle cx="663.6" cy="527.5" r="5.4" fill="#2f5636"/><circle cx="662.4" cy="526.3" r="2.7" fill="#3f7048" opacity=".7"/>
<circle cx="672.2" cy="544.2" r="6.9" fill="#1f3a26"/><circle cx="671.2" cy="543.1" r="4.8" fill="#2f5636"/><circle cx="670.1" cy="542.1" r="2.4" fill="#3f7048" opacity=".7"/>
<path d="M467.5,417.0 Q544.8,503.1 598.1,589.1" stroke="#b9a06a" stroke-width="4.5" fill="none" opacity=".55" stroke-linecap="round"/>
<path d="M467.5,417.0 Q387.6,483.0 283.6,549.0" stroke="#b9a06a" stroke-width="4.5" fill="none" opacity=".55" stroke-linecap="round"/>
<path d="M467.5,417.0 Q532.9,313.0 574.3,209.0" stroke="#b9a06a" stroke-width="4.5" fill="none" opacity=".55" stroke-linecap="round"/>
<path d="M467.5,417.0 Q502.2,374.5 512.9,331.9" stroke="#b9a06a" stroke-width="4.5" fill="none" opacity=".55" stroke-linecap="round"/>
<path d="M467.5,417.0 Q419.8,345.7 348.1,274.4" stroke="#b9a06a" stroke-width="4.5" fill="none" opacity=".55" stroke-linecap="round"/>
<path d="M467.5,417.0 Q479.5,417.0 467.5,417.0" stroke="#b9a06a" stroke-width="4.5" fill="none" opacity=".55" stroke-linecap="round"/>
<path d="M467.5,417.0 Q411.2,419.3 330.8,421.6" stroke="#b9a06a" stroke-width="4.5" fill="none" opacity=".55" stroke-linecap="round"/>
<path d="M467.5,417.0 Q449.9,468.7 408.2,520.5" stroke="#b9a06a" stroke-width="4.5" fill="none" opacity=".55" stroke-linecap="round"/>
<path d="M467.5,417.0 Q404.0,479.7 316.4,542.4" stroke="#b9a06a" stroke-width="4.5" fill="none" opacity=".55" stroke-linecap="round"/>
<path d="M467.5,417.0 Q498.6,446.2 505.7,475.5" stroke="#b9a06a" stroke-width="4.5" fill="none" opacity=".55" stroke-linecap="round"/>
<path d="M467.5,417.0 Q483.6,280.1 475.6,143.2" stroke="#b9a06a" stroke-width="4.5" fill="none" opacity=".55" stroke-linecap="round"/>
<rect x="270.2" y="94.0" width="367.6" height="18" fill="#5b4028" rx="3"/>
<line x1="270.2" y1="94.0" x2="270.2" y2="112.0" stroke="#3c2a19" stroke-width="1.5"/>
<line x1="296.5" y1="94.0" x2="296.5" y2="112.0" stroke="#3c2a19" stroke-width="1.5"/>
<line x1="322.7" y1="94.0" x2="322.7" y2="112.0" stroke="#3c2a19" stroke-width="1.5"/>
<line x1="349.0" y1="94.0" x2="349.0" y2="112.0" stroke="#3c2a19" stroke-width="1.5"/>
<line x1="375.2" y1="94.0" x2="375.2" y2="112.0" stroke="#3c2a19" stroke-width="1.5"/>
<line x1="401.5" y1="94.0" x2="401.5" y2="112.0" stroke="#3c2a19" stroke-width="1.5"/>
<line x1="427.7" y1="94.0" x2="427.7" y2="112.0" stroke="#3c2a19" stroke-width="1.5"/>
<line x1="454.0" y1="94.0" x2="454.0" y2="112.0" stroke="#3c2a19" stroke-width="1.5"/>
<line x1="480.3" y1="94.0" x2="480.3" y2="112.0" stroke="#3c2a19" stroke-width="1.5"/>
<line x1="506.5" y1="94.0" x2="506.5" y2="112.0" stroke="#3c2a19" stroke-width="1.5"/>
<line x1="532.8" y1="94.0" x2="532.8" y2="112.0" stroke="#3c2a19" stroke-width="1.5"/>
<line x1="559.0" y1="94.0" x2="559.0" y2="112.0" stroke="#3c2a19" stroke-width="1.5"/>
<line x1="585.3" y1="94.0" x2="585.3" y2="112.0" stroke="#3c2a19" stroke-width="1.5"/>
<line x1="611.5" y1="94.0" x2="611.5" y2="112.0" stroke="#3c2a19" stroke-width="1.5"/>
<rect x="563.1" y="554.1" width="70" height="70" fill="#3a3f3c" rx="4"/>
<rect x="568.1" y="572.1" width="20" height="34" rx="3" fill="#c9ccc7"/>
<rect x="584.1" y="572.1" width="20" height="34" rx="3" fill="#c9ccc7"/>
<rect x="600.1" y="572.1" width="20" height="34" rx="3" fill="#c9ccc7"/>
<rect x="616.1" y="572.1" width="20" height="34" rx="3" fill="#c9ccc7"/>
<rect x="475.9" y="311.9" width="74" height="40" rx="8" fill="#5b4028"/>
<rect x="481.9" y="317.9" width="62" height="28" rx="6" fill="#2aa7c8"/>
<rect x="481.9" y="317.9" width="62" height="28" rx="6" fill="#57c7e0" opacity=".5"/>
<circle cx="322.1" cy="274.4" r="22" fill="#d7d2c4" stroke="#8a8574" stroke-width="2"/>
<line x1="322.1" y1="274.4" x2="344.1" y2="274.4" stroke="#a49e8c" stroke-width="1"/>
<line x1="322.1" y1="274.4" x2="341.2" y2="285.4" stroke="#a49e8c" stroke-width="1"/>
<line x1="322.1" y1="274.4" x2="333.1" y2="293.5" stroke="#a49e8c" stroke-width="1"/>
<line x1="322.1" y1="274.4" x2="322.1" y2="296.4" stroke="#a49e8c" stroke-width="1"/>
<line x1="322.1" y1="274.4" x2="311.1" y2="293.5" stroke="#a49e8c" stroke-width="1"/>
<line x1="322.1" y1="274.4" x2="303.0" y2="285.4" stroke="#a49e8c" stroke-width="1"/>
<line x1="322.1" y1="274.4" x2="300.1" y2="274.4" stroke="#a49e8c" stroke-width="1"/>
<line x1="322.1" y1="274.4" x2="303.0" y2="263.4" stroke="#a49e8c" stroke-width="1"/>
<line x1="322.1" y1="274.4" x2="311.1" y2="255.4" stroke="#a49e8c" stroke-width="1"/>
<line x1="322.1" y1="274.4" x2="322.1" y2="252.4" stroke="#a49e8c" stroke-width="1"/>
<line x1="322.1" y1="274.4" x2="333.1" y2="255.4" stroke="#a49e8c" stroke-width="1"/>
<line x1="322.1" y1="274.4" x2="341.2" y2="263.4" stroke="#a49e8c" stroke-width="1"/>
<circle cx="374.1" cy="274.4" r="22" fill="#d7d2c4" stroke="#8a8574" stroke-width="2"/>
<line x1="374.1" y1="274.4" x2="396.1" y2="274.4" stroke="#a49e8c" stroke-width="1"/>
<line x1="374.1" y1="274.4" x2="393.2" y2="285.4" stroke="#a49e8c" stroke-width="1"/>
<line x1="374.1" y1="274.4" x2="385.1" y2="293.5" stroke="#a49e8c" stroke-width="1"/>
<line x1="374.1" y1="274.4" x2="374.1" y2="296.4" stroke="#a49e8c" stroke-width="1"/>
<line x1="374.1" y1="274.4" x2="363.1" y2="293.5" stroke="#a49e8c" stroke-width="1"/>
<line x1="374.1" y1="274.4" x2="355.0" y2="285.4" stroke="#a49e8c" stroke-width="1"/>
<line x1="374.1" y1="274.4" x2="352.1" y2="274.4" stroke="#a49e8c" stroke-width="1"/>
<line x1="374.1" y1="274.4" x2="355.0" y2="263.4" stroke="#a49e8c" stroke-width="1"/>
<line x1="374.1" y1="274.4" x2="363.1" y2="255.4" stroke="#a49e8c" stroke-width="1"/>
<line x1="374.1" y1="274.4" x2="374.1" y2="252.4" stroke="#a49e8c" stroke-width="1"/>
<line x1="374.1" y1="274.4" x2="385.1" y2="255.4" stroke="#a49e8c" stroke-width="1"/>
<line x1="374.1" y1="274.4" x2="393.2" y2="263.4" stroke="#a49e8c" stroke-width="1"/>
<circle cx="467.5" cy="417.0" r="30" fill="#2a2118"/>
<circle cx="467.5" cy="417.0" r="12" fill="#e8721c"/>
<circle cx="467.5" cy="417.0" r="6" fill="#ffd24a"/>
<rect x="307.8" y="404.6" width="46" height="34" rx="3" fill="#6a4a2c" stroke="#2c1e12" stroke-width="1.5"/>
<line x1="307.8" y1="421.6" x2="353.8" y2="421.6" stroke="#3c2a19" stroke-width="1.5"/>
<rect x="382.2" y="500.5" width="52" height="40" rx="3" fill="#5a3f26" stroke="#2c1e12" stroke-width="1.5"/>
<line x1="382.2" y1="520.5" x2="434.2" y2="520.5" stroke="#3c2a19" stroke-width="1.5"/>
<rect x="554.3" y="192.0" width="40" height="34" rx="3" fill="#6a4a2c" stroke="#2c1e12"/>
<rect x="290.4" y="525.4" width="52" height="34" rx="2" fill="#b5652a"/>
<rect x="290.4" y="525.4" width="52" height="34" fill="none" stroke="#f0e9d8" stroke-width="1.4"/>
<line x1="316.4" y1="525.4" x2="316.4" y2="559.4" stroke="#f0e9d8" stroke-width="1.4"/>
<circle cx="316.4" cy="542.4" r="7" fill="none" stroke="#f0e9d8" stroke-width="1.4"/>
<rect x="271.6" y="539.0" width="24" height="20" rx="2" fill="#7d6b8e"/>
</g>
<circle cx="598.1" cy="589.1" r="11" fill="#14241c" stroke="#d9b25f" stroke-width="1.5"/>
<text x="598.1" y="593.1" font-size="12" fill="#d9b25f" text-anchor="middle" font-weight="700">1</text>
<circle cx="283.6" cy="549.0" r="11" fill="#14241c" stroke="#d9b25f" stroke-width="1.5"/>
<text x="283.6" y="553.0" font-size="12" fill="#d9b25f" text-anchor="middle" font-weight="700">2</text>
<circle cx="574.3" cy="209.0" r="11" fill="#14241c" stroke="#d9b25f" stroke-width="1.5"/>
<text x="574.3" y="213.0" font-size="12" fill="#d9b25f" text-anchor="middle" font-weight="700">3</text>
<circle cx="512.9" cy="331.9" r="11" fill="#14241c" stroke="#d9b25f" stroke-width="1.5"/>
<text x="512.9" y="335.9" font-size="12" fill="#d9b25f" text-anchor="middle" font-weight="700">4</text>
<circle cx="348.1" cy="274.4" r="11" fill="#14241c" stroke="#d9b25f" stroke-width="1.5"/>
<text x="348.1" y="278.4" font-size="12" fill="#d9b25f" text-anchor="middle" font-weight="700">5</text>
<circle cx="467.5" cy="417.0" r="11" fill="#14241c" stroke="#d9b25f" stroke-width="1.5"/>
<text x="467.5" y="421.0" font-size="12" fill="#d9b25f" text-anchor="middle" font-weight="700">6</text>
<circle cx="330.8" cy="421.6" r="11" fill="#14241c" stroke="#d9b25f" stroke-width="1.5"/>
<text x="330.8" y="425.6" font-size="12" fill="#d9b25f" text-anchor="middle" font-weight="700">7</text>
<circle cx="408.2" cy="520.5" r="11" fill="#14241c" stroke="#d9b25f" stroke-width="1.5"/>
<text x="408.2" y="524.5" font-size="12" fill="#d9b25f" text-anchor="middle" font-weight="700">8</text>
<circle cx="316.4" cy="542.4" r="11" fill="#14241c" stroke="#d9b25f" stroke-width="1.5"/>
<text x="316.4" y="546.4" font-size="12" fill="#d9b25f" text-anchor="middle" font-weight="700">9</text>
<circle cx="505.7" cy="475.5" r="11" fill="#14241c" stroke="#d9b25f" stroke-width="1.5"/>
<text x="505.7" y="479.5" font-size="12" fill="#d9b25f" text-anchor="middle" font-weight="700">10</text>
<circle cx="475.6" cy="143.2" r="11" fill="#14241c" stroke="#d9b25f" stroke-width="1.5"/>
<text x="475.6" y="147.2" font-size="12" fill="#d9b25f" text-anchor="middle" font-weight="700">11</text>
<polygon points="299.2,650.0 222.7,164.5 212.2,98.0 666.8,172.7 665.4,179.6 657.0,221.0 633.5,336.7 695.8,591.9" fill="none" stroke="#e63030" stroke-width="3.2" stroke-linejoin="round"/>
<circle cx="299.2" cy="650.0" r="4" fill="#fff"/>
<text x="305.2" y="644.0" font-size="13" fill="#fff" font-weight="700">P1</text>
<circle cx="222.7" cy="164.5" r="4" fill="#fff"/>
<text x="228.7" y="158.5" font-size="13" fill="#fff" font-weight="700">P2</text>
<circle cx="212.2" cy="98.0" r="4" fill="#fff"/>
<text x="218.2" y="92.0" font-size="13" fill="#fff" font-weight="700">P3</text>
<circle cx="666.8" cy="172.7" r="4" fill="#fff"/>
<text x="672.8" y="166.7" font-size="13" fill="#fff" font-weight="700">P4</text>
<circle cx="665.4" cy="179.6" r="4" fill="#fff"/>
<text x="671.4" y="173.6" font-size="13" fill="#fff" font-weight="700">P5</text>
<circle cx="657.0" cy="221.0" r="4" fill="#fff"/>
<text x="663.0" y="215.0" font-size="13" fill="#fff" font-weight="700">P6</text>
<circle cx="633.5" cy="336.7" r="4" fill="#fff"/>
<text x="639.5" y="330.7" font-size="13" fill="#fff" font-weight="700">P7</text>
<circle cx="695.8" cy="591.9" r="4" fill="#fff"/>
<text x="701.8" y="585.9" font-size="13" fill="#fff" font-weight="700">P8</text>
<text x="261.0" y="402.3" font-size="15" fill="#7CFC7A" text-anchor="middle" font-weight="700">65.51 m</text>
<text x="217.4" y="126.3" font-size="15" fill="#7CFC7A" text-anchor="middle" font-weight="700">8.98 m</text>
<text x="439.5" y="130.4" font-size="15" fill="#7CFC7A" text-anchor="middle" font-weight="700">61.41 m</text>
<text x="666.1" y="171.2" font-size="15" fill="#7CFC7A" text-anchor="middle" font-weight="700">0.94 m</text>
<text x="661.2" y="195.3" font-size="15" fill="#7CFC7A" text-anchor="middle" font-weight="700">5.63 m</text>
<text x="645.3" y="273.9" font-size="15" fill="#7CFC7A" text-anchor="middle" font-weight="700">15.74 m</text>
<text x="664.7" y="459.3" font-size="15" fill="#7CFC7A" text-anchor="middle" font-weight="700">35.01 m</text>
<text x="497.5" y="615.9" font-size="15" fill="#7CFC7A" text-anchor="middle" font-weight="700">53.43 m</text>
<text x="506.6" y="76.0" font-size="20" fill="#8fd0dc" letter-spacing="3" text-anchor="middle">DARYO</text>
<text x="506.6" y="684.0" font-size="18" fill="#9fb3a3" letter-spacing="3" text-anchor="middle">YO‘L</text>
<g transform="translate(64,68)"><polygon points="0,-22 6,0 0,6 -6,0" fill="#e7f0e6"/><polygon points="0,22 6,0 0,-6 -6,0" fill="#5c7565"/><text x="0" y="-26" font-size="12" fill="#e7f0e6" text-anchor="middle">N</text></g>
<g transform="translate(94,44)">
<text x="0" y="0" font-size="26" fill="#e7f0e6" font-weight="800">10-LOT (0.35 ga)</text>
<text x="0" y="22" font-size="13" fill="#9fb3a3">Maydoni: 0.35 ga (35 sotix)</text>
<text x="0" y="40" font-size="13" fill="#9fb3a3">Vazifasi: Dam olish va oilaviy hordiq</text>
</g>
<rect x="908" y="24" width="300" height="700" rx="10" fill="#16241d"/>
<text x="928" y="60" font-size="16" fill="#d9b25f" font-weight="800" letter-spacing="1">EKSPLIKATSIYA</text>
<circle cx="936" cy="82" r="10" fill="#14241c" stroke="#d9b25f"/>
<text x="936" y="86" font-size="11" fill="#d9b25f" text-anchor="middle" font-weight="700">1</text>
<text x="956" y="86" font-size="13" fill="#e7f0e6">Avtoturargoh (kirish qismi)</text>
<circle cx="936" cy="109" r="10" fill="#14241c" stroke="#d9b25f"/>
<text x="936" y="113" font-size="11" fill="#d9b25f" text-anchor="middle" font-weight="700">2</text>
<text x="956" y="113" font-size="13" fill="#e7f0e6">Hojatxona</text>
<circle cx="936" cy="136" r="10" fill="#14241c" stroke="#d9b25f"/>
<text x="936" y="140" font-size="11" fill="#d9b25f" text-anchor="middle" font-weight="700">3</text>
<text x="956" y="140" font-size="13" fill="#e7f0e6">Tapchan</text>
<circle cx="936" cy="163" r="10" fill="#14241c" stroke="#d9b25f"/>
<text x="936" y="167" font-size="11" fill="#d9b25f" text-anchor="middle" font-weight="700">4</text>
<text x="956" y="167" font-size="13" fill="#e7f0e6">Basseyn</text>
<circle cx="936" cy="190" r="10" fill="#14241c" stroke="#d9b25f"/>
<text x="936" y="194" font-size="11" fill="#d9b25f" text-anchor="middle" font-weight="700">5</text>
<text x="956" y="194" font-size="13" fill="#e7f0e6">O‘tovlar (2–3 ta)</text>
<circle cx="936" cy="217" r="10" fill="#14241c" stroke="#d9b25f"/>
<text x="936" y="221" font-size="11" fill="#d9b25f" text-anchor="middle" font-weight="700">6</text>
<text x="956" y="221" font-size="13" fill="#e7f0e6">O‘choq / dam olish zonasi</text>
<circle cx="936" cy="244" r="10" fill="#14241c" stroke="#d9b25f"/>
<text x="936" y="248" font-size="11" fill="#d9b25f" text-anchor="middle" font-weight="700">7</text>
<text x="956" y="248" font-size="13" fill="#e7f0e6">Yozgi oshxona</text>
<circle cx="936" cy="271" r="10" fill="#14241c" stroke="#d9b25f"/>
<text x="936" y="275" font-size="11" fill="#d9b25f" text-anchor="middle" font-weight="700">8</text>
<text x="956" y="275" font-size="13" fill="#e7f0e6">Qishki oshxona</text>
<circle cx="936" cy="298" r="10" fill="#14241c" stroke="#d9b25f"/>
<text x="936" y="302" font-size="11" fill="#d9b25f" text-anchor="middle" font-weight="700">9</text>
<text x="956" y="302" font-size="13" fill="#e7f0e6">Basketbol maydonchasi</text>
<circle cx="936" cy="325" r="10" fill="#14241c" stroke="#d9b25f"/>
<text x="936" y="329" font-size="11" fill="#d9b25f" text-anchor="middle" font-weight="700">10</text>
<text x="956" y="329" font-size="13" fill="#e7f0e6">Katta yashil hudud</text>
<circle cx="936" cy="352" r="10" fill="#14241c" stroke="#d9b25f"/>
<text x="936" y="356" font-size="11" fill="#d9b25f" text-anchor="middle" font-weight="700">11</text>
<text x="956" y="356" font-size="13" fill="#e7f0e6">Daryo bo‘yida terasa</text>
<line x1="928" y1="377" x2="1188" y2="377" stroke="#2c4034"/>
<text x="928" y="397" font-size="15" fill="#d9b25f" font-weight="800">O‘LCHAMLAR (m)</text>
<text x="928" y="421" font-size="13" fill="#9fb3a3">🌊 Daryo bo‘yi</text><text x="1188" y="421" font-size="13" fill="#e7f0e6" text-anchor="end" font-weight="700">61.41</text>
<text x="928" y="443" font-size="13" fill="#9fb3a3">🚗 Yo‘l bo‘yi</text><text x="1188" y="443" font-size="13" fill="#e7f0e6" text-anchor="end" font-weight="700">53.43</text>
<text x="928" y="465" font-size="13" fill="#9fb3a3">Maydoni (ga)</text><text x="1188" y="465" font-size="13" fill="#e7f0e6" text-anchor="end" font-weight="700">0.35</text>
<text x="928" y="487" font-size="13" fill="#9fb3a3">Perimetr</text><text x="1188" y="487" font-size="13" fill="#e7f0e6" text-anchor="end" font-weight="700">246.6</text>
<text x="1224" y="46" font-size="14" fill="#d9b25f" font-weight="800">3D KO‘RINISHLAR</text>
<rect x="1224" y="58" width="190" height="130" rx="8" fill="#1d2f26" stroke="#2c4034"/>
<text x="1319" y="126" font-size="26" fill="#3c5647" text-anchor="middle">▦</text>
<text x="1319" y="206" font-size="12" fill="#9fb3a3" text-anchor="middle">Daryo bo‘yi terasa</text>
<rect x="1224" y="230" width="190" height="130" rx="8" fill="#1d2f26" stroke="#2c4034"/>
<text x="1319" y="298" font-size="26" fill="#3c5647" text-anchor="middle">▦</text>
<text x="1319" y="378" font-size="12" fill="#9fb3a3" text-anchor="middle">Basseyn zonasi</text>
<rect x="1224" y="402" width="190" height="130" rx="8" fill="#1d2f26" stroke="#2c4034"/>
<text x="1319" y="470" font-size="26" fill="#3c5647" text-anchor="middle">▦</text>
<text x="1319" y="550" font-size="12" fill="#9fb3a3" text-anchor="middle">O‘choq / dam zonasi</text>
<text x="24" y="742" font-size="14" fill="#d9b25f" font-weight="800">3D KO‘RINISHLAR (AI render bilan to‘ldiriladi)</text>
<rect x="24" y="748" width="272" height="196" rx="8" fill="#1d2f26" stroke="#2c4034"/>
<text x="160" y="844" font-size="30" fill="#3c5647" text-anchor="middle">▦</text>
<text x="160" y="924" font-size="12" fill="#9fb3a3" text-anchor="middle">Kirish, avtoturargoh</text>
<rect x="308" y="748" width="272" height="196" rx="8" fill="#1d2f26" stroke="#2c4034"/>
<text x="444" y="844" font-size="30" fill="#3c5647" text-anchor="middle">▦</text>
<text x="444" y="924" font-size="12" fill="#9fb3a3" text-anchor="middle">Tapchan</text>
<rect x="592" y="748" width="272" height="196" rx="8" fill="#1d2f26" stroke="#2c4034"/>
<text x="728" y="844" font-size="30" fill="#3c5647" text-anchor="middle">▦</text>
<text x="728" y="924" font-size="12" fill="#9fb3a3" text-anchor="middle">O‘tovlar</text>
<rect x="876" y="748" width="272" height="196" rx="8" fill="#1d2f26" stroke="#2c4034"/>
<text x="1012" y="844" font-size="30" fill="#3c5647" text-anchor="middle">▦</text>
<text x="1012" y="924" font-size="12" fill="#9fb3a3" text-anchor="middle">Yozgi oshxona</text>
<rect x="1160" y="748" width="272" height="196" rx="8" fill="#1d2f26" stroke="#2c4034"/>
<text x="1296" y="844" font-size="30" fill="#3c5647" text-anchor="middle">▦</text>
<text x="1296" y="924" font-size="12" fill="#9fb3a3" text-anchor="middle">Qishki oshxona</text>
</svg>