<svg xmlns="http://www.w3.org/2000/svg" width="1700" height="730" viewBox="0 0 1700 730" font-family="Arial">
<rect width="1700" height="730" fill="#f7faf4"/>
<polygon points="90.0,463.8 103.3,415.1 125.1,423.1 116.1,462.8" fill="#eef6e4" stroke="#ccc" stroke-width="1"/>
<line x1="103.3" y1="415.1" x2="125.1" y2="423.1" stroke="#1f7ae0" stroke-width="5" stroke-linecap="round"/>
<line x1="116.1" y1="462.8" x2="90.0" y2="463.8" stroke="#f08a24" stroke-width="5" stroke-linecap="round"/>
<line x1="108.6" y1="441.2" x2="110.8" y2="435.3" stroke="#1a7d1a" stroke-width="1.5"/>
<text x="108.6" y="445.2" font-size="12" fill="#123" text-anchor="middle">1</text>
<polygon points="122.9,462.7 116.1,462.8 125.1,423.1 146.7,434.3 140.9,462.5" fill="#eef6e4" stroke="#ccc" stroke-width="1"/>
<line x1="125.1" y1="423.1" x2="146.7" y2="434.3" stroke="#1f7ae0" stroke-width="5" stroke-linecap="round"/>
<line x1="140.9" y1="462.5" x2="122.9" y2="462.7" stroke="#f08a24" stroke-width="5" stroke-linecap="round"/>
<line x1="130.3" y1="449.1" x2="131.5" y2="442.9" stroke="#1a7d1a" stroke-width="1.5"/>
<text x="130.3" y="453.1" font-size="12" fill="#123" text-anchor="middle">2</text>
<polygon points="155.1,462.9 140.9,462.5 146.7,434.3 171.9,444.5 187.3,448.0 185.7,457.2" fill="#eef6e4" stroke="#ccc" stroke-width="1"/>
<line x1="171.9" y1="444.5" x2="187.3" y2="448.0" stroke="#1f7ae0" stroke-width="5" stroke-linecap="round"/>
<line x1="155.1" y1="462.9" x2="140.9" y2="462.5" stroke="#f08a24" stroke-width="5" stroke-linecap="round"/>
<line x1="164.6" y1="451.6" x2="166.2" y2="445.5" stroke="#1a7d1a" stroke-width="1.5"/>
<text x="164.6" y="455.6" font-size="12" fill="#123" text-anchor="middle">3</text>
<polygon points="360.8,518.7 364.2,510.9 365.5,511.0 401.5,514.0 405.7,514.2 408.6,514.4 417.3,514.9 409.0,537.4" fill="#eef6e4" stroke="#ccc" stroke-width="1"/>
<line x1="365.5" y1="511.0" x2="401.5" y2="514.0" stroke="#1f7ae0" stroke-width="5" stroke-linecap="round"/>
<line x1="409.0" y1="537.4" x2="360.8" y2="518.7" stroke="#f08a24" stroke-width="5" stroke-linecap="round"/>
<line x1="391.6" y1="516.9" x2="393.3" y2="510.9" stroke="#1a7d1a" stroke-width="1.5"/>
<text x="391.6" y="520.9" font-size="12" fill="#123" text-anchor="middle">4</text>
<polygon points="417.7,514.9 440.3,516.3 439.1,527.4 436.9,547.3 409.0,537.4 417.3,514.9" fill="#eef6e4" stroke="#ccc" stroke-width="1"/>
<line x1="417.7" y1="514.9" x2="440.3" y2="516.3" stroke="#1f7ae0" stroke-width="5" stroke-linecap="round"/>
<line x1="436.9" y1="547.3" x2="409.0" y2="537.4" stroke="#f08a24" stroke-width="5" stroke-linecap="round"/>
<line x1="426.7" y1="526.4" x2="428.4" y2="520.3" stroke="#1a7d1a" stroke-width="1.5"/>
<text x="426.7" y="530.4" font-size="12" fill="#123" text-anchor="middle">5</text>
<polygon points="436.9,547.3 439.1,527.4 440.3,516.3 474.8,519.4 470.1,559.8" fill="#eef6e4" stroke="#ccc" stroke-width="1"/>
<line x1="440.3" y1="516.3" x2="474.8" y2="519.4" stroke="#1f7ae0" stroke-width="5" stroke-linecap="round"/>
<line x1="470.1" y1="559.8" x2="436.9" y2="547.3" stroke="#f08a24" stroke-width="5" stroke-linecap="round"/>
<line x1="452.2" y1="534.0" x2="454.0" y2="528.0" stroke="#1a7d1a" stroke-width="1.5"/>
<text x="452.2" y="538.0" font-size="12" fill="#123" text-anchor="middle">6</text>
<polygon points="470.1,559.7 474.8,519.4 490.0,522.5 481.1,563.3" fill="#eef6e4" stroke="#ccc" stroke-width="1"/>
<line x1="474.8" y1="519.4" x2="490.0" y2="522.5" stroke="#1f7ae0" stroke-width="5" stroke-linecap="round"/>
<line x1="481.1" y1="563.3" x2="470.1" y2="559.7" stroke="#f08a24" stroke-width="5" stroke-linecap="round"/>
<line x1="479.0" y1="541.2" x2="480.7" y2="535.2" stroke="#1a7d1a" stroke-width="1.5"/>
<text x="479.0" y="545.2" font-size="12" fill="#123" text-anchor="middle">7</text>
<polygon points="481.1,563.3 490.0,522.5 506.4,527.0 495.3,569.1" fill="#eef6e4" stroke="#ccc" stroke-width="1"/>
<line x1="490.0" y1="522.5" x2="506.4" y2="527.0" stroke="#1f7ae0" stroke-width="5" stroke-linecap="round"/>
<line x1="495.3" y1="569.1" x2="481.1" y2="563.3" stroke="#f08a24" stroke-width="5" stroke-linecap="round"/>
<line x1="493.2" y1="545.5" x2="495.4" y2="539.6" stroke="#1a7d1a" stroke-width="1.5"/>
<text x="493.2" y="549.5" font-size="12" fill="#123" text-anchor="middle">8</text>
<polygon points="495.3,569.1 506.4,527.0 521.7,537.5 510.1,574.8" fill="#eef6e4" stroke="#ccc" stroke-width="1"/>
<line x1="506.4" y1="527.0" x2="521.7" y2="537.5" stroke="#1f7ae0" stroke-width="5" stroke-linecap="round"/>
<line x1="510.1" y1="574.8" x2="495.3" y2="569.1" stroke="#f08a24" stroke-width="5" stroke-linecap="round"/>
<line x1="508.4" y1="552.1" x2="510.4" y2="546.1" stroke="#1a7d1a" stroke-width="1.5"/>
<text x="508.4" y="556.1" font-size="12" fill="#123" text-anchor="middle">9</text>
<polygon points="510.1,574.8 520.3,542.0 521.7,537.5 547.9,556.2 547.6,556.6 545.8,558.9 540.7,565.5 536.7,583.4" fill="#eef6e4" stroke="#ccc" stroke-width="1"/>
<line x1="521.7" y1="537.5" x2="547.9" y2="556.2" stroke="#1f7ae0" stroke-width="5" stroke-linecap="round"/>
<line x1="536.7" y1="583.4" x2="510.1" y2="574.8" stroke="#f08a24" stroke-width="5" stroke-linecap="round"/>
<line x1="533.8" y1="559.4" x2="536.6" y2="553.7" stroke="#1a7d1a" stroke-width="1.5"/>
<text x="533.8" y="563.4" font-size="12" fill="#123" text-anchor="middle">10</text>
<polygon points="541.9,585.8 545.9,567.9 553.0,558.6 571.7,567.2 562.5,595.7" fill="#eef6e4" stroke="#ccc" stroke-width="1"/>
<line x1="553.0" y1="558.6" x2="571.7" y2="567.2" stroke="#1f7ae0" stroke-width="5" stroke-linecap="round"/>
<line x1="562.5" y1="595.7" x2="541.9" y2="585.8" stroke="#f08a24" stroke-width="5" stroke-linecap="round"/>
<line x1="555.0" y1="575.1" x2="557.3" y2="569.2" stroke="#1a7d1a" stroke-width="1.5"/>
<text x="555.0" y="579.1" font-size="12" fill="#123" text-anchor="middle">11</text>
<polygon points="562.5,595.7 571.7,567.2 572.4,567.6 577.5,570.0 577.6,570.1 579.8,571.2 580.8,571.7 584.5,573.5 594.0,577.4 585.2,603.3" fill="#eef6e4" stroke="#ccc" stroke-width="1"/>
<line x1="584.5" y1="573.5" x2="594.0" y2="577.4" stroke="#1f7ae0" stroke-width="5" stroke-linecap="round"/>
<line x1="585.2" y1="603.3" x2="562.5" y2="595.7" stroke="#f08a24" stroke-width="5" stroke-linecap="round"/>
<line x1="578.6" y1="576.8" x2="580.2" y2="570.7" stroke="#1a7d1a" stroke-width="1.5"/>
<text x="578.6" y="580.8" font-size="12" fill="#123" text-anchor="middle">12</text>
<polygon points="598.5,579.2 598.9,579.4 613.4,584.3 604.1,609.8 585.2,603.3 594.0,577.4 595.6,578.0 596.6,578.4" fill="#eef6e4" stroke="#ccc" stroke-width="1"/>
<line x1="596.6" y1="578.4" x2="598.5" y2="579.2" stroke="#1f7ae0" stroke-width="5" stroke-linecap="round"/>
<line x1="604.1" y1="609.8" x2="585.2" y2="603.3" stroke="#f08a24" stroke-width="5" stroke-linecap="round"/>
<line x1="598.3" y1="586.2" x2="601.4" y2="580.8" stroke="#1a7d1a" stroke-width="1.5"/>
<text x="598.3" y="590.2" font-size="12" fill="#123" text-anchor="middle">13</text>
<polygon points="604.1,609.8 613.4,584.3 632.3,588.1 634.4,620.9" fill="#eef6e4" stroke="#ccc" stroke-width="1"/>
<line x1="613.4" y1="584.3" x2="632.3" y2="588.1" stroke="#1f7ae0" stroke-width="5" stroke-linecap="round"/>
<line x1="634.4" y1="620.9" x2="604.1" y2="609.8" stroke="#f08a24" stroke-width="5" stroke-linecap="round"/>
<line x1="621.1" y1="600.8" x2="623.7" y2="595.0" stroke="#1a7d1a" stroke-width="1.5"/>
<text x="621.1" y="604.8" font-size="12" fill="#123" text-anchor="middle">14</text>
<polygon points="632.3,588.1 653.8,589.2 654.3,628.7 634.4,620.9" fill="#eef6e4" stroke="#ccc" stroke-width="1"/>
<line x1="632.3" y1="588.1" x2="653.8" y2="589.2" stroke="#1f7ae0" stroke-width="5" stroke-linecap="round"/>
<line x1="654.3" y1="628.7" x2="634.4" y2="620.9" stroke="#f08a24" stroke-width="5" stroke-linecap="round"/>
<line x1="643.7" y1="606.7" x2="645.1" y2="600.6" stroke="#1a7d1a" stroke-width="1.5"/>
<text x="643.7" y="610.7" font-size="12" fill="#123" text-anchor="middle">15</text>
<polygon points="653.8,589.2 669.6,589.5 671.4,634.1 654.3,628.7" fill="#eef6e4" stroke="#ccc" stroke-width="1"/>
<line x1="653.8" y1="589.2" x2="669.6" y2="589.5" stroke="#1f7ae0" stroke-width="5" stroke-linecap="round"/>
<line x1="671.4" y1="634.1" x2="654.3" y2="628.7" stroke="#f08a24" stroke-width="5" stroke-linecap="round"/>
<line x1="662.3" y1="610.4" x2="663.2" y2="604.2" stroke="#1a7d1a" stroke-width="1.5"/>
<text x="662.3" y="614.4" font-size="12" fill="#123" text-anchor="middle">16</text>
<polygon points="669.6,589.5 687.2,588.2 688.2,640.0 671.4,634.1 670.6,613.2 670.2,605.4" fill="#eef6e4" stroke="#ccc" stroke-width="1"/>
<line x1="669.6" y1="589.5" x2="687.2" y2="588.2" stroke="#1f7ae0" stroke-width="5" stroke-linecap="round"/>
<line x1="688.2" y1="640.0" x2="671.4" y2="634.1" stroke="#f08a24" stroke-width="5" stroke-linecap="round"/>
<line x1="676.2" y1="611.7" x2="674.1" y2="605.8" stroke="#1a7d1a" stroke-width="1.5"/>
<text x="676.2" y="615.7" font-size="12" fill="#123" text-anchor="middle">17</text>
<polygon points="687.2,588.2 694.2,587.5 705.7,586.1 705.7,586.5 705.7,586.8 705.8,587.2 705.8,588.4 707.6,635.5 688.2,640.0 687.2,589.8" fill="#eef6e4" stroke="#ccc" stroke-width="1"/>
<line x1="687.2" y1="588.2" x2="694.2" y2="587.5" stroke="#1f7ae0" stroke-width="5" stroke-linecap="round"/>
<line x1="707.6" y1="635.5" x2="688.2" y2="640.0" stroke="#f08a24" stroke-width="5" stroke-linecap="round"/>
<line x1="699.3" y1="597.6" x2="698.8" y2="591.3" stroke="#1a7d1a" stroke-width="1.5"/>
<text x="699.3" y="601.6" font-size="12" fill="#123" text-anchor="middle">18</text>
<polygon points="705.7,586.1 723.8,584.4 724.2,629.3 707.6,635.5" fill="#eef6e4" stroke="#ccc" stroke-width="1"/>
<line x1="705.7" y1="586.1" x2="723.8" y2="584.4" stroke="#1f7ae0" stroke-width="5" stroke-linecap="round"/>
<line x1="724.2" y1="629.3" x2="707.6" y2="635.5" stroke="#f08a24" stroke-width="5" stroke-linecap="round"/>
<line x1="715.3" y1="608.8" x2="716.6" y2="602.6" stroke="#1a7d1a" stroke-width="1.5"/>
<text x="715.3" y="612.8" font-size="12" fill="#123" text-anchor="middle">19</text>
<polygon points="723.8,584.4 742.9,583.4 745.1,620.9 724.2,629.3" fill="#eef6e4" stroke="#ccc" stroke-width="1"/>
<line x1="723.8" y1="584.4" x2="742.9" y2="583.4" stroke="#1f7ae0" stroke-width="5" stroke-linecap="round"/>
<line x1="745.1" y1="620.9" x2="724.2" y2="629.3" stroke="#f08a24" stroke-width="5" stroke-linecap="round"/>
<line x1="734.0" y1="604.5" x2="732.5" y2="598.4" stroke="#1a7d1a" stroke-width="1.5"/>
<text x="734.0" y="608.5" font-size="12" fill="#123" text-anchor="middle">20</text>
<polygon points="742.9,583.4 757.5,579.5 761.2,615.7 745.1,620.9" fill="#eef6e4" stroke="#ccc" stroke-width="1"/>
<line x1="742.9" y1="583.4" x2="757.5" y2="579.5" stroke="#1f7ae0" stroke-width="5" stroke-linecap="round"/>
<line x1="761.2" y1="615.7" x2="745.1" y2="620.9" stroke="#f08a24" stroke-width="5" stroke-linecap="round"/>
<line x1="751.7" y1="599.9" x2="750.4" y2="593.7" stroke="#1a7d1a" stroke-width="1.5"/>
<text x="751.7" y="603.9" font-size="12" fill="#123" text-anchor="middle">21</text>
<polygon points="757.5,579.5 775.9,573.6 780.2,608.2 780.1,608.2 761.2,615.7" fill="#eef6e4" stroke="#ccc" stroke-width="1"/>
<line x1="757.5" y1="579.5" x2="775.9" y2="573.6" stroke="#1f7ae0" stroke-width="5" stroke-linecap="round"/>
<line x1="780.2" y1="608.2" x2="780.1" y2="608.2" stroke="#f08a24" stroke-width="5" stroke-linecap="round"/>
<line x1="771.0" y1="597.0" x2="769.0" y2="591.1" stroke="#1a7d1a" stroke-width="1.5"/>
<text x="771.0" y="601.0" font-size="12" fill="#123" text-anchor="middle">22</text>
<polygon points="794.2,568.6 794.8,568.4 800.8,600.0 799.7,600.5 780.2,608.2 775.9,573.6" fill="#eef6e4" stroke="#ccc" stroke-width="1"/>
<line x1="775.9" y1="573.6" x2="794.2" y2="568.6" stroke="#1f7ae0" stroke-width="5" stroke-linecap="round"/>
<line x1="800.8" y1="600.0" x2="799.7" y2="600.5" stroke="#f08a24" stroke-width="5" stroke-linecap="round"/>
<line x1="790.9" y1="586.6" x2="788.4" y2="580.8" stroke="#1a7d1a" stroke-width="1.5"/>
<text x="790.9" y="590.6" font-size="12" fill="#123" text-anchor="middle">23</text>
<polygon points="794.8,568.4 809.4,565.0 809.6,564.9 820.3,591.9 819.1,592.4 800.8,600.0" fill="#eef6e4" stroke="#ccc" stroke-width="1"/>
<line x1="794.8" y1="568.4" x2="809.4" y2="565.0" stroke="#1f7ae0" stroke-width="5" stroke-linecap="round"/>
<line x1="820.3" y1="591.9" x2="819.1" y2="592.4" stroke="#f08a24" stroke-width="5" stroke-linecap="round"/>
<line x1="809.0" y1="580.5" x2="807.1" y2="574.4" stroke="#1a7d1a" stroke-width="1.5"/>
<text x="809.0" y="584.5" font-size="12" fill="#123" text-anchor="middle">24</text>
<polygon points="809.6,564.9 828.7,562.3 841.1,584.5 820.3,591.9" fill="#eef6e4" stroke="#ccc" stroke-width="1"/>
<line x1="809.6" y1="564.9" x2="828.7" y2="562.3" stroke="#1f7ae0" stroke-width="5" stroke-linecap="round"/>
<line x1="841.1" y1="584.5" x2="820.3" y2="591.9" stroke="#f08a24" stroke-width="5" stroke-linecap="round"/>
<line x1="824.9" y1="575.9" x2="823.7" y2="569.7" stroke="#1a7d1a" stroke-width="1.5"/>
<text x="824.9" y="579.9" font-size="12" fill="#123" text-anchor="middle">25</text>
<polygon points="928.4,548.6 958.9,540.2 965.0,538.7 970.7,563.9 950.8,566.0 929.1,561.3" fill="#eef6e4" stroke="#ccc" stroke-width="1"/>
<line x1="958.9" y1="540.2" x2="965.0" y2="538.7" stroke="#1f7ae0" stroke-width="5" stroke-linecap="round"/>
<line x1="970.7" y1="563.9" x2="950.8" y2="566.0" stroke="#f08a24" stroke-width="5" stroke-linecap="round"/>
<line x1="950.5" y1="553.1" x2="949.4" y2="546.9" stroke="#1a7d1a" stroke-width="1.5"/>
<text x="950.5" y="557.1" font-size="12" fill="#123" text-anchor="middle">26</text>
<polygon points="989.4,529.3 990.0,529.0 1000.1,560.9 999.3,561.0 970.7,563.9 965.0,538.7" fill="#eef6e4" stroke="#ccc" stroke-width="1"/>
<line x1="989.4" y1="529.3" x2="990.0" y2="529.0" stroke="#1f7ae0" stroke-width="5" stroke-linecap="round"/>
<line x1="999.3" y1="561.0" x2="970.7" y2="563.9" stroke="#f08a24" stroke-width="5" stroke-linecap="round"/>
<line x1="985.8" y1="547.1" x2="984.6" y2="541.0" stroke="#1a7d1a" stroke-width="1.5"/>
<text x="985.8" y="551.1" font-size="12" fill="#123" text-anchor="middle">27</text>
<polygon points="990.0,529.0 1010.9,521.2 1023.3,558.8 1000.1,560.9" fill="#eef6e4" stroke="#ccc" stroke-width="1"/>
<line x1="990.0" y1="529.0" x2="1010.9" y2="521.2" stroke="#1f7ae0" stroke-width="5" stroke-linecap="round"/>
<line x1="1023.3" y1="558.8" x2="1000.1" y2="560.9" stroke="#f08a24" stroke-width="5" stroke-linecap="round"/>
<line x1="1006.1" y1="542.5" x2="1004.7" y2="536.4" stroke="#1a7d1a" stroke-width="1.5"/>
<text x="1006.1" y="546.5" font-size="12" fill="#123" text-anchor="middle">28</text>
<polygon points="1010.9,521.2 1031.3,512.6 1046.0,558.5 1023.3,558.8" fill="#eef6e4" stroke="#ccc" stroke-width="1"/>
<line x1="1010.9" y1="521.2" x2="1031.3" y2="512.6" stroke="#1f7ae0" stroke-width="5" stroke-linecap="round"/>
<line x1="1046.0" y1="558.5" x2="1023.3" y2="558.8" stroke="#f08a24" stroke-width="5" stroke-linecap="round"/>
<line x1="1027.9" y1="537.8" x2="1026.4" y2="531.7" stroke="#1a7d1a" stroke-width="1.5"/>
<text x="1027.9" y="541.8" font-size="12" fill="#123" text-anchor="middle">29</text>
<polygon points="1031.3,512.6 1059.3,505.2 1076.5,546.8 1046.0,558.5" fill="#eef6e4" stroke="#ccc" stroke-width="1"/>
<line x1="1031.3" y1="512.6" x2="1059.3" y2="505.2" stroke="#1f7ae0" stroke-width="5" stroke-linecap="round"/>
<line x1="1076.5" y1="546.8" x2="1046.0" y2="558.5" stroke="#f08a24" stroke-width="5" stroke-linecap="round"/>
<line x1="1053.3" y1="530.8" x2="1050.9" y2="524.9" stroke="#1a7d1a" stroke-width="1.5"/>
<text x="1053.3" y="534.8" font-size="12" fill="#123" text-anchor="middle">30</text>
<polygon points="1062.6,504.2 1078.6,498.4 1078.8,498.8 1096.0,538.3 1079.7,545.5" fill="#eef6e4" stroke="#ccc" stroke-width="1"/>
<line x1="1062.6" y1="504.2" x2="1078.6" y2="498.4" stroke="#1f7ae0" stroke-width="5" stroke-linecap="round"/>
<line x1="1096.0" y1="538.3" x2="1079.7" y2="545.5" stroke="#f08a24" stroke-width="5" stroke-linecap="round"/>
<line x1="1079.2" y1="517.0" x2="1076.9" y2="511.1" stroke="#1a7d1a" stroke-width="1.5"/>
<text x="1079.2" y="521.0" font-size="12" fill="#123" text-anchor="middle">31</text>
<polygon points="1078.6,498.4 1095.3,492.7 1110.5,530.1 1096.0,538.3" fill="#eef6e4" stroke="#ccc" stroke-width="1"/>
<line x1="1078.6" y1="498.4" x2="1095.3" y2="492.7" stroke="#1f7ae0" stroke-width="5" stroke-linecap="round"/>
<line x1="1110.5" y1="530.1" x2="1096.0" y2="538.3" stroke="#f08a24" stroke-width="5" stroke-linecap="round"/>
<line x1="1095.1" y1="514.9" x2="1093.4" y2="508.8" stroke="#1a7d1a" stroke-width="1.5"/>
<text x="1095.1" y="518.9" font-size="12" fill="#123" text-anchor="middle">32</text>
<polygon points="1110.5,530.1 1095.3,492.7 1111.9,485.8 1112.1,486.2 1112.3,486.7 1125.3,522.7 1125.4,523.0 1110.9,529.9" fill="#eef6e4" stroke="#ccc" stroke-width="1"/>
<line x1="1095.3" y1="492.7" x2="1111.9" y2="485.8" stroke="#1f7ae0" stroke-width="5" stroke-linecap="round"/>
<line x1="1125.4" y1="523.0" x2="1110.9" y2="529.9" stroke="#f08a24" stroke-width="5" stroke-linecap="round"/>
<line x1="1113.0" y1="507.1" x2="1110.4" y2="501.4" stroke="#1a7d1a" stroke-width="1.5"/>
<text x="1113.0" y="511.1" font-size="12" fill="#123" text-anchor="middle">33</text>
<polygon points="1111.9,485.8 1127.3,479.5 1142.2,515.6 1125.4,523.0" fill="#eef6e4" stroke="#ccc" stroke-width="1"/>
<line x1="1111.9" y1="485.8" x2="1127.3" y2="479.5" stroke="#1f7ae0" stroke-width="5" stroke-linecap="round"/>
<line x1="1142.2" y1="515.6" x2="1125.4" y2="523.0" stroke="#f08a24" stroke-width="5" stroke-linecap="round"/>
<line x1="1126.7" y1="501.0" x2="1124.2" y2="495.2" stroke="#1a7d1a" stroke-width="1.5"/>
<text x="1126.7" y="505.0" font-size="12" fill="#123" text-anchor="middle">34</text>
<polygon points="1127.3,479.5 1148.4,471.9 1162.4,507.2 1142.2,515.6" fill="#eef6e4" stroke="#ccc" stroke-width="1"/>
<line x1="1127.3" y1="479.5" x2="1148.4" y2="471.9" stroke="#1f7ae0" stroke-width="5" stroke-linecap="round"/>
<line x1="1162.4" y1="507.2" x2="1142.2" y2="515.6" stroke="#f08a24" stroke-width="5" stroke-linecap="round"/>
<line x1="1145.1" y1="493.5" x2="1142.7" y2="487.7" stroke="#1a7d1a" stroke-width="1.5"/>
<text x="1145.1" y="497.5" font-size="12" fill="#123" text-anchor="middle">35</text>
<polygon points="1148.4,471.9 1164.7,466.3 1177.8,499.6 1162.4,507.2" fill="#eef6e4" stroke="#ccc" stroke-width="1"/>
<line x1="1148.4" y1="471.9" x2="1164.7" y2="466.3" stroke="#1f7ae0" stroke-width="5" stroke-linecap="round"/>
<line x1="1177.8" y1="499.6" x2="1162.4" y2="507.2" stroke="#f08a24" stroke-width="5" stroke-linecap="round"/>
<line x1="1163.3" y1="486.3" x2="1160.9" y2="480.4" stroke="#1a7d1a" stroke-width="1.5"/>
<text x="1163.3" y="490.3" font-size="12" fill="#123" text-anchor="middle">36</text>
<polygon points="1164.7,466.3 1180.4,460.1 1190.8,493.3 1177.8,499.6" fill="#eef6e4" stroke="#ccc" stroke-width="1"/>
<line x1="1164.7" y1="466.3" x2="1180.4" y2="460.1" stroke="#1f7ae0" stroke-width="5" stroke-linecap="round"/>
<line x1="1190.8" y1="493.3" x2="1177.8" y2="499.6" stroke="#f08a24" stroke-width="5" stroke-linecap="round"/>
<line x1="1178.4" y1="479.8" x2="1176.0" y2="474.0" stroke="#1a7d1a" stroke-width="1.5"/>
<text x="1178.4" y="483.8" font-size="12" fill="#123" text-anchor="middle">37</text>
<polygon points="1180.4,460.1 1195.9,455.8 1206.4,485.4 1190.8,493.3" fill="#eef6e4" stroke="#ccc" stroke-width="1"/>
<line x1="1180.4" y1="460.1" x2="1195.9" y2="455.8" stroke="#1f7ae0" stroke-width="5" stroke-linecap="round"/>
<line x1="1206.4" y1="485.4" x2="1190.8" y2="493.3" stroke="#f08a24" stroke-width="5" stroke-linecap="round"/>
<line x1="1193.4" y1="473.6" x2="1191.2" y2="467.7" stroke="#1a7d1a" stroke-width="1.5"/>
<text x="1193.4" y="477.6" font-size="12" fill="#123" text-anchor="middle">38</text>
<polygon points="1219.9,448.0 1220.5,447.8 1231.9,476.8 1231.3,477.0 1206.4,485.4 1195.9,455.8" fill="#eef6e4" stroke="#ccc" stroke-width="1"/>
<line x1="1195.9" y1="455.8" x2="1219.9" y2="448.0" stroke="#1f7ae0" stroke-width="5" stroke-linecap="round"/>
<line x1="1231.3" y1="477.0" x2="1206.4" y2="485.4" stroke="#f08a24" stroke-width="5" stroke-linecap="round"/>
<line x1="1217.7" y1="465.1" x2="1215.6" y2="459.2" stroke="#1a7d1a" stroke-width="1.5"/>
<text x="1217.7" y="469.1" font-size="12" fill="#123" text-anchor="middle">39</text>
<polygon points="1241.4,442.8 1242.8,442.5 1253.9,468.9 1252.8,469.3 1231.9,476.8 1224.8,458.9 1220.5,447.8" fill="#eef6e4" stroke="#ccc" stroke-width="1"/>
<line x1="1241.4" y1="442.8" x2="1242.8" y2="442.5" stroke="#1f7ae0" stroke-width="5" stroke-linecap="round"/>
<line x1="1252.8" y1="469.3" x2="1231.9" y2="476.8" stroke="#f08a24" stroke-width="5" stroke-linecap="round"/>
<line x1="1238.3" y1="458.1" x2="1235.8" y2="452.4" stroke="#1a7d1a" stroke-width="1.5"/>
<text x="1238.3" y="462.1" font-size="12" fill="#123" text-anchor="middle">40</text>
<polygon points="1250.0,435.6 1262.5,433.7 1264.7,434.7 1265.8,435.1 1273.4,455.5 1272.9,461.7 1253.9,468.9 1242.8,442.5" fill="#eef6e4" stroke="#ccc" stroke-width="1"/>
<line x1="1250.0" y1="435.6" x2="1262.5" y2="433.7" stroke="#1f7ae0" stroke-width="5" stroke-linecap="round"/>
<line x1="1272.9" y1="461.7" x2="1253.9" y2="468.9" stroke="#f08a24" stroke-width="5" stroke-linecap="round"/>
<line x1="1260.7" y1="446.0" x2="1259.2" y2="439.9" stroke="#1a7d1a" stroke-width="1.5"/>
<text x="1260.7" y="450.0" font-size="12" fill="#123" text-anchor="middle">41</text>
<polygon points="1269.0,437.5 1305.9,430.4 1313.7,446.5 1274.9,461.0 1275.4,454.7 1273.4,449.1" fill="#eef6e4" stroke="#ccc" stroke-width="1"/>
<line x1="1269.0" y1="437.5" x2="1305.9" y2="430.4" stroke="#1f7ae0" stroke-width="5" stroke-linecap="round"/>
<line x1="1313.7" y1="446.5" x2="1274.9" y2="461.0" stroke="#f08a24" stroke-width="5" stroke-linecap="round"/>
<line x1="1285.4" y1="446.5" x2="1284.1" y2="440.4" stroke="#1a7d1a" stroke-width="1.5"/>
<text x="1285.4" y="450.5" font-size="12" fill="#123" text-anchor="middle">42</text>
<polygon points="1305.9,430.4 1340.1,416.7 1347.9,434.9 1313.7,446.5" fill="#eef6e4" stroke="#ccc" stroke-width="1"/>
<line x1="1305.9" y1="430.4" x2="1340.1" y2="416.7" stroke="#1f7ae0" stroke-width="5" stroke-linecap="round"/>
<line x1="1347.9" y1="434.9" x2="1313.7" y2="446.5" stroke="#f08a24" stroke-width="5" stroke-linecap="round"/>
<line x1="1326.9" y1="432.1" x2="1324.6" y2="426.2" stroke="#1a7d1a" stroke-width="1.5"/>
<text x="1326.9" y="436.1" font-size="12" fill="#123" text-anchor="middle">43</text>
<polygon points="1361.5,404.7 1363.1,403.7 1371.7,424.5 1370.0,425.2 1347.9,434.9 1340.1,416.7" fill="#eef6e4" stroke="#ccc" stroke-width="1"/>
<line x1="1361.5" y1="404.7" x2="1363.1" y2="403.7" stroke="#1f7ae0" stroke-width="5" stroke-linecap="round"/>
<line x1="1370.0" y1="425.2" x2="1347.9" y2="434.9" stroke="#f08a24" stroke-width="5" stroke-linecap="round"/>
<line x1="1359.0" y1="418.3" x2="1356.4" y2="412.5" stroke="#1a7d1a" stroke-width="1.5"/>
<text x="1359.0" y="422.3" font-size="12" fill="#123" text-anchor="middle">44</text>
<polygon points="1363.1,403.7 1382.3,391.5 1394.4,415.8 1371.7,424.5" fill="#eef6e4" stroke="#ccc" stroke-width="1"/>
<line x1="1363.1" y1="403.7" x2="1382.3" y2="391.5" stroke="#1f7ae0" stroke-width="5" stroke-linecap="round"/>
<line x1="1394.4" y1="415.8" x2="1371.7" y2="424.5" stroke="#f08a24" stroke-width="5" stroke-linecap="round"/>
<line x1="1377.9" y1="408.9" x2="1374.4" y2="403.6" stroke="#1a7d1a" stroke-width="1.5"/>
<text x="1377.9" y="412.9" font-size="12" fill="#123" text-anchor="middle">45</text>
<polygon points="1382.3,391.5 1404.3,377.2 1404.6,377.7 1405.5,379.0 1419.4,402.0 1394.4,415.8" fill="#eef6e4" stroke="#ccc" stroke-width="1"/>
<line x1="1382.3" y1="391.5" x2="1404.3" y2="377.2" stroke="#1f7ae0" stroke-width="5" stroke-linecap="round"/>
<line x1="1419.4" y1="402.0" x2="1394.4" y2="415.8" stroke="#f08a24" stroke-width="5" stroke-linecap="round"/>
<line x1="1401.8" y1="390.6" x2="1398.5" y2="385.2" stroke="#1a7d1a" stroke-width="1.5"/>
<text x="1401.8" y="394.6" font-size="12" fill="#123" text-anchor="middle">46</text>
<polygon points="1428.9,357.6 1453.1,338.5 1474.0,366.1 1450.6,381.7 1447.8,383.5 1447.1,384.0 1446.6,384.3 1428.4,358.0" fill="#eef6e4" stroke="#ccc" stroke-width="1"/>
<line x1="1428.9" y1="357.6" x2="1453.1" y2="338.5" stroke="#1f7ae0" stroke-width="5" stroke-linecap="round"/>
<line x1="1450.6" y1="381.7" x2="1447.8" y2="383.5" stroke="#f08a24" stroke-width="5" stroke-linecap="round"/>
<line x1="1447.1" y1="369.2" x2="1443.4" y2="364.1" stroke="#1a7d1a" stroke-width="1.5"/>
<text x="1447.1" y="373.2" font-size="12" fill="#123" text-anchor="middle">47</text>
<polygon points="1404.3,377.2 1428.4,358.0 1446.6,384.3 1419.4,402.0" fill="#eef6e4" stroke="#ccc" stroke-width="1"/>
<line x1="1404.3" y1="377.2" x2="1428.4" y2="358.0" stroke="#1f7ae0" stroke-width="5" stroke-linecap="round"/>
<line x1="1446.6" y1="384.3" x2="1419.4" y2="402.0" stroke="#f08a24" stroke-width="5" stroke-linecap="round"/>
<line x1="1424.7" y1="380.4" x2="1422.0" y2="374.7" stroke="#1a7d1a" stroke-width="1.5"/>
<text x="1424.7" y="384.4" font-size="12" fill="#123" text-anchor="middle">48</text>
<polygon points="1481.6,311.7 1492.2,299.2 1519.0,318.1 1531.3,327.2 1513.0,340.9" fill="#eef6e4" stroke="#ccc" stroke-width="1"/>
<line x1="1481.6" y1="311.7" x2="1492.2" y2="299.2" stroke="#1f7ae0" stroke-width="5" stroke-linecap="round"/>
<line x1="1531.3" y1="327.2" x2="1513.0" y2="340.9" stroke="#f08a24" stroke-width="5" stroke-linecap="round"/>
<line x1="1507.4" y1="319.4" x2="1502.6" y2="315.4" stroke="#1a7d1a" stroke-width="1.5"/>
<text x="1507.4" y="323.4" font-size="12" fill="#123" text-anchor="middle">49</text>
<polygon points="1453.1,338.5 1468.9,324.8 1492.3,354.3 1474.0,366.1" fill="#eef6e4" stroke="#ccc" stroke-width="1"/>
<line x1="1453.1" y1="338.5" x2="1468.9" y2="324.8" stroke="#1f7ae0" stroke-width="5" stroke-linecap="round"/>
<line x1="1492.3" y1="354.3" x2="1474.0" y2="366.1" stroke="#f08a24" stroke-width="5" stroke-linecap="round"/>
<line x1="1472.1" y1="345.9" x2="1468.3" y2="340.9" stroke="#1a7d1a" stroke-width="1.5"/>
<text x="1472.1" y="349.9" font-size="12" fill="#123" text-anchor="middle">50</text>
<polygon points="1468.9,324.8 1481.6,311.7 1513.0,340.9 1492.8,353.9 1492.3,354.3" fill="#eef6e4" stroke="#ccc" stroke-width="1"/>
<line x1="1468.9" y1="324.8" x2="1481.6" y2="311.7" stroke="#1f7ae0" stroke-width="5" stroke-linecap="round"/>
<line x1="1492.8" y1="353.9" x2="1492.3" y2="354.3" stroke="#f08a24" stroke-width="5" stroke-linecap="round"/>
<line x1="1489.7" y1="337.1" x2="1486.0" y2="332.1" stroke="#1a7d1a" stroke-width="1.5"/>
<text x="1489.7" y="341.1" font-size="12" fill="#123" text-anchor="middle">51</text>
<polygon points="1502.8,282.7 1541.0,307.8 1534.4,324.2 1514.0,311.7 1493.9,296.4" fill="#eef6e4" stroke="#ccc" stroke-width="1"/>
<line x1="1493.9" y1="296.4" x2="1502.8" y2="282.7" stroke="#1f7ae0" stroke-width="5" stroke-linecap="round"/>
<line x1="1541.0" y1="307.8" x2="1534.4" y2="324.2" stroke="#f08a24" stroke-width="5" stroke-linecap="round"/>
<line x1="1517.2" y1="304.6" x2="1511.7" y2="301.5" stroke="#1a7d1a" stroke-width="1.5"/>
<text x="1517.2" y="308.6" font-size="12" fill="#123" text-anchor="middle">52</text>
<polygon points="1502.8,282.7 1510.6,270.0 1546.0,293.1 1541.0,307.8" fill="#eef6e4" stroke="#ccc" stroke-width="1"/>
<line x1="1502.8" y1="282.7" x2="1510.6" y2="270.0" stroke="#1f7ae0" stroke-width="5" stroke-linecap="round"/>
<line x1="1546.0" y1="293.1" x2="1541.0" y2="307.8" stroke="#f08a24" stroke-width="5" stroke-linecap="round"/>
<line x1="1525.1" y1="288.4" x2="1519.4" y2="285.7" stroke="#1a7d1a" stroke-width="1.5"/>
<text x="1525.1" y="292.4" font-size="12" fill="#123" text-anchor="middle">53</text>
<polygon points="1510.6,270.0 1518.0,257.7 1551.5,278.6 1546.0,293.1" fill="#eef6e4" stroke="#ccc" stroke-width="1"/>
<line x1="1510.6" y1="270.0" x2="1518.0" y2="257.7" stroke="#1f7ae0" stroke-width="5" stroke-linecap="round"/>
<line x1="1551.5" y1="278.6" x2="1546.0" y2="293.1" stroke="#f08a24" stroke-width="5" stroke-linecap="round"/>
<line x1="1531.5" y1="274.8" x2="1525.8" y2="272.2" stroke="#1a7d1a" stroke-width="1.5"/>
<text x="1531.5" y="278.8" font-size="12" fill="#123" text-anchor="middle">54</text>
<polygon points="1518.0,257.7 1527.5,239.6 1558.1,258.6 1551.5,278.6" fill="#eef6e4" stroke="#ccc" stroke-width="1"/>
<line x1="1518.0" y1="257.7" x2="1527.5" y2="239.6" stroke="#1f7ae0" stroke-width="5" stroke-linecap="round"/>
<line x1="1558.1" y1="258.6" x2="1551.5" y2="278.6" stroke="#f08a24" stroke-width="5" stroke-linecap="round"/>
<line x1="1538.8" y1="258.6" x2="1533.0" y2="256.2" stroke="#1a7d1a" stroke-width="1.5"/>
<text x="1538.8" y="262.6" font-size="12" fill="#123" text-anchor="middle">55</text>
<polygon points="1527.5,239.6 1535.5,223.4 1566.6,232.3 1558.1,258.6" fill="#eef6e4" stroke="#ccc" stroke-width="1"/>
<line x1="1527.5" y1="239.6" x2="1535.5" y2="223.4" stroke="#1f7ae0" stroke-width="5" stroke-linecap="round"/>
<line x1="1566.6" y1="232.3" x2="1558.1" y2="258.6" stroke="#f08a24" stroke-width="5" stroke-linecap="round"/>
<line x1="1546.9" y1="238.5" x2="1541.3" y2="235.7" stroke="#1a7d1a" stroke-width="1.5"/>
<text x="1546.9" y="242.5" font-size="12" fill="#123" text-anchor="middle">56</text>
<polygon points="1535.5,223.4 1537.2,217.8 1543.0,198.4 1574.7,207.5 1569.9,222.3 1567.5,229.5 1566.8,231.7 1566.6,232.3" fill="#eef6e4" stroke="#ccc" stroke-width="1"/>
<line x1="1537.2" y1="217.8" x2="1543.0" y2="198.4" stroke="#1f7ae0" stroke-width="5" stroke-linecap="round"/>
<line x1="1574.7" y1="207.5" x2="1569.9" y2="222.3" stroke="#f08a24" stroke-width="5" stroke-linecap="round"/>
<line x1="1557.7" y1="220.4" x2="1551.7" y2="218.3" stroke="#1a7d1a" stroke-width="1.5"/>
<text x="1557.7" y="224.4" font-size="12" fill="#123" text-anchor="middle">57</text>
<polygon points="1547.9,184.4 1550.6,174.3 1583.2,184.8 1582.9,185.5 1574.7,207.5 1543.0,198.4" fill="#eef6e4" stroke="#ccc" stroke-width="1"/>
<line x1="1547.9" y1="184.4" x2="1550.6" y2="174.3" stroke="#1f7ae0" stroke-width="5" stroke-linecap="round"/>
<line x1="1583.2" y1="184.8" x2="1582.9" y2="185.5" stroke="#f08a24" stroke-width="5" stroke-linecap="round"/>
<line x1="1563.7" y1="189.2" x2="1557.6" y2="187.7" stroke="#1a7d1a" stroke-width="1.5"/>
<text x="1563.7" y="193.2" font-size="12" fill="#123" text-anchor="middle">58</text>
<polygon points="1550.6,174.3 1556.3,153.5 1590.0,164.8 1583.2,184.8" fill="#eef6e4" stroke="#ccc" stroke-width="1"/>
<line x1="1550.6" y1="174.3" x2="1556.3" y2="153.5" stroke="#1f7ae0" stroke-width="5" stroke-linecap="round"/>
<line x1="1590.0" y1="164.8" x2="1583.2" y2="184.8" stroke="#f08a24" stroke-width="5" stroke-linecap="round"/>
<line x1="1570.0" y1="169.4" x2="1564.0" y2="167.6" stroke="#1a7d1a" stroke-width="1.5"/>
<text x="1570.0" y="173.4" font-size="12" fill="#123" text-anchor="middle">59</text>
<polygon points="1556.3,153.5 1560.7,132.2 1594.9,143.9 1590.0,164.8" fill="#eef6e4" stroke="#ccc" stroke-width="1"/>
<line x1="1556.3" y1="153.5" x2="1560.7" y2="132.2" stroke="#1f7ae0" stroke-width="5" stroke-linecap="round"/>
<line x1="1594.9" y1="143.9" x2="1590.0" y2="164.8" stroke="#f08a24" stroke-width="5" stroke-linecap="round"/>
<line x1="1575.5" y1="148.6" x2="1569.5" y2="146.6" stroke="#1a7d1a" stroke-width="1.5"/>
<text x="1575.5" y="152.6" font-size="12" fill="#123" text-anchor="middle">60</text>
<polygon points="1560.7,132.2 1564.7,111.1 1600.8,123.2 1595.6,134.1 1594.9,143.9" fill="#eef6e4" stroke="#ccc" stroke-width="1"/>
<line x1="1560.7" y1="132.2" x2="1564.7" y2="111.1" stroke="#1f7ae0" stroke-width="5" stroke-linecap="round"/>
<line x1="1595.6" y1="134.1" x2="1594.9" y2="143.9" stroke="#f08a24" stroke-width="5" stroke-linecap="round"/>
<line x1="1583.3" y1="128.9" x2="1577.2" y2="127.3" stroke="#1a7d1a" stroke-width="1.5"/>
<text x="1583.3" y="132.9" font-size="12" fill="#123" text-anchor="middle">61</text>
<polygon points="1564.7,111.1 1568.7,89.8 1610.0,106.9 1600.8,123.2" fill="#eef6e4" stroke="#ccc" stroke-width="1"/>
<line x1="1564.7" y1="111.1" x2="1568.7" y2="89.8" stroke="#1f7ae0" stroke-width="5" stroke-linecap="round"/>
<line x1="1610.0" y1="106.9" x2="1600.8" y2="123.2" stroke="#f08a24" stroke-width="5" stroke-linecap="round"/>
<line x1="1586.0" y1="107.7" x2="1579.8" y2="106.9" stroke="#1a7d1a" stroke-width="1.5"/>
<text x="1586.0" y="111.7" font-size="12" fill="#123" text-anchor="middle">62</text>
<rect x="20" y="20" width="300" height="72" rx="8" fill="#fff" stroke="#ccc"/>
<line x1="38" y1="46" x2="86" y2="46" stroke="#1f7ae0" stroke-width="6"/><text x="98" y="51" font-size="17">Daryo (river)</text>
<line x1="38" y1="74" x2="86" y2="74" stroke="#f08a24" stroke-width="6"/><text x="98" y="79" font-size="17">Yoʻl (road)</text>
</svg>