<svg xmlns="http://www.w3.org/2000/svg" width="1200" height="1200" viewBox="0 0 1200 1200" font-family="Arial, sans-serif">
<rect width="1200" height="1200" fill="#ffffff"/>
<rect x="0" y="0" width="1200" height="140" fill="#bfe0ea"/>
<clipPath id="lot"><polygon points="358.1,140.0 752.1,216.2 608.4,994.5 140.0,1060.0"/></clipPath>
<polygon points="358.1,140.0 752.1,216.2 608.4,994.5 140.0,1060.0" fill="#cfe8bf"/>
<g clip-path="url(#lot)">
<path d="M515.9,647.8 Q590.2,768.1 624.5,888.3" stroke="#e8ddc2" stroke-width="14" fill="none" stroke-linecap="round"/>
<path d="M515.9,647.8 Q368.3,783.3 180.6,918.8" stroke="#e8ddc2" stroke-width="14" fill="none" stroke-linecap="round"/>
<path d="M515.9,647.8 Q437.8,479.9 319.7,312.0" stroke="#e8ddc2" stroke-width="14" fill="none" stroke-linecap="round"/>
<path d="M515.9,647.8 Q555.9,547.7 555.9,447.5" stroke="#e8ddc2" stroke-width="14" fill="none" stroke-linecap="round"/>
<path d="M515.9,647.8 Q490.6,510.3 425.3,372.8" stroke="#e8ddc2" stroke-width="14" fill="none" stroke-linecap="round"/>
<path d="M515.9,647.8 Q535.9,647.8 515.9,647.8" stroke="#e8ddc2" stroke-width="14" fill="none" stroke-linecap="round"/>
<path d="M515.9,647.8 Q443.0,653.0 330.2,658.2" stroke="#e8ddc2" stroke-width="14" fill="none" stroke-linecap="round"/>
<path d="M515.9,647.8 Q572.5,730.1 589.1,812.5" stroke="#e8ddc2" stroke-width="14" fill="none" stroke-linecap="round"/>
<path d="M515.9,647.8 Q420.3,744.7 284.7,841.5" stroke="#e8ddc2" stroke-width="14" fill="none" stroke-linecap="round"/>
<path d="M515.9,647.8 Q488.4,698.9 421.0,749.9" stroke="#e8ddc2" stroke-width="14" fill="none" stroke-linecap="round"/>
<path d="M515.9,647.8 Q498.7,447.1 441.6,246.3" stroke="#e8ddc2" stroke-width="14" fill="none" stroke-linecap="round"/>
<circle cx="694.3" cy="428.6" r="14.4" fill="#7cb56a" stroke="#14261b" stroke-width="1.5"/>
<circle cx="693.7" cy="821.0" r="13.5" fill="#7cb56a" stroke="#14261b" stroke-width="1.5"/>
<circle cx="693.9" cy="257.6" r="13.0" fill="#7cb56a" stroke="#14261b" stroke-width="1.5"/>
<circle cx="203.2" cy="766.4" r="15.7" fill="#7cb56a" stroke="#14261b" stroke-width="1.5"/>
<circle cx="696.2" cy="751.3" r="12.0" fill="#7cb56a" stroke="#14261b" stroke-width="1.5"/>
<circle cx="189.9" cy="532.6" r="9.2" fill="#7cb56a" stroke="#14261b" stroke-width="1.5"/>
<circle cx="197.9" cy="884.9" r="13.9" fill="#7cb56a" stroke="#14261b" stroke-width="1.5"/>
<circle cx="212.0" cy="1038.5" r="13.9" fill="#7cb56a" stroke="#14261b" stroke-width="1.5"/>
<circle cx="147.9" cy="466.7" r="11.1" fill="#7cb56a" stroke="#14261b" stroke-width="1.5"/>
<circle cx="223.8" cy="464.9" r="13.2" fill="#7cb56a" stroke="#14261b" stroke-width="1.5"/>
<circle cx="708.5" cy="265.9" r="13.8" fill="#7cb56a" stroke="#14261b" stroke-width="1.5"/>
<circle cx="749.6" cy="526.1" r="11.4" fill="#7cb56a" stroke="#14261b" stroke-width="1.5"/>
<circle cx="211.2" cy="500.9" r="12.6" fill="#7cb56a" stroke="#14261b" stroke-width="1.5"/>
<circle cx="407.1" cy="146.8" r="14.9" fill="#7cb56a" stroke="#14261b" stroke-width="1.5"/>
<circle cx="210.3" cy="246.5" r="9.0" fill="#7cb56a" stroke="#14261b" stroke-width="1.5"/>
<circle cx="723.0" cy="572.1" r="14.3" fill="#7cb56a" stroke="#14261b" stroke-width="1.5"/>
<circle cx="173.3" cy="446.0" r="9.8" fill="#7cb56a" stroke="#14261b" stroke-width="1.5"/>
<circle cx="418.6" cy="753.2" r="14.2" fill="#7cb56a" stroke="#14261b" stroke-width="1.5"/>
<circle cx="197.1" cy="823.3" r="9.6" fill="#7cb56a" stroke="#14261b" stroke-width="1.5"/>
<circle cx="545.4" cy="783.1" r="9.2" fill="#7cb56a" stroke="#14261b" stroke-width="1.5"/>
<circle cx="274.4" cy="593.9" r="9.2" fill="#7cb56a" stroke="#14261b" stroke-width="1.5"/>
<circle cx="548.0" cy="574.9" r="11.2" fill="#7cb56a" stroke="#14261b" stroke-width="1.5"/>
<circle cx="217.1" cy="807.0" r="11.7" fill="#7cb56a" stroke="#14261b" stroke-width="1.5"/>
<circle cx="536.6" cy="647.4" r="10.3" fill="#7cb56a" stroke="#14261b" stroke-width="1.5"/>
<circle cx="696.3" cy="787.2" r="11.6" fill="#7cb56a" stroke="#14261b" stroke-width="1.5"/>
<circle cx="322.5" cy="437.7" r="10.9" fill="#7cb56a" stroke="#14261b" stroke-width="1.5"/>
<circle cx="677.7" cy="716.6" r="15.8" fill="#7cb56a" stroke="#14261b" stroke-width="1.5"/>
<circle cx="200.8" cy="528.6" r="10.5" fill="#7cb56a" stroke="#14261b" stroke-width="1.5"/>
<circle cx="701.8" cy="415.2" r="12.7" fill="#7cb56a" stroke="#14261b" stroke-width="1.5"/>
<circle cx="704.7" cy="556.7" r="15.8" fill="#7cb56a" stroke="#14261b" stroke-width="1.5"/>
<circle cx="657.8" cy="968.1" r="15.9" fill="#7cb56a" stroke="#14261b" stroke-width="1.5"/>
<circle cx="165.2" cy="370.3" r="13.3" fill="#7cb56a" stroke="#14261b" stroke-width="1.5"/>
<circle cx="360.2" cy="799.7" r="13.6" fill="#7cb56a" stroke="#14261b" stroke-width="1.5"/>
<circle cx="679.0" cy="714.1" r="15.0" fill="#7cb56a" stroke="#14261b" stroke-width="1.5"/>
<circle cx="707.1" cy="975.6" r="15.1" fill="#7cb56a" stroke="#14261b" stroke-width="1.5"/>
<circle cx="746.1" cy="750.3" r="10.4" fill="#7cb56a" stroke="#14261b" stroke-width="1.5"/>
<circle cx="172.1" cy="935.9" r="9.6" fill="#7cb56a" stroke="#14261b" stroke-width="1.5"/>
<circle cx="641.9" cy="1041.4" r="9.8" fill="#7cb56a" stroke="#14261b" stroke-width="1.5"/>
<circle cx="144.1" cy="433.2" r="11.4" fill="#7cb56a" stroke="#14261b" stroke-width="1.5"/>
<rect x="213.4" y="138.0" width="465.2" height="30" fill="#c79a5f" stroke="#14261b" stroke-width="2.5"/>
<rect x="564.5" y="828.3" width="120.0" height="120.0" rx="4" fill="#d9dcd7" stroke="#14261b" stroke-width="2.5"/>
<rect x="572.5" y="859.3" width="34" height="58" rx="5" fill="#dfe3de" stroke="#14261b" stroke-width="2"/>
<rect x="600.5" y="859.3" width="34" height="58" rx="5" fill="#dfe3de" stroke="#14261b" stroke-width="2"/>
<rect x="628.5" y="859.3" width="34" height="58" rx="5" fill="#dfe3de" stroke="#14261b" stroke-width="2"/>
<rect x="656.5" y="859.3" width="34" height="58" rx="5" fill="#dfe3de" stroke="#14261b" stroke-width="2"/>
<rect x="491.9" y="412.5" width="128.0" height="70.0" rx="4" fill="#c79a5f" stroke="#14261b" stroke-width="2.5"/>
<rect x="503.9" y="424.5" width="104" height="46" rx="8" fill="#5cc0dd" stroke="#14261b" stroke-width="2"/>
<circle cx="379.3" cy="372.8" r="38" fill="#ececdd" stroke="#14261b" stroke-width="2.5"/>
<line x1="379.3" y1="372.8" x2="417.3" y2="372.8" stroke="#14261b" stroke-width="1.2"/>
<line x1="379.3" y1="372.8" x2="412.3" y2="391.8" stroke="#14261b" stroke-width="1.2"/>
<line x1="379.3" y1="372.8" x2="398.3" y2="405.7" stroke="#14261b" stroke-width="1.2"/>
<line x1="379.3" y1="372.8" x2="379.3" y2="410.8" stroke="#14261b" stroke-width="1.2"/>
<line x1="379.3" y1="372.8" x2="360.3" y2="405.7" stroke="#14261b" stroke-width="1.2"/>
<line x1="379.3" y1="372.8" x2="346.4" y2="391.8" stroke="#14261b" stroke-width="1.2"/>
<line x1="379.3" y1="372.8" x2="341.3" y2="372.8" stroke="#14261b" stroke-width="1.2"/>
<line x1="379.3" y1="372.8" x2="346.4" y2="353.8" stroke="#14261b" stroke-width="1.2"/>
<line x1="379.3" y1="372.8" x2="360.3" y2="339.9" stroke="#14261b" stroke-width="1.2"/>
<line x1="379.3" y1="372.8" x2="379.3" y2="334.8" stroke="#14261b" stroke-width="1.2"/>
<line x1="379.3" y1="372.8" x2="398.3" y2="339.9" stroke="#14261b" stroke-width="1.2"/>
<line x1="379.3" y1="372.8" x2="412.3" y2="353.8" stroke="#14261b" stroke-width="1.2"/>
<circle cx="471.3" cy="372.8" r="38" fill="#ececdd" stroke="#14261b" stroke-width="2.5"/>
<line x1="471.3" y1="372.8" x2="509.3" y2="372.8" stroke="#14261b" stroke-width="1.2"/>
<line x1="471.3" y1="372.8" x2="504.3" y2="391.8" stroke="#14261b" stroke-width="1.2"/>
<line x1="471.3" y1="372.8" x2="490.3" y2="405.7" stroke="#14261b" stroke-width="1.2"/>
<line x1="471.3" y1="372.8" x2="471.3" y2="410.8" stroke="#14261b" stroke-width="1.2"/>
<line x1="471.3" y1="372.8" x2="452.3" y2="405.7" stroke="#14261b" stroke-width="1.2"/>
<line x1="471.3" y1="372.8" x2="438.4" y2="391.8" stroke="#14261b" stroke-width="1.2"/>
<line x1="471.3" y1="372.8" x2="433.3" y2="372.8" stroke="#14261b" stroke-width="1.2"/>
<line x1="471.3" y1="372.8" x2="438.4" y2="353.8" stroke="#14261b" stroke-width="1.2"/>
<line x1="471.3" y1="372.8" x2="452.3" y2="339.9" stroke="#14261b" stroke-width="1.2"/>
<line x1="471.3" y1="372.8" x2="471.3" y2="334.8" stroke="#14261b" stroke-width="1.2"/>
<line x1="471.3" y1="372.8" x2="490.3" y2="339.9" stroke="#14261b" stroke-width="1.2"/>
<line x1="471.3" y1="372.8" x2="504.3" y2="353.8" stroke="#14261b" stroke-width="1.2"/>
<circle cx="515.9" cy="647.8" r="46" fill="#e7d8bf" stroke="#14261b" stroke-width="2.5"/>
<circle cx="515.9" cy="647.8" r="18" fill="#f0a04a" stroke="#14261b" stroke-width="2"/>
<rect x="291.2" y="629.2" width="78.0" height="58.0" rx="4" fill="#c99a63" stroke="#14261b" stroke-width="2.5"/>
<rect x="545.1" y="779.5" width="88.0" height="66.0" rx="4" fill="#c99a63" stroke="#14261b" stroke-width="2.5"/>
<rect x="286.7" y="284.0" width="66.0" height="56.0" rx="4" fill="#c79a5f" stroke="#14261b" stroke-width="2.5"/>
<rect x="239.7" y="812.5" width="90.0" height="58.0" rx="4" fill="#e0a45a" stroke="#14261b" stroke-width="2.5"/>
<line x1="284.7" y1="812.5" x2="284.7" y2="870.5" stroke="#fff" stroke-width="2"/>
<circle cx="284.7" cy="841.5" r="12" fill="none" stroke="#fff" stroke-width="2"/>
<rect x="159.6" y="901.8" width="42.0" height="34.0" rx="4" fill="#cdbcda" stroke="#14261b" stroke-width="2.5"/>
</g>
<polygon points="358.1,140.0 752.1,216.2 608.4,994.5 140.0,1060.0" fill="none" stroke="#14261b" stroke-width="6" stroke-linejoin="round"/>
<circle cx="624.5" cy="888.3" r="15" fill="#fff" stroke="#14261b" stroke-width="2"/>
<text x="624.5" y="894.3" font-size="17" fill="#12261a" text-anchor="middle" font-weight="700">1</text>
<circle cx="180.6" cy="918.8" r="15" fill="#fff" stroke="#14261b" stroke-width="2"/>
<text x="180.6" y="924.8" font-size="17" fill="#12261a" text-anchor="middle" font-weight="700">2</text>
<circle cx="319.7" cy="312.0" r="15" fill="#fff" stroke="#14261b" stroke-width="2"/>
<text x="319.7" y="318.0" font-size="17" fill="#12261a" text-anchor="middle" font-weight="700">3</text>
<circle cx="555.9" cy="447.5" r="15" fill="#fff" stroke="#14261b" stroke-width="2"/>
<text x="555.9" y="453.5" font-size="17" fill="#12261a" text-anchor="middle" font-weight="700">4</text>
<circle cx="425.3" cy="372.8" r="15" fill="#fff" stroke="#14261b" stroke-width="2"/>
<text x="425.3" y="378.8" font-size="17" fill="#12261a" text-anchor="middle" font-weight="700">5</text>
<circle cx="515.9" cy="647.8" r="15" fill="#fff" stroke="#14261b" stroke-width="2"/>
<text x="515.9" y="653.8" font-size="17" fill="#12261a" text-anchor="middle" font-weight="700">6</text>
<circle cx="330.2" cy="658.2" r="15" fill="#fff" stroke="#14261b" stroke-width="2"/>
<text x="330.2" y="664.2" font-size="17" fill="#12261a" text-anchor="middle" font-weight="700">7</text>
<circle cx="589.1" cy="812.5" r="15" fill="#fff" stroke="#14261b" stroke-width="2"/>
<text x="589.1" y="818.5" font-size="17" fill="#12261a" text-anchor="middle" font-weight="700">8</text>
<circle cx="284.7" cy="841.5" r="15" fill="#fff" stroke="#14261b" stroke-width="2"/>
<text x="284.7" y="847.5" font-size="17" fill="#12261a" text-anchor="middle" font-weight="700">9</text>
<circle cx="421.0" cy="749.9" r="15" fill="#fff" stroke="#14261b" stroke-width="2"/>
<text x="421.0" y="755.9" font-size="17" fill="#12261a" text-anchor="middle" font-weight="700">10</text>
<circle cx="441.6" cy="246.3" r="15" fill="#fff" stroke="#14261b" stroke-width="2"/>
<text x="441.6" y="252.3" font-size="17" fill="#12261a" text-anchor="middle" font-weight="700">11</text>
<circle cx="358.1" cy="140.0" r="5" fill="#14261b"/>
<text x="366.1" y="132.0" font-size="18" fill="#14261b" font-weight="700">P1</text>
<circle cx="752.1" cy="216.2" r="5" fill="#14261b"/>
<text x="760.1" y="208.2" font-size="18" fill="#14261b" font-weight="700">P2</text>
<circle cx="608.4" cy="994.5" r="5" fill="#14261b"/>
<text x="616.4" y="986.5" font-size="18" fill="#14261b" font-weight="700">P3</text>
<circle cx="140.0" cy="1060.0" r="5" fill="#14261b"/>
<text x="148.0" y="1052.0" font-size="18" fill="#14261b" font-weight="700">P4</text>
<text x="555.1" y="172.1" font-size="20" fill="#0a7d2c" text-anchor="middle" font-weight="700">36.38 m</text>
<text x="680.2" y="599.4" font-size="20" fill="#0a7d2c" text-anchor="middle" font-weight="700">71.75 m</text>
<text x="374.2" y="1021.3" font-size="20" fill="#0a7d2c" text-anchor="middle" font-weight="700">42.88 m</text>
<text x="249.0" y="594.0" font-size="20" fill="#0a7d2c" text-anchor="middle" font-weight="700">85.72 m</text>
<text x="464.6" y="120.0" font-size="22" fill="#1878a0" letter-spacing="3" text-anchor="middle">DARYO</text>
<text x="464.6" y="1100.0" font-size="20" fill="#555" letter-spacing="3" text-anchor="middle">YO‘L</text>
<text x="20" y="34" font-size="24" fill="#12261a" font-weight="800">20-LOT — 0.30 ga (30 sotix)</text>
<text x="20" y="60" font-size="15" fill="#555">Perimetr: 236.7 m · ControlNet uchun asos plan</text>
</svg>