<svg xmlns="http://www.w3.org/2000/svg" width="1200" height="1200" viewBox="0 0 1200 1200" font-family="Arial, sans-serif">
<rect width="1200" height="1200" fill="#ffffff"/>
<rect x="0" y="0" width="1200" height="140" fill="#bfe0ea"/>
<clipPath id="lot"><polygon points="169.0,140.0 481.6,140.0 471.7,999.0 140.0,1060.0"/></clipPath>
<polygon points="169.0,140.0 481.6,140.0 471.7,999.0 140.0,1060.0" fill="#cfe8bf"/>
<g clip-path="url(#lot)">
<path d="M310.8,600.0 Q272.7,774.8 194.7,949.6" stroke="#e8ddc2" stroke-width="14" fill="none" stroke-linecap="round"/>
<path d="M310.8,600.0 Q257.4,425.2 163.9,250.4" stroke="#e8ddc2" stroke-width="14" fill="none" stroke-linecap="round"/>
<path d="M310.8,600.0 Q283.0,462.0 215.2,324.0" stroke="#e8ddc2" stroke-width="14" fill="none" stroke-linecap="round"/>
<path d="M310.8,600.0 Q303.5,544.8 256.2,489.6" stroke="#e8ddc2" stroke-width="14" fill="none" stroke-linecap="round"/>
<path d="M310.8,600.0 Q354.7,508.0 358.6,416.0" stroke="#e8ddc2" stroke-width="14" fill="none" stroke-linecap="round"/>
<path d="M310.8,600.0 Q330.8,600.0 310.8,600.0" stroke="#e8ddc2" stroke-width="14" fill="none" stroke-linecap="round"/>
<path d="M310.8,600.0 Q371.8,627.6 392.8,655.2" stroke="#e8ddc2" stroke-width="14" fill="none" stroke-linecap="round"/>
<path d="M310.8,600.0 Q351.3,710.4 351.8,820.8" stroke="#e8ddc2" stroke-width="14" fill="none" stroke-linecap="round"/>
<path d="M310.8,600.0 Q382.1,747.2 413.3,894.4" stroke="#e8ddc2" stroke-width="14" fill="none" stroke-linecap="round"/>
<path d="M310.8,600.0 Q317.2,692.0 283.5,784.0" stroke="#e8ddc2" stroke-width="14" fill="none" stroke-linecap="round"/>
<path d="M310.8,600.0 Q330.8,402.2 310.8,204.4" stroke="#e8ddc2" stroke-width="14" fill="none" stroke-linecap="round"/>
<circle cx="452.1" cy="933.5" r="12.9" fill="#7cb56a" stroke="#14261b" stroke-width="1.5"/>
<circle cx="305.0" cy="177.7" r="11.7" fill="#7cb56a" stroke="#14261b" stroke-width="1.5"/>
<circle cx="451.5" cy="251.7" r="14.1" fill="#7cb56a" stroke="#14261b" stroke-width="1.5"/>
<circle cx="159.1" cy="149.4" r="12.8" fill="#7cb56a" stroke="#14261b" stroke-width="1.5"/>
<circle cx="458.0" cy="808.7" r="10.0" fill="#7cb56a" stroke="#14261b" stroke-width="1.5"/>
<circle cx="481.5" cy="819.7" r="10.9" fill="#7cb56a" stroke="#14261b" stroke-width="1.5"/>
<circle cx="289.6" cy="234.2" r="11.6" fill="#7cb56a" stroke="#14261b" stroke-width="1.5"/>
<circle cx="144.3" cy="815.5" r="10.6" fill="#7cb56a" stroke="#14261b" stroke-width="1.5"/>
<circle cx="147.0" cy="239.0" r="14.1" fill="#7cb56a" stroke="#14261b" stroke-width="1.5"/>
<circle cx="186.6" cy="836.7" r="15.9" fill="#7cb56a" stroke="#14261b" stroke-width="1.5"/>
<circle cx="475.8" cy="840.0" r="13.4" fill="#7cb56a" stroke="#14261b" stroke-width="1.5"/>
<circle cx="145.5" cy="613.8" r="10.6" fill="#7cb56a" stroke="#14261b" stroke-width="1.5"/>
<circle cx="445.5" cy="724.6" r="9.1" fill="#7cb56a" stroke="#14261b" stroke-width="1.5"/>
<circle cx="426.0" cy="210.9" r="14.9" fill="#7cb56a" stroke="#14261b" stroke-width="1.5"/>
<circle cx="167.7" cy="1006.1" r="12.5" fill="#7cb56a" stroke="#14261b" stroke-width="1.5"/>
<circle cx="468.5" cy="603.4" r="11.4" fill="#7cb56a" stroke="#14261b" stroke-width="1.5"/>
<circle cx="185.4" cy="723.4" r="12.4" fill="#7cb56a" stroke="#14261b" stroke-width="1.5"/>
<circle cx="435.8" cy="528.4" r="9.7" fill="#7cb56a" stroke="#14261b" stroke-width="1.5"/>
<circle cx="419.8" cy="416.8" r="15.7" fill="#7cb56a" stroke="#14261b" stroke-width="1.5"/>
<circle cx="172.3" cy="874.8" r="9.9" fill="#7cb56a" stroke="#14261b" stroke-width="1.5"/>
<circle cx="183.9" cy="874.7" r="14.2" fill="#7cb56a" stroke="#14261b" stroke-width="1.5"/>
<circle cx="228.8" cy="980.8" r="12.6" fill="#7cb56a" stroke="#14261b" stroke-width="1.5"/>
<circle cx="391.5" cy="1056.1" r="13.4" fill="#7cb56a" stroke="#14261b" stroke-width="1.5"/>
<circle cx="203.1" cy="259.9" r="12.3" fill="#7cb56a" stroke="#14261b" stroke-width="1.5"/>
<circle cx="256.4" cy="751.0" r="9.3" fill="#7cb56a" stroke="#14261b" stroke-width="1.5"/>
<circle cx="179.3" cy="649.2" r="15.4" fill="#7cb56a" stroke="#14261b" stroke-width="1.5"/>
<circle cx="159.1" cy="443.9" r="15.5" fill="#7cb56a" stroke="#14261b" stroke-width="1.5"/>
<circle cx="219.7" cy="1033.3" r="10.0" fill="#7cb56a" stroke="#14261b" stroke-width="1.5"/>
<circle cx="444.8" cy="666.4" r="15.1" fill="#7cb56a" stroke="#14261b" stroke-width="1.5"/>
<circle cx="476.2" cy="319.1" r="9.8" fill="#7cb56a" stroke="#14261b" stroke-width="1.5"/>
<circle cx="144.0" cy="825.5" r="12.4" fill="#7cb56a" stroke="#14261b" stroke-width="1.5"/>
<circle cx="160.6" cy="389.4" r="14.4" fill="#7cb56a" stroke="#14261b" stroke-width="1.5"/>
<rect x="181.0" y="138.0" width="259.6" height="30" fill="#c79a5f" stroke="#14261b" stroke-width="2.5"/>
<rect x="134.7" y="889.6" width="120.0" height="120.0" rx="4" fill="#d9dcd7" stroke="#14261b" stroke-width="2.5"/>
<rect x="142.7" y="920.6" width="34" height="58" rx="5" fill="#dfe3de" stroke="#14261b" stroke-width="2"/>
<rect x="170.7" y="920.6" width="34" height="58" rx="5" fill="#dfe3de" stroke="#14261b" stroke-width="2"/>
<rect x="198.7" y="920.6" width="34" height="58" rx="5" fill="#dfe3de" stroke="#14261b" stroke-width="2"/>
<rect x="226.7" y="920.6" width="34" height="58" rx="5" fill="#dfe3de" stroke="#14261b" stroke-width="2"/>
<rect x="192.2" y="454.6" width="128.0" height="70.0" rx="4" fill="#c79a5f" stroke="#14261b" stroke-width="2.5"/>
<rect x="204.2" y="466.6" width="104" height="46" rx="8" fill="#5cc0dd" stroke="#14261b" stroke-width="2"/>
<circle cx="312.6" cy="416.0" r="38" fill="#ececdd" stroke="#14261b" stroke-width="2.5"/>
<line x1="312.6" y1="416.0" x2="350.6" y2="416.0" stroke="#14261b" stroke-width="1.2"/>
<line x1="312.6" y1="416.0" x2="345.6" y2="435.0" stroke="#14261b" stroke-width="1.2"/>
<line x1="312.6" y1="416.0" x2="331.6" y2="448.9" stroke="#14261b" stroke-width="1.2"/>
<line x1="312.6" y1="416.0" x2="312.6" y2="454.0" stroke="#14261b" stroke-width="1.2"/>
<line x1="312.6" y1="416.0" x2="293.6" y2="448.9" stroke="#14261b" stroke-width="1.2"/>
<line x1="312.6" y1="416.0" x2="279.7" y2="435.0" stroke="#14261b" stroke-width="1.2"/>
<line x1="312.6" y1="416.0" x2="274.6" y2="416.0" stroke="#14261b" stroke-width="1.2"/>
<line x1="312.6" y1="416.0" x2="279.7" y2="397.0" stroke="#14261b" stroke-width="1.2"/>
<line x1="312.6" y1="416.0" x2="293.6" y2="383.1" stroke="#14261b" stroke-width="1.2"/>
<line x1="312.6" y1="416.0" x2="312.6" y2="378.0" stroke="#14261b" stroke-width="1.2"/>
<line x1="312.6" y1="416.0" x2="331.6" y2="383.1" stroke="#14261b" stroke-width="1.2"/>
<line x1="312.6" y1="416.0" x2="345.6" y2="397.0" stroke="#14261b" stroke-width="1.2"/>
<circle cx="404.6" cy="416.0" r="38" fill="#ececdd" stroke="#14261b" stroke-width="2.5"/>
<line x1="404.6" y1="416.0" x2="442.6" y2="416.0" stroke="#14261b" stroke-width="1.2"/>
<line x1="404.6" y1="416.0" x2="437.6" y2="435.0" stroke="#14261b" stroke-width="1.2"/>
<line x1="404.6" y1="416.0" x2="423.6" y2="448.9" stroke="#14261b" stroke-width="1.2"/>
<line x1="404.6" y1="416.0" x2="404.6" y2="454.0" stroke="#14261b" stroke-width="1.2"/>
<line x1="404.6" y1="416.0" x2="385.6" y2="448.9" stroke="#14261b" stroke-width="1.2"/>
<line x1="404.6" y1="416.0" x2="371.7" y2="435.0" stroke="#14261b" stroke-width="1.2"/>
<line x1="404.6" y1="416.0" x2="366.6" y2="416.0" stroke="#14261b" stroke-width="1.2"/>
<line x1="404.6" y1="416.0" x2="371.7" y2="397.0" stroke="#14261b" stroke-width="1.2"/>
<line x1="404.6" y1="416.0" x2="385.6" y2="383.1" stroke="#14261b" stroke-width="1.2"/>
<line x1="404.6" y1="416.0" x2="404.6" y2="378.0" stroke="#14261b" stroke-width="1.2"/>
<line x1="404.6" y1="416.0" x2="423.6" y2="383.1" stroke="#14261b" stroke-width="1.2"/>
<line x1="404.6" y1="416.0" x2="437.6" y2="397.0" stroke="#14261b" stroke-width="1.2"/>
<circle cx="310.8" cy="600.0" r="46" fill="#e7d8bf" stroke="#14261b" stroke-width="2.5"/>
<circle cx="310.8" cy="600.0" r="18" fill="#f0a04a" stroke="#14261b" stroke-width="2"/>
<rect x="353.8" y="626.2" width="78.0" height="58.0" rx="4" fill="#c99a63" stroke="#14261b" stroke-width="2.5"/>
<rect x="307.8" y="787.8" width="88.0" height="66.0" rx="4" fill="#c99a63" stroke="#14261b" stroke-width="2.5"/>
<rect x="182.2" y="296.0" width="66.0" height="56.0" rx="4" fill="#c79a5f" stroke="#14261b" stroke-width="2.5"/>
<rect x="368.3" y="865.4" width="90.0" height="58.0" rx="4" fill="#e0a45a" stroke="#14261b" stroke-width="2.5"/>
<line x1="413.3" y1="865.4" x2="413.3" y2="923.4" stroke="#fff" stroke-width="2"/>
<circle cx="413.3" cy="894.4" r="12" fill="none" stroke="#fff" stroke-width="2"/>
<rect x="142.9" y="233.4" width="42.0" height="34.0" rx="4" fill="#cdbcda" stroke="#14261b" stroke-width="2.5"/>
</g>
<polygon points="169.0,140.0 481.6,140.0 471.7,999.0 140.0,1060.0" fill="none" stroke="#14261b" stroke-width="6" stroke-linejoin="round"/>
<circle cx="194.7" cy="949.6" r="15" fill="#fff" stroke="#14261b" stroke-width="2"/>
<text x="194.7" y="955.6" font-size="17" fill="#12261a" text-anchor="middle" font-weight="700">1</text>
<circle cx="163.9" cy="250.4" r="15" fill="#fff" stroke="#14261b" stroke-width="2"/>
<text x="163.9" y="256.4" font-size="17" fill="#12261a" text-anchor="middle" font-weight="700">2</text>
<circle cx="215.2" cy="324.0" r="15" fill="#fff" stroke="#14261b" stroke-width="2"/>
<text x="215.2" y="330.0" font-size="17" fill="#12261a" text-anchor="middle" font-weight="700">3</text>
<circle cx="256.2" cy="489.6" r="15" fill="#fff" stroke="#14261b" stroke-width="2"/>
<text x="256.2" y="495.6" font-size="17" fill="#12261a" text-anchor="middle" font-weight="700">4</text>
<circle cx="358.6" cy="416.0" r="15" fill="#fff" stroke="#14261b" stroke-width="2"/>
<text x="358.6" y="422.0" font-size="17" fill="#12261a" text-anchor="middle" font-weight="700">5</text>
<circle cx="310.8" cy="600.0" r="15" fill="#fff" stroke="#14261b" stroke-width="2"/>
<text x="310.8" y="606.0" font-size="17" fill="#12261a" text-anchor="middle" font-weight="700">6</text>
<circle cx="392.8" cy="655.2" r="15" fill="#fff" stroke="#14261b" stroke-width="2"/>
<text x="392.8" y="661.2" font-size="17" fill="#12261a" text-anchor="middle" font-weight="700">7</text>
<circle cx="351.8" cy="820.8" r="15" fill="#fff" stroke="#14261b" stroke-width="2"/>
<text x="351.8" y="826.8" font-size="17" fill="#12261a" text-anchor="middle" font-weight="700">8</text>
<circle cx="413.3" cy="894.4" r="15" fill="#fff" stroke="#14261b" stroke-width="2"/>
<text x="413.3" y="900.4" font-size="17" fill="#12261a" text-anchor="middle" font-weight="700">9</text>
<circle cx="283.5" cy="784.0" r="15" fill="#fff" stroke="#14261b" stroke-width="2"/>
<text x="283.5" y="790.0" font-size="17" fill="#12261a" text-anchor="middle" font-weight="700">10</text>
<circle cx="310.8" cy="204.4" r="15" fill="#fff" stroke="#14261b" stroke-width="2"/>
<text x="310.8" y="210.4" font-size="17" fill="#12261a" text-anchor="middle" font-weight="700">11</text>
<circle cx="169.0" cy="140.0" r="5" fill="#14261b"/>
<text x="177.0" y="132.0" font-size="18" fill="#14261b" font-weight="700">P1</text>
<circle cx="481.6" cy="140.0" r="5" fill="#14261b"/>
<text x="489.6" y="132.0" font-size="18" fill="#14261b" font-weight="700">P2</text>
<circle cx="471.7" cy="999.0" r="5" fill="#14261b"/>
<text x="479.7" y="991.0" font-size="18" fill="#14261b" font-weight="700">P3</text>
<circle cx="140.0" cy="1060.0" r="5" fill="#14261b"/>
<text x="148.0" y="1052.0" font-size="18" fill="#14261b" font-weight="700">P4</text>
<text x="325.3" y="134.0" font-size="20" fill="#0a7d2c" text-anchor="middle" font-weight="700">27.44 m</text>
<text x="476.6" y="563.5" font-size="20" fill="#0a7d2c" text-anchor="middle" font-weight="700">75.38 m</text>
<text x="305.8" y="1023.5" font-size="20" fill="#0a7d2c" text-anchor="middle" font-weight="700">29.59 m</text>
<text x="154.5" y="594.0" font-size="20" fill="#0a7d2c" text-anchor="middle" font-weight="700">80.76 m</text>
<text x="315.6" y="120.0" font-size="22" fill="#1878a0" letter-spacing="3" text-anchor="middle">DARYO</text>
<text x="315.6" y="1100.0" font-size="20" fill="#555" letter-spacing="3" text-anchor="middle">YO‘L</text>
<text x="20" y="34" font-size="24" fill="#12261a" font-weight="800">54-LOT — 0.22 ga (22 sotix)</text>
<text x="20" y="60" font-size="15" fill="#555">Perimetr: 213.2 m · ControlNet uchun asos plan</text>
</svg>