<svg xmlns="http://www.w3.org/2000/svg" width="1200" height="1200" viewBox="0 0 1200 1200" font-family="Arial, sans-serif">
<rect width="1200" height="1200" fill="#ffffff"/>
<rect x="0" y="0" width="1200" height="140" fill="#bfe0ea"/>
<clipPath id="lot"><polygon points="279.6,1049.3 140.0,164.1 481.5,140.0 534.7,1060.0"/></clipPath>
<polygon points="279.6,1049.3 140.0,164.1 481.5,140.0 534.7,1060.0" fill="#cfe8bf"/>
<g clip-path="url(#lot)">
<path d="M245.9,408.9 Q321.1,711.5 356.2,1014.0" stroke="#e8ddc2" stroke-width="14" fill="none" stroke-linecap="round"/>
<path d="M245.9,408.9 Q395.8,670.2 505.8,931.6" stroke="#e8ddc2" stroke-width="14" fill="none" stroke-linecap="round"/>
<path d="M245.9,408.9 Q257.2,480.3 228.5,551.7" stroke="#e8ddc2" stroke-width="14" fill="none" stroke-linecap="round"/>
<path d="M245.9,408.9 Q319.9,489.4 353.9,569.9" stroke="#e8ddc2" stroke-width="14" fill="none" stroke-linecap="round"/>
<path d="M245.9,408.9 Q360.9,369.7 435.8,330.4" stroke="#e8ddc2" stroke-width="14" fill="none" stroke-linecap="round"/>
<path d="M245.9,408.9 Q265.9,408.9 245.9,408.9" stroke="#e8ddc2" stroke-width="14" fill="none" stroke-linecap="round"/>
<path d="M245.9,408.9 Q365.5,586.0 445.1,763.1" stroke="#e8ddc2" stroke-width="14" fill="none" stroke-linecap="round"/>
<path d="M245.9,408.9 Q264.5,603.6 243.1,798.3" stroke="#e8ddc2" stroke-width="14" fill="none" stroke-linecap="round"/>
<path d="M245.9,408.9 Q303.1,645.4 320.3,881.9" stroke="#e8ddc2" stroke-width="14" fill="none" stroke-linecap="round"/>
<path d="M245.9,408.9 Q322.1,549.6 358.3,690.2" stroke="#e8ddc2" stroke-width="14" fill="none" stroke-linecap="round"/>
<path d="M245.9,408.9 Q317.1,311.0 348.3,213.1" stroke="#e8ddc2" stroke-width="14" fill="none" stroke-linecap="round"/>
<circle cx="168.6" cy="567.0" r="11.6" fill="#7cb56a" stroke="#14261b" stroke-width="1.5"/>
<circle cx="162.9" cy="593.2" r="9.3" fill="#7cb56a" stroke="#14261b" stroke-width="1.5"/>
<circle cx="311.2" cy="995.7" r="9.6" fill="#7cb56a" stroke="#14261b" stroke-width="1.5"/>
<circle cx="307.6" cy="299.3" r="10.6" fill="#7cb56a" stroke="#14261b" stroke-width="1.5"/>
<circle cx="387.6" cy="188.1" r="13.0" fill="#7cb56a" stroke="#14261b" stroke-width="1.5"/>
<circle cx="296.6" cy="161.8" r="9.3" fill="#7cb56a" stroke="#14261b" stroke-width="1.5"/>
<circle cx="478.8" cy="793.6" r="9.8" fill="#7cb56a" stroke="#14261b" stroke-width="1.5"/>
<circle cx="356.2" cy="1002.2" r="9.4" fill="#7cb56a" stroke="#14261b" stroke-width="1.5"/>
<circle cx="485.4" cy="388.9" r="11.0" fill="#7cb56a" stroke="#14261b" stroke-width="1.5"/>
<circle cx="526.9" cy="951.4" r="11.9" fill="#7cb56a" stroke="#14261b" stroke-width="1.5"/>
<circle cx="155.5" cy="445.2" r="14.4" fill="#7cb56a" stroke="#14261b" stroke-width="1.5"/>
<circle cx="366.2" cy="254.6" r="11.2" fill="#7cb56a" stroke="#14261b" stroke-width="1.5"/>
<circle cx="327.1" cy="449.0" r="13.9" fill="#7cb56a" stroke="#14261b" stroke-width="1.5"/>
<circle cx="395.4" cy="146.4" r="14.8" fill="#7cb56a" stroke="#14261b" stroke-width="1.5"/>
<circle cx="148.9" cy="635.2" r="10.2" fill="#7cb56a" stroke="#14261b" stroke-width="1.5"/>
<circle cx="186.2" cy="1005.8" r="14.4" fill="#7cb56a" stroke="#14261b" stroke-width="1.5"/>
<circle cx="191.0" cy="832.2" r="11.7" fill="#7cb56a" stroke="#14261b" stroke-width="1.5"/>
<circle cx="483.9" cy="985.9" r="12.1" fill="#7cb56a" stroke="#14261b" stroke-width="1.5"/>
<circle cx="356.9" cy="247.3" r="14.7" fill="#7cb56a" stroke="#14261b" stroke-width="1.5"/>
<circle cx="481.0" cy="803.9" r="11.9" fill="#7cb56a" stroke="#14261b" stroke-width="1.5"/>
<circle cx="281.6" cy="246.5" r="15.7" fill="#7cb56a" stroke="#14261b" stroke-width="1.5"/>
<circle cx="243.7" cy="1056.2" r="11.9" fill="#7cb56a" stroke="#14261b" stroke-width="1.5"/>
<circle cx="406.9" cy="1010.3" r="15.3" fill="#7cb56a" stroke="#14261b" stroke-width="1.5"/>
<circle cx="447.8" cy="255.4" r="14.6" fill="#7cb56a" stroke="#14261b" stroke-width="1.5"/>
<circle cx="294.9" cy="692.9" r="13.4" fill="#7cb56a" stroke="#14261b" stroke-width="1.5"/>
<circle cx="164.6" cy="998.0" r="10.5" fill="#7cb56a" stroke="#14261b" stroke-width="1.5"/>
<circle cx="204.1" cy="747.2" r="9.0" fill="#7cb56a" stroke="#14261b" stroke-width="1.5"/>
<circle cx="199.7" cy="966.7" r="11.5" fill="#7cb56a" stroke="#14261b" stroke-width="1.5"/>
<circle cx="150.1" cy="255.6" r="13.3" fill="#7cb56a" stroke="#14261b" stroke-width="1.5"/>
<circle cx="283.7" cy="947.0" r="14.9" fill="#7cb56a" stroke="#14261b" stroke-width="1.5"/>
<circle cx="532.0" cy="631.3" r="12.4" fill="#7cb56a" stroke="#14261b" stroke-width="1.5"/>
<circle cx="173.9" cy="966.0" r="11.4" fill="#7cb56a" stroke="#14261b" stroke-width="1.5"/>
<circle cx="149.1" cy="185.1" r="12.7" fill="#7cb56a" stroke="#14261b" stroke-width="1.5"/>
<circle cx="197.9" cy="560.3" r="12.7" fill="#7cb56a" stroke="#14261b" stroke-width="1.5"/>
<circle cx="526.2" cy="265.7" r="13.9" fill="#7cb56a" stroke="#14261b" stroke-width="1.5"/>
<circle cx="528.7" cy="275.6" r="14.6" fill="#7cb56a" stroke="#14261b" stroke-width="1.5"/>
<circle cx="344.3" cy="732.9" r="9.2" fill="#7cb56a" stroke="#14261b" stroke-width="1.5"/>
<circle cx="517.5" cy="648.6" r="15.6" fill="#7cb56a" stroke="#14261b" stroke-width="1.5"/>
<rect x="187.4" y="138.0" width="300.0" height="30" fill="#c79a5f" stroke="#14261b" stroke-width="2.5"/>
<rect x="296.2" y="954.0" width="120.0" height="120.0" rx="4" fill="#d9dcd7" stroke="#14261b" stroke-width="2.5"/>
<rect x="304.2" y="985.0" width="34" height="58" rx="5" fill="#dfe3de" stroke="#14261b" stroke-width="2"/>
<rect x="332.2" y="985.0" width="34" height="58" rx="5" fill="#dfe3de" stroke="#14261b" stroke-width="2"/>
<rect x="360.2" y="985.0" width="34" height="58" rx="5" fill="#dfe3de" stroke="#14261b" stroke-width="2"/>
<rect x="388.2" y="985.0" width="34" height="58" rx="5" fill="#dfe3de" stroke="#14261b" stroke-width="2"/>
<rect x="289.9" y="534.9" width="128.0" height="70.0" rx="4" fill="#c79a5f" stroke="#14261b" stroke-width="2.5"/>
<rect x="301.9" y="546.9" width="104" height="46" rx="8" fill="#5cc0dd" stroke="#14261b" stroke-width="2"/>
<circle cx="389.8" cy="330.4" r="38" fill="#ececdd" stroke="#14261b" stroke-width="2.5"/>
<line x1="389.8" y1="330.4" x2="427.8" y2="330.4" stroke="#14261b" stroke-width="1.2"/>
<line x1="389.8" y1="330.4" x2="422.7" y2="349.4" stroke="#14261b" stroke-width="1.2"/>
<line x1="389.8" y1="330.4" x2="408.8" y2="363.3" stroke="#14261b" stroke-width="1.2"/>
<line x1="389.8" y1="330.4" x2="389.8" y2="368.4" stroke="#14261b" stroke-width="1.2"/>
<line x1="389.8" y1="330.4" x2="370.8" y2="363.3" stroke="#14261b" stroke-width="1.2"/>
<line x1="389.8" y1="330.4" x2="356.9" y2="349.4" stroke="#14261b" stroke-width="1.2"/>
<line x1="389.8" y1="330.4" x2="351.8" y2="330.4" stroke="#14261b" stroke-width="1.2"/>
<line x1="389.8" y1="330.4" x2="356.9" y2="311.4" stroke="#14261b" stroke-width="1.2"/>
<line x1="389.8" y1="330.4" x2="370.8" y2="297.5" stroke="#14261b" stroke-width="1.2"/>
<line x1="389.8" y1="330.4" x2="389.8" y2="292.4" stroke="#14261b" stroke-width="1.2"/>
<line x1="389.8" y1="330.4" x2="408.8" y2="297.5" stroke="#14261b" stroke-width="1.2"/>
<line x1="389.8" y1="330.4" x2="422.7" y2="311.4" stroke="#14261b" stroke-width="1.2"/>
<circle cx="481.8" cy="330.4" r="38" fill="#ececdd" stroke="#14261b" stroke-width="2.5"/>
<line x1="481.8" y1="330.4" x2="519.8" y2="330.4" stroke="#14261b" stroke-width="1.2"/>
<line x1="481.8" y1="330.4" x2="514.7" y2="349.4" stroke="#14261b" stroke-width="1.2"/>
<line x1="481.8" y1="330.4" x2="500.8" y2="363.3" stroke="#14261b" stroke-width="1.2"/>
<line x1="481.8" y1="330.4" x2="481.8" y2="368.4" stroke="#14261b" stroke-width="1.2"/>
<line x1="481.8" y1="330.4" x2="462.8" y2="363.3" stroke="#14261b" stroke-width="1.2"/>
<line x1="481.8" y1="330.4" x2="448.9" y2="349.4" stroke="#14261b" stroke-width="1.2"/>
<line x1="481.8" y1="330.4" x2="443.8" y2="330.4" stroke="#14261b" stroke-width="1.2"/>
<line x1="481.8" y1="330.4" x2="448.9" y2="311.4" stroke="#14261b" stroke-width="1.2"/>
<line x1="481.8" y1="330.4" x2="462.8" y2="297.5" stroke="#14261b" stroke-width="1.2"/>
<line x1="481.8" y1="330.4" x2="481.8" y2="292.4" stroke="#14261b" stroke-width="1.2"/>
<line x1="481.8" y1="330.4" x2="500.8" y2="297.5" stroke="#14261b" stroke-width="1.2"/>
<line x1="481.8" y1="330.4" x2="514.7" y2="311.4" stroke="#14261b" stroke-width="1.2"/>
<circle cx="245.9" cy="408.9" r="46" fill="#e7d8bf" stroke="#14261b" stroke-width="2.5"/>
<circle cx="245.9" cy="408.9" r="18" fill="#f0a04a" stroke="#14261b" stroke-width="2"/>
<rect x="406.1" y="734.1" width="78.0" height="58.0" rx="4" fill="#c99a63" stroke="#14261b" stroke-width="2.5"/>
<rect x="199.1" y="765.3" width="88.0" height="66.0" rx="4" fill="#c99a63" stroke="#14261b" stroke-width="2.5"/>
<rect x="195.5" y="523.7" width="66.0" height="56.0" rx="4" fill="#c79a5f" stroke="#14261b" stroke-width="2.5"/>
<rect x="275.3" y="852.9" width="90.0" height="58.0" rx="4" fill="#e0a45a" stroke="#14261b" stroke-width="2.5"/>
<line x1="320.3" y1="852.9" x2="320.3" y2="910.9" stroke="#fff" stroke-width="2"/>
<circle cx="320.3" cy="881.9" r="12" fill="none" stroke="#fff" stroke-width="2"/>
<rect x="484.8" y="914.6" width="42.0" height="34.0" rx="4" fill="#cdbcda" stroke="#14261b" stroke-width="2.5"/>
</g>
<polygon points="279.6,1049.3 140.0,164.1 481.5,140.0 534.7,1060.0" fill="none" stroke="#14261b" stroke-width="6" stroke-linejoin="round"/>
<circle cx="356.2" cy="1014.0" r="15" fill="#fff" stroke="#14261b" stroke-width="2"/>
<text x="356.2" y="1020.0" font-size="17" fill="#12261a" text-anchor="middle" font-weight="700">1</text>
<circle cx="505.8" cy="931.6" r="15" fill="#fff" stroke="#14261b" stroke-width="2"/>
<text x="505.8" y="937.6" font-size="17" fill="#12261a" text-anchor="middle" font-weight="700">2</text>
<circle cx="228.5" cy="551.7" r="15" fill="#fff" stroke="#14261b" stroke-width="2"/>
<text x="228.5" y="557.7" font-size="17" fill="#12261a" text-anchor="middle" font-weight="700">3</text>
<circle cx="353.9" cy="569.9" r="15" fill="#fff" stroke="#14261b" stroke-width="2"/>
<text x="353.9" y="575.9" font-size="17" fill="#12261a" text-anchor="middle" font-weight="700">4</text>
<circle cx="435.8" cy="330.4" r="15" fill="#fff" stroke="#14261b" stroke-width="2"/>
<text x="435.8" y="336.4" font-size="17" fill="#12261a" text-anchor="middle" font-weight="700">5</text>
<circle cx="245.9" cy="408.9" r="15" fill="#fff" stroke="#14261b" stroke-width="2"/>
<text x="245.9" y="414.9" font-size="17" fill="#12261a" text-anchor="middle" font-weight="700">6</text>
<circle cx="445.1" cy="763.1" r="15" fill="#fff" stroke="#14261b" stroke-width="2"/>
<text x="445.1" y="769.1" font-size="17" fill="#12261a" text-anchor="middle" font-weight="700">7</text>
<circle cx="243.1" cy="798.3" r="15" fill="#fff" stroke="#14261b" stroke-width="2"/>
<text x="243.1" y="804.3" font-size="17" fill="#12261a" text-anchor="middle" font-weight="700">8</text>
<circle cx="320.3" cy="881.9" r="15" fill="#fff" stroke="#14261b" stroke-width="2"/>
<text x="320.3" y="887.9" font-size="17" fill="#12261a" text-anchor="middle" font-weight="700">9</text>
<circle cx="358.3" cy="690.2" r="15" fill="#fff" stroke="#14261b" stroke-width="2"/>
<text x="358.3" y="696.2" font-size="17" fill="#12261a" text-anchor="middle" font-weight="700">10</text>
<circle cx="348.3" cy="213.1" r="15" fill="#fff" stroke="#14261b" stroke-width="2"/>
<text x="348.3" y="219.1" font-size="17" fill="#12261a" text-anchor="middle" font-weight="700">11</text>
</svg>