<svg xmlns="http://www.w3.org/2000/svg" width="1200" height="1200" viewBox="0 0 1200 1200" font-family="Arial, sans-serif">
<rect width="1200" height="1200" fill="#ffffff"/>
<rect x="0" y="0" width="1200" height="140" fill="#bfe0ea"/>
<clipPath id="lot"><polygon points="580.3,140.0 611.1,140.0 996.2,547.4 1046.9,699.5 668.8,1060.0 140.0,545.6 240.8,311.3 520.0,140.0"/></clipPath>
<polygon points="580.3,140.0 611.1,140.0 996.2,547.4 1046.9,699.5 668.8,1060.0 140.0,545.6 240.8,311.3 520.0,140.0" fill="#cfe8bf"/>
<g clip-path="url(#lot)">
<path d="M593.4,600.0 Q459.3,774.8 285.1,949.6" stroke="#e8ddc2" stroke-width="14" fill="none" stroke-linecap="round"/>
<path d="M593.4,600.0 Q418.5,425.2 203.5,250.4" stroke="#e8ddc2" stroke-width="14" fill="none" stroke-linecap="round"/>
<path d="M593.4,600.0 Q486.5,462.0 339.5,324.0" stroke="#e8ddc2" stroke-width="14" fill="none" stroke-linecap="round"/>
<path d="M593.4,600.0 Q540.9,544.8 448.3,489.6" stroke="#e8ddc2" stroke-width="14" fill="none" stroke-linecap="round"/>
<path d="M593.4,600.0 Q676.9,508.0 720.4,416.0" stroke="#e8ddc2" stroke-width="14" fill="none" stroke-linecap="round"/>
<path d="M593.4,600.0 Q613.4,600.0 593.4,600.0" stroke="#e8ddc2" stroke-width="14" fill="none" stroke-linecap="round"/>
<path d="M593.4,600.0 Q722.3,627.6 811.1,655.2" stroke="#e8ddc2" stroke-width="14" fill="none" stroke-linecap="round"/>
<path d="M593.4,600.0 Q667.9,710.4 702.3,820.8" stroke="#e8ddc2" stroke-width="14" fill="none" stroke-linecap="round"/>
<path d="M593.4,600.0 Q749.5,747.2 865.5,894.4" stroke="#e8ddc2" stroke-width="14" fill="none" stroke-linecap="round"/>
<path d="M593.4,600.0 Q577.2,692.0 520.9,784.0" stroke="#e8ddc2" stroke-width="14" fill="none" stroke-linecap="round"/>
<path d="M593.4,600.0 Q613.4,402.2 593.4,204.4" stroke="#e8ddc2" stroke-width="14" fill="none" stroke-linecap="round"/>
<circle cx="968.7" cy="528.3" r="13.8" fill="#7cb56a" stroke="#14261b" stroke-width="1.5"/>
<circle cx="733.7" cy="488.9" r="14.5" fill="#7cb56a" stroke="#14261b" stroke-width="1.5"/>
<circle cx="169.9" cy="262.5" r="14.9" fill="#7cb56a" stroke="#14261b" stroke-width="1.5"/>
<circle cx="253.4" cy="443.6" r="9.9" fill="#7cb56a" stroke="#14261b" stroke-width="1.5"/>
<circle cx="968.2" cy="426.3" r="15.9" fill="#7cb56a" stroke="#14261b" stroke-width="1.5"/>
<circle cx="188.5" cy="767.6" r="13.3" fill="#7cb56a" stroke="#14261b" stroke-width="1.5"/>
<circle cx="907.7" cy="782.7" r="13.7" fill="#7cb56a" stroke="#14261b" stroke-width="1.5"/>
<circle cx="498.1" cy="1040.1" r="9.9" fill="#7cb56a" stroke="#14261b" stroke-width="1.5"/>
<circle cx="734.1" cy="763.9" r="9.5" fill="#7cb56a" stroke="#14261b" stroke-width="1.5"/>
<circle cx="175.9" cy="266.5" r="15.1" fill="#7cb56a" stroke="#14261b" stroke-width="1.5"/>
<circle cx="821.4" cy="959.4" r="13.6" fill="#7cb56a" stroke="#14261b" stroke-width="1.5"/>
<circle cx="255.8" cy="242.1" r="13.6" fill="#7cb56a" stroke="#14261b" stroke-width="1.5"/>
<circle cx="909.4" cy="175.3" r="10.7" fill="#7cb56a" stroke="#14261b" stroke-width="1.5"/>
<circle cx="391.2" cy="234.3" r="11.3" fill="#7cb56a" stroke="#14261b" stroke-width="1.5"/>
<circle cx="978.5" cy="710.6" r="15.2" fill="#7cb56a" stroke="#14261b" stroke-width="1.5"/>
<circle cx="289.0" cy="1031.5" r="10.3" fill="#7cb56a" stroke="#14261b" stroke-width="1.5"/>
<circle cx="744.5" cy="1000.8" r="10.7" fill="#7cb56a" stroke="#14261b" stroke-width="1.5"/>
<circle cx="347.1" cy="438.0" r="16.0" fill="#7cb56a" stroke="#14261b" stroke-width="1.5"/>
<circle cx="591.5" cy="167.0" r="15.3" fill="#7cb56a" stroke="#14261b" stroke-width="1.5"/>
<circle cx="885.4" cy="1032.5" r="13.1" fill="#7cb56a" stroke="#14261b" stroke-width="1.5"/>
<circle cx="994.0" cy="472.8" r="12.6" fill="#7cb56a" stroke="#14261b" stroke-width="1.5"/>
<circle cx="850.7" cy="994.0" r="12.6" fill="#7cb56a" stroke="#14261b" stroke-width="1.5"/>
<circle cx="976.1" cy="226.3" r="11.2" fill="#7cb56a" stroke="#14261b" stroke-width="1.5"/>
<circle cx="892.3" cy="260.6" r="11.0" fill="#7cb56a" stroke="#14261b" stroke-width="1.5"/>
<circle cx="570.1" cy="993.7" r="12.5" fill="#7cb56a" stroke="#14261b" stroke-width="1.5"/>
<circle cx="992.5" cy="300.1" r="9.4" fill="#7cb56a" stroke="#14261b" stroke-width="1.5"/>
<circle cx="164.3" cy="360.9" r="10.4" fill="#7cb56a" stroke="#14261b" stroke-width="1.5"/>
<circle cx="296.2" cy="261.8" r="10.6" fill="#7cb56a" stroke="#14261b" stroke-width="1.5"/>
<circle cx="931.5" cy="587.3" r="10.0" fill="#7cb56a" stroke="#14261b" stroke-width="1.5"/>
<circle cx="734.1" cy="571.6" r="14.8" fill="#7cb56a" stroke="#14261b" stroke-width="1.5"/>
<circle cx="385.7" cy="1038.0" r="14.4" fill="#7cb56a" stroke="#14261b" stroke-width="1.5"/>
<rect x="248.8" y="138.0" width="689.2" height="30" fill="#c79a5f" stroke="#14261b" stroke-width="2.5"/>
<rect x="225.1" y="889.6" width="120.0" height="120.0" rx="4" fill="#d9dcd7" stroke="#14261b" stroke-width="2.5"/>
<rect x="233.1" y="920.6" width="34" height="58" rx="5" fill="#dfe3de" stroke="#14261b" stroke-width="2"/>
<rect x="261.1" y="920.6" width="34" height="58" rx="5" fill="#dfe3de" stroke="#14261b" stroke-width="2"/>
<rect x="289.1" y="920.6" width="34" height="58" rx="5" fill="#dfe3de" stroke="#14261b" stroke-width="2"/>
<rect x="317.1" y="920.6" width="34" height="58" rx="5" fill="#dfe3de" stroke="#14261b" stroke-width="2"/>
<rect x="384.3" y="454.6" width="128.0" height="70.0" rx="4" fill="#c79a5f" stroke="#14261b" stroke-width="2.5"/>
<rect x="396.3" y="466.6" width="104" height="46" rx="8" fill="#5cc0dd" stroke="#14261b" stroke-width="2"/>
<circle cx="674.4" cy="416.0" r="38" fill="#ececdd" stroke="#14261b" stroke-width="2.5"/>
<line x1="674.4" y1="416.0" x2="712.4" y2="416.0" stroke="#14261b" stroke-width="1.2"/>
<line x1="674.4" y1="416.0" x2="707.3" y2="435.0" stroke="#14261b" stroke-width="1.2"/>
<line x1="674.4" y1="416.0" x2="693.4" y2="448.9" stroke="#14261b" stroke-width="1.2"/>
<line x1="674.4" y1="416.0" x2="674.4" y2="454.0" stroke="#14261b" stroke-width="1.2"/>
<line x1="674.4" y1="416.0" x2="655.4" y2="448.9" stroke="#14261b" stroke-width="1.2"/>
<line x1="674.4" y1="416.0" x2="641.5" y2="435.0" stroke="#14261b" stroke-width="1.2"/>
<line x1="674.4" y1="416.0" x2="636.4" y2="416.0" stroke="#14261b" stroke-width="1.2"/>
<line x1="674.4" y1="416.0" x2="641.5" y2="397.0" stroke="#14261b" stroke-width="1.2"/>
<line x1="674.4" y1="416.0" x2="655.4" y2="383.1" stroke="#14261b" stroke-width="1.2"/>
<line x1="674.4" y1="416.0" x2="674.4" y2="378.0" stroke="#14261b" stroke-width="1.2"/>
<line x1="674.4" y1="416.0" x2="693.4" y2="383.1" stroke="#14261b" stroke-width="1.2"/>
<line x1="674.4" y1="416.0" x2="707.3" y2="397.0" stroke="#14261b" stroke-width="1.2"/>
<circle cx="766.4" cy="416.0" r="38" fill="#ececdd" stroke="#14261b" stroke-width="2.5"/>
<line x1="766.4" y1="416.0" x2="804.4" y2="416.0" stroke="#14261b" stroke-width="1.2"/>
<line x1="766.4" y1="416.0" x2="799.3" y2="435.0" stroke="#14261b" stroke-width="1.2"/>
<line x1="766.4" y1="416.0" x2="785.4" y2="448.9" stroke="#14261b" stroke-width="1.2"/>
<line x1="766.4" y1="416.0" x2="766.4" y2="454.0" stroke="#14261b" stroke-width="1.2"/>
<line x1="766.4" y1="416.0" x2="747.4" y2="448.9" stroke="#14261b" stroke-width="1.2"/>
<line x1="766.4" y1="416.0" x2="733.5" y2="435.0" stroke="#14261b" stroke-width="1.2"/>
<line x1="766.4" y1="416.0" x2="728.4" y2="416.0" stroke="#14261b" stroke-width="1.2"/>
<line x1="766.4" y1="416.0" x2="733.5" y2="397.0" stroke="#14261b" stroke-width="1.2"/>
<line x1="766.4" y1="416.0" x2="747.4" y2="383.1" stroke="#14261b" stroke-width="1.2"/>
<line x1="766.4" y1="416.0" x2="766.4" y2="378.0" stroke="#14261b" stroke-width="1.2"/>
<line x1="766.4" y1="416.0" x2="785.4" y2="383.1" stroke="#14261b" stroke-width="1.2"/>
<line x1="766.4" y1="416.0" x2="799.3" y2="397.0" stroke="#14261b" stroke-width="1.2"/>
<circle cx="593.4" cy="600.0" r="46" fill="#e7d8bf" stroke="#14261b" stroke-width="2.5"/>
<circle cx="593.4" cy="600.0" r="18" fill="#f0a04a" stroke="#14261b" stroke-width="2"/>
<rect x="772.1" y="626.2" width="78.0" height="58.0" rx="4" fill="#c99a63" stroke="#14261b" stroke-width="2.5"/>
<rect x="658.3" y="787.8" width="88.0" height="66.0" rx="4" fill="#c99a63" stroke="#14261b" stroke-width="2.5"/>
<rect x="306.5" y="296.0" width="66.0" height="56.0" rx="4" fill="#c79a5f" stroke="#14261b" stroke-width="2.5"/>
<rect x="820.5" y="865.4" width="90.0" height="58.0" rx="4" fill="#e0a45a" stroke="#14261b" stroke-width="2.5"/>
<line x1="865.5" y1="865.4" x2="865.5" y2="923.4" stroke="#fff" stroke-width="2"/>
<circle cx="865.5" cy="894.4" r="12" fill="none" stroke="#fff" stroke-width="2"/>
<rect x="182.5" y="233.4" width="42.0" height="34.0" rx="4" fill="#cdbcda" stroke="#14261b" stroke-width="2.5"/>
</g>
<polygon points="580.3,140.0 611.1,140.0 996.2,547.4 1046.9,699.5 668.8,1060.0 140.0,545.6 240.8,311.3 520.0,140.0" fill="none" stroke="#14261b" stroke-width="6" stroke-linejoin="round"/>
<circle cx="285.1" cy="949.6" r="15" fill="#fff" stroke="#14261b" stroke-width="2"/>
<text x="285.1" y="955.6" font-size="17" fill="#12261a" text-anchor="middle" font-weight="700">1</text>
<circle cx="203.5" cy="250.4" r="15" fill="#fff" stroke="#14261b" stroke-width="2"/>
<text x="203.5" y="256.4" font-size="17" fill="#12261a" text-anchor="middle" font-weight="700">2</text>
<circle cx="339.5" cy="324.0" r="15" fill="#fff" stroke="#14261b" stroke-width="2"/>
<text x="339.5" y="330.0" font-size="17" fill="#12261a" text-anchor="middle" font-weight="700">3</text>
<circle cx="448.3" cy="489.6" r="15" fill="#fff" stroke="#14261b" stroke-width="2"/>
<text x="448.3" y="495.6" font-size="17" fill="#12261a" text-anchor="middle" font-weight="700">4</text>
<circle cx="720.4" cy="416.0" r="15" fill="#fff" stroke="#14261b" stroke-width="2"/>
<text x="720.4" y="422.0" font-size="17" fill="#12261a" text-anchor="middle" font-weight="700">5</text>
<circle cx="593.4" cy="600.0" r="15" fill="#fff" stroke="#14261b" stroke-width="2"/>
<text x="593.4" y="606.0" font-size="17" fill="#12261a" text-anchor="middle" font-weight="700">6</text>
<circle cx="811.1" cy="655.2" r="15" fill="#fff" stroke="#14261b" stroke-width="2"/>
<text x="811.1" y="661.2" font-size="17" fill="#12261a" text-anchor="middle" font-weight="700">7</text>
<circle cx="702.3" cy="820.8" r="15" fill="#fff" stroke="#14261b" stroke-width="2"/>
<text x="702.3" y="826.8" font-size="17" fill="#12261a" text-anchor="middle" font-weight="700">8</text>
<circle cx="865.5" cy="894.4" r="15" fill="#fff" stroke="#14261b" stroke-width="2"/>
<text x="865.5" y="900.4" font-size="17" fill="#12261a" text-anchor="middle" font-weight="700">9</text>
<circle cx="520.9" cy="784.0" r="15" fill="#fff" stroke="#14261b" stroke-width="2"/>
<text x="520.9" y="790.0" font-size="17" fill="#12261a" text-anchor="middle" font-weight="700">10</text>
<circle cx="593.4" cy="204.4" r="15" fill="#fff" stroke="#14261b" stroke-width="2"/>
<text x="593.4" y="210.4" font-size="17" fill="#12261a" text-anchor="middle" font-weight="700">11</text>
<circle cx="580.3" cy="140.0" r="5" fill="#14261b"/>
<text x="588.3" y="132.0" font-size="18" fill="#14261b" font-weight="700">P1</text>
<circle cx="611.1" cy="140.0" r="5" fill="#14261b"/>
<text x="619.1" y="132.0" font-size="18" fill="#14261b" font-weight="700">P2</text>
<circle cx="996.2" cy="547.4" r="5" fill="#14261b"/>
<text x="1004.2" y="539.4" font-size="18" fill="#14261b" font-weight="700">P3</text>
<circle cx="1046.9" cy="699.5" r="5" fill="#14261b"/>
<text x="1054.9" y="691.5" font-size="18" fill="#14261b" font-weight="700">P4</text>
<circle cx="668.8" cy="1060.0" r="5" fill="#14261b"/>
<text x="676.8" y="1052.0" font-size="18" fill="#14261b" font-weight="700">P5</text>
<circle cx="140.0" cy="545.6" r="5" fill="#14261b"/>
<text x="148.0" y="537.6" font-size="18" fill="#14261b" font-weight="700">P6</text>
<circle cx="240.8" cy="311.3" r="5" fill="#14261b"/>
<text x="248.8" y="303.3" font-size="18" fill="#14261b" font-weight="700">P7</text>
<circle cx="520.0" cy="140.0" r="5" fill="#14261b"/>
<text x="528.0" y="132.0" font-size="18" fill="#14261b" font-weight="700">P8</text>
<text x="595.7" y="134.0" font-size="20" fill="#0a7d2c" text-anchor="middle" font-weight="700">2.29 m</text>
<text x="803.7" y="337.7" font-size="20" fill="#0a7d2c" text-anchor="middle" font-weight="700">41.49 m</text>
<text x="1021.5" y="617.5" font-size="20" fill="#0a7d2c" text-anchor="middle" font-weight="700">11.87 m</text>
<text x="857.9" y="873.8" font-size="20" fill="#0a7d2c" text-anchor="middle" font-weight="700">38.66 m</text>
<text x="404.4" y="796.8" font-size="20" fill="#0a7d2c" text-anchor="middle" font-weight="700">54.61 m</text>
<text x="190.4" y="422.4" font-size="20" fill="#0a7d2c" text-anchor="middle" font-weight="700">18.88 m</text>
<text x="380.4" y="219.7" font-size="20" fill="#0a7d2c" text-anchor="middle" font-weight="700">24.24 m</text>
<text x="550.1" y="134.0" font-size="20" fill="#0a7d2c" text-anchor="middle" font-weight="700">4.46 m</text>
<text x="600.5" y="120.0" font-size="22" fill="#1878a0" letter-spacing="3" text-anchor="middle">DARYO</text>
<text x="600.5" y="1100.0" font-size="20" fill="#555" letter-spacing="3" text-anchor="middle">YO‘L</text>
<text x="20" y="34" font-size="24" fill="#12261a" font-weight="800">41-LOT — 0.26 ga (26 sotix)</text>
<text x="20" y="60" font-size="15" fill="#555">Perimetr: 196.5 m · ControlNet uchun asos plan</text>
</svg>