<svg xmlns="http://www.w3.org/2000/svg" width="1200" height="618" viewBox="0 0 1200 618" font-family="Arial, sans-serif">
<rect width="1200" height="618" fill="#ffffff"/>
<rect x="0" y="0" width="1200" height="140" fill="#bfe0ea"/>
<clipPath id="lot"><polygon points="145.9,139.5 151.5,139.5 158.6,139.5 179.1,139.5 994.6,139.6 1060.0,478.0 190.9,462.0 164.1,461.5 156.5,339.8 140.0,139.5"/></clipPath>
<polygon points="145.9,139.5 151.5,139.5 158.6,139.5 179.1,139.5 994.6,139.6 1060.0,478.0 190.9,462.0 164.1,461.5 156.5,339.8 140.0,139.5" fill="#cfe8bf"/>
<g clip-path="url(#lot)">
<path d="M600.0,308.8 Q463.6,373.1 287.2,437.4" stroke="#e8ddc2" stroke-width="14" fill="none" stroke-linecap="round"/>
<path d="M600.0,308.8 Q422.2,244.5 204.4,180.2" stroke="#e8ddc2" stroke-width="14" fill="none" stroke-linecap="round"/>
<path d="M600.0,308.8 Q491.2,258.0 342.4,207.2" stroke="#e8ddc2" stroke-width="14" fill="none" stroke-linecap="round"/>
<path d="M600.0,308.8 Q546.4,288.5 452.8,268.2" stroke="#e8ddc2" stroke-width="14" fill="none" stroke-linecap="round"/>
<path d="M600.0,308.8 Q684.4,274.9 728.8,241.1" stroke="#e8ddc2" stroke-width="14" fill="none" stroke-linecap="round"/>
<path d="M600.0,308.8 Q620.0,308.8 600.0,308.8" stroke="#e8ddc2" stroke-width="14" fill="none" stroke-linecap="round"/>
<path d="M600.0,308.8 Q730.4,318.9 820.8,329.1" stroke="#e8ddc2" stroke-width="14" fill="none" stroke-linecap="round"/>
<path d="M600.0,308.8 Q675.2,349.4 710.4,390.0" stroke="#e8ddc2" stroke-width="14" fill="none" stroke-linecap="round"/>
<path d="M600.0,308.8 Q758.0,362.9 876.0,417.1" stroke="#e8ddc2" stroke-width="14" fill="none" stroke-linecap="round"/>
<path d="M600.0,308.8 Q583.2,342.6 526.4,376.5" stroke="#e8ddc2" stroke-width="14" fill="none" stroke-linecap="round"/>
<path d="M600.0,308.8 Q620.0,236.0 600.0,163.2" stroke="#e8ddc2" stroke-width="14" fill="none" stroke-linecap="round"/>
<circle cx="1008.5" cy="398.6" r="10.7" fill="#7cb56a" stroke="#14261b" stroke-width="1.5"/>
<circle cx="763.4" cy="182.4" r="14.9" fill="#7cb56a" stroke="#14261b" stroke-width="1.5"/>
<circle cx="338.8" cy="376.8" r="15.8" fill="#7cb56a" stroke="#14261b" stroke-width="1.5"/>
<circle cx="691.9" cy="375.4" r="12.3" fill="#7cb56a" stroke="#14261b" stroke-width="1.5"/>
<circle cx="989.1" cy="428.9" r="13.8" fill="#7cb56a" stroke="#14261b" stroke-width="1.5"/>
<circle cx="581.9" cy="443.7" r="13.9" fill="#7cb56a" stroke="#14261b" stroke-width="1.5"/>
<circle cx="221.6" cy="427.9" r="10.1" fill="#7cb56a" stroke="#14261b" stroke-width="1.5"/>
<circle cx="212.5" cy="258.6" r="12.8" fill="#7cb56a" stroke="#14261b" stroke-width="1.5"/>
<circle cx="327.6" cy="169.9" r="13.4" fill="#7cb56a" stroke="#14261b" stroke-width="1.5"/>
<circle cx="624.6" cy="144.7" r="9.9" fill="#7cb56a" stroke="#14261b" stroke-width="1.5"/>
<circle cx="774.1" cy="178.7" r="12.3" fill="#7cb56a" stroke="#14261b" stroke-width="1.5"/>
<circle cx="417.3" cy="435.3" r="16.0" fill="#7cb56a" stroke="#14261b" stroke-width="1.5"/>
<circle cx="637.9" cy="471.9" r="13.0" fill="#7cb56a" stroke="#14261b" stroke-width="1.5"/>
<circle cx="654.0" cy="322.7" r="14.4" fill="#7cb56a" stroke="#14261b" stroke-width="1.5"/>
<circle cx="946.1" cy="171.7" r="10.1" fill="#7cb56a" stroke="#14261b" stroke-width="1.5"/>
<circle cx="811.8" cy="377.5" r="14.8" fill="#7cb56a" stroke="#14261b" stroke-width="1.5"/>
<circle cx="995.7" cy="221.2" r="14.2" fill="#7cb56a" stroke="#14261b" stroke-width="1.5"/>
<circle cx="1034.9" cy="300.8" r="15.5" fill="#7cb56a" stroke="#14261b" stroke-width="1.5"/>
<circle cx="381.3" cy="452.1" r="14.9" fill="#7cb56a" stroke="#14261b" stroke-width="1.5"/>
<circle cx="782.8" cy="208.4" r="11.1" fill="#7cb56a" stroke="#14261b" stroke-width="1.5"/>
<circle cx="680.3" cy="456.1" r="11.3" fill="#7cb56a" stroke="#14261b" stroke-width="1.5"/>
<circle cx="694.7" cy="160.9" r="14.0" fill="#7cb56a" stroke="#14261b" stroke-width="1.5"/>
<circle cx="822.1" cy="141.0" r="9.1" fill="#7cb56a" stroke="#14261b" stroke-width="1.5"/>
<circle cx="991.5" cy="206.3" r="9.3" fill="#7cb56a" stroke="#14261b" stroke-width="1.5"/>
<circle cx="289.3" cy="431.8" r="13.7" fill="#7cb56a" stroke="#14261b" stroke-width="1.5"/>
<circle cx="542.8" cy="441.8" r="14.9" fill="#7cb56a" stroke="#14261b" stroke-width="1.5"/>
<circle cx="853.7" cy="298.5" r="14.0" fill="#7cb56a" stroke="#14261b" stroke-width="1.5"/>
<circle cx="944.6" cy="177.8" r="15.6" fill="#7cb56a" stroke="#14261b" stroke-width="1.5"/>
<circle cx="289.4" cy="147.7" r="9.7" fill="#7cb56a" stroke="#14261b" stroke-width="1.5"/>
<circle cx="627.3" cy="171.0" r="14.4" fill="#7cb56a" stroke="#14261b" stroke-width="1.5"/>
<circle cx="159.0" cy="259.0" r="15.5" fill="#7cb56a" stroke="#14261b" stroke-width="1.5"/>
<circle cx="315.2" cy="140.8" r="9.1" fill="#7cb56a" stroke="#14261b" stroke-width="1.5"/>
<rect x="250.4" y="137.5" width="699.2" height="30" fill="#c79a5f" stroke="#14261b" stroke-width="2.5"/>
<rect x="227.2" y="377.4" width="120.0" height="120.0" rx="4" fill="#d9dcd7" stroke="#14261b" stroke-width="2.5"/>
<rect x="235.2" y="408.4" width="34" height="58" rx="5" fill="#dfe3de" stroke="#14261b" stroke-width="2"/>
<rect x="263.2" y="408.4" width="34" height="58" rx="5" fill="#dfe3de" stroke="#14261b" stroke-width="2"/>
<rect x="291.2" y="408.4" width="34" height="58" rx="5" fill="#dfe3de" stroke="#14261b" stroke-width="2"/>
<rect x="319.2" y="408.4" width="34" height="58" rx="5" fill="#dfe3de" stroke="#14261b" stroke-width="2"/>
<rect x="388.8" y="233.2" width="128.0" height="70.0" rx="4" fill="#c79a5f" stroke="#14261b" stroke-width="2.5"/>
<rect x="400.8" y="245.2" width="104" height="46" rx="8" fill="#5cc0dd" stroke="#14261b" stroke-width="2"/>
<circle cx="682.8" cy="241.1" r="38" fill="#ececdd" stroke="#14261b" stroke-width="2.5"/>
<line x1="682.8" y1="241.1" x2="720.8" y2="241.1" stroke="#14261b" stroke-width="1.2"/>
<line x1="682.8" y1="241.1" x2="715.7" y2="260.1" stroke="#14261b" stroke-width="1.2"/>
<line x1="682.8" y1="241.1" x2="701.8" y2="274.0" stroke="#14261b" stroke-width="1.2"/>
<line x1="682.8" y1="241.1" x2="682.8" y2="279.1" stroke="#14261b" stroke-width="1.2"/>
<line x1="682.8" y1="241.1" x2="663.8" y2="274.0" stroke="#14261b" stroke-width="1.2"/>
<line x1="682.8" y1="241.1" x2="649.9" y2="260.1" stroke="#14261b" stroke-width="1.2"/>
<line x1="682.8" y1="241.1" x2="644.8" y2="241.1" stroke="#14261b" stroke-width="1.2"/>
<line x1="682.8" y1="241.1" x2="649.9" y2="222.1" stroke="#14261b" stroke-width="1.2"/>
<line x1="682.8" y1="241.1" x2="663.8" y2="208.2" stroke="#14261b" stroke-width="1.2"/>
<line x1="682.8" y1="241.1" x2="682.8" y2="203.1" stroke="#14261b" stroke-width="1.2"/>
<line x1="682.8" y1="241.1" x2="701.8" y2="208.2" stroke="#14261b" stroke-width="1.2"/>
<line x1="682.8" y1="241.1" x2="715.7" y2="222.1" stroke="#14261b" stroke-width="1.2"/>
<circle cx="774.8" cy="241.1" r="38" fill="#ececdd" stroke="#14261b" stroke-width="2.5"/>
<line x1="774.8" y1="241.1" x2="812.8" y2="241.1" stroke="#14261b" stroke-width="1.2"/>
<line x1="774.8" y1="241.1" x2="807.7" y2="260.1" stroke="#14261b" stroke-width="1.2"/>
<line x1="774.8" y1="241.1" x2="793.8" y2="274.0" stroke="#14261b" stroke-width="1.2"/>
<line x1="774.8" y1="241.1" x2="774.8" y2="279.1" stroke="#14261b" stroke-width="1.2"/>
<line x1="774.8" y1="241.1" x2="755.8" y2="274.0" stroke="#14261b" stroke-width="1.2"/>
<line x1="774.8" y1="241.1" x2="741.9" y2="260.1" stroke="#14261b" stroke-width="1.2"/>
<line x1="774.8" y1="241.1" x2="736.8" y2="241.1" stroke="#14261b" stroke-width="1.2"/>
<line x1="774.8" y1="241.1" x2="741.9" y2="222.1" stroke="#14261b" stroke-width="1.2"/>
<line x1="774.8" y1="241.1" x2="755.8" y2="208.2" stroke="#14261b" stroke-width="1.2"/>
<line x1="774.8" y1="241.1" x2="774.8" y2="203.1" stroke="#14261b" stroke-width="1.2"/>
<line x1="774.8" y1="241.1" x2="793.8" y2="208.2" stroke="#14261b" stroke-width="1.2"/>
<line x1="774.8" y1="241.1" x2="807.7" y2="222.1" stroke="#14261b" stroke-width="1.2"/>
<circle cx="600.0" cy="308.8" r="46" fill="#e7d8bf" stroke="#14261b" stroke-width="2.5"/>
<circle cx="600.0" cy="308.8" r="18" fill="#f0a04a" stroke="#14261b" stroke-width="2"/>
<rect x="781.8" y="300.1" width="78.0" height="58.0" rx="4" fill="#c99a63" stroke="#14261b" stroke-width="2.5"/>
<rect x="666.4" y="357.0" width="88.0" height="66.0" rx="4" fill="#c99a63" stroke="#14261b" stroke-width="2.5"/>
<rect x="309.4" y="179.2" width="66.0" height="56.0" rx="4" fill="#c79a5f" stroke="#14261b" stroke-width="2.5"/>
<rect x="831.0" y="388.1" width="90.0" height="58.0" rx="4" fill="#e0a45a" stroke="#14261b" stroke-width="2.5"/>
<line x1="876.0" y1="388.1" x2="876.0" y2="446.1" stroke="#fff" stroke-width="2"/>
<circle cx="876.0" cy="417.1" r="12" fill="none" stroke="#fff" stroke-width="2"/>
<rect x="183.4" y="163.2" width="42.0" height="34.0" rx="4" fill="#cdbcda" stroke="#14261b" stroke-width="2.5"/>
</g>
<polygon points="145.9,139.5 151.5,139.5 158.6,139.5 179.1,139.5 994.6,139.6 1060.0,478.0 190.9,462.0 164.1,461.5 156.5,339.8 140.0,139.5" fill="none" stroke="#14261b" stroke-width="6" stroke-linejoin="round"/>
<circle cx="287.2" cy="437.4" r="15" fill="#fff" stroke="#14261b" stroke-width="2"/>
<text x="287.2" y="443.4" font-size="17" fill="#12261a" text-anchor="middle" font-weight="700">1</text>
<circle cx="204.4" cy="180.2" r="15" fill="#fff" stroke="#14261b" stroke-width="2"/>
<text x="204.4" y="186.2" font-size="17" fill="#12261a" text-anchor="middle" font-weight="700">2</text>
<circle cx="342.4" cy="207.2" r="15" fill="#fff" stroke="#14261b" stroke-width="2"/>
<text x="342.4" y="213.2" font-size="17" fill="#12261a" text-anchor="middle" font-weight="700">3</text>
<circle cx="452.8" cy="268.2" r="15" fill="#fff" stroke="#14261b" stroke-width="2"/>
<text x="452.8" y="274.2" font-size="17" fill="#12261a" text-anchor="middle" font-weight="700">4</text>
<circle cx="728.8" cy="241.1" r="15" fill="#fff" stroke="#14261b" stroke-width="2"/>
<text x="728.8" y="247.1" font-size="17" fill="#12261a" text-anchor="middle" font-weight="700">5</text>
<circle cx="600.0" cy="308.8" r="15" fill="#fff" stroke="#14261b" stroke-width="2"/>
<text x="600.0" y="314.8" font-size="17" fill="#12261a" text-anchor="middle" font-weight="700">6</text>
<circle cx="820.8" cy="329.1" r="15" fill="#fff" stroke="#14261b" stroke-width="2"/>
<text x="820.8" y="335.1" font-size="17" fill="#12261a" text-anchor="middle" font-weight="700">7</text>
<circle cx="710.4" cy="390.0" r="15" fill="#fff" stroke="#14261b" stroke-width="2"/>
<text x="710.4" y="396.0" font-size="17" fill="#12261a" text-anchor="middle" font-weight="700">8</text>
<circle cx="876.0" cy="417.1" r="15" fill="#fff" stroke="#14261b" stroke-width="2"/>
<text x="876.0" y="423.1" font-size="17" fill="#12261a" text-anchor="middle" font-weight="700">9</text>
<circle cx="526.4" cy="376.5" r="15" fill="#fff" stroke="#14261b" stroke-width="2"/>
<text x="526.4" y="382.5" font-size="17" fill="#12261a" text-anchor="middle" font-weight="700">10</text>
<circle cx="600.0" cy="163.2" r="15" fill="#fff" stroke="#14261b" stroke-width="2"/>
<text x="600.0" y="169.2" font-size="17" fill="#12261a" text-anchor="middle" font-weight="700">11</text>
</svg>